<svg width="1392" height="1392" fill="none" xmlns="http://www.w3.org/2000/svg"><circle cx="696" cy="696" r="696" fill="#D2EFF3"/><mask id="a" style="mask-type:alpha" maskUnits="userSpaceOnUse" x="0" y="0" width="1392" height="1392"><circle cx="696" cy="696" r="696" fill="#FFEDEF"/></mask><g mask="url(#a)"><g clip-path="url(#b)"><path d="M893.804 1327.9c-52.75-73.27-94.021-214.91-98.905-285.73L543.972 934.106l-104.4 393.794h454.232Z" fill="#F9C9B6" stroke="#000" stroke-width="14.653"/><mask id="c" style="mask-type:alpha" maskUnits="userSpaceOnUse" x="439" y="934" width="455" height="431"><path d="M893.804 1364.53c-52.75-73.26-94.021-251.54-98.905-322.36L543.972 934.106l-104.4 430.424h454.232Z" fill="#AC6651"/></mask><g mask="url(#c)"><ellipse cx="783.91" cy="926.779" rx="216.126" ry="197.811" fill="#000" style="mix-blend-mode:multiply"/></g><mask id="d" fill="#fff"><path fill-rule="evenodd" clip-rule="evenodd" d="M450.549 846.954c38.839 149.84 190.741 241.556 341.911 205.336 151.171-36.22 245.02-186.813 211.74-337.986l.05-.013-62.238-259.784-.022.006c-37.429-151.821-190.464-245.174-342.759-208.685-152.912 36.636-247.173 190.296-210.536 343.209.24 1.001.485 2 .735 2.996l59.318 247.579a287.153 287.153 0 0 0 1.024 4.275l.737 3.076.04-.009Z"/></mask><path fill-rule="evenodd" clip-rule="evenodd" d="M450.549 846.954c38.839 149.84 190.741 241.556 341.911 205.336 151.171-36.22 245.02-186.813 211.74-337.986l.05-.013-62.238-259.784-.022.006c-37.429-151.821-190.464-245.174-342.759-208.685-152.912 36.636-247.173 190.296-210.536 343.209.24 1.001.485 2 .735 2.996l59.318 247.579a287.153 287.153 0 0 0 1.024 4.275l.737 3.076.04-.009Z" fill="#F9C9B6"/><path d="m450.549 846.954 14.184-3.677-3.609-13.921-13.986 3.348 3.411 14.25ZM792.46 1052.29l3.414 14.25-3.414-14.25Zm211.74-337.986-3.42-14.249-13.985 3.353 3.093 14.047 14.312-3.151Zm.05-.013 3.42 14.249 14.25-3.415-3.42-14.248-14.25 3.414Zm-62.238-259.784 14.249-3.414-3.414-14.249-14.249 3.414 3.414 14.249Zm-.022.006-14.227 3.507 3.485 14.134 14.156-3.392-3.414-14.249ZM599.231 245.828l-3.414-14.25 3.414 14.25ZM388.695 589.037l-14.249 3.414 14.249-3.414Zm.735 2.996 14.249-3.414-.018-.076-.019-.075-14.212 3.565Zm59.318 247.579 14.274-3.306-.012-.054-.013-.054-14.249 3.414Zm1.024 4.275 14.249-3.414-.013-.054-.013-.054-14.223 3.522Zm.737 3.076-14.25 3.414 3.414 14.247 14.247-3.411-3.411-14.25Zm-14.144 3.667c40.84 157.56 200.557 253.99 359.509 215.91l-6.828-28.5c-143.389 34.35-287.474-52.639-324.313-194.763l-28.368 7.353Zm359.509 215.91c158.953-38.09 257.626-196.428 222.636-355.386l-28.622 6.301c31.562 143.386-57.452 286.225-200.842 320.585l6.828 28.5Zm204.966-366.498-.06.013 6.83 28.498.06-.013-6.83-28.498Zm-73.077-242.121 62.241 259.784 28.496-6.828-62.239-259.784-28.498 6.828Zm17.641 10.841.022-.005-6.828-28.499-.022.005 6.828 28.499Zm10.813-17.757c-39.356-159.636-200.267-257.793-360.4-219.427l6.828 28.499c144.456-34.61 289.616 53.938 325.118 197.943l28.454-7.015Zm-360.4-219.427C435.035 270.1 335.924 431.668 374.446 592.451l28.498-6.828c-34.751-145.043 54.659-290.795 199.701-325.546l-6.828-28.499ZM374.446 592.451c.252 1.051.509 2.1.771 3.147l28.425-7.13c-.237-.946-.47-1.895-.698-2.845l-28.498 6.828Zm88.551 243.747-59.318-247.579-28.499 6.828 59.318 247.579 28.499-6.828Zm-28.524 6.721c.173.748.35 1.497.529 2.247l28.499-6.828a313.3 313.3 0 0 1-.479-2.032l-28.549 6.613Zm.529 2.247c.18.749.362 1.496.547 2.242l28.446-7.043c-.167-.675-.332-1.35-.494-2.027l-28.499 6.828Zm29.756-1.617-.737-3.076-28.499 6.828.737 3.076 28.499-6.828Zm-17.62-10.845-.04.009 6.822 28.5.04-.009-6.822-28.5Z" fill="#000" mask="url(#d)"/><path d="M485.229 641.261a1 1 0 1 1-2 0 1 1 0 0 1 2 0ZM537.229 648.261a1 1 0 1 1-2 0 1 1 0 0 1 2 0ZM533.229 655.261a1 1 0 1 1-2 0 1 1 0 0 1 2 0ZM553.229 653.261a1 1 0 1 1-2 0 1 1 0 0 1 2 0ZM554.229 643.261a1 1 0 1 1-2 0 1 1 0 0 1 2 0ZM574.229 648.261a1 1 0 1 1-2 0 1 1 0 0 1 2 0ZM584.229 634.261a1 1 0 1 1-2 0 1 1 0 0 1 2 0ZM475.229 620.261a1 1 0 1 1-2 0 1 1 0 0 1 2 0ZM508.229 636.261a1 1 0 1 1-2 0 1 1 0 0 1 2 0ZM505.229 656.261a1 1 0 1 1-2 0 1 1 0 0 1 2 0ZM523.229 660.261a1 1 0 1 1-2 0 1 1 0 0 1 2 0ZM557.229 634.261a1 1 0 1 1-2 0 1 1 0 0 1 2 0ZM571.229 638.261a1 1 0 1 1-2 0 1 1 0 0 1 2 0ZM563.229 655.261a1 1 0 1 1-2 0 1 1 0 0 1 2 0ZM577.229 624.261a1 1 0 1 1-2 0 1 1 0 0 1 2 0ZM484.229 626.261a1 1 0 1 1-2 0 1 1 0 0 1 2 0ZM508.229 626.261a1 1 0 1 1-2 0 1 1 0 0 1 2 0ZM508.229 608.261a1 1 0 1 1-2 0 1 1 0 0 1 2 0ZM512.229 662.261a1 1 0 1 1-2 0 1 1 0 0 1 2 0ZM539.229 662.261a1 1 0 1 1-2 0 1 1 0 0 1 2 0ZM550.229 662.261a1 1 0 1 1-2 0 1 1 0 0 1 2 0ZM567.229 626.261a1 1 0 1 1-2 0 1 1 0 0 1 2 0ZM567.229 608.261a1 1 0 1 1-2 0 1 1 0 0 1 2 0ZM587.229 621.261a1 1 0 1 1-2 0 1 1 0 0 1 2 0ZM487.229 613.261a1 1 0 1 1-2 0 1 1 0 0 1 2 0ZM497.229 648.261a1 1 0 1 1-2 0 1 1 0 0 1 2 0ZM493.229 655.261a1 1 0 1 1-2 0 1 1 0 0 1 2 0ZM533.229 635.261a1 1 0 1 1-2 0 1 1 0 0 1 2 0ZM545.229 637.261a1 1 0 1 1-2 0 1 1 0 0 1 2 0ZM531.229 667.261a1 1 0 1 1-2 0 1 1 0 0 1 2 0ZM554.229 616.261a1 1 0 1 1-2 0 1 1 0 0 1 2 0ZM554.229 598.261a1 1 0 1 1-2 0 1 1 0 0 1 2 0ZM578.229 613.261a1 1 0 1 1-2 0 1 1 0 0 1 2 0ZM585.229 603.261a1 1 0 1 1-2 0 1 1 0 0 1 2 0ZM496.229 622.261a1 1 0 1 1-2 0 1 1 0 0 1 2 0ZM496.229 633.261a1 1 0 1 1-2 0 1 1 0 0 1 2 0ZM517.229 618.261a1 1 0 1 1-2 0 1 1 0 0 1 2 0ZM517.229 600.261a1 1 0 1 1-2 0 1 1 0 0 1 2 0ZM529.229 614.261a1 1 0 1 1-2 0 1 1 0 0 1 2 0ZM541.229 608.261a1 1 0 1 1-2 0 1 1 0 0 1 2 0ZM554.229 608.261a1 1 0 1 1-2 0 1 1 0 0 1 2 0Z" fill="#000"/><path d="M567.229 608.261a1 1 0 1 1-2 0 1 1 0 0 1 2 0ZM593.229 608.261a1 1 0 1 1-2 0 1 1 0 0 1 2 0ZM515.229 648.261a1 1 0 1 1-2 0 1 1 0 0 1 2 0ZM526.229 642.261a1 1 0 1 1-2 0 1 1 0 0 1 2 0ZM522.229 634.261a1 1 0 1 1-2 0 1 1 0 0 1 2 0ZM546.229 625.261a1 1 0 1 1-2 0 1 1 0 0 1 2 0ZM497.229 607.261a1 1 0 1 1-2 0 1 1 0 0 1 2 0ZM534.229 623.261a1 1 0 1 1-2 0 1 1 0 0 1 2 0ZM534.229 605.261a1 1 0 1 1-2 0 1 1 0 0 1 2 0ZM569.229 619.261a1 1 0 1 1-2 0 1 1 0 0 1 2 0ZM569.229 601.261a1 1 0 1 1-2 0 1 1 0 0 1 2 0ZM576.229 603.261a1 1 0 1 1-2 0 1 1 0 0 1 2 0ZM591.229 594.261a1 1 0 1 1-2 0 1 1 0 0 1 2 0Z" fill="#000"/><path d="M485.229 641.261a1 1 0 1 1-2 0 1 1 0 0 1 2 0ZM537.229 648.261a1 1 0 1 1-2 0 1 1 0 0 1 2 0ZM533.229 655.261a1 1 0 1 1-2 0 1 1 0 0 1 2 0ZM553.229 653.261a1 1 0 1 1-2 0 1 1 0 0 1 2 0ZM554.229 643.261a1 1 0 1 1-2 0 1 1 0 0 1 2 0ZM574.229 648.261a1 1 0 1 1-2 0 1 1 0 0 1 2 0ZM584.229 634.261a1 1 0 1 1-2 0 1 1 0 0 1 2 0ZM475.229 620.261a1 1 0 1 1-2 0 1 1 0 0 1 2 0ZM508.229 636.261a1 1 0 1 1-2 0 1 1 0 0 1 2 0ZM505.229 656.261a1 1 0 1 1-2 0 1 1 0 0 1 2 0ZM523.229 660.261a1 1 0 1 1-2 0 1 1 0 0 1 2 0ZM557.229 634.261a1 1 0 1 1-2 0 1 1 0 0 1 2 0ZM571.229 638.261a1 1 0 1 1-2 0 1 1 0 0 1 2 0ZM563.229 655.261a1 1 0 1 1-2 0 1 1 0 0 1 2 0ZM577.229 624.261a1 1 0 1 1-2 0 1 1 0 0 1 2 0ZM484.229 626.261a1 1 0 1 1-2 0 1 1 0 0 1 2 0ZM508.229 626.261a1 1 0 1 1-2 0 1 1 0 0 1 2 0ZM508.229 608.261a1 1 0 1 1-2 0 1 1 0 0 1 2 0ZM512.229 662.261a1 1 0 1 1-2 0 1 1 0 0 1 2 0ZM539.229 662.261a1 1 0 1 1-2 0 1 1 0 0 1 2 0ZM550.229 662.261a1 1 0 1 1-2 0 1 1 0 0 1 2 0ZM567.229 626.261a1 1 0 1 1-2 0 1 1 0 0 1 2 0ZM567.229 608.261a1 1 0 1 1-2 0 1 1 0 0 1 2 0ZM587.229 621.261a1 1 0 1 1-2 0 1 1 0 0 1 2 0ZM487.229 613.261a1 1 0 1 1-2 0 1 1 0 0 1 2 0ZM497.229 648.261a1 1 0 1 1-2 0 1 1 0 0 1 2 0ZM493.229 655.261a1 1 0 1 1-2 0 1 1 0 0 1 2 0ZM533.229 635.261a1 1 0 1 1-2 0 1 1 0 0 1 2 0ZM545.229 637.261a1 1 0 1 1-2 0 1 1 0 0 1 2 0ZM531.229 667.261a1 1 0 1 1-2 0 1 1 0 0 1 2 0ZM554.229 616.261a1 1 0 1 1-2 0 1 1 0 0 1 2 0ZM554.229 598.261a1 1 0 1 1-2 0 1 1 0 0 1 2 0ZM578.229 613.261a1 1 0 1 1-2 0 1 1 0 0 1 2 0ZM585.229 603.261a1 1 0 1 1-2 0 1 1 0 0 1 2 0ZM496.229 622.261a1 1 0 1 1-2 0 1 1 0 0 1 2 0ZM496.229 633.261a1 1 0 1 1-2 0 1 1 0 0 1 2 0ZM517.229 618.261a1 1 0 1 1-2 0 1 1 0 0 1 2 0ZM517.229 600.261a1 1 0 1 1-2 0 1 1 0 0 1 2 0ZM529.229 614.261a1 1 0 1 1-2 0 1 1 0 0 1 2 0ZM541.229 608.261a1 1 0 1 1-2 0 1 1 0 0 1 2 0ZM554.229 608.261a1 1 0 1 1-2 0 1 1 0 0 1 2 0Z" stroke="#000" stroke-width="3.663"/><path d="M567.229 608.261a1 1 0 1 1-2 0 1 1 0 0 1 2 0ZM593.229 608.261a1 1 0 1 1-2 0 1 1 0 0 1 2 0ZM515.229 648.261a1 1 0 1 1-2 0 1 1 0 0 1 2 0ZM526.229 642.261a1 1 0 1 1-2 0 1 1 0 0 1 2 0ZM522.229 634.261a1 1 0 1 1-2 0 1 1 0 0 1 2 0ZM546.229 625.261a1 1 0 1 1-2 0 1 1 0 0 1 2 0ZM497.229 607.261a1 1 0 1 1-2 0 1 1 0 0 1 2 0ZM534.229 623.261a1 1 0 1 1-2 0 1 1 0 0 1 2 0ZM534.229 605.261a1 1 0 1 1-2 0 1 1 0 0 1 2 0ZM569.229 619.261a1 1 0 1 1-2 0 1 1 0 0 1 2 0ZM569.229 601.261a1 1 0 1 1-2 0 1 1 0 0 1 2 0ZM576.229 603.261a1 1 0 1 1-2 0 1 1 0 0 1 2 0ZM591.229 594.261a1 1 0 1 1-2 0 1 1 0 0 1 2 0Z" stroke="#000" stroke-width="3.663"/></g><rect x="634.644" y="807.62" width="256.421" height="87.916" rx="14.653" transform="rotate(-4 634.644 807.62)" fill="#000"/><path fill-rule="evenodd" clip-rule="evenodd" d="M867.504 791.337 657.54 806.02l6.742 25.664c2.659 10.122 12.079 16.952 22.5 16.36-10.392.874-18.759 8.944-19.983 19.33l-3.103 26.346 209.961-14.682-6.74-25.658c-2.659-10.122-12.079-16.951-22.501-16.359 10.393-.874 18.76-8.944 19.984-19.33l3.104-26.354Z" fill="#fff"/><path d="m902.681 859.758-3.732-53.371c-.944-13.502-13.689-22.911-26.819-20.093-25.437 5.461-74.074 15.145-109.223 17.603-35.149 2.458-84.661-.363-110.61-2.23-13.394-.964-24.706 10.128-23.762 23.629l3.732 53.372c.945 13.501 13.69 22.911 26.819 20.092 25.437-5.46 74.074-15.144 109.223-17.602 35.15-2.458 84.661.363 110.611 2.23 13.393.964 24.705-10.128 23.761-23.63Z" stroke="#000" stroke-width="14.653"/><path d="M538.485 543.981c22.59 9.157 77.293 10.989 115.39-54.948M783.917 461.56c18.926 19.536 66.303 46.888 104.4 0" stroke="#000" stroke-width="14.653" stroke-linecap="round"/><path d="M728.969 318.694c53.726-2.442 147.991-32.236 95.242-131.874M633.727 311.368c53.726-2.442 147.991-32.236 95.242-131.874M501.854 351.663c53.726-2.442 147.991-32.236 95.242-131.874" stroke="#000" stroke-width="14.653"/><ellipse cx="617.354" cy="616.884" rx="32.968" ry="49.453" transform="rotate(-6.776 617.354 616.884)" fill="#000"/><ellipse cx="851.8" cy="580.252" rx="32.968" ry="49.453" transform="rotate(-6.276 851.8 580.252)" fill="#000"/><path d="M527.563 618.024 406.609 639.56" stroke="#000" stroke-width="14.653" stroke-linecap="round"/><path d="m532.782 540.71 132.76-17.299c12.037-1.569 23.269 6.889 25.089 18.89l18.54 122.316a21.432 21.432 0 0 1-18.501 24.57l-118.626 15.458c-11.071 1.443-21.638-5.62-24.568-16.422L514.801 567.75c-3.446-12.708 4.956-25.342 17.981-27.04ZM916.618 491.365l-132.76 17.299a21.433 21.433 0 0 0-18.501 24.571l18.54 122.315c1.82 12.002 13.052 20.459 25.089 18.891l118.626-15.458c11.071-1.443 19.129-10.933 18.734-22.065l-4.406-124.157c-.464-13.096-12.297-23.094-25.322-21.396ZM699.352 600.553l77.129-11.377M744.44 619.102c7.138 50.785 38.138 87.119 38.138 87.119s-9.637 23.55-46.932 21.393" stroke="#000" stroke-width="14.653"/><path d="M456.064 660.011c-8.535-2.81-17.749-4.306-27.181-4.306-38.439 0-69.6 23.811-65.937 67.769 3.816 45.789 31.161 62.273 69.6 62.273 4.277 0 8.464-.375 12.528-1.095a70.468 70.468 0 0 0 12.821-3.54" stroke="#000" stroke-width="29.305"/><path d="M459.727 780.385c-8.351 3.452-17.537 5.362-27.181 5.362-38.439 0-65.784-16.484-69.6-62.273-3.663-43.958 27.498-67.769 65.937-67.769 11.493 0 22.663 2.221 32.676 6.336l-1.832 118.344Z" fill="#F9C9B6"/><path d="M445.074 686.844c-14.652-6.716-46.888-10.257-58.61 29.305" stroke="#000" stroke-width="14.653"/><path d="M406.611 688.674c7.937 6.716 23.078 27.474 20.148 56.779" stroke="#000" stroke-width="14.653"/><path d="M1185.73 1402.99H184.519c59.708-107.48 144.633-175.9 282.32-207.29 58.659-13.37 126.995-20.04 207.171-20.04 34.637 0 61.591 5.28 87.169 12.25 9.475 2.58 18.999 5.48 28.743 8.44 16.126 4.9 32.853 9.98 50.954 14.14l.512.12.525.04c168.967 13.94 270.287 88.99 343.817 192.34Z" fill="#F4D150" stroke="#000" stroke-width="14.653"/><path d="m424.668 1203.65 33.53-71.79c.801-1.71 2.791-2.53 4.575-1.9 138.93 49.18 265.319 45.72 382.446 13.11a3.669 3.669 0 0 1 3.953 1.37l51.036 69.79c1.403 1.92.688 4.63-1.524 5.49-123.109 48.34-354.112 40.13-472.24-11.23-1.874-.81-2.64-2.99-1.776-4.84Z" fill="#fff" stroke="#000" stroke-width="14.653"/></g><defs><clipPath id="b"><path fill="#fff" transform="translate(329.682 157.517)" d="M0 0h732.632v1172.21H0z"/></clipPath></defs></svg>