<svg width="1392" height="1392" fill="none" xmlns="http://www.w3.org/2000/svg"><circle cx="696" cy="696" r="696" fill="#E0DDFF"/><mask id="a" style="mask-type:alpha" maskUnits="userSpaceOnUse" x="0" y="0" width="1392" height="1392"><circle cx="696" cy="696" r="696" fill="#FFEDEF"/></mask><g mask="url(#a)"><g clip-path="url(#b)"><path d="M893.812 1327.9c-52.75-73.27-94.021-214.91-98.906-285.73L543.98 934.106 439.58 1327.9h454.232Z" fill="#F9C9B6" stroke="#000" stroke-width="14.653"/><mask id="c" style="mask-type:alpha" maskUnits="userSpaceOnUse" x="439" y="934" width="455" height="431"><path d="M893.812 1364.53c-52.75-73.26-94.021-251.54-98.906-322.36L543.98 934.106l-104.4 430.424h454.232Z" fill="#F9C9B6"/></mask><g mask="url(#c)"><ellipse cx="783.917" cy="926.779" rx="216.126" ry="197.811" fill="#000" style="mix-blend-mode:multiply"/></g><mask id="d" fill="#fff"><path fill-rule="evenodd" clip-rule="evenodd" d="M1003.41 710.838c-.13-.587-.27-1.173-.41-1.759-.14-.586-.29-1.171-.43-1.756l-60.573-252.816-.008.002C904.559 302.69 751.524 209.34 599.231 245.828c-152.294 36.488-246.409 189.054-210.975 341.351l-.004.001.166.694.276 1.163.281 1.161 61.519 256.765.054-.012c38.838 149.842 190.74 241.559 341.912 205.339 151.172-36.22 245.02-186.815 211.74-337.989l.04-.01-.83-3.453Z"/></mask><path fill-rule="evenodd" clip-rule="evenodd" d="M1003.41 710.838c-.13-.587-.27-1.173-.41-1.759-.14-.586-.29-1.171-.43-1.756l-60.573-252.816-.008.002C904.559 302.69 751.524 209.34 599.231 245.828c-152.294 36.488-246.409 189.054-210.975 341.351l-.004.001.166.694.276 1.163.281 1.161 61.519 256.765.054-.012c38.838 149.842 190.74 241.559 341.912 205.339 151.172-36.22 245.02-186.815 211.74-337.989l.04-.01-.83-3.453Z" fill="#F9C9B6"/><path d="m1003.41 710.838-14.269 3.325.011.044.01.045 14.248-3.414Zm-.41-1.759 14.25-3.414-14.25 3.414Zm-.43-1.756-14.25 3.414.011.044.011.045 14.228-3.503Zm-60.573-252.816 14.25-3.414-3.413-14.244-14.246 3.408 3.409 14.25Zm-.008.002-14.227 3.508 3.483 14.128 14.153-3.385-3.409-14.251ZM599.231 245.828l-3.414-14.25 3.414 14.25ZM388.256 587.179l3.405 14.252 14.167-3.385-3.301-14.187-14.271 3.32Zm-.004.001-3.405-14.252-14.26 3.408 3.416 14.258 14.249-3.414Zm.166.694 14.264-3.356-.007-.029-.007-.029-14.25 3.414Zm.276 1.163 14.25-3.414-14.25 3.414Zm.281 1.161 14.25-3.414-.007-.029-.007-.03-14.236 3.473Zm61.519 256.765-14.249 3.414 3.414 14.25 14.249-3.414-3.414-14.25Zm.054-.012 14.183-3.677-3.609-13.924-13.988 3.351 3.414 14.25ZM792.46 1052.29l3.414 14.25-3.414-14.25Zm211.74-337.989-3.41-14.25-13.997 3.348 3.094 14.053 14.313-3.151Zm.04-.01 3.41 14.25 14.25-3.41-3.41-14.254-14.25 3.414Zm13.44-6.779c-.14-.615-.29-1.231-.43-1.847l-28.503 6.828c.133.556.265 1.113.394 1.67l28.539-6.651Zm-.43-1.847-.45-1.844-28.458 7.005c.136.555.271 1.11.405 1.667l28.503-6.828Zm-89.502-247.744 60.572 252.816 28.5-6.828-60.573-252.816-28.499 6.828Zm17.65 10.839.008-.002-6.818-28.501-.008.002 6.818 28.501Zm10.817-17.758c-39.357-159.635-200.267-257.79-360.398-219.424l6.828 28.499c144.455-34.61 289.614 53.936 325.117 197.94l28.453-7.015ZM595.817 231.578c-160.132 38.367-259.09 198.784-221.833 358.921l28.543-6.64c-33.609-144.458 55.663-289.172 200.118-323.782l-6.828-28.499Zm-204.16 369.853h.004l-6.81-28.503h-.004l6.81 28.503Zm11.011-16.971-.166-.694-28.499 6.828.166.694 28.499-6.828Zm-28.513 6.769.29 1.222 28.499-6.828c-.088-.368-.176-.737-.262-1.105l-28.527 6.711Zm.29 1.222.295 1.22 28.471-6.946c-.09-.367-.179-.734-.267-1.102l-28.499 6.828Zm90.298 251.098-61.518-256.765-28.499 6.828 61.519 256.765 28.498-6.828Zm-17.609-10.848-.054.013 6.828 28.499.054-.013-6.828-28.499Zm-10.77 17.926c40.838 157.563 200.556 253.993 359.51 215.913l-6.828-28.5c-143.39 34.35-287.477-52.641-324.315-194.766l-28.367 7.353Zm359.51 215.913c158.953-38.09 257.626-196.43 222.636-355.389l-28.623 6.301c31.573 143.387-57.451 286.228-200.841 320.588l6.828 28.5Zm204.956-366.5-.04.011 6.82 28.5.04-.01-6.82-28.501Zm-11.668 14.212.828 3.453 28.5-6.828-.83-3.454-28.498 6.829Z" fill="#000" mask="url(#d)"/></g><path d="M791.202 944.477c39.698-7.184 62.955-51.052 54.867-95.746-8.089-44.695-45.245-77.629-84.943-70.445-39.698 7.185-62.955 51.053-54.867 95.747 8.089 44.694 45.246 77.629 84.943 70.444Z" fill="#000" stroke="#000" stroke-width="13.155"/><mask id="e" style="mask-type:alpha" maskUnits="userSpaceOnUse" x="711" y="783" width="131" height="156"><ellipse cx="776.164" cy="861.382" rx="64.463" ry="77.868" transform="rotate(-10.258 776.164 861.382)" fill="#171921"/></mask><g mask="url(#e)"><ellipse cx="788.1" cy="927.36" rx="74.013" ry="67.053" transform="rotate(-10.258 788.1 927.36)" fill="#FC909F"/></g><circle cx="612.795" cy="583.405" r="43.958" transform="rotate(-6.276 612.795 583.405)" fill="#D2EFF3"/><ellipse cx="617.521" cy="616.97" rx="32.968" ry="49.453" transform="rotate(-6.776 617.521 616.97)" fill="#000"/><circle cx="846.421" cy="551.796" r="43.958" transform="rotate(-6.276 846.421 551.796)" fill="#D2EFF3"/><ellipse cx="851.967" cy="580.338" rx="32.968" ry="49.453" transform="rotate(-6.276 851.967 580.338)" fill="#000"/><path d="M802.231 484.325c20.758-9.768 69.6-18.682 98.906 23.811M525.953 577.027c7.585-21.651 35.467-62.732 86.314-53.843M535.093 554.817l-22.523-19.879M890.004 487.778l22.523-19.879M558.717 534.143l-14.824-26.127M862.717 474.432l14.824-26.128M588.301 520.906l-8.062-28.938M829.47 472.183l8.063-28.938" stroke="#000" stroke-width="14.653" stroke-linecap="round"/><path d="M604.24 438.602c6.915 1.091 6.914 1.096 6.913 1.102l-.002.012-.004.027-.012.067a27.092 27.092 0 0 1-.145.757c-.097.47-.243 1.116-.456 1.935-.424 1.637-1.112 3.961-2.201 6.937-2.178 5.953-5.955 14.5-12.429 25.36-11.611 19.478-31.874 46.368-67.093 79.084 109.787 2.737 201.488-32.631 266.757-69.721 34.289-19.485 61.217-39.41 79.551-54.443 9.164-7.515 16.173-13.8 20.873-18.188a263.68 263.68 0 0 0 5.295-5.073c.588-.58 1.025-1.02 1.311-1.31l.315-.321.072-.074.013-.014.002-.002 8.358-8.695 3.403 11.573-6.716 1.975c6.716-1.975 6.716-1.974 6.717-1.972l.002.008.009.031.036.123.143.487.558 1.905c.489 1.673 1.208 4.136 2.129 7.301a7909.38 7909.38 0 0 1 32.128 113.773c18.416 67.206 38.844 145.844 46.498 190.373 12.795 74.429-6.989 130.938-18.691 164.365-2.275 6.498-4.244 12.123-5.61 16.839.196.164.453.365.787.602 2.187 1.551 6.066 3.338 11.671 5.12 11.047 3.511 26.808 6.39 43.668 8.013 16.83 1.62 34.35 1.95 48.86.534 7.26-.709 13.58-1.836 18.59-3.369 4.82-1.473 7.84-3.14 9.47-4.645.05-.314.11-1.067-.07-2.519-.36-2.842-1.48-6.844-3.43-12.138-2.91-7.901-7.21-17.574-12.25-28.886-1.71-3.835-3.5-7.858-5.35-12.064-14.39-32.746-31.71-75.33-35.48-118.717-4.19-48.208 5.34-89.439 13.9-126.499l.41-1.766c8.74-37.876 16.02-70.768 8.55-104.102-11.34-50.59-26.81-92.707-50.57-122.972-23.504-29.942-55.385-48.63-100.72-52.067l-4.682-.354-1.448-4.467c-20.86-64.363-49.022-106.419-84.934-132.499-35.899-26.07-80.426-36.817-135.313-36.817-101.424 0-210.643 38.533-292.604 105.199-81.877 66.597-136.063 160.797-128.973 272.295 7.825 123.051-1.093 216.353-21.203 284.674-18.338 62.298-46.131 104.273-79.445 128.758 4.371 2.232 10.198 5.067 17.477 8.311 18.414 8.208 46.122 19.044 83.057 29.407 70.826 19.875 175.632 38.025 313.974 32.555-30.495-26.195-61.262-57.981-85.623-91.58-27.96-38.562-48.116-80.38-48.706-119.329-.701-46.254 2.432-167.286 3.401-192.34 2.252-58.231 39.64-103.117 75.233-132.973 17.901-15.015 35.634-26.475 48.882-34.181 6.631-3.858 12.157-6.785 16.043-8.756a210.903 210.903 0 0 1 4.538-2.24 128.685 128.685 0 0 1 1.554-.729l.092-.042.027-.012.009-.004c.003-.001.006-.002 2.884 6.378Zm0 0 6.915 1.091 2.019-12.8-11.812 5.329 2.878 6.38Zm367.161 463.642c.009 0 .053.049.105.146-.087-.098-.113-.146-.105-.146Z" fill="#D2EFF3" stroke="#000" stroke-width="14"/><path d="M915.79 326.021c1.832 16.484-1.099 49.452-5.495 71.431M746.486 633.619c.745 14.075 6.22 44.255 22.157 52.373 19.922 10.147 4.304 43.785-32.99 41.628M479.875 667.608v-4.1l-3.495-2.144c-13.677-8.393-30.31-12.985-47.496-12.985-20.662 0-40.005 6.401-53.784 19.396-13.933 13.141-21.45 32.355-19.454 56.307 1.945 23.34 9.781 40.519 22.777 51.933-1.068 3.66-1.383 7.606-.888 11.759 1.426 11.972 7.478 20.599 16.832 25.915 8.915 5.067 20.326 6.858 32.481 6.858 20.07 0 37.67-10.796 51.071-25.235l1.956-2.108V667.608Z" stroke="#000" stroke-width="14.653"/><path fill-rule="evenodd" clip-rule="evenodd" d="M501.751 725.243c.261-2.387.395-4.81.395-7.264 0-37.428-34.824-62.274-73.263-62.274-38.439 0-69.6 23.811-65.937 67.769 2.039 24.461 10.792 40.559 24.364 50.248-2.156 3.751-3.1 8.158-2.501 13.189 2.305 19.348 18.821 26.313 42.038 26.313 40.683 0 72.871-51.462 74.904-87.981Z" fill="#F9C9B6"/><path d="M445.075 686.844c-14.653-6.716-46.889-10.257-58.611 29.305" stroke="#000" stroke-width="14.653"/><path d="M406.612 688.674c7.937 6.716 23.078 27.474 20.147 56.779" stroke="#000" stroke-width="14.653"/><circle cx="354.685" cy="785.916" r="4" fill="#fff"/><circle cx="355.685" cy="784.916" r="1" fill="#FFEDEF"/><path d="m695.154 1317.19 4.502-5.78-4.501 5.78 6.307 4.92 4.343-6.71h.001l.007-.01.035-.06c.032-.05.082-.12.15-.23l.22-.33c.11-.17.243-.37.398-.6.551-.82 1.375-2.04 2.453-3.6 2.157-3.12 5.324-7.57 9.336-12.91 8.035-10.67 19.407-24.77 32.798-38.56 13.425-13.83 28.668-27.11 44.419-36.36 15.812-9.28 31.427-14.08 45.919-12.13C997 1231.57 1111.4 1300.43 1185.66 1403H184.523c59.708-107.49 144.634-175.9 282.32-207.3 5.868-1.33 13.845-.93 23.82 1.39 9.872 2.3 21.127 6.33 33.265 11.67 24.275 10.67 51.373 26.23 76.838 42.35 25.427 16.09 49.036 32.62 66.302 45.14a1284.62 1284.62 0 0 1 20.534 15.18c2.435 1.84 4.33 3.28 5.612 4.27.256.19.487.37.694.53.311.24.566.44.762.59.164.13.286.22.367.28l.091.07.021.02h.005Z" fill="#9287FF" stroke="#000" stroke-width="14.653"/><path d="m423.508 1205.49 18.926-70.45c.767-2.85 4.458-3.66 6.451-1.47 54.446 59.57 123.153 57.24 145.958 54.5 3.096-.37 5.52 3.02 4.065 5.78l-48.196 91.41c-.738 1.4-2.25 2.17-3.801 1.84-14.464-3.01-86.534-20.63-122.978-78.74a3.64 3.64 0 0 1-.425-2.87ZM901.853 1205.11l-42.421-71.36c-1.441-2.43-4.989-2.39-6.524-.02-21.015 32.37-57.261 47.28-69.936 51.68-2.28.79-3.323 3.5-2.094 5.58l49.463 83.57c.738 1.25 2.132 1.93 3.526 1.53 7.82-2.23 34.653-13.45 67.938-67.17.716-1.15.742-2.64.048-3.81Z" fill="#E0DDFF" stroke="#000" stroke-width="14.653"/><path d="m631.895 1269.29-32.968-78.76-25.642 54.95 58.61 23.81ZM747.284 1265.62l32.969-78.75 25.642 54.94-58.611 23.81ZM489.032 1120.93l-43.958 10.99 36.632 23.81 7.326-34.8ZM816.884 1120.93l40.295 10.99-25.642 23.81-14.653-34.8Z" fill="#000" stroke="#000" stroke-width="14.653" stroke-linejoin="round"/></g><defs><clipPath id="b"><path fill="#fff" transform="translate(329.686 157.517)" d="M0 0h732.632v1172.21H0z"/></clipPath></defs></svg>