<svg width="1392" height="1392" fill="none" xmlns="http://www.w3.org/2000/svg"><circle cx="696" cy="696" r="696" fill="#F9C9B6"/><mask id="a" style="mask-type:alpha" maskUnits="userSpaceOnUse" x="0" y="0" width="1392" height="1392"><circle cx="696" cy="696" r="696" fill="#FFEDEF"/></mask><g mask="url(#a)"><path d="M893.697 1364.4c-52.749-73.26-94.021-251.53-98.905-322.36L543.866 933.979l-104.4 430.421h454.231Z" fill="#FC909F" stroke="#000" stroke-width="14.653"/><mask id="b" style="mask-type:alpha" maskUnits="userSpaceOnUse" x="439" y="933" width="455" height="432"><path d="M893.697 1364.4c-52.749-73.26-94.021-251.53-98.905-322.36L543.866 933.979l-104.4 430.421h454.231Z" fill="#FFEDEF"/></mask><g mask="url(#b)"><ellipse cx="783.917" cy="926.782" rx="216.126" ry="197.811" fill="#000"/></g><g clip-path="url(#c)"><path d="M893.804 1364.53c-52.75-73.26-94.021-251.54-98.905-322.36L543.972 934.106l-104.4 430.424h454.232Z" fill="#77311D" stroke="#000" stroke-width="14.653"/><mask id="d" style="mask-type:alpha" maskUnits="userSpaceOnUse" x="439" y="934" width="455" height="431"><path d="M893.8 1364.53c-52.75-73.27-94.021-251.54-98.905-322.36L543.968 934.105l-104.4 430.425H893.8Z" fill="#AC6651"/></mask><g mask="url(#d)"><ellipse cx="783.905" cy="926.779" rx="216.126" ry="197.811" fill="#000"/></g><mask id="e" fill="#fff"><path fill-rule="evenodd" clip-rule="evenodd" d="M456.08 865.664c46.167 138.666 191.608 221.306 336.38 186.626 144.772-34.69 236.97-174.269 215.29-318.801l1.04-.251-66.778-278.731-.022.006c-37.429-151.821-190.464-245.174-342.759-208.685-152.912 36.636-247.173 190.296-210.536 343.209.24 1.001.485 2 .735 2.996l59.317 247.578a287.508 287.508 0 0 0 1.025 4.277l5.276 22.023 1.032-.247Z"/></mask><path fill-rule="evenodd" clip-rule="evenodd" d="M456.08 865.664c46.167 138.666 191.608 221.306 336.38 186.626 144.772-34.69 236.97-174.269 215.29-318.801l1.04-.251-66.778-278.731-.022.006c-37.429-151.821-190.464-245.174-342.759-208.685-152.912 36.636-247.173 190.296-210.536 343.209.24 1.001.485 2 .735 2.996l59.317 247.578a287.508 287.508 0 0 0 1.025 4.277l5.276 22.023 1.032-.247Z" fill="#77311D"/><path d="m456.08 865.664 13.902-4.629-4.245-12.752-13.071 3.131 3.414 14.25Zm336.38 186.626 3.414 14.25-3.414-14.25Zm215.29-318.801-3.42-14.249-13.069 3.132 1.994 13.291 14.495-2.174Zm1.04-.251 3.42 14.25 14.25-3.415-3.42-14.249-14.25 3.414Zm-66.778-278.731 14.249-3.414-3.414-14.249-14.249 3.414 3.414 14.249Zm-.022.006-14.227 3.507 3.485 14.134 14.156-3.392-3.414-14.249ZM599.231 245.828l-3.414-14.25 3.414 14.25ZM388.695 589.037l-14.249 3.414 14.249-3.414Zm.735 2.996 14.249-3.414-.018-.076-.019-.075-14.212 3.565Zm59.317 247.578 14.275-3.306-.013-.054-.012-.054-14.25 3.414Zm1.025 4.277 14.249-3.414-.012-.053-.014-.054-14.223 3.521Zm5.276 22.023-14.249 3.414 3.414 14.249 14.249-3.414-3.414-14.249Zm-12.87 4.381c48.547 145.818 201.466 232.718 353.696 196.248l-6.828-28.5c-137.313 32.9-275.278-45.491-319.064-177.005l-27.804 9.257Zm353.696 196.248c152.231-36.48 249.166-183.24 226.366-335.225l-28.985 4.348c20.565 137.078-66.895 269.477-204.209 302.377l6.828 28.5Zm209.506-347.551-1.05.251 6.83 28.499 1.05-.251-6.83-28.499Zm-77.617-261.068 66.781 278.731 28.496-6.828-66.779-278.731-28.498 6.828Zm17.641 10.841.022-.005-6.828-28.499-.022.005 6.828 28.499Zm10.813-17.757c-39.356-159.636-200.267-257.793-360.4-219.427l6.828 28.499c144.456-34.61 289.616 53.938 325.118 197.943l28.454-7.015Zm-360.4-219.427C435.035 270.1 335.924 431.668 374.446 592.451l28.498-6.828c-34.751-145.043 54.659-290.795 199.701-325.546l-6.828-28.499ZM374.446 592.451c.252 1.051.509 2.1.771 3.147l28.425-7.13c-.237-.946-.47-1.895-.698-2.845l-28.498 6.828Zm88.551 243.746-59.318-247.578-28.499 6.828 59.318 247.578 28.499-6.828Zm-28.525 6.72c.174.749.351 1.499.53 2.248l28.499-6.827c-.162-.678-.322-1.356-.479-2.033l-28.55 6.612Zm.53 2.248c.18.75.362 1.498.547 2.245l28.446-7.043c-.167-.676-.332-1.352-.494-2.029l-28.499 6.827Zm34.296 17.332-5.277-22.023-28.498 6.829 5.276 22.022 28.499-6.828Zm-16.632-11.083-1.031.247 6.827 28.499 1.032-.247-6.828-28.499Z" fill="#000" mask="url(#e)"/></g><path d="M696.003 832.142c18.098 23.615 45.522 49.778 87.828 43.812 42.306-5.966 61.129-35.149 55.579-58.783" stroke="#000" stroke-width="14.653"/><path d="M802.236 484.324c20.758-9.768 69.6-18.682 98.905 23.811M525.957 577.027c7.585-21.651 35.467-62.732 86.314-53.843" stroke="#000" stroke-width="14.653" stroke-linecap="round"/><path d="M1032.01 482.772c0-242.096-133.556-405.846-296.232-405.846-208.409 0-420.747 78.177-420.747 447.837 0 91.462 39.046 159.612 93.647 209.846-5.473-6.848-9.883-12.981-12.813-18.027-10.589-98.835 106.839-174.695 221.748-248.927 61.001-39.407 121.291-78.355 161.343-120.038 35.146 19.916 138.445 103.351 158.127 137.091 10.556 18.095 27.507 80.109 39.089 152.496 37.868-45.486 55.838-91.002 55.838-154.432Z" fill="#fff" stroke="#000" stroke-width="14.653"/><path d="M781.225 345.236c48.259-43.754 120.453-143.617 115.82-208.476" stroke="#000" stroke-width="14.653"/><ellipse cx="616.012" cy="615.229" rx="32.968" ry="36.632" transform="rotate(-6.776 616.012 615.229)" fill="#000"/><ellipse cx="850.57" cy="578.584" rx="32.968" ry="36.632" transform="rotate(-6.276 850.57 578.584)" fill="#000"/><circle cx="859.006" cy="582.44" r="95.242" stroke="#F4D150" stroke-width="14.653"/><circle cx="613.575" cy="615.409" r="95.242" stroke="#F4D150" stroke-width="14.653"/><path d="M767.427 608.083a29.306 29.306 0 1 0-58.61 0M520.164 622.735 410.27 642.883" stroke="#F4D150" stroke-width="14.653"/><path d="M746.472 633.619c.745 14.075 6.22 44.255 22.157 52.373 19.922 10.147 4.304 43.785-32.991 41.628" stroke="#000" stroke-width="14.653"/><path d="M456.064 660.011c-8.535-2.81-17.749-4.306-27.181-4.306-38.439 0-69.6 23.811-65.937 67.769 3.816 45.789 31.161 62.273 69.6 62.273 4.277 0 8.464-.375 12.528-1.095a70.468 70.468 0 0 0 12.821-3.54" stroke="#000" stroke-width="29.305"/><path d="M459.727 780.385c-8.351 3.452-17.537 5.362-27.181 5.362-38.439 0-65.784-16.484-69.6-62.273-3.663-43.958 27.498-67.769 65.937-67.769 11.493 0 22.663 2.221 32.676 6.336l-1.832 118.344Z" fill="#77311D"/><path d="M445.074 686.844c-14.652-6.716-46.888-10.257-58.61 29.305" stroke="#000" stroke-width="14.653"/><path d="M406.611 688.674c7.937 6.716 23.078 27.474 20.148 56.779" stroke="#000" stroke-width="14.653"/><path d="M1185.73 1402.99H184.519c59.708-107.48 144.633-175.9 282.32-207.29 58.659-13.37 126.995-20.04 207.171-20.04 34.637 0 61.591 5.28 87.169 12.25 9.475 2.58 18.999 5.48 28.743 8.44 16.126 4.9 32.853 9.98 50.954 14.14l.512.12.525.04c168.967 13.94 270.287 88.99 343.817 192.34Z" fill="#9287FF" stroke="#000" stroke-width="14.653"/><path d="m424.668 1203.65 33.53-71.79c.801-1.71 2.791-2.53 4.575-1.9 138.93 49.18 265.319 45.72 382.446 13.11a3.669 3.669 0 0 1 3.953 1.37l51.036 69.79c1.403 1.92.688 4.63-1.524 5.49-123.109 48.34-354.112 40.13-472.24-11.23-1.874-.81-2.64-2.99-1.776-4.84Z" fill="#E0DDFF" stroke="#000" stroke-width="14.653"/></g><defs><clipPath id="c"><path fill="#fff" transform="translate(329.682 157.517)" d="M0 0h732.632v1208.84H0z"/></clipPath></defs></svg>