<svg width="80" height="80" fill="none" xmlns="http://www.w3.org/2000/svg"><rect width="80" height="80" rx="40" fill="#DEDEDE"/><path d="M40.107 53.597h-15.47c-.251 0-.506 0-.76-.026-1.29-.118-1.81-.97-1.259-2.122.478-.995 1-1.965 1.505-2.95l7.166-13.901c.074-.142.15-.283.236-.418.602-.945 1.579-1.078 2.349-.263.543.57 1.002 1.21 1.486 1.829 2.461 3.152 4.922 6.305 7.383 9.46 1.075 1.373 2.429 1.447 3.691.213.627-.613 1.24-1.242 1.873-1.85 1.143-1.096 2.44-1.03 3.375.248 1.874 2.565 3.7 5.164 5.537 7.754.143.203.253.427.325.664.178.595-.073 1.074-.689 1.232-.386.09-.782.133-1.179.125-5.187.008-10.377.01-15.57.005ZM51.67 28.201a4.925 4.925 0 0 1-.864 2.777 5.076 5.076 0 0 1-2.295 1.837 5.192 5.192 0 0 1-2.949.275 5.128 5.128 0 0 1-2.607-1.379 4.964 4.964 0 0 1-1.384-2.567 4.903 4.903 0 0 1 .307-2.888 5.02 5.02 0 0 1 1.894-2.233 5.172 5.172 0 0 1 2.84-.823 5.176 5.176 0 0 1 3.574 1.486 4.972 4.972 0 0 1 1.485 3.515Z" fill="gray"/></svg>