<svg width="48" height="48" fill="none" xmlns="http://www.w3.org/2000/svg"><path d="M38 16h-2v-6a6 6 0 0 0-6-6H10a6 6 0 0 0-6 6v24a2 2 0 0 0 1.24 1.84c.237.112.498.167.76.16a2 2 0 0 0 1.42-.58l5.62-5.64H16v2.88a6 6 0 0 0 6 6h13.84l4.74 4.76A1.999 1.999 0 0 0 42 44c.262.007.523-.048.76-.16A2 2 0 0 0 44 42V22a6 6 0 0 0-6-6Zm-22 6v3.78h-3.78a2 2 0 0 0-1.42.58L8 29.18V10a2 2 0 0 1 2-2h20a2 2 0 0 1 2 2v6H22a6 6 0 0 0-6 6Zm24 15.18-2-2a1.999 1.999 0 0 0-1.42-.6H22a2 2 0 0 1-2-2V22a2 2 0 0 1 2-2h16a2 2 0 0 1 2 2v15.18Z" fill="#994C00"/></svg>