<svg width="80" height="80" viewBox="0 0 80 80" fill="none" xmlns="http://www.w3.org/2000/svg">
<rect width="80" height="80" rx="40" fill="#DEDEDE"/>
<path d="M40.1069 53.597C34.9505 53.597 29.7941 53.597 24.6377 53.597C24.3858 53.597 24.1306 53.597 23.8777 53.5714C22.5868 53.4533 22.0678 52.6009 22.6183 51.4485C23.096 50.4535 23.6171 49.4841 24.123 48.4997C26.5116 43.8651 28.9002 39.2311 31.2887 34.5978C31.3626 34.4563 31.4397 34.3148 31.5254 34.1796C32.1269 33.2347 33.104 33.1016 33.8738 33.9168C34.4167 34.4872 34.8759 35.1278 35.3602 35.746C37.8211 38.898 40.282 42.0514 42.743 45.2062C43.8178 46.579 45.1717 46.6535 46.4344 45.4191C47.0609 44.8061 47.6732 44.1772 48.3073 43.5696C49.4505 42.4735 50.7479 42.5395 51.6816 43.8175C53.5556 46.3821 55.3828 48.9807 57.2188 51.5708C57.3622 51.774 57.4722 51.9981 57.5445 52.2349C57.7225 52.8297 57.4707 53.3086 56.8551 53.4671C56.469 53.5577 56.0728 53.5996 55.676 53.5916C50.4892 53.6002 45.2995 53.6019 40.1069 53.597Z" fill="#808080"/>
<path d="M51.6708 28.2013C51.6695 29.1905 51.3685 30.1571 50.806 30.9785C50.2435 31.7999 49.4449 32.4391 48.5113 32.815C47.5778 33.191 46.5513 33.2868 45.5622 33.0903C44.573 32.8938 43.6656 32.4139 42.9551 31.7113C42.2445 31.0088 41.7628 30.1152 41.571 29.144C41.3792 28.1728 41.4859 27.1676 41.8777 26.256C42.2694 25.3443 42.9286 24.5671 43.7715 24.0231C44.6144 23.479 45.6032 23.1925 46.6124 23.1998C47.9564 23.2166 49.2398 23.7503 50.186 24.6858C51.1322 25.6214 51.6655 26.884 51.6708 28.2013Z" fill="#808080"/>
</svg>
