<svg width="48" height="48" viewBox="0 0 48 48" fill="none" xmlns="http://www.w3.org/2000/svg">
<path d="M38 16H36V10C36 8.4087 35.3679 6.88258 34.2426 5.75736C33.1174 4.63214 31.5913 4 30 4H10C8.4087 4 6.88258 4.63214 5.75736 5.75736C4.63214 6.88258 4 8.4087 4 10V34C4.00197 34.3949 4.12078 34.7803 4.34144 35.1077C4.56211 35.4352 4.87476 35.69 5.24 35.84C5.47736 35.952 5.73765 36.0068 6 36C6.26321 36.0015 6.52414 35.9511 6.76781 35.8515C7.01149 35.752 7.23312 35.6054 7.42 35.42L13.04 29.78H16V32.66C16 34.2513 16.6321 35.7774 17.7574 36.9026C18.8826 38.0279 20.4087 38.66 22 38.66H35.84L40.58 43.42C40.7669 43.6054 40.9885 43.752 41.2322 43.8515C41.4759 43.9511 41.7368 44.0015 42 44C42.2624 44.0068 42.5226 43.952 42.76 43.84C43.1252 43.69 43.4379 43.4352 43.6586 43.1077C43.8792 42.7803 43.998 42.3949 44 42V22C44 20.4087 43.3679 18.8826 42.2426 17.7574C41.1174 16.6321 39.5913 16 38 16ZM16 22V25.78H12.22C11.9568 25.7785 11.6959 25.8289 11.4522 25.9285C11.2085 26.028 10.9869 26.1746 10.8 26.36L8 29.18V10C8 9.46957 8.21071 8.96086 8.58579 8.58579C8.96086 8.21071 9.46957 8 10 8H30C30.5304 8 31.0391 8.21071 31.4142 8.58579C31.7893 8.96086 32 9.46957 32 10V16H22C20.4087 16 18.8826 16.6321 17.7574 17.7574C16.6321 18.8826 16 20.4087 16 22ZM40 37.18L38 35.18C37.8148 34.991 37.5939 34.8407 37.3501 34.7377C37.1064 34.6347 36.8446 34.5811 36.58 34.58H22C21.4696 34.58 20.9609 34.3693 20.5858 33.9942C20.2107 33.6191 20 33.1104 20 32.58V22C20 21.4696 20.2107 20.9609 20.5858 20.5858C20.9609 20.2107 21.4696 20 22 20H38C38.5304 20 39.0391 20.2107 39.4142 20.5858C39.7893 20.9609 40 21.4696 40 22V37.18Z" fill="#994C00"/>
</svg>
