<svg width="300" height="300" fill="none" xmlns="http://www.w3.org/2000/svg"><rect width="300" height="300" rx="25" fill="#E6E6E6"/><path fill="#E6E6E6" d="M108 98.276h83.426v73.109H108z"/><path d="M149.965 171.378h-36.662c-.597 0-1.202 0-1.802-.061-3.059-.284-4.289-2.334-2.985-5.106 1.133-2.393 2.368-4.724 3.567-7.091l16.983-33.433c.175-.34.358-.681.561-1.006 1.425-2.272 3.741-2.592 5.566-.632 1.286 1.372 2.375 2.913 3.522 4.399 5.833 7.581 11.666 15.164 17.498 22.751 2.548 3.302 5.756 3.481 8.749.512 1.485-1.474 2.936-2.986 4.439-4.448 2.709-2.636 5.784-2.477 7.997.597 4.442 6.167 8.772 12.416 13.124 18.645.34.489.6 1.028.772 1.597.422 1.431-.175 2.583-1.634 2.964-.915.218-1.854.318-2.795.299-12.293.021-24.593.025-36.9.013ZM177.373 110.304a11.966 11.966 0 0 1-2.05 6.679 12.068 12.068 0 0 1-5.438 4.417 12.148 12.148 0 0 1-6.99.662 12.097 12.097 0 0 1-6.179-3.317 11.983 11.983 0 0 1-3.28-6.174 11.95 11.95 0 0 1 .726-6.945 12.027 12.027 0 0 1 4.489-5.37 12.126 12.126 0 0 1 6.733-1.98 12.178 12.178 0 0 1 8.47 3.574 12.047 12.047 0 0 1 3.519 8.454Z" fill="#D4D2E3"/></svg>