<svg width="300" height="300" viewBox="0 0 300 300" fill="none" xmlns="http://www.w3.org/2000/svg">
<rect width="300" height="300" rx="25" fill="#E6E6E6"/>
<rect width="83.4262" height="73.1088" transform="translate(108 98.2759)" fill="#E6E6E6"/>
<path d="M149.965 171.378C137.744 171.378 125.523 171.378 113.303 171.378C112.706 171.378 112.101 171.378 111.501 171.317C108.442 171.033 107.212 168.983 108.516 166.211C109.649 163.818 110.884 161.487 112.083 159.12C117.744 147.974 123.405 136.83 129.066 125.687C129.241 125.347 129.424 125.006 129.627 124.681C131.052 122.409 133.368 122.089 135.193 124.049C136.479 125.421 137.568 126.962 138.715 128.448C144.548 136.029 150.381 143.612 156.213 151.199C158.761 154.501 161.969 154.68 164.962 151.711C166.447 150.237 167.898 148.725 169.401 147.263C172.11 144.627 175.185 144.786 177.398 147.86C181.84 154.027 186.17 160.276 190.522 166.505C190.862 166.994 191.122 167.533 191.294 168.102C191.716 169.533 191.119 170.685 189.66 171.066C188.745 171.284 187.806 171.384 186.865 171.365C174.572 171.386 162.272 171.39 149.965 171.378Z" fill="#D4D2E3"/>
<path d="M177.373 110.304C177.37 112.683 176.656 115.008 175.323 116.983C173.99 118.958 172.097 120.496 169.885 121.4C167.672 122.304 165.239 122.534 162.895 122.062C160.55 121.589 158.4 120.435 156.716 118.745C155.032 117.056 153.89 114.907 153.436 112.571C152.981 110.236 153.234 107.818 154.162 105.626C155.091 103.433 156.653 101.564 158.651 100.256C160.649 98.9475 162.992 98.2585 165.384 98.2762C168.569 98.3165 171.611 99.5999 173.854 101.85C176.096 104.1 177.36 107.136 177.373 110.304Z" fill="#D4D2E3"/>
</svg>
