<svg width="24" height="24" viewBox="0 0 24 24" fill="none" xmlns="http://www.w3.org/2000/svg">
<path d="M22.5005 12.2336C22.5005 11.3702 22.4291 10.7402 22.2744 10.0869H12.2148V13.9835H18.1196C18.0006 14.9519 17.3577 16.4102 15.9291 17.3902L15.9091 17.5206L19.0897 19.9354L19.3101 19.9569C21.3338 18.1252 22.5005 15.4302 22.5005 12.2336" fill="#4285F4"/>
<path d="M12.214 22.4996C15.1068 22.4996 17.5353 21.5662 19.3092 19.9562L15.9282 17.3895C15.0235 18.0078 13.8092 18.4395 12.214 18.4395C9.38069 18.4395 6.97596 16.6079 6.11874 14.0762L5.99309 14.0866L2.68583 16.595L2.64258 16.7128C4.40446 20.1428 8.0235 22.4996 12.214 22.4996Z" fill="#34A853"/>
<path d="M6.12095 14.0765C5.89476 13.4232 5.76386 12.7231 5.76386 11.9998C5.76386 11.2764 5.89476 10.5765 6.10905 9.92313L6.10306 9.78398L2.75435 7.23535L2.64478 7.28642C1.91862 8.70978 1.50195 10.3081 1.50195 11.9998C1.50195 13.6915 1.91862 15.2897 2.64478 16.7131L6.12095 14.0765" fill="#FBBC05"/>
<path d="M12.2141 5.55997C14.2259 5.55997 15.583 6.41163 16.3569 7.12335L19.3807 4.23C17.5236 2.53834 15.1069 1.5 12.2141 1.5C8.02353 1.5 4.40447 3.85665 2.64258 7.28662L6.10686 9.92332C6.97598 7.39166 9.38073 5.55997 12.2141 5.55997" fill="#EB4335"/>
</svg>
