<svg width="1080" height="1024" fill="none" xmlns="http://www.w3.org/2000/svg"><path fill="#fff" d="M0 0h1080v1024H0z"/><path fill="#fff" d="M165 274h750v750H165z"/><path fill-rule="evenodd" clip-rule="evenodd" d="M331.661 799.687c45.009 48.945 250.359-17.904 319.494 0 47.1 12.198 212.176 24.495 146.846-145.255-207.237-538.466-608.953-9.828-466.34 145.255Z" fill="#64FCD9"/><ellipse cx="517.538" cy="425.383" rx="33.946" ry="40.38" fill="#fff"/><path fill-rule="evenodd" clip-rule="evenodd" d="M239.503 930.938c-10.447 5.239-19.025 11.534-15.829 19.358 5.57 13.635 23.069 18.663 42.969 22.682 27.84 5.624 66.485 6.33 116.486 4.155 83.583-3.634 74.103-11.633 153.422-15.395 53.983-2.56 147.624 11.655 222.742 11.398 45.958-.158 246.407-55.562-38.146-67.864-284.55-12.301-441.055 5.314-481.644 25.666Z" fill="#fff"/><path fill-rule="evenodd" clip-rule="evenodd" d="M239.503 930.938c-10.447 5.239-19.025 11.534-15.829 19.358 5.57 13.635 237.006-30.293 316.325-34.054 53.983-2.561 136.274 14.954 211.391 14.696 45.959-.157 150.905-9.493-30.243-25.665-181.148-16.173-441.055 5.313-481.644 25.665Z" fill="#E7EAEE"/><path fill-rule="evenodd" clip-rule="evenodd" d="M388.671 903.366c-75.783 5.14-128.205 14.264-150.289 25.338-6.18 3.098-10.698 6.044-13.721 9.221-3.902 4.1-5.221 8.617-3.301 13.317 2.892 7.08 8.719 12.303 17.383 16.274 6.754 3.094 14.775 5.335 26.627 7.755l.778.158c26.608 5.374 63.528 6.531 117.089 4.202l4.432-.199c31.061-1.439 47.391-3.203 71.543-7.059l6.592-1.064c24.247-3.891 39.425-5.56 69.749-7.02l2.539-.119c21.302-.929 40.949.076 95.18 4.38l30.765 2.46c7.009.549 12.957.998 18.955 1.428l6.384.448c27.012 1.854 48.96 2.786 68.879 2.752l1.047-.002c11.834-.041 33.242-3.609 54.063-9.021l1.626-.426c22.67-6.003 41.205-13.242 50.682-20.44 13.006-9.878 9.453-20.078-11.258-27.074-22.418-7.573-66.084-13-133.16-15.9-133.415-5.768-246.015-5.28-332.584.591Zm332.368 4.404 3.97.176c64.384 2.921 106.398 8.234 127.806 15.466l.969.334c8.578 3.011 13.201 6.215 14.236 9.186.84 2.41-.815 5.375-5.371 8.835-8.821 6.699-26.87 13.745-48.957 19.593l-1.585.416c-20.185 5.247-40.935 8.73-52.376 8.856l-.447.004c-21.097.072-44.489-.958-73.865-3.038l-9.555-.696c-6.138-.458-12.686-.97-20.756-1.617l-19.668-1.579c-57.07-4.541-76.611-3.527-99.007-2.465l-4.414.216c-28.365 1.434-43.478 3.139-66.999 6.914l-7.42 1.196c-24.359 3.869-40.794 5.577-73.46 7.02l-1.12.049c-52.654 2.29-89.035-.811-115.095-5.951l-.787-.157c-24.921-5.034-39.504-8.752-43.746-21.077-1.756-5.103 5.413-10.352 17.232-16.278 21.301-10.681 73.245-19.722 148.385-24.818 86.37-5.858 198.788-6.345 332.03-.585Z" fill="#00160A"/><path fill-rule="evenodd" clip-rule="evenodd" d="M488.806 405.88c5.967-14.276 22.038-23.605 37.406-21.714-9.887-5.226-21.349-13.396-19.542-24.426 1.389-8.481 10.481-13.621 19.012-14.715 12.537-1.607 26.693 4.082 31.584 15.727 4.891 11.645-3.833 27.744-16.463 27.249 10.625 10.504 14.481 27.299 9.499 41.379-2.501 7.07-13.327 7.483-18.865 2.423-5.539-5.06-7.13-13.013-8.421-20.4a46.01 46.01 0 0 1-20.856 7.184c3.49 1.174 6.421 3.907 7.834 7.305a55.515 55.515 0 0 0-20.944-10.133c-2.761 9.272-5.552 18.884-4.281 28.474 1.272 9.59 7.766 19.2 17.298 20.897 21.604 3.846 36.399-33.497 58.252-31.492 9 .826 15.803-3.171 19.069-11.591 3.266-8.42.308-18.835-6.899-24.285-4.283.2-8.401-3.359-8.819-7.624-.418-4.264 2.93-8.554 7.171-9.188-9.004-12.827-6.737-32.259 4.978-42.673 11.715-10.414 31.296-10.401 42.998.028-6.408-10.336-.335-25.951 11.296-29.524 11.631-3.574 25.282 5.602 26.644 17.684 1.361 12.081-9.57 23.956-21.738 23.907 2.026 9.35 10.593 16.89 20.131 17.718-4.077 4.711-11.886.271-15.266-4.962-3.379-5.232-6.588-12.035-12.793-12.614 7.623 8.979 12.653 20.132 14.336 31.786a80.765 80.765 0 0 1-11.054-26.734 41.351 41.351 0 0 1-4.043 22.196c3.97-1.908 8.355 3.15 7.716 7.505-.638 4.355-4.141 7.631-7.265 10.734-8.894 8.833-16.617 22.248-10.75 33.321 3.953 7.462 12.592 10.824 19.717 15.364 15.354 9.786 25 26.747 29.664 44.338 4.664 17.59 4.893 36.008 5.093 54.204l1.283 116.839c.142 12.841-.539 27.538-10.504 35.649 6.093-8.449 8.726-19.314 7.178-29.612-10.23 34.588-18.268 69.17-21.067 109.258-2.799 40.088 2.737 56.886-9.035 111.542-1.06 4.921 1.257 10.722 4.185 15.428 5.116 8.221 24.434 12.827 20.745 19.539-4.707 8.564-25.333 6.55-38.34 5.954-5.347-.244-11.092-1.12-14.921-4.859-4.758-4.647-5.027-12.077-5.011-18.725a2622.024 2622.024 0 0 0-8.048-211.515c-1.056 54.501-2.121 109.126-9.014 163.2-1.941 15.233-5.871 31.173-5.258 46.406.333 8.291 4.184 17.176 5.523 25.493 1.063 6.605-3.733 8.875-8.833 8.503-1.351-.099-2.423 1.033-3.811.945-1.151-.073-2.317-.854-3.62-.945-1.394-.099-2.935.49-4.431.372-1.119-.089-1.374-1.016-3.382-1.016-2.009 0-2.608.623-4.615.307-2.008-.316-5.653 2.169-7.479-.578-3.304-4.97 5.216-18.285 4.713-25.22-.504-6.935-3.146-29.037-3.354-34.907-1.799-50.723-12.909-147.495-12.909-147.495s-6.486 76.907-28.387 123.155c-5.433 11.473-12.833 30.351-5.443 40.077 7.39 9.725 3.148 18.35 5.793 28.256 2.113 7.912 7.384 14.682 7.87 24.096.24 4.649-6.617 3.656-7.29 3.179-.674-.476-1.815-3.197-2.386-2.964-.855.349 1.406 2.778-1.291 4.456-2.696 1.678-3.77-.167-5.051.385-1.249.537-1.911 2.212-3.33 1.971-2.875-.487-3.035-1.626-3.336-1.526-.314.105.149 1.884-1.029 2.223-1.177.339-4.589-1.142-5.282-1.816-1.015-.987-.647 2.602-2.007 2.429-5.54-.707-7.437-5.794-6.926-8.817-2.911 6.979-6.939 11.556-14.018 14.087-1.604.574-2.461-1.229-3.275-1.136-.447.05.372 1.469-.965 1.904-1.337.434-1.981.269-3.674-.232-1.693-.502-1.258-4.764-1.672-4.764-.414 0-.393 2.198-1.133 2.818-1.421 1.191-2.236 1.296-3.467-.316-.689-.904.117-2.4-.373-2.502-.333-.07-.96 1.735-2.099 2.006-1.995.473-2.646.655-4.169-1.405-.666-.9.595-3.405-.207-3.631-.803-.225-1.798 3.951-2.836 4.727-1.037.777-1.729.107-2.667-.602-5.187-9.876 2.323-21.235 7.502-31.114 14.644-27.93 10.965-61.836 3.054-92.359-7.911-30.523-19.74-60.569-20.36-92.093-.242-12.279 1.233-24.639-.456-36.804-1.84-13.249-7.344-25.664-11.355-38.425-7.62-24.244-9.861-49.834-10.857-75.226-.785-19.994-.791-40.312 4.457-59.622 5.248-19.311 16.352-37.744 33.518-48.05 10.705-6.427 23.978-10.039 30.892-20.432 6.468-9.722 5.339-22.433 3.962-34.026-4.577-.831-7.973-5.77-7.107-10.337.865-4.567 5.833-7.924 10.397-7.025l-5.934-11.594c1.266 1.839 7.377 12.859 6.993-1.227.483 3.499 1.342 4.56 2.25 10.365Z" fill="#fff"/><path fill-rule="evenodd" clip-rule="evenodd" d="M462.431 654.629c-1.981 1.146-4.547 2.631-6.195 1.078-4.501-4.244-12.004-4.802-17.13-1.374l-.306.211-.243 2.876c5.125-3.853 13.014-3.414 17.679.985 1.479 1.394 3.699.34 5.57-.72l1.049-.599c5.275-2.874 12.216-2.408 17.041 1.18 2.7 2.007 5.947.74 9.309-.571 2.809-1.096 5.697-2.222 8.414-1.497 1.27.339 2.522 1.07 3.749 1.787 2.248 1.314 4.412 2.578 6.446 1.287 4.028-2.555 9.592-2.426 13.497.313l-.353-2.086-.155-.947c-3.869-2.41-9.133-2.424-12.989.023-2.033 1.29-4.198.026-6.446-1.287-1.227-.717-2.479-1.449-3.749-1.788-2.717-.725-5.605.402-8.414 1.498-3.362 1.311-6.609 2.578-9.309.57-4.924-3.661-12.05-4.071-17.362-.999l-.103.06Zm-.038 30.673c-1.936 1.221-4.443 2.804-6.149 1.315-4.661-4.068-17.601 2.39-17.601 2.39.78.35 2.567-.013 4.77-.461 4.151-.843 9.779-1.987 12.935.767 1.531 1.336 3.709.197 5.538-.933l1.025-.639c5.161-3.075 12.114-2.876 17.074.524 2.774 1.903 5.971.512 9.28-.927 2.764-1.203 5.608-2.44 8.35-1.819 1.282.29 2.561.973 3.815 1.642 2.297 1.226 4.508 2.406 6.491 1.039l.276-.185c2.263-1.462 7.263-.552 11.796.273 3.297.601 6.347 1.156 7.915.719 0 0-16.331-6.096-20.091-3.503-1.982 1.368-4.193.188-6.491-1.039-1.253-.669-2.533-1.352-3.815-1.642-2.742-.62-5.585.617-8.35 1.819-3.309 1.44-6.505 2.83-9.28.928-5.061-3.47-12.197-3.606-17.387-.332l-.101.064Zm1.616-110.861c-1.771 1.274-4.552 2.064-5.896.345-4.219-5.394-14.06-4.503-17.24 1.562 3.716-2.057 8.096-4.168 12.027-2.558 1.094.448 2.098 1.169 3.091 1.883 1.655 1.189 3.281 2.357 5.244 2.206 1.46-.113 2.72-.958 3.973-1.798 1.346-.903 2.684-1.801 4.256-1.783 1.745.02 3.165 1.154 4.587 2.289 1.417 1.132 2.834 2.264 4.573 2.292 1.424.023 2.72-.715 4.004-1.446 1.436-.817 2.857-1.626 4.425-1.354 1.871.323 2.995 1.995 4.121 3.669 1.119 1.664 2.239 3.33 4.097 3.673 1.101.203 2.192-.133 3.255-.542l1.054-.416c2.484-.966 5.256-1.502 7.816-.759 2.199.639 4.157 2.42 4.675 4.597a62.193 62.193 0 0 0-.11-1.446l-.065-2.751c-2.819-2.329-6.761-3.233-10.314-2.36-.609.149-1.209.348-1.808.546-1.153.382-2.304.763-3.511.791-1.834.043-3.915-1.156-3.928-2.989l-.007-.197c-.198-3.038-4.494-4.043-7.519-3.251a43.49 43.49 0 0 0-1.952.579c-2.501.784-5.059 1.585-7.328.468-.877-.431-1.618-1.121-2.351-1.805-1.026-.956-2.038-1.899-3.39-2.103-1.66-.251-3.138.703-4.538 1.736l-1.241.922Zm-22.989-21.84c1.207-2.884 1.174-6.071 1.03-8.623 0 0-2.093 3.684-4.877 3.287l-.196-.021c-1.253-.091-2.566.625-3.802 1.3-1.669.911-3.199 1.746-4.256.415-2.594-3.262-6.834-5.144-10.995-4.882-1.182.075-2.433.353-3.253 1.207-.82.854-.959 2.426-.019 3.145.963-2.408 4.327-2.87 6.732-1.896 1.371.555 2.575 1.421 3.78 2.288.909.654 1.82 1.31 2.804 1.833 2.291 1.218 5.509 1.508 7.166-.487l.129-.146c1.294-1.359 3.795-1.333 5.028.1.585.679.814 1.592.729 2.48Zm11.638-36.734c-2.826 1.27-5.947-.966-8.051-3.239l-1.009-1.083c-1.857-1.961-3.96-3.855-6.571-3.714-1.41.076-2.707.764-3.915 1.494a44.706 44.706 0 0 0-9.754 7.963c2.768.235 5.073-1.669 7.357-3.556 2.399-1.981 4.774-3.943 7.638-3.39 2.185.422 3.706 2.197 5.222 3.966 1.558 1.818 3.11 3.63 5.374 3.961 1.501.219 2.972-.29 4.426-.794.353-.123.706-.245 1.058-.356 6.989-2.211 15.201.163 19.929 5.76 2.159 2.556 6.19 1.344 9.244-.2l.84-.434c3.055-1.542 7.099-2.735 9.237-.162l.203.236c3.437 3.842 9.471 3.507 14.711 2.621l.933-.165c.055.314.108.655.16 1.023l.104.771c1.127-3.955.682-4.858-.264-2.763-1.695-1.519-5.005-1.056-7.227-.559l-.204.044c-2.195.445-4.987.27-5.807-1.779-1.5-3.749-6.978-3.226-10.711-1.68l-.482.198c-3.658 1.486-8.2 2.93-10.855.118-5.37-5.688-14.45-7.488-21.586-4.281Zm58.403-4.081c.042-1.259.174-2.757.414-4.46l.06-.413c-2.573-1.606-5.839-2.059-8.753-1.213-2.398.696-4.418-.957-6.488-2.65-1.843-1.507-3.724-3.047-5.947-2.99-1.791.045-3.26 1.119-4.746 2.204-1.2.877-2.412 1.763-3.814 2.122-3.416.874-6.56-1.517-9.355-3.86l-1.114-.938c-3.063-2.576-7.9-4.657-10.745-1.842l-.182.171c-2.399 2.144-6.319 1.382-9.154-.233-.899-.512-1.767-1.096-2.634-1.68-1.939-1.305-3.874-2.607-6.137-3.091-3.274-.699-7.495 1.54-7.054 4.856 2.4-2.54 6.438-3.37 9.647-1.983 1.511.653 2.92 1.745 4.306 2.82 2.524 1.957 4.973 3.855 7.829 2.94.868-.279 1.618-.804 2.371-1.33.636-.445 1.274-.891 1.986-1.189 3.61-1.514 6.972 1.058 10.375 3.661 3.288 2.514 6.614 5.058 10.237 3.975 1.345-.401 2.523-1.286 3.685-2.158 1.591-1.195 3.153-2.368 5.071-2.245 1.96.125 3.469 1.582 4.914 2.977l.281.271.399.378c1.66 1.552 4.166 2.884 6.1 1.689 3.097-1.915 7.277.741 8.448 4.211Zm2.737-15.221c.635-.762 1.231-1.728 1.79-2.899.755-1.581.767-4.303 0-2.697-.931 1.95-3.085 3.5-5.191 3.005-.926-.218-1.717-.787-2.506-1.353-.876-.629-1.749-1.256-2.798-1.394-1.187-.156-2.307.347-3.422.846-.358.161-.715.321-1.073.459-1.475.568-3.515.571-4.237-.834-2.491-4.843-10.238-5.723-13.753-1.561-1.448 1.715-4.325.615-5.848-1.033-.38-.411-.742-.857-1.104-1.304-1.089-1.342-2.184-2.692-3.809-3.139-1.83-.503-3.603.318-5.394 1.148-1.616.748-3.246 1.504-4.946 1.299-1.75-.21-3.137-1.373-4.518-2.532-.465-.391-.93-.781-1.407-1.134-1.896-1.399-4.965-2.077-6.328-.156 2.341.343 4.372 1.603 6.406 2.865.859.533 1.719 1.066 2.602 1.531 2.977 1.566 7.106 2.173 9.345-.336l.134-.14c1.65-1.603 4.59-.287 6.183 1.465.291.319.579.657.869.997 1.341 1.574 2.731 3.205 4.725 3.386 1.788.162 3.325-.92 4.863-2.002 1.528-1.075 3.058-2.152 4.836-2.01 1.821.145 3.162 1.502 4.507 2.861 1.319 1.334 2.642 2.672 4.423 2.87.956.107 1.894-.144 2.833-.395.391-.105.783-.21 1.176-.289 3.66-.734 7.328.773 10.729 2.387l.7.335.213-.246Zm-67.342 31.637c.525.288 1.027.77 1.085 1.404.058.633-.579 1.299-1.105 1.012-2.05-1.119-4.53-.251-6.593.84-.242.128-.485.259-.729.391-1.835.994-3.729 2.018-5.749 1.832-1.749-.161-3.374-1.209-4.963-2.235-2.111-1.363-4.159-2.685-6.354-1.832-1.113.432-1.947 1.352-2.786 2.279-.623.688-1.25 1.379-1.996 1.878-.213.142-.456.273-.704.232-.681-.111-.65-1.201-.355-1.874 1.921-4.373 7.396-6.419 11.406-4.261.699.376 1.354.858 2.007 1.338 1.126.828 2.246 1.651 3.569 1.918 2.141.431 4.23-.701 6.198-1.767l.402-.218c2.084-1.121 4.591-2.077 6.667-.937Zm16.61 5.66c2.989 1.629 6.915 1.433 9.72-.486 1.995-1.366 4.768-.213 6.649 1.3.372.3.74.616 1.109.934 1.497 1.288 3.017 2.596 4.948 2.87 1.573.224 3.092-.292 4.621-.81 1.263-.429 2.533-.86 3.847-.878 2.193-.031 4.165 1.07 6.103 2.152.415.233.829.464 1.244.683 2.346 1.24 5.369 2.09 7.558.598l-9.996-4.206c-1.378-.58-2.796-1.169-4.294-1.23-1.363-.055-2.698.33-4.028.713-1.536.443-3.065.884-4.622.641-1.957-.305-3.5-1.603-5.037-2.896-.506-.426-1.011-.852-1.53-1.24-2.095-1.57-5.386-2.48-7.153-.561-1.581 1.716-4.392 1.659-6.587.818-1.039-.398-2.015-.935-2.99-1.472-1.085-.597-2.17-1.194-3.34-1.599-2.222-.769-5.072-.627-6.471 1.235-.136.607.597 1.098 1.229 1.062.404-.023.781-.174 1.159-.326.212-.086.424-.171.642-.234 1.918-.555 3.669.622 5.407 1.79.604.406 1.205.811 1.812 1.142Zm51.055 96.32c-.804 2.073-3.651 2.383-5.595 1.419-1.138-.564-2.102-1.413-3.068-2.264-.684-.603-1.37-1.206-2.119-1.711-1.807-1.216-4.455-1.711-5.957-.109-3.731 3.979-9.651 5.579-14.781 3.996-1.963-.607-3.767-1.623-5.574-2.64-1.012-.57-2.024-1.14-3.065-1.639-2.902-1.39-6.357-2.204-9.252-.798-1.105.536-2.042 1.355-2.98 2.175-.804.703-1.609 1.407-2.522 1.935-3.095 1.789-7.086 1.267-10.139-.598a27.936 27.936 0 0 1-1.538-1.035c-1.157-.816-2.313-1.631-3.657-1.989-1.932-.515-4.461.471-4.672 2.528-1.358-2.047.827-4.983 3.216-5.175 2.389-.192 4.56 1.315 6.523 2.74 1.964 1.424 4.172 2.897 6.554 2.623 1.994-.23 3.54-1.592 5.108-2.972 1.063-.936 2.135-1.881 3.363-2.486 4.073-2.01 8.857.048 12.834 2.255 3.976 2.208 8.424 4.668 12.762 3.387 1.708-.505 3.189-1.546 4.67-2.587h.001c.573-.402 1.146-.805 1.732-1.177 2.102-1.332 4.736-2.291 6.997-1.275.993.445 1.788 1.217 2.584 1.991.36.35.721.7 1.1 1.02 2.073 1.75 4.813 2.625 7.475 2.386Zm21.08 82.613c-2.32 2.998-7.012 1.973-10.562.639s-8.203-2.428-10.597.511c-1.361 1.67-4.051 1.405-5.935.358-.808-.449-1.551-1.008-2.293-1.566-.987-.743-1.973-1.484-3.107-1.963-4.412-1.865-9.218.726-13.505 3.038l-.421.226-.276.149-.064.034c-4.474 2.396-10.781 3.923-14.015.013-2.21-2.671-6.504-1.996-9.612-.456-.63.313-1.26.653-1.892.995l-.001.001c-2.482 1.343-5.002 2.706-7.756 2.463-2.443-.216-4.646-1.671-6.803-3.095-2.736-1.808-5.398-3.566-8.381-2.679-.937.278-1.782.809-2.622 1.337-1.067.67-2.126 1.336-3.359 1.476.004-3.056 3.346-5.229 6.404-5.175 2.928.051 5.604 1.523 8.179 2.941l.343.188c2.68 1.472 5.617 2.897 8.656 2.548 2.098-.241 3.953-1.292 5.812-2.344.8-.453 1.602-.907 2.423-1.297 2.729-1.294 6.449-1.687 8.378.635 2.512 3.023 7.222 3.082 10.924 1.758 1.748-.626 3.398-1.491 5.046-2.357h.001c1.841-.966 3.681-1.932 5.657-2.562 3.746-1.194 8.513-.776 10.694 2.492 1.337 2.003 4.369 1.859 6.59.926.618-.26 1.227-.564 1.836-.869 1.579-.789 3.157-1.578 4.896-1.589 1.849-.011 3.645.857 5.402 1.706 2.333 1.128 4.595 2.222 6.816 1.174l3.144.344Zm-49.639-108.96c-2.515.441-4.769-.907-7.053-2.272-1.961-1.173-3.944-2.359-6.134-2.437-2.606-.094-4.944 1.381-7.259 2.841-2.549 1.609-5.071 3.199-7.892 2.66-1.122-.215-2.137-.757-3.155-1.3a23.106 23.106 0 0 0-1.532-.772c-3.898-1.728-8.725-1.035-12.001 1.724.628-2.902 3.533-4.886 6.444-5.124 2.91-.238 5.767.957 8.233 2.549 2.1 1.356 4.898.796 7.122-.337.89-.454 1.74-.99 2.588-1.525 1.272-.803 2.542-1.605 3.944-2.125 3.904-1.447 8.595-.357 11.496 2.671 1.765 1.842 4.781 1.349 7.122.38.336-.139.675-.286 1.015-.434 2.03-.88 4.129-1.79 6.237-1.288 1.869.444 3.35 1.913 4.8 3.352 1.766 1.753 3.487 3.462 5.813 3.222.758-.078 1.466-.373 2.176-.668.521-.217 1.044-.434 1.588-.567 1.286-.313 2.978.132 3.255 1.448-3.682 1.403-7.977 2.765-11.361.726-1.062-.639-1.964-1.581-2.856-2.513-1.413-1.475-2.799-2.922-4.745-3.09-1.588-.137-3.005.649-4.439 1.445-1.097.609-2.204 1.224-3.406 1.434Zm-16.726-48.783c1.344-.848 2.688-1.698 4.257-1.824 2.388-.193 4.396 1.3 6.342 2.748h.001c.433.323.864.643 1.295.942 2.365 1.64 6.249 2.478 7.81.128.914-1.377 3.1-1.458 4.624-.709 1.109.545 1.988 1.398 2.866 2.252.329.32.658.639 1 .943 1.429 1.271 3.191 2.309 5.143 2.488 1.951.178 4.086-.672 4.939-2.344-4.622.943-9.758-1.122-12.254-4.927-1.258-1.92-4.372-.996-6.41.178-2.039 1.174-5.037 2.253-6.473.448-3.346-4.206-10.577-4.952-14.8-1.525-2.061 1.672-5.303.559-7.374-1.102-.543-.435-1.066-.909-1.59-1.383-1.472-1.333-2.947-2.668-4.878-3.167-3.393-.875-7.281 1.728-7.542 5.049.954.113 1.955-.384 2.399-1.192.987-1.798 3.689-2.134 5.66-1.346 1.567.627 2.818 1.752 4.061 2.872.32.288.64.576.965.856 1.585 1.361 3.547 2.601 5.68 2.441 1.578-.119 2.929-.972 4.279-1.826Z" fill="#FFB61D"/><path fill-rule="evenodd" clip-rule="evenodd" d="M488.806 405.88c5.967-14.276 22.038-23.605 37.406-21.714-9.887-5.226-21.349-13.396-19.542-24.426 1.389-8.481 10.481-13.621 19.012-14.715 12.537-1.607 26.693 4.082 31.584 15.727 4.891 11.645-3.833 27.744-16.463 27.249 10.625 10.504 14.481 27.299 9.499 41.379-2.501 7.07-13.327 7.483-18.865 2.423-5.539-5.06-7.13-13.013-8.421-20.4a46.01 46.01 0 0 1-20.856 7.184c3.49 1.174 6.421 3.907 7.834 7.305a55.515 55.515 0 0 0-20.944-10.133c-2.761 9.272-5.552 18.884-4.281 28.474 1.272 9.59 7.766 19.2 17.298 20.897 10.987 1.956 20.213-6.742 29.503-15.499 8.976-8.461 18.01-16.978 28.749-15.993 9 .826 15.803-3.171 19.069-11.591 3.266-8.42.308-18.835-6.899-24.285-4.283.2-8.401-3.359-8.819-7.624-.418-4.264 2.93-8.554 7.171-9.188-9.004-12.827-6.737-32.259 4.978-42.673 11.715-10.414 31.296-10.401 42.998.028-6.408-10.336-.335-25.951 11.296-29.524 11.631-3.574 25.282 5.602 26.644 17.684 1.361 12.081-9.57 23.956-21.738 23.907 2.026 9.35 10.593 16.89 20.131 17.718-4.077 4.711-11.886.271-15.266-4.962-.482-.747-.961-1.526-1.446-2.314-2.911-4.734-6.028-9.804-11.347-10.3 7.623 8.979 12.653 20.132 14.336 31.786a80.765 80.765 0 0 1-11.054-26.734 41.351 41.351 0 0 1-4.043 22.196c3.97-1.908 8.355 3.15 7.716 7.505-.607 4.142-3.804 7.307-6.803 10.276l-.462.458c-8.894 8.833-16.617 22.248-10.75 33.321 3.037 5.733 8.84 9.045 14.597 12.332 1.736.991 3.469 1.98 5.12 3.032 15.354 9.786 25 26.747 29.664 44.338 4.664 17.59 4.893 36.008 5.093 54.204l1.283 116.839c.142 12.841-.539 27.538-10.504 35.649 6.093-8.449 8.726-19.314 7.178-29.612-10.23 34.588-18.268 69.17-21.067 109.258-.909 13.015-.939 23.575-.968 33.772-.061 21.213-.117 40.858-8.067 77.77-1.06 4.921 1.257 10.722 4.185 15.428 2.217 3.563 7.102 6.446 11.625 9.117 5.914 3.492 11.21 6.619 9.12 10.422-4.263 7.756-21.582 6.835-34.474 6.151a492.992 492.992 0 0 0-3.866-.197c-5.347-.244-11.092-1.12-14.921-4.859-4.758-4.647-5.027-12.077-5.011-18.725a2622.024 2622.024 0 0 0-8.048-211.515c-1.056 54.501-2.121 109.126-9.014 163.2-.577 4.527-1.33 9.117-2.086 13.733-1.79 10.913-3.603 21.968-3.172 32.673.195 4.87 1.605 9.946 3.006 14.991.985 3.543 1.965 7.071 2.517 10.502 1.063 6.605-3.733 8.875-8.833 8.503-.674-.05-1.279.208-1.889.467-.611.26-1.227.522-1.922.478-.561-.036-1.126-.24-1.708-.45h-.001c-.612-.221-1.243-.448-1.911-.495-.679-.048-1.392.067-2.118.183-.766.124-1.545.249-2.313.189-.458-.037-.771-.213-1.118-.409-.503-.283-1.077-.607-2.264-.607-.853 0-1.451.112-2.011.217-.76.142-1.449.272-2.604.09-.671-.106-1.524.101-2.432.322-1.809.438-3.831.929-5.047-.9-1.874-2.819.057-8.325 1.987-13.828 1.472-4.196 2.944-8.391 2.726-11.392-.215-2.963-.821-8.696-1.46-14.748-.857-8.112-1.775-16.797-1.894-20.159-1.799-50.723-5.722-101.839-13.655-151.97a175.186 175.186 0 0 1-42.214 20.97c-5.249 1.774-6.485 8.501-6.849 14.025-2.667 40.441-5.15 82.262 8.746 120.339a799.724 799.724 0 0 0 40.464-145.411 459.469 459.469 0 0 1-28.788 117.707c-4.963 12.709-11.833 30.351-4.443 40.077 4.644 6.11 4.695 11.787 4.747 17.619.031 3.45.063 6.955 1.046 10.637.805 3.013 2.068 5.861 3.35 8.753 2.084 4.7 4.219 9.514 4.52 15.343.24 4.649-6.617 3.656-7.29 3.179-.285-.201-.653-.803-1.026-1.414-.51-.834-1.03-1.684-1.36-1.55-.304.124-.214.51-.094 1.032.22.948.542 2.342-1.197 3.424-1.671 1.04-2.719.727-3.579.47-.528-.158-.985-.295-1.472-.085-.489.21-.888.595-1.278.971-.605.584-1.188 1.147-2.052 1-2.039-.345-2.712-1.018-3.039-1.345-.134-.134-.21-.21-.297-.181-.107.036-.124.265-.146.565-.043.583-.105 1.435-.883 1.658-1.177.339-4.399-1.025-5.092-1.699-.502-.488-.712.114-.961.827-.254.728-.549 1.572-1.236 1.485-5.54-.707-7.437-5.794-6.926-8.817-2.911 6.979-6.939 11.556-14.018 14.087-.984.352-1.686-.19-2.27-.64-.369-.284-.69-.532-1.005-.496-.164.018-.158.22-.15.489.014.467.033 1.139-.815 1.415-1.337.434-1.981.269-3.674-.232-1.128-.335-1.311-2.337-1.43-3.637-.06-.652-.104-1.127-.242-1.127-.187 0-.286.45-.406 1.001-.145.666-.322 1.478-.727 1.817-1.421 1.191-2.236 1.296-3.467-.316-.384-.504-.304-1.191-.242-1.719.049-.419.086-.738-.131-.783-.129-.027-.302.227-.532.564-.363.534-.869 1.276-1.567 1.442l-.068.016c-1.942.46-2.596.616-4.101-1.421-.331-.447-.186-1.29-.055-2.053.133-.773.251-1.464-.152-1.578-.426-.119-.906 1-1.418 2.193-.453 1.056-.93 2.169-1.418 2.534-.954.714-1.615.205-2.445-.433a15.945 15.945 0 0 0-.222-.169c-4.596-8.752.777-18.667 5.665-27.686l.002-.004.004-.008c.626-1.155 1.244-2.295 1.831-3.416 14.644-27.93 10.965-61.836 3.054-92.359-2.044-7.89-4.351-15.747-6.658-23.607-6.619-22.547-13.242-45.11-13.702-68.486-.085-4.319.042-8.648.17-12.976.234-7.974.469-15.942-.626-23.828-1.307-9.41-4.462-18.398-7.617-27.389-1.288-3.669-2.576-7.338-3.738-11.036-7.62-24.244-9.861-49.834-10.857-75.226-.785-19.994-.791-40.312 4.457-59.622 5.248-19.311 16.352-37.744 33.518-48.05 3.121-1.874 6.461-3.509 9.798-5.142 8.107-3.968 16.196-7.927 21.094-15.29 6.468-9.722 5.339-22.433 3.962-34.026-4.577-.831-7.973-5.77-7.107-10.337.865-4.567 5.833-7.924 10.397-7.025l-5.934-11.594c.12.175.285.434.484.746 1.888 2.966 6.856 10.771 6.509-1.973.22 1.592.517 2.68.862 3.939.413 1.508.893 3.263 1.388 6.426ZM655.54 667.305c1.241-1.488 1.72-3.451 2.121-5.346 6.328-29.918 1.827-60.003-12.488-87.03a481.85 481.85 0 0 1-95.452-1.331c-4.687-.533-7.681 4.77-9.17 9.242-8.274 24.85-11.22 51.457-8.582 77.514.455 4.493 5.852 6.446 10.315 7.16 10.23 1.636 15.881.587 24.261-.968h.003c6.434-1.195 14.478-2.687 27.438-3.492 1.53-.096 1.461-5.332 1.373-12.006-.094-7.121-.209-15.879 1.572-21.779a8051.411 8051.411 0 0 1 11.522 282.668c.068 2.935.196 6.064 1.888 8.464 2.398 3.403 7.052 4.187 11.207 4.475 12.874.893 37.413 1.417 38.418-3.297-.63-4.209-5.422-6.605-9.911-8.849-.898-.449-1.785-.892-2.623-1.343-7.199-3.866-11.021-12.231-11.743-20.365-.645-7.267.77-14.514 2.173-21.697.167-.856.335-1.712.498-2.567a311.541 311.541 0 0 0 5.404-67.603 643.861 643.861 0 0 0-.21-5.885c-.267-6.882-.535-13.766-.003-20.627.661-8.541 2.55-16.92 4.436-25.287l.001-.005.001-.005.001-.004.001-.005c.388-1.719.775-3.437 1.152-5.157a429.36 429.36 0 0 0 9.44-71.217c-18.737 8.146-41.357 6.719-58.921-3.716 15.24 6.005 32.09 5.874 48.277 3.355 2.793-.435 5.793-1.126 7.601-3.297Zm12.571-145.718a214.668 214.668 0 0 0-12.231-50.879c-1.112-2.969-2.836-5.208-4.682-7.606a105.541 105.541 0 0 1-1.572-2.075c-4.39-5.982-10.739-9.888-17.12-13.815-4.988-3.069-9.997-6.151-14.106-10.247-5.64 5.223-13.454 8.025-21.13 7.577-7.677-.448-15.111-4.14-20.103-9.983-.369-.432-1.023-.441-1.59-.41-9.442.51-18.93 2.229-27.487 6.249-8.557 4.02-16.152 10.485-20.433 18.909-1.749 3.442-2.923 7.143-4.022 10.845a317.894 317.894 0 0 0-11.411 57.382c-.121 1.163-.196 2.466.553 3.364.506.606 1.288.895 2.04 1.136a39.825 39.825 0 0 0 20.517.982l-18.85-2.652c-1.121-.157-2.574-1.351-1.669-2.03.295-.222.703-.186 1.07-.14l22.208 2.78c.988.123 1.571-1.075 1.734-2.056.471-2.841.106-5.831-.255-8.785-.54-4.429-1.071-8.779 1.242-12.426a246.379 246.379 0 0 1-1.105 59.456c-.323 2.297 2.682 3.429 4.987 3.702a522.202 522.202 0 0 0 95.165 2.538c4.955-.321 8.703-5.064 9.588-9.945.886-4.882-.414-9.866-1.705-14.657l-9.716-36.074c-.588-2.184-1.031-4.894.676-6.38l5.892 22.746c.243.938.578 1.991 1.456 2.402.642.301 1.395.163 2.091.018l15.468-3.214c1.302-.27 2.694-.59 3.593-1.569 1.217-1.325 1.11-3.356.907-5.143Zm-155.078-18.556c2.432-11.578 5.595-26.637-8.483-22.02l-.246.081c-5.592 1.834-12.2 4.002-18.192 2.099-6.08-1.932-11.239-6.578-13.792-12.42 1.621-1.198 3.626.793 4.855 2.39 5.96 7.741 17.545 10.516 26.371 6.318 4.322-2.057 4.35-8.096 3.722-12.838-9.498 3.205-21.054-3.475-23.008-13.3-1.877 6.533-6.236 12.322-11.999 15.933-2.167 1.358-4.504 2.409-6.84 3.459h-.001v.001h-.002v.001h-.001c-.733.329-1.466.659-2.193.998-28.752 13.396-49.098 43.233-51.055 74.87-.086 1.402.198 3.252 1.585 3.48l21.335 3.508c.255.042.489.089.714.134 1.154.232 2.033.408 3.93-.463 2.266-1.041 2.692-12.073 2.479-15.492-.213-3.42-.44-7.783 2.657-9.253.283 11.067-1.532 22.008-3.348 32.96-1.475 8.892-2.952 17.792-3.307 26.773-.115 2.891-.026 5.791.063 8.688.098 3.189.195 6.376.021 9.544-2.291 41.739-2.708 136.485-2.708 136.485s40.295-3.146 55.101-6.684c21.828-5.217 36.105-11.585 43.31-14.799 3.3-1.473 5.117-2.283 5.496-2.018-1.33-7.745-4.829-22.883-8.885-40.434-7.96-34.435-18.066-78.159-18.149-93.577-.006-1.069-.501-2.507-.909-3.692-.608-1.766-1.023-2.97.666-1.553l-.327-13.777c-.075-3.178-.299-10.142-.533-11.717-2.517-16.932-1.361-27.637-.496-35.654.346-3.204.646-5.979.646-8.55 0-2.231.721-5.667 1.523-9.481Zm52.009 428.354c.357 4.299 3.298 4.903 5.799 2.829.826-.684 1.129-3.125 1.435-5.595.056-.45.112-.902.171-1.344.461 1.076.529 2.687.592 4.181.084 2.013.159 3.814 1.175 3.814 4.039 0 3.395-7.033 3.091-10.359l-.055-.609c.829-1.205 2.17 2.024 1.829 3.891-.341 1.868-.385 4.266.962 5.605 2.144 2.132 5.459-1.312 5.858-4.308.695-5.232-1.071-10.25-2.851-15.309-1.256-3.568-2.52-7.157-2.932-10.857-.537-4.828.395-9.676 1.315-14.455l.003-.017.135-.702c8.341-43.534 9.707-88.06 11.049-132.365l2.673-88.24a147.196 147.196 0 0 1-59.9 1.824c-1.106-.195-1.478 1.426-1.354 2.541 2.307 20.633 5.529 41.192 8.749 61.742 6.115 39.021 12.226 78.012 12.058 117.432-.011 2.7-.052 5.404-.092 8.111-.181 12.031-.362 24.094 2.011 35.857.219 1.087.46 2.178.701 3.274 1.201 5.445 2.42 10.971 1.08 16.318-.543 2.162-1.494 4.282-2.439 6.388-1.81 4.032-3.595 8.01-2.429 12.117.335 1.176 1.251 2.472 2.457 2.264 1.485-.256 1.491-2.071 1.497-3.852.006-1.792.012-3.55 1.526-3.648-.264 2.668 1.265 7.112 3.007 6.58 1.109 0 1.311-2 1.526-4.144.15-1.491.307-3.051.781-4.056.871 1.405.728 2.822.618 3.918-.046.454-.086.854-.046 1.174Zm-36.67-291.44c-.106-12.823 2.395-25.507 4.886-38.086 2.025-10.224 4.177-20.76 10.059-29.367-1.755.826-3.919-.444-4.761-2.19-.841-1.746-.72-3.782-.581-5.715l1.923-26.679c.104-1.443-.546-3.539-1.925-3.1-7.115 2.263-14.991 2.055-21.976-.581-1.046-.395-1.685 1.147-1.734 2.263-2.277 51.607 14.269 122.905 14.109 103.455ZM501.773 940.73c1.028-.143 1.805 2.194 2.451 4.14.315.948.599 1.803.867 2.232.859 1.381 3.201.854 4.026-.548.437-.742.366-2.466.306-3.924-.053-1.295-.098-2.38.23-2.38 1.835 0 2.425 1.468 2.987 2.867.557 1.384 1.086 2.7 2.767 2.459 1.374-.198 2.26-1.577 2.648-2.908 1.402-4.821-1.223-9.254-3.902-13.78-1.449-2.447-2.913-4.92-3.766-7.496-1.142-3.449-1.161-7.127-1.179-10.801-.02-3.869-.039-7.733-1.372-11.321-.853-2.299-2.207-4.363-3.556-6.42-.276-.421-.552-.842-.823-1.264-13.898-21.628-16.403-48.501-16.901-74.199a611.972 611.972 0 0 1 2.626-69.711l-8.709 1.246-43.892 6.278c6.695 39.648 17.781 78.405 28.844 117.064 1.414 4.94 2.833 9.893 4.802 14.64a67.364 67.364 0 0 0 8.111 14.301c4.91 6.617 4.54 15.541 4.196 23.831l-.001.007v.006l-.024.595-.019.45-.015.359-.011.264-.024.564-.022.474c-.367 8.24-.79 17.74 6.388 21.384 1.767.897 1.524-.75 1.223-2.789-.233-1.579-.501-3.394.102-4.447.196 1.9.414 3.869 1.397 5.507.983 1.638 2.963 2.845 4.799 2.314.517-.282.302-1.542.045-3.056-.276-1.623-.602-3.537-.127-4.847.574.937.825 1.915 1.087 2.934.279 1.089.57 2.225 1.28 3.409 1.228 2.049 4.325.894 4.531-1.004.116-1.066-.332-2.056-.771-3.028-.511-1.129-1.011-2.233-.599-3.402Zm-70.601-251.269c2.561-31.295 5.124-62.645 4.77-94.042l-.021-1.716v-.002c-.062-4.768-.123-9.542.369-14.282a61.453 61.453 0 0 1 3.313-14.485l-26.089-3.177c-.361-.044-.78-.068-1.032.194-.19.197-.218.495-.236.768-2.823 42.949 3.678 86.487 18.926 126.742Zm215.78-153.42 3.18 12.847c1.08 4.363 2.169 8.807 1.914 13.295-.256 4.489-2.063 9.11-5.734 11.708 11.229 15.842 15.067 35.816 15.685 55.218.328 10.319-.171 20.634-.67 30.951v.007c-.439 9.081-.879 18.162-.754 27.248 7.574-20.116 7.876-42.124 8.086-63.615l.567-57.997c.116-11.892.23-23.832-1.329-35.623l-18.271 3.609c-1.311.259-2.995 1.056-2.674 2.352Zm-66.034-198.484c-8.3 4.184-12.605 14.037-12.412 23.324.081 3.875 1.176 8.243 4.585 10.093 2.193 1.19 5.068.988 7.073-.497 2.005-1.484 3.035-4.174 2.534-6.617-.239-1.159 1.337-2.042 2.422-1.566 1.084.476 1.608 1.728 1.762 2.902.06.452.08.909.101 1.367.033.729.066 1.458.256 2.16.525 1.938 2.33 3.461 4.331 3.653 2 .192 4.062-.959 4.947-2.762.229-.466.387-.971.545-1.473.269-.857.535-1.707 1.145-2.348.967-1.017 3.305-.53 2.996.839-.632 2.8 2.322 5.56 5.177 5.246 2.855-.314 5.051-3.039 5.372-5.89l.013-.124.011-.093c.171-1.561.392-3.57 1.91-3.705 1.265 1.26 1.555 3.147 1.841 5.007.32 2.079.634 4.124 2.297 5.226 2.359 1.564 5.613-.202 7.217-2.533 2.291-3.328 2.745-7.677 1.925-11.632-.819-3.955-2.801-7.576-5.058-10.927-1.699-2.524-3.587-4.951-5.909-6.916-7.23-6.116-17.671-6.911-26.992-5.222-2.785.505-5.561 1.214-8.089 2.488Zm-117.467 535.89c-.995 5.324-1.404 10.689-1.812 16.055-.409 5.366-.818 10.732-1.813 16.055-.282 1.51-2.44 5.626-5.183 10.856-5.5 10.486-13.35 25.452-13.132 32.87.04 1.338.647 3.977 1.781 3.813 2.132-.309 2.529-2.663 2.898-4.854.045-.267.089-.532.136-.791.435-2.376.795-3.1 3.188-2.749.732.23.732 1.155-.094 2.749-.827 1.595-1.435 3.602-.466 5.115.97 1.512 4.028 1.109 3.878-.681-.12-1.429.899-2.87 2.287-3.235.466.815.266 1.916.079 2.95-.232 1.279-.445 2.454.647 2.851 1.496.544 2.302-1.676 2.58-3.242.279-1.567 2.4-3.25 3.075-1.809-1.789 2.173-3.64 7.311 1.31 7.311 1.376 0 1.356-2.244 1.336-4.487-.01-1.122-.02-2.244.144-3.085 1.323-.083 1.86 1.725 1.624 3.028-.056.31-.128.58-.192.827-.209.79-.351 1.332.28 2.12 1.176 1.466 3.546.371 4.897-.936 5.219-5.053 8.009-11.311 9.077-18.494 1.068-7.183.558-14.496.046-21.74-.266-3.765-.62-7.773-2.929-10.762a72.796 72.796 0 0 1-13.642-29.735Zm133.74-500.442c-2.591 2.68-7.448 2.652-10.007-.058a14.704 14.704 0 0 1-.677-.792c-.45-.554-.899-1.106-1.495-1.491-.886-.571-2.285-.575-2.797.347-2.14 3.853-7.952 5.011-11.408 2.275l7.168 27.292c1.335 5.08 2.809 10.412 6.513 14.14 2.338 2.352 5.394 3.868 8.518 4.985 1.68.6 3.433 1.103 5.216 1.052 1.997-.056 3.913-.803 5.679-1.735 7.407-3.91 12.677-11.12 15.648-18.945 2.972-7.825 3.853-16.28 4.207-24.642-4.02 1.369-8.89-.494-10.966-4.196-2.772 2.677-7.148 3.547-10.735 2.135a35.453 35.453 0 0 1-.413-.165c-1.539-.619-3.345-1.346-4.451-.202Zm-48.589 32.096c-2.457-7.916-8.571-14.892-16.525-17.244-2.871-.85-5.895-1.095-8.889-1.029-14.3.317-28.946 9.073-33.018 22.773-.325 1.092-.566 2.335.008 3.319.552.948 1.69 1.362 2.75 1.649 9.268 2.507 19.658.45 27.27-5.398l.092-.071.104-.08.002-.002c.837-.647 1.704-1.317 2.743-1.476 1.121-.172 2.468.565 2.462 1.698-.051 9.721 4.824 20.127 13.896 23.638 1.891.732 4.195 1.09 5.817-.125 1.038-.777 1.574-2.04 2.017-3.258 2.835-7.788 3.727-16.478 1.271-24.394Zm-38.498-38.662c1.733 3.915 4.923 6.992 8.258 9.679 5.804 4.676 12.648 8.612 20.099 8.879 7.451.267 15.439-4.085 17.358-11.284.999-3.747.295-7.746-.899-11.436-1.247-3.852-3.207-7.74-6.673-9.836-9.354-5.655-21.471-6.467-31.496-2.11-2.138.929-4.235 2.12-5.696 3.936-2.684 3.336-2.683 8.257-.951 12.172Zm138.01-28.821c4.157-7.656 3.36-17.724-1.95-24.631-.768-.999-1.644-1.953-2.763-2.531-1.095-.566-2.352-.734-3.583-.78-6.224-.23-12.486 2.637-16.376 7.496-3.889 4.86-5.31 11.595-3.716 17.61.888-.419 1.225-1.484 1.474-2.433.249-.949.598-2.013 1.492-2.418.894-.404 2.197.661 1.6 1.439a13.109 13.109 0 0 0-2.613 9.233c.331.713 1.358-.087 1.643-.82l1.276-3.287c.3-.774.637-1.595 1.325-2.058.688-.464 1.832-.331 2.11.45l-3.163 6.536c-.408.843-.633 2.164.261 2.446l8.822-6.738c1.127 1.278.091 3.337-1.281 4.348-.421.31-.877.585-1.333.86-1.03.621-2.056 1.24-2.66 2.254 2.994.356 6.028.37 9.026.043 1.6-.175 3.212-.454 4.673-1.129 2.532-1.169 4.406-3.44 5.736-5.89Zm-66.571 97.168c3.218 3.324 7.914 4.709 12.443 5.659 6.717 1.411 14.425 1.93 19.743-2.405 1.091-.889 2.105-2.328 1.514-3.604a31.632 31.632 0 0 1-2.638-17.387c-1.106-.187-1.992.84-2.712 1.698-2.724 3.251-6.696 5.584-10.935 5.773-5.889.261-11.13-3.437-15.85-6.966a32.593 32.593 0 0 1-3.231 11.483c-.943 1.91.185 4.219 1.666 5.749ZM436.239 751.002c1.526.963 3.474.831 5.272.664 26.8-2.497 54.424-5.702 77.822-18.994-19.579 7.227-40.449 10.109-61.127 12.945-7.503 1.029-15.139 2.057-22.616.852-1.476 1.039-.878 3.569.649 4.533Zm72.8-283.642.614 7.514c.051.635.11 1.294.425 1.849.382.674 1.082 1.095 1.752 1.485l5.264 3.068c.253.148.546.301.825.212.335-.107.471-.498.56-.838l4.787-18.214a92.038 92.038 0 0 0-14.227 4.924Zm-71.574 94.455c.447.019.909.034 1.323-.134 1.12-.456 1.32-1.927 1.35-3.135a172.593 172.593 0 0 1-27.583-4.713c-1.337.979-1.082 3.2.09 4.372 1.172 1.171 2.899 1.555 4.532 1.837 6.694 1.156 13.501 1.49 20.288 1.773Zm44.045-140.132c1.41.491 2.73-1.063 3.037-2.523.101-.483.151-.982.201-1.481.101-1.009.201-2.013.729-2.861.781-1.254-.297-3.028-1.731-3.387-1.434-.36-2.935.311-4.113 1.203-1.934 1.463-3.415 4.12-2.301 6.273.788 1.524 2.558 2.212 4.178 2.776Zm149.62-39.482c-.127-.498-.308-.997-.649-1.381-1.007-1.133-3.006-.72-3.992.432-.987 1.152-1.231 2.745-1.42 4.25a217.614 217.614 0 0 0-.636 5.641c-.049.493.14 1.211.622 1.096 4.236-1.011 7.147-5.821 6.075-10.038Zm-59.44 11.286c.315-.178.616-.411.777-.735.248-.5.115-1.096-.022-1.637l-.817-3.205c-.321-1.262-.814-2.716-2.054-3.119-1.384-.45-2.784.754-3.422 2.062-.943 1.933-.856 4.494.68 6 1.251 1.226 3.334 1.498 4.858.634Zm61.341-45.391a5.147 5.147 0 0 0-3.455-.409c.965 1.08 2.598 1.508 3.97 1.04.392-.21-.008-.959-.402-.751l-.113.12Zm12.492 179.872 18.063-4.385c.313-.076.669-.147.943.007.712.402-.145 1.326-.921 1.617a59.16 59.16 0 0 1-15.466 3.516c-.977.088-2.198.036-2.619-.755ZM494.849 428.42c.553-.303.759-.879.966-1.458a6.49 6.49 0 0 1 .291-.718c.386-.759 1.77-1.242 2.097-.46 1.168 2.791 4.355 4.772 7.634 4.746 1.176-.009 1.653 1.585.943 2.438-.71.854-1.997 1.084-3.168 1.178-.982-1.387-2.675-2.113-4.367-2.838-1.715-.734-3.427-1.467-4.396-2.888Zm30.066 17.977c-.578-.088-.969-.609-1.35-1.118-.423-.565-.835-1.115-1.48-1.039-2.256.266-3.638-2.369-4.351-4.543-.286-.869-.008-2.336.836-1.998a14.07 14.07 0 0 0 8.307 4.425c1.226.178 2.801.472 3.012 1.701l-3.629 2.146c-.414.245-.871.499-1.345.426Zm-10.554 5.54c-7.046 2.454-15.859-.709-19.193-6.889-.37-.686-1.651-.397-1.956.316-.304.713.047 1.511.45 2.181 2.061 3.43 5.679 6.049 9.804 7.098 4.125 1.049 8.704.514 12.407-1.45-.228-.671-.794-1.506-1.512-1.256Zm-6.878-15.578c.606-.807 1.278-1.625 2.206-2.018.927-.393 2.178-.204 2.68.671a35.051 35.051 0 0 0-4.982 5.555c-.553.768-1.1 1.661-.95 2.597.151.935 1.406 1.653 2.075.984.5-.499 1.476.022 1.517.729.041.707-.596 1.31-1.284 1.47-.687.16-1.404-.015-2.083-.209-1.196-.343-2.523-.887-2.931-2.065-.375-1.081.185-2.245.764-3.23a47.322 47.322 0 0 1 2.988-4.484Zm80.926-56.462c1.425.113 3.273 1.065 2.692 2.271-1.007.783-2.392.519-3.75.261a18.692 18.692 0 0 0-1.193-.201c-1.651-.205-3.306.162-4.954.527-1.819.404-3.632.806-5.427.436-.486-.308-.407-1.043.004-1.434.411-.39 1.021-.527 1.597-.646 3.628-.751 7.326-1.506 11.031-1.214Zm21.611.998c2.462.303 4.978.243 7.419-.178.374-1.144-1.373-1.817-2.68-1.943l-6.134-.593c-1.325-.128-2.753-.238-3.907.366s-1.726 2.23-.735 3.038c1.391-1.277 3.639-.992 5.638-.74l.399.05Zm2.77 8.976c-.085.256-.422.346-.71.383-2.635.347-5.41-.311-7.537-1.788-.506-.353-1.011-.808-1.066-1.391-.054-.583.628-1.203 1.189-.929 2.937 1.434 6.793 1.067 9.351-.888.607-.464 1.631.099 1.714.823.082.723-.492 1.386-1.166 1.764-.403.226-.845.381-1.288.535-.297.104-.594.208-.88.334-.122.412.038.883.393 1.157Zm-8.155 12.256c2.038-1.468 3.901-3.941 3.02-6.278-3.654 4.904-10.01 7.7-16.138 7.1-1.047-.102-1.955.907-2.048 1.944-.093 1.038.427 2.037 1.07 2.862 2.969 3.816 8.774 4.849 13.223 2.899 4.45-1.95 7.469-6.424 8.34-11.162.179-.969.256-2.045-.296-2.864-.552-.82-1.965-1.08-2.507-.254.947 1.348.917 3.159.492 4.745-.885 3.295-3.385 6.125-6.567 7.432-3.181 1.307-6.972 1.061-9.955-.645-.478-.274-.967-.622-1.133-1.143-.166-.522.19-1.217.742-1.188 4.162.219 8.388-1.02 11.757-3.448Zm-13.689-14.896c-2.128 4.631-8.167 5.762-12.827 4.214-1.337-.445-1.141-2.749.053-3.522 1.195-.774 2.725-.489 4.094-.17 1.37.32 2.891.626 4.103-.117.475-.291.852-.717 1.229-1.144.323-.365.646-.731 1.033-1.014.838-.613 2.316-.542 2.55.504.095.421-.056.859-.235 1.249Zm3.072-1.373-.989 8.463c-.075.643-.144 1.324.134 1.911.422.892 1.585 1.29 2.56 1.054.974-.235 1.751-.981 2.254-1.832.513-.868.186-2.505-.778-2.168-.258.09-.442.315-.623.536-.218.265-.43.525-.759.536-.763.025-.751-1.118-.497-1.824a15.918 15.918 0 0 0 .463-9.196c-1.149-.04-1.635 1.401-1.765 2.52Zm-71.47 45.218a20.308 20.308 0 0 1 8.488 5.916c.264.311.526.65.592 1.051.096.592-.329 1.223-.918 1.359-3.381-3.814-8.061-6.47-13.085-7.426.772-1.66 3.196-1.531 4.923-.9Zm-20.544 388.747c-.899-.075-1.821-.153-2.584-.471-.412-.173-.774-.418-1.136-.663-.347-.234-.693-.468-1.083-.639-.799-.35-1.986-.299-2.352.408 2.642 2.39 6.81 3.424 10.512 2.61-.608-1.014-1.956-1.127-3.357-1.245Zm131.93-47.809 6.649-1.435c.576-.124 1.402-.024 1.436.7-3.017 2.59-6.974 3.423-10.512 2.214.478-.991 1.509-1.281 2.427-1.479Zm-93.232-161.127c-1.331.325-2.672.653-3.804 1.366 2.535 1.198 5.615.407 8.197-.7 5.805-2.491 10.838-6.523 14.351-11.497 1.361-1.927 2.53-4.302 1.705-6.476-1.32.242-1.937 1.622-2.439 2.786-2.958 6.857-9.466 12.296-17.104 14.294-.3.079-.603.153-.906.227Zm113.581 3.045c-.693 1.009-2.275.71-3.407.212-8.779-3.866-14.639-13.334-14.076-22.744.025-.416.08-.872.39-1.156.311-.285.952-.204 1.016.207.576 3.714 1.162 7.464 2.565 10.96 1.402 3.497 3.712 6.768 7.029 8.654.687.39 1.419.725 2.149 1.059 1.616.738 3.226 1.474 4.334 2.808Zm-88.216 162.826c-2.119-.569-4.25-1.141-6.393-.92 4.215 3.499 10.603 4.452 15.751 2.348.188-.825-1.221-.896-2.087-.691-2.408.569-4.832-.082-7.271-.737ZM585.715 591.8c.854.181 1.532-.684 1.973-1.437 1.85-3.153 3.057-4.302 5.473-6.6l.16-.152c.128 1.751.265 2.773.402 3.795a55.56 55.56 0 0 1 .402 3.795c.042.568.096 1.172.446 1.621.975 1.255 3.038.177 3.867-1.178 1.924-3.143 1.353-7.591-1.303-10.146-.682-.656.325-1.888 1.253-1.705.929.182 1.498 1.105 1.894 1.964 1.151 2.494 1.82 5.323 1.21 8.001-.61 2.678-2.723 5.125-5.443 5.525-.96.141-2.028-.006-2.728-.677-.768-.737-.911-1.893-1.009-2.952l-.319-3.45c-.903.549-1.482 1.475-2.057 2.396-.631 1.011-1.258 2.016-2.308 2.51-1.655.777-3.769-.199-4.626-1.813-.856-1.614-.641-3.629.131-5.285.771-1.656 2.034-3.026 3.293-4.35.761-.801 1.573-1.626 2.624-1.967 1.052-.342 2.407-.019 2.862.988-4.043.951-7.2 4.834-7.301 8.984-.022.871.251 1.952 1.104 2.133ZM456.456 806.273c.163.229.418.344.665.439 4.646 1.774 9.651-.628 14.089-2.982.505-.268 1.102-.889.764-1.39-.173-.256-.502-.282-.787-.266-1.721.093-3.386.865-5.03 1.627-2.237 1.037-4.435 2.056-6.688 1.329a11.048 11.048 0 0 1-.515-.187c-.525-.201-1.053-.403-1.594-.315-.718.117-1.357 1.108-.904 1.745Z" fill="#00160A"/><path fill-rule="evenodd" clip-rule="evenodd" d="M526.905 369.913c.476 3.013 2.248 5.851 4.876 7.81 1.086.809 1.691 2.098 1.572 3.35.282.607-1.007.653-1.593.251-3.429-2.349-5.923-5.749-6.954-9.478-.197-.712-.32-1.531.17-2.122.491-.59 1.814-.537 1.929.189ZM514.291 406.904c2.14-1.319 4.441-3.013 6.839-2.421-6.829 7.755-17.734 9.791-27.477 8.068-.811-.144-1.711-.375-2.153-1.13-.441-.755.124-2.072.912-1.816 7.228 2.341 15.317 1.343 21.879-2.701Z" fill="#00160A"/><circle cx="491" cy="440" r="4" fill="#FFB61D"/><circle cx="521" cy="453" r="4" fill="#FFB61D"/><circle cx="583.5" cy="401.5" r="2.5" fill="#FFB61D"/><circle cx="616.5" cy="399.5" r="2.5" fill="#FFB61D"/><path d="M235.849 98.34v65.03h9.38V98.34h-9.38Zm-25.55 4.55c-9.8 0-17.01 8.96-17.01 23.1 0 14.28 7.21 23.24 17.01 23.24s17.01-8.96 17.01-23.24c0-14.14-7.21-23.1-17.01-23.1Zm0 8.47c4.83 0 8.05 5.11 8.05 14.63 0 9.66-3.22 14.84-8.05 14.84s-8.12-5.18-8.12-14.84c0-9.52 3.29-14.63 8.12-14.63Zm91.904-12.88v48.23h8.82V98.48h-8.82Zm-19.6 17.15v7.49h10.15v-7.49h-10.15Zm6.93-15.96v45.57h8.68V99.67h-8.68Zm-22.12 55.02v7.42h45.29v-7.42h-45.29Zm0-13.23v18.13h9.31v-18.13h-9.31Zm-.21-31.92v4.06c0 7.21-3.57 14.56-12.25 18.13l4.69 7.07c10.5-4.06 14.77-14.28 14.77-25.2v-4.06h-7.21Zm1.75 0v4.06c0 10.57 3.99 20.16 14.14 24.08l4.55-7.21c-8.12-3.22-11.48-9.94-11.48-16.87v-4.06h-7.21Zm-11.97-5.6v7.49h28.63v-7.49h-28.63Zm127.752-5.6v65.03h9.38V98.34h-9.38Zm-25.55 4.55c-9.8 0-17.01 8.96-17.01 23.1 0 14.28 7.21 23.24 17.01 23.24s17.01-8.96 17.01-23.24c0-14.14-7.21-23.1-17.01-23.1Zm0 8.47c4.83 0 8.05 5.11 8.05 14.63 0 9.66-3.22 14.84-8.05 14.84s-8.12-5.18-8.12-14.84c0-9.52 3.29-14.63 8.12-14.63Zm45.495 15.47v7.49h58.66v-7.49h-58.66Zm24.57 3.29v10.29h9.24v-10.29h-9.24Zm-.21 12.88v1.12c0 4.97-6.44 10.64-20.58 11.9l3.01 7c16.66-1.54 25.48-9.45 25.48-18.9V143h-7.91Zm1.68 0v1.12c0 9.87 8.96 17.36 25.55 18.9l2.94-7c-14.35-1.19-20.58-6.58-20.58-11.9V143h-7.91Zm3.29-43.89c-14.35 0-23.45 4.55-23.45 12.25s9.1 12.25 23.45 12.25 23.45-4.55 23.45-12.25-9.1-12.25-23.45-12.25Zm0 6.93c8.89 0 13.86 1.75 13.86 5.32 0 3.43-4.97 5.25-13.86 5.25-8.96 0-13.86-1.82-13.86-5.25 0-3.57 4.9-5.32 13.86-5.32Zm49.624-2.66v9.45c0 12.04-4.97 24.5-15.89 29.61l5.6 7.49c12.25-6.02 17.85-21.07 17.85-37.1v-9.45h-7.56Zm1.89 0v9.45c0 15.54 5.11 29.96 16.8 35.91l5.6-7.42c-10.36-5.04-14.98-16.87-14.98-28.49v-9.45h-7.42Zm24.99-4.97v64.82h9.38V98.41h-9.38Zm7.28 24.92v7.77h11.48v-7.77h-11.48Zm57.395-24.85v38.43h9.31V98.48h-9.31Zm6.65 15.19v7.7h11.27v-7.7h-11.27Zm-39.55 26.04v22.82h42.21v-22.82h-42.21Zm33.11 7.28v8.19h-23.94v-8.19h23.94Zm-39.62-19.88v7.56h5.46c13.09 0 21.28-.35 30.38-2.1l-.84-7.35c-8.96 1.68-16.8 1.89-29.54 1.89h-5.46Zm-.07-25.48v7.42h20.44v5.39h-20.37v16.8h9.24v-9.87h20.3v-19.74h-29.61Zm62.224 21.91v7.35h58.66v-7.35h-58.66Zm7.21-10.78v7.28h44.52v-7.28h-44.52Zm0-13.16v19.46h9.24v-12.04h34.72V99.6h-43.96Zm-.56 34.93v7h35.63v3.57h-35.56v12.18h9.17v-5.6h35.56v-17.15h-44.8Zm.07 21.07v7.14h46.41v-7.14h-46.41Zm60.335-50.75v7.35h27.93v-7.35h-27.93Zm8.33 18.55v21.98h9.17V123.4h-9.17Zm15.89-18.55v5.25c0 6.23 0 13.72-1.68 24.08l9.1.84c1.75-10.78 1.75-18.62 1.75-24.92v-5.25h-9.17Zm14.7-6.44v64.82h9.31V98.41h-9.31Zm6.58 26.04v7.7h11.41v-7.7h-11.41Zm-47.95 25.69c11.27 0 25.83-.28 38.92-2.52l-.49-6.79c-12.74 1.61-27.86 1.82-39.27 1.82l.84 7.49ZM788.47 98.41v39.06h9.31V98.41h-9.31Zm6.72 15.96V122h11.2v-7.63h-11.2Zm-39.55 25.9v22.26h42.14v-22.26h-42.14Zm33.04 7.35v7.56h-23.87v-7.56h23.87Zm-41.93-43.4v7.35h38.15v-7.35h-38.15Zm19.11 9.24c-9.45 0-15.96 4.76-15.96 11.69 0 7 6.51 11.62 15.96 11.62 9.38 0 15.89-4.62 15.89-11.62 0-6.93-6.51-11.69-15.89-11.69Zm0 6.93c4.13 0 7 1.61 7 4.76 0 3.15-2.87 4.83-7 4.83-4.2 0-7-1.68-7-4.83 0-3.15 2.8-4.76 7-4.76Zm-4.69-22.4v10.22h9.31V97.99h-9.31Zm57.885 7.77v.77c0 16.03-1.33 27.3-8.89 39.2l7.14 3.85c8.05-12.88 9.59-27.37 9.59-43.82h-7.84Zm-6.79 0v7.49h11.76v-7.49h-11.76Zm21.28 0v.84c0 16.17-.7 29.33-8.96 42.21l7.14 3.92c8.68-13.86 9.66-30.03 9.66-46.97h-7.84Zm-4.69 0v7.49h9.94v-7.49h-9.94Zm29.68-7.35v64.82h8.89V98.41h-8.89Zm-20.3 24.29v7.49h9.17v-7.49h-9.17Zm7.77-22.89v60.55h8.68V99.81h-8.68Zm-717.02 96.6v64.82h8.89v-64.82h-8.89Zm-8.47 24.99v7.42h10.78v-7.42h-10.78Zm-6.02-23.87v60.62h8.68v-60.62h-8.68Zm-29.61 6.02V241h9.31v-37.45h-9.31Zm0 33.95v7.98h4.48c6.58 0 14-.35 22.47-1.89l-.91-7.98c-8.05 1.54-15.33 1.89-21.56 1.89h-4.48ZM188.2 196.34v64.82h9.38v-64.82h-9.38Zm6.93 24.78v7.63h11.41v-7.63h-11.41Zm-23.94-18.06v1.61c0 17.57-8.05 29.47-25.06 38.29l5.18 7.07c21.56-10.85 28.98-27.51 28.98-46.97h-9.1Zm-21.49 0v7.49h26.25v-7.49H149.7Zm91.632 34.72v7.28h34.86v16.24h9.31v-23.52h-44.17Zm34.86-41.37v38.36h9.31v-38.36h-9.31Zm-13.23 15.47v7.49h15.54v-7.49h-15.54Zm-29.05-10.78v30.17h30.66V201.1h-30.66Zm21.49 7.35v15.54h-12.32v-15.54h12.32Zm46.265-6.58v7.49h41.09v-7.49h-41.09Zm-5.95 44.03v7.56h58.59v-7.56h-58.59Zm20.72-22.26v25.97h9.31v-25.97h-9.31Zm22.96-21.77v6.23c0 7.77 0 17.15-2.59 30.03l9.31 1.05c2.59-13.86 2.59-22.96 2.59-31.08v-6.23h-9.31Zm65.164-5.39v35.84h9.38v-35.84h-9.38Zm-29.33 2.17v6.23c0 7.91-4.62 16.03-15.54 19.32l4.55 7.28c12.67-3.85 18.69-14.63 18.69-26.6v-6.23h-7.7Zm1.89 0v6.23c0 11.76 5.81 21.84 18.27 25.55l4.48-7.35c-10.57-3.01-15.12-10.5-15.12-18.2v-6.23h-7.63Zm-7 36.61v7.35h44.1v-7.35h-44.1Zm-.63 17.92v7.35h45.36v-7.35h-45.36Zm8.26-15.19v19.53h9.1v-19.53h-9.1Zm19.74 0v19.53h9.17v-19.53h-9.17Zm26.945-8.54v7.42h58.59v-7.42h-58.59Zm7.07 23.24v7.42h44.94v-7.42h-44.94Zm0-11.48v13.86h9.31v-13.86h-9.31Zm22.26-42.91c-14.14 0-23.45 5.11-23.45 13.37 0 8.26 9.31 13.37 23.45 13.37 14.07 0 23.45-5.11 23.45-13.37 0-8.26-9.38-13.37-23.45-13.37Zm0 7.42c8.75 0 13.86 2.03 13.86 5.95 0 3.99-5.11 5.95-13.86 5.95s-13.86-1.96-13.86-5.95c0-3.92 5.11-5.95 13.86-5.95Zm84.492-8.12c-14.28 0-23.45 4.83-23.45 12.67s9.17 12.6 23.45 12.6 23.45-4.76 23.45-12.6-9.17-12.67-23.45-12.67Zm0 7.21c8.82 0 13.86 1.75 13.86 5.46 0 3.64-5.04 5.46-13.86 5.46-8.89 0-13.86-1.82-13.86-5.46 0-3.71 4.97-5.46 13.86-5.46Zm-22.54 33.6v22.12h44.8v-22.12h-44.8Zm35.7 7.35v7.42h-26.53v-7.42h26.53Zm-42.49-19.18v7.35h58.59v-7.35h-58.59Zm79.584-27.23v6.23c0 8.19-4.55 16.59-15.47 20.09l4.55 7.35c12.67-4.06 18.62-15.19 18.62-27.44v-6.23h-7.7Zm1.89 0v6.23c0 12.04 5.74 22.4 18.13 26.32l4.55-7.28c-10.57-3.22-15.05-11.06-15.05-19.04v-6.23h-7.63Zm-7.42 38.57v7.42h34.86v15.89h9.38v-23.31h-44.24Zm34.86-41.51v38.64h9.38v-38.64h-9.38Zm21.765 5.32v31.29h30.87v-31.29h-30.87Zm21.7 7.35v16.59h-12.53v-16.59h12.53Zm18.13-12.67v47.25h9.31v-47.25h-9.31Zm6.65 18.69v7.63h11.27v-7.63h-11.27Zm-39.13 37.59v7.42h44.1v-7.42h-44.1Zm0-13.65v17.36h9.31v-17.36h-9.31Zm91.072-37.66v9.45c0 12.6-5.32 25.06-16.59 29.96l5.53 7.7c12.88-5.95 18.62-21 18.62-37.66v-9.45h-7.56Zm1.82 0v9.45c0 15.96 5.74 30.38 18.27 36.12l5.46-7.49c-11.06-4.76-16.17-16.66-16.17-28.63v-9.45h-7.56Zm26.81-5.04v65.03h9.38v-65.03h-9.38Zm46.055 6.3v1.12c0 18.34-5.67 30.8-25.62 40.74l4.9 7.21c24.36-12.11 29.68-29.12 29.68-49.07h-8.96Zm-21.77 0v7.35h26.32v-7.35h-26.32Zm21.63 15.89-24.92 1.4 1.19 7.84 23.73-2.1v-7.14Zm18.69-22.12v64.82h9.38v-64.82h-9.38Zm45.284 21.77v7.56h10.71v-7.56h-10.71Zm-13.86-16.17v10.92c0 10.99-3.36 22.54-12.88 28.42l5.6 7c10.36-6.37 14.42-20.72 14.42-35.42v-10.92h-7.14Zm2.03 0v10.5c0 14 3.22 28 13.51 34.37l5.04-7.28c-8.82-5.74-11.55-16.52-11.55-27.09v-10.5h-7Zm33.11-5.6v64.82h8.89v-64.82h-8.89Zm-13.16.98v60.9h8.68v-60.9h-8.68Zm43.675 31.92v18.2h9.24v-18.2h-9.24Zm23.52 0v18.2h9.31v-18.2h-9.31Zm-36.4 16.87v7.56h58.66v-7.56h-58.66Zm29.26-46.62c-14 0-24.22 6.86-24.22 17.43s10.22 17.36 24.22 17.36c13.93 0 24.22-6.79 24.22-17.36s-10.29-17.43-24.22-17.43Zm0 7.28c9.03 0 15.05 3.71 15.05 10.15 0 6.37-6.02 10.15-15.05 10.15-9.03 0-15.05-3.78-15.05-10.15 0-6.44 6.02-10.15 15.05-10.15Zm37.969-4.97h12.425l-1.68 37.555h-9.03l-1.715-37.555Zm-.14 41.37h12.285V255h-12.285v-11.76Z" fill="#634718"/></svg>