<svg width="1080" height="1024" viewBox="0 0 1080 1024" fill="none" xmlns="http://www.w3.org/2000/svg">
<rect width="1080" height="1024" fill="white"/>
<rect width="750" height="750" transform="translate(165 274)" fill="white"/>
<path fill-rule="evenodd" clip-rule="evenodd" d="M576.159 339C751.499 339 788.415 581.997 789.132 583.997C789.871 586.057 790.568 588.177 791.241 590.235C792.608 594.415 794.368 598.439 795.736 602.591C796.573 605.124 798.111 607.222 799.141 609.614C801.141 614.184 803.591 618.545 806.455 622.631C807.637 624.249 808.567 626.037 809.211 627.934C809.663 629.386 811.162 629.774 811.809 631.055C812.856 633.129 814.252 635.024 815.461 637.016C815.736 637.716 816.368 638.214 817.114 638.318L816.878 640.295C817.316 641.008 817.465 640.045 817.923 640.214C818.496 640.986 819.313 641.671 819.396 642.846C819.472 643.95 820.761 644.054 821.202 645.017C822.169 647.108 824.858 648.174 824.819 650.917C826.752 652.131 827.703 654.215 829.162 655.85C829.912 656.603 830.368 657.594 830.455 658.647L830.468 658.89C830.457 659.937 832.478 659.702 831.934 661.13C835.028 663.452 835.831 667.245 837.465 670.388C840.085 675.43 843.104 680.302 844.884 685.824C845.775 688.586 847.503 691.199 848.463 693.996C850.624 700.283 853.218 706.433 854.622 712.981C855.201 715.685 856.384 718.262 856.938 720.974L857.577 724.108C858.529 728.812 859.431 733.528 860.03 738.295C860.337 739.37 860.337 740.51 860.029 741.585C859.513 742.809 860.883 743.593 860.994 744.821C861.131 746.277 860.549 747.657 860.968 749.203C861.199 750.055 860.968 751.423 861.234 752.412C862.095 755.626 861.004 758.941 861.941 762.133C862.089 763.367 861.959 764.618 861.561 765.796C860.913 769.726 862.099 773.739 860.916 777.576C860.362 779.469 860.256 781.462 860.605 783.399L860.751 784.146C860.856 784.699 860.925 785.238 860.653 785.61C859.575 787.084 859.853 788.822 859.638 790.434L859.597 790.701C859.287 792.506 859.607 794.398 859.062 796.237C858.317 798.037 857.9 799.955 857.828 801.901C858.103 805.201 856.992 808.163 856.311 811.227C855.972 812.757 856.253 814.577 854.568 815.716C853.711 816.295 855.733 817.419 854.507 818.267L854.363 818.357C853.463 818.865 853.502 819.684 853.756 820.666C853.988 821.563 852.42 822.183 852.869 823.101C853.317 824.019 853.52 825.356 852.996 825.525C851.686 825.955 853.018 827.379 851.918 827.649C851.81 827.708 851.735 827.813 851.716 827.935C851.341 831.382 849.121 834.211 848.572 837.656C848.157 839.713 847.355 841.674 846.211 843.434C845.263 845.133 844.457 846.907 843.802 848.739C842.571 851.82 840.464 854.393 839.278 857.458C838.955 858.288 836.806 858.01 837.899 859.713C836.645 860.156 837.026 861.455 836.522 862.266C835.966 862.879 835.319 863.403 834.604 863.819C834.141 865.643 833.253 867.334 832.014 868.752C829.848 871.92 827.484 874.947 824.935 877.817L822.83 880.174C820.016 883.317 817.111 886.392 813.403 888.559C812.45 889.116 812.884 890.172 812.099 890.745C807.553 894.101 803.365 897.908 798.193 900.452C796.028 901.518 794.172 903.41 791.959 904.519C787.766 906.624 783.872 909.245 779.386 910.884L778.588 911.163C775.731 912.113 772.919 913.554 770.019 914.6C764.062 916.94 757.844 918.556 751.499 919.412L747.586 919.846C744.107 920.23 740.623 920.584 737.109 920.681C735.446 920.726 733.851 920.199 732.328 920.389C730.845 920.576 729.34 920.455 727.906 920.033C726.774 919.716 725.816 920.69 724.596 920.167C723.66 919.581 722.5 919.493 721.491 919.921L721.291 920.013C720.713 920.348 719.575 919.729 718.694 919.53C717.409 919.351 716.146 919.039 714.927 918.599C713.981 918.162 712.776 919.566 712.118 918.073C710.922 919.001 629.688 899.697 555.067 938.897C548.99 942.923 541.879 944.691 535.386 947.818C532.367 949.275 528.974 949.94 525.725 950.935L525.031 951.153C519.295 953.007 513.413 954.272 507.539 955.594C502.143 956.762 496.675 957.575 491.171 958.026C487.214 958.384 483.239 958.55 479.292 958.981C477.691 959.155 476.122 958.027 474.556 958.996C471.036 958.038 467.342 959.201 463.832 958.119C461.498 958.809 459.305 957.953 457.16 957.321C455.522 956.835 453.979 957.843 452.325 957.128C450.819 956.343 449.132 955.968 447.435 956.042C444.617 956.474 442.164 955.44 439.598 954.894C433.634 953.624 427.691 952.251 421.77 950.775C419.831 950.291 417.653 950.477 415.992 948.995C414.534 947.693 412.234 948.509 410.802 946.972C410.28 946.413 409.613 947.497 408.826 947.074C407.29 946.249 405.317 946.793 403.882 945.306C402.819 944.205 400.813 944.95 399.637 943.62L399.482 943.426C398.787 942.461 396.955 944.735 396.413 942.587C394.223 942.419 392.408 941.225 390.458 940.407C388.843 939.732 386.936 940.113 385.478 938.707C384.236 937.508 381.889 938.39 380.813 936.593C378.18 936.571 376.239 934.601 373.73 934.083C371.826 933.583 369.997 932.831 368.293 931.846C365.591 930.456 362.848 929.147 360.084 927.906C359.093 927.445 358.128 926.93 357.193 926.362C356.669 926.056 356.542 925.377 355.793 925.212C351.054 924.162 347.069 921.4 343.021 918.984C340.712 917.791 338.504 916.416 336.416 914.872L335.724 914.351C335.113 913.826 333.844 913.567 333.307 912.836C331.809 910.802 329.569 909.807 327.537 908.585L327.201 908.379C326.056 907.705 325.016 906.868 324.112 905.895C323.941 905.709 323.872 905.307 323.69 905.262C320.318 904.429 318.305 901.644 315.727 899.697C313.509 898.024 311.57 895.984 309.386 894.279L308.554 893.656C303.444 890.001 247.522 828.466 241.185 817.847L239.372 814.808C237.561 811.763 235.771 808.696 234.123 805.568L232.719 802.906C231.318 800.237 229.939 797.55 228.719 794.816L227.088 791.166C223.833 783.863 220.648 776.523 217.933 768.983C215.512 762.256 213.508 755.418 211.485 748.575C210.189 744.181 209.094 739.767 208.169 735.29C206.691 728.136 205.373 720.952 204.215 713.74C203.135 706.949 203.535 700.058 202.093 693.344C203.038 689.221 201.3 685.036 202.379 680.918C201.579 678.884 202.282 676.774 202.358 674.769C202.435 672.7 201.971 670.532 202.797 668.435C203.176 667.482 202.3 666.337 202.775 665.174C203.295 664.206 203.355 663.056 202.938 662.039C204.343 661.393 202.669 660.399 203.252 659.479C203.881 658.48 204.159 657.301 204.042 656.127C203.633 653.5 205.146 651.074 204.881 648.7C204.604 646.273 205.802 644.215 205.799 642.039L205.783 641.63C205.576 638.774 207.618 636.623 207.686 633.921C207.692 633.685 208.251 633.467 208.558 633.232C208.459 632.624 207.787 632.762 207.31 632.289C208.072 631.628 208.738 630.866 209.289 630.023C209.707 628.867 210.004 627.672 210.175 626.455L208.239 623.958C208.954 622.53 208.705 621.231 209.658 620.111C210.073 619.621 209.842 618.126 209.893 617.093C209.96 615.737 211.703 614.929 211.283 613.858C210.959 612.626 211.064 611.32 211.581 610.156C214.074 599.163 216.614 588.181 219.201 577.209C219.473 576.033 219.236 574.554 220.683 573.865C219.102 572.232 221.585 571.662 221.624 570.368C221.825 569.158 222.292 568.008 222.989 566.998C223.977 565.11 224.068 562.765 224.63 560.637C224.779 559.132 225.349 557.7 226.275 556.503C227.238 555.506 227.1 553.768 227.825 552.367C228.85 550.675 229.644 548.854 230.187 546.951C230.35 545.585 230.895 544.291 231.759 543.218C232.527 542.371 231.896 540.617 233.388 539.978C233.806 537.52 235.274 535.545 236.361 533.391L236.56 532.985C239.229 527.442 242.23 522.064 245.545 516.879C248.299 512.516 250.979 508.107 253.775 503.771C254.685 502.371 255.652 500.977 256.652 499.648C260.127 494.761 263.87 490.07 267.864 485.596C271.517 481.725 274.999 477.68 278.834 473.958C280.873 471.978 282.541 469.547 284.521 467.444C289.186 462.479 293.976 457.649 299.014 453.065C303.269 448.862 307.922 445.08 312.908 441.773C314.264 440.948 315.378 439.74 316.687 438.827C318.275 437.952 319.799 436.966 321.248 435.875C322.933 434.29 325.001 433.282 326.703 431.814C328.024 430.675 330.138 431.325 331.084 429.275C331.773 427.784 334.353 428.331 335.221 426.589C337.603 426.509 338.715 424.203 340.878 423.445L341.166 423.356C343.445 422.734 345.39 420.895 347.48 419.591C349.497 418.163 351.606 416.871 353.796 415.725C357.906 413.874 361.453 411.054 365.471 409.142C369.301 407.322 372.748 404.657 376.926 403.643C377.913 403.404 377.729 402.533 378.408 402.162C379.115 401.773 379.889 402.031 380.527 401.583C383.169 399.859 400.819 339 576.159 339Z" fill="#64FCD9"/>
<path fill-rule="evenodd" clip-rule="evenodd" d="M378.374 469.449C372.509 472.758 363.921 468.537 362.958 461.872C366.699 461.672 370.697 461.38 373.655 459.081C376.612 456.781 377.647 451.689 374.683 449.398C350.549 446.434 327.071 438.235 306.34 425.528C320.496 421.263 332.676 412.266 345.973 405.801C359.269 399.336 375.351 395.513 388.612 402.05C401.633 408.469 416.623 400.281 430.211 395.17C453.838 386.283 480.932 387.028 504.035 397.2C520.891 404.622 549.453 392.576 567.662 389.813C597.405 385.3 626.441 406.146 656.307 402.536C653.103 404.655 649.899 406.773 646.695 408.892C649.851 408.604 653.023 408.487 656.191 408.543C631.405 420.404 606.619 432.264 581.833 444.125C588.112 446.665 594.391 449.205 600.67 451.745C599.194 456.477 593.903 459.673 589.027 458.777C592.95 461.899 596.873 465.021 600.796 468.143C596.609 471.117 591.309 472.484 586.205 471.905C591.641 475.414 596.126 480.379 599.068 486.141C612.016 481.827 626.199 481.296 639.433 484.629C627.476 486.197 615.519 487.765 603.562 489.332C605.368 494.248 607.173 499.165 608.979 504.081C624.599 500.506 641.2 501.319 656.396 506.402C641.327 506.786 626.258 507.169 611.189 507.553C610.837 527.545 600.884 547.933 583.408 557.649C565.931 567.364 531.009 576.003 519.442 547.715C510.586 553.527 511.213 567.498 517.527 576.003C523.841 584.508 533.872 589.215 542.944 594.683C573.08 612.845 595.809 642.921 605.055 676.87C614.3 710.819 609.96 748.268 593.195 779.202C615.798 782.716 636.801 795.579 650.204 814.116C679.065 800.687 695.05 770.045 717.158 747.142C742.306 721.088 777.022 704.481 813.089 701.251C834.428 699.34 858.764 703.455 871.211 720.892C887.39 743.558 872.473 778.799 846.648 789.219C826.177 797.478 803.087 793.324 781.067 794.884C736.788 798.022 697.914 824.132 661.402 849.379C659.913 857.553 662.902 866.403 669.042 872.001C682.102 858.501 698.577 848.331 716.498 842.704C723.122 840.625 733.051 841.167 733.787 848.071C734.066 850.684 732.691 853.162 731.3 855.392C719.352 874.546 702.505 890.616 682.808 901.646C672.412 907.469 660.794 911.982 648.897 911.315C636.999 910.649 624.884 903.782 620.843 892.572C618.97 887.377 618.767 881.364 615.221 877.132C609.221 869.971 597.697 872.115 589.287 876.182C580.877 880.25 571.912 885.78 562.888 883.367C540.328 877.333 516.849 874.746 493.516 875.722C463.802 876.966 433.525 883.883 404.736 876.421C395.119 873.928 384.357 869.997 375.837 875.108C359.047 885.18 370.372 917.423 353.147 926.732C347.045 930.029 339.568 928.813 332.837 927.142C303.091 919.759 275.19 905.057 252.283 884.696C250.075 882.734 247.8 880.53 247.182 877.641C245.325 868.978 258.113 865.374 266.826 866.978C281.627 869.702 295.783 875.872 307.855 884.86C312.086 888.011 318.525 884.335 320.317 879.373C322.11 874.412 320.877 868.948 320.177 863.719C315.758 830.691 336.478 795.966 367.644 784.172C348.775 756.636 341.6 721.356 348.215 688.638C354.83 655.92 375.147 626.198 403.231 608.156C414.45 600.948 427.34 595.053 434.49 583.797C441.64 572.542 438.502 553.658 425.422 551.063C413.098 564.41 393.053 570.056 375.575 565.101C358.096 560.147 343.995 544.823 340.507 526.995C328.906 530.912 317.306 534.83 305.705 538.748C316.002 530.813 328.195 525.357 340.974 522.967C342.2 517.653 343.426 512.34 344.653 507.026C322.517 505.598 300.069 509.241 279.522 517.596C292.166 508.078 308.254 503.242 324.05 504.209C340.117 505.193 356.45 497.332 365.703 484.16C359.914 482.125 354.711 478.451 350.856 473.675C356.761 470.47 363.912 469.64 370.393 471.406M491.93 817.955C490.876 818.981 489.742 820.199 489.817 821.668C489.891 823.136 492.094 824.233 492.854 822.974C497.003 816.102 504.217 811.161 512.123 809.777C520.03 808.393 528.493 810.59 534.729 815.644C536.905 817.407 538.847 819.515 541.333 820.804C542.227 821.268 543.759 821.281 543.796 820.273C543.808 819.943 543.619 819.642 543.433 819.368C538.955 812.768 532.259 807.701 524.691 805.186C518.056 802.982 510.368 802.843 504.435 806.54C502.28 807.882 500.442 809.668 498.623 811.439C496.392 813.611 494.161 815.783 491.93 817.955ZM459.756 805.946C451.166 804.811 441.918 807.693 436.198 814.201C435.19 815.348 434.273 816.639 433.926 818.126C433.58 819.614 433.906 821.335 435.058 822.337C439.483 815.463 447.346 810.93 455.511 810.544C463.677 810.159 471.932 813.932 476.984 820.359C477.774 821.364 478.528 822.463 479.649 823.077C480.771 823.691 482.403 823.612 483.085 822.531C483.901 821.24 482.915 819.589 481.909 818.44C476.202 811.921 468.345 807.082 459.756 805.946ZM520.345 797.152C520.212 798.605 522.131 799.508 523.51 799.033C524.889 798.557 525.803 797.287 526.726 796.158C534.405 786.767 549.027 783.937 559.655 789.786C561.049 788.609 561.129 786.351 560.196 784.783C559.263 783.214 557.56 782.252 555.822 781.696C552.057 780.493 547.969 780.903 544.096 781.687C534.927 783.542 525.666 787.888 520.846 795.905C520.613 796.292 520.387 796.702 520.345 797.152ZM484.301 827.622C480.533 827.884 476.845 828.881 473.317 830.231C468.442 832.097 463.642 834.815 460.788 839.186C464.973 840.371 468.985 837.251 472.808 835.176C481.384 830.522 492.508 831.003 500.651 836.38C503.205 838.067 506.487 840.246 508.978 838.466C503.151 831.161 493.623 826.974 484.301 827.622ZM499.781 825.266C502.639 823.777 504.924 821.358 507.759 819.825C511.663 817.713 516.527 817.469 520.623 819.18C522.847 820.109 524.816 821.562 527.008 822.566C529.199 823.569 531.81 824.09 533.993 823.069C534.235 822.955 534.486 822.806 534.588 822.559C534.754 822.157 534.459 821.724 534.173 821.397C529.287 815.82 521.632 812.798 514.254 813.535C506.876 814.271 499.969 818.747 496.282 825.179C497.052 826.193 498.653 825.854 499.781 825.266ZM442.543 825.532C444.074 824.661 445.272 823.316 446.672 822.247C449.472 820.109 453.119 819.124 456.618 819.531C460.518 819.983 464.034 822.047 467.259 824.286C468.202 824.941 469.165 825.629 470.283 825.889C471.402 826.149 472.734 825.867 473.366 824.909C473.992 823.961 473.741 822.639 473.071 821.722C472.401 820.805 471.396 820.202 470.416 819.627C466.43 817.289 462.218 814.952 457.603 814.714C451.834 814.416 446.473 817.423 441.484 820.334C439.46 821.515 437.137 823.303 437.565 825.606C438.95 826.695 441.012 826.403 442.543 825.532ZM468.522 803.171C469.564 804.519 471.603 803.074 472.752 801.818C476.294 797.949 481.399 795.553 486.638 795.301C491.878 795.05 497.188 796.945 501.084 800.458C502.067 801.344 503.103 802.39 504.426 802.426C505.748 802.462 506.94 800.616 505.891 799.81C500.274 795.495 493.74 791.969 486.672 791.503C479.605 791.037 471.988 794.208 468.716 800.489C468.278 801.331 467.942 802.421 468.522 803.171ZM531.009 801.99C531.942 801.596 532.625 800.793 533.339 800.075C538.777 794.605 547.989 793.382 554.665 797.244C556.335 798.21 558.847 799.276 559.817 797.608C560.626 796.218 559.184 794.6 557.808 793.766C548.828 788.321 536.027 790.395 529.226 798.397C528.533 799.212 527.869 800.33 528.345 801.288C528.795 802.195 530.076 802.384 531.009 801.99ZM535.973 802.504C535.587 802.827 535.202 803.188 535.04 803.664C534.586 804.994 536.202 806.238 537.602 806.127C539.003 806.015 540.193 805.115 541.464 804.516C544.562 803.055 548.285 803.403 551.43 804.761C552.674 805.298 553.879 805.992 555.219 806.194C556.559 806.396 558.122 805.951 558.733 804.741C553.404 798.136 542.486 797.063 535.973 802.504ZM451.714 799.969C452.51 800.343 453.595 800.271 454.106 799.557C454.802 798.585 454.057 797.263 453.318 796.324C450.817 793.144 448.127 790.013 444.689 787.88C441.251 785.747 436.921 784.721 433.093 786.028C432.703 787.442 434.463 788.403 435.848 788.886C441.181 790.745 446.022 793.998 449.757 798.235C450.338 798.894 450.919 799.596 451.714 799.969ZM498.843 803.518C492.549 799.504 483.958 799.434 477.599 803.344C476.494 804.023 475.359 804.978 475.273 806.273C475.187 807.567 476.945 808.769 477.817 807.808C481.329 803.936 487.748 803.132 492.107 806.019C494.247 807.437 497.32 807.243 499.266 805.569C500.185 805.473 499.621 804.015 498.843 803.518ZM544.625 825.236C535.683 824.632 527.361 829.894 520.87 836.075C521.343 837.167 522.955 836.877 524.047 836.405C531.439 833.206 538.831 830.007 546.223 826.807C546.778 826.072 545.545 825.298 544.625 825.236ZM459.515 829.219C460.615 829.842 461.692 830.69 462.956 830.691C464.221 830.692 465.474 829.17 464.672 828.193C462.147 825.114 458.178 823.273 454.197 823.334C450.215 823.395 446.305 825.356 443.875 828.511C444.175 829.657 445.578 830.185 446.75 830.014C447.922 829.843 448.955 829.182 450.043 828.711C453.05 827.408 456.664 827.602 459.515 829.219ZM503.86 828.378C503.759 829.259 504.757 829.932 505.642 829.884C506.527 829.836 507.304 829.318 508.08 828.891C511.338 827.096 515.349 826.728 518.879 827.9C521.141 828.651 523.963 829.879 525.595 828.143C525.739 827.151 524.743 826.402 523.858 825.931C520.688 824.245 517.198 822.972 513.607 823.006C510.016 823.039 506.311 824.545 504.26 827.494C504.074 827.762 503.897 828.053 503.86 828.378ZM497.185 789.739C500.882 791.063 504.325 793.091 507.274 795.683C508.49 796.751 509.654 797.935 511.129 798.602C512.604 799.268 514.519 799.285 515.674 798.151C513.119 796.191 511.021 793.641 509.589 790.757C508.818 789.204 506.763 788.919 505.031 788.835C502.499 788.711 499.968 788.587 497.436 788.463C497.169 788.823 497.074 789.305 497.185 789.739ZM464.165 798.629C465.472 797.408 466.437 795.869 467.644 794.55C469.517 792.504 471.984 791.008 474.663 790.294C475.82 789.985 477.34 789.393 477.165 788.21C473.89 787.641 470.152 787.182 467.569 789.274C463.952 792.205 461.083 796.054 459.309 800.359C461.055 800.745 462.858 799.849 464.165 798.629ZM435.05 797.146C437.397 798.676 439.745 800.205 442.092 801.734C443.086 802.382 444.354 803.045 445.385 802.458C446.342 801.914 446.488 800.512 445.989 799.531C445.491 798.55 444.54 797.893 443.627 797.278C441.716 795.991 439.805 794.705 437.894 793.418C436.293 792.34 433.686 791.481 432.816 793.203C432.065 794.687 433.656 796.238 435.05 797.146ZM484.473 815.532C485.371 816.423 486.629 817.387 487.771 816.84C488.291 816.591 488.626 816.079 488.934 815.592C489.952 813.983 490.97 812.375 491.987 810.767C489.323 807.804 484.093 807.725 481.34 810.605C481.129 810.827 480.923 811.08 480.885 811.384C480.825 811.865 481.197 812.281 481.541 812.623C482.518 813.593 483.496 814.562 484.473 815.532ZM443.397 838.53C445.306 839.2 447.559 839.398 449.242 838.277C446.708 835.362 443.737 832.826 440.46 830.781C439.53 830.201 438.482 829.641 437.397 829.795C436.312 829.95 435.352 831.183 435.877 832.145C437.49 835.096 440.223 837.417 443.397 838.53ZM548.129 815.1C549.031 814.01 549.933 812.92 550.835 811.83C551.146 811.454 551.474 811.03 551.455 810.543C551.43 809.925 550.864 809.481 550.325 809.177C548.45 808.123 546.237 807.683 544.101 807.94C543.285 808.038 542.434 808.261 541.86 808.849C541.286 809.438 541.12 810.484 541.698 811.07C543.007 812.396 544.317 813.723 545.627 815.05C546.055 815.483 546.597 815.954 547.192 815.824C547.586 815.739 547.872 815.41 548.129 815.1ZM453.994 791.55C454.803 792.421 455.82 793.313 457.005 793.215C459.545 793.005 460.365 788.62 462.903 788.86C463.584 787.737 461.725 786.838 460.411 786.817C457.011 786.763 453.611 786.71 450.212 786.656C451.321 788.397 452.589 790.037 453.994 791.55ZM474.991 839.335C482.063 839.304 489.135 839.274 496.208 839.243C495.588 837.845 493.929 837.277 492.431 836.967C487.524 835.95 482.378 836.105 477.54 837.416C476.457 837.71 475.221 838.237 474.991 839.335ZM518.658 831.893C516.318 831.999 513.978 832.105 511.638 832.21C510.883 832.245 509.913 832.464 509.82 833.214C509.779 833.549 509.947 833.871 510.11 834.167C510.729 835.291 511.387 836.459 512.457 837.167C513.527 837.874 515.137 837.944 515.969 836.968C516.607 836.22 516.657 835.053 517.418 834.43C517.908 834.028 518.588 833.949 519.13 833.621C519.673 833.292 520.018 832.441 519.515 832.055C519.279 831.874 518.955 831.88 518.658 831.893ZM458.07 835.807C458.695 834.832 458.104 833.451 457.13 832.824C456.156 832.196 454.938 832.12 453.781 832.063C452.503 832 450.82 832.235 450.59 833.494C450.481 834.094 450.787 834.683 451.082 835.216C451.949 836.782 453.225 838.577 455.006 838.4C456.387 838.263 457.321 836.976 458.07 835.807ZM550.505 821.775C551.555 821.862 552.496 821.15 553.233 820.397C555.48 818.099 556.91 815.017 557.211 811.817C556.468 811.342 555.558 812.079 554.988 812.753C553.075 815.016 551.162 817.278 549.248 819.541C548.568 820.345 549.455 821.688 550.505 821.775ZM433.454 805.746C434.521 807.082 436.579 807.5 438.083 806.687C438.853 806.271 439.502 805.445 439.349 804.583C439.213 803.816 438.515 803.296 437.871 802.857C436.94 802.223 436.01 801.588 435.079 800.954C434.795 800.76 434.468 800.557 434.132 800.627C433.899 800.674 433.713 800.845 433.557 801.024C432.433 802.311 432.387 804.411 433.454 805.746ZM516.092 791.652C517.209 792.59 518.865 791.621 519.974 790.673C521.177 789.645 522.38 788.617 523.584 787.589C522.903 786.938 521.814 787.085 520.892 787.276C518.213 787.829 515.534 788.383 512.855 788.937C513.934 789.842 515.013 790.747 516.092 791.652ZM558.162 778.51C558.836 779.35 560.256 779.169 561.029 778.419C561.803 777.669 562.088 776.56 562.31 775.506C562.363 775.253 562.413 774.979 562.307 774.743C562.036 774.142 561.145 774.323 560.549 774.601C558.943 775.35 557.052 777.129 558.162 778.51Z" fill="white"/>
<path fill-rule="evenodd" clip-rule="evenodd" d="M348.214 688.638C354.829 655.92 377.447 628.531 405.531 610.489C391.332 629.954 347.757 661.874 361.763 697.436C384.15 754.281 471.242 763.222 468.212 763.839C416.701 774.342 343.289 712.998 348.214 688.638Z" fill="#E7EAEE"/>
<path fill-rule="evenodd" clip-rule="evenodd" d="M512.982 404.714C509.398 405.149 506.241 408.019 505.467 411.545C534.475 395.948 569.512 391.939 601.293 400.578C601.32 416.606 590.077 432.022 574.807 436.893L541.703 447.454C550.436 448.423 559.409 447.142 567.522 443.769C570.405 448.311 575.153 451.629 580.41 452.772L570.234 455.004C571.734 459.575 574.797 463.618 578.793 466.298C575.402 465.137 571.63 465.125 568.232 466.265L570.51 474.539C555.506 472.457 539.473 474.5 526.835 482.852C514.197 491.204 505.711 506.557 507.988 521.533C510.653 505.25 521.812 490.601 536.801 483.706C551.79 476.81 570.174 477.87 584.272 486.441L574.709 493.524C578.382 494.985 582.734 494.612 586.104 492.547C593.465 495.804 591.427 509.271 583.432 510.204L594.008 510.94C595.841 528.922 584.732 547.467 568.012 554.336C551.292 561.205 530.354 555.826 519.016 541.748C504.942 548.935 505.929 570.718 515.959 582.93C522.961 591.455 532.604 596.993 542.263 602.54C546.44 604.939 550.621 607.34 554.592 609.986C575.687 624.037 591.412 645.948 597.971 670.432C586.516 678.102 576.326 687.658 567.937 698.597C580.349 698.019 592.504 692.955 601.657 684.552L603.611 703.457C593.563 706.552 584.534 712.868 578.182 721.247C587.138 722.159 596.373 720.067 604.061 715.385C601.307 737.139 596.337 758.611 589.253 779.362L566.157 779.173C571.636 764.03 577.187 747.737 573.15 732.148C569.113 716.558 551.006 703.689 536.754 711.188C553.145 697.976 565.557 679.891 571.99 659.846L530.714 713.124L499.04 713.393C498.044 698.469 497.086 683.174 501.329 668.831C505.571 654.489 516.164 641.062 530.759 637.792C532.342 637.437 534.028 637.148 535.736 636.856C542.869 635.634 550.391 634.345 552.485 627.899C528.826 626.522 505.11 641.668 496.408 663.712C490.207 679.419 491.299 696.928 492.487 713.774C470.615 710.619 448.219 711.126 426.512 715.267C422.744 702.422 418.836 689.289 410.931 678.485C403.027 667.682 390.194 659.488 376.874 660.822C398.325 664.01 408.951 687.847 417.04 707.969C425.129 728.091 439.813 751.075 461.409 749.084C467.559 748.517 469.517 758.619 464.803 762.61C460.089 766.601 453.086 765.841 447.052 764.521C415.972 757.719 386.955 741.76 364.566 719.156C360.207 714.754 355.992 709.938 353.977 704.08C351.492 696.852 352.65 688.87 354.787 681.532C365.704 644.043 399.301 618.356 431.23 595.881C448.408 583.789 447.792 553.823 430.132 542.448C417.059 554.327 399.628 562.634 382.07 560.696C364.513 558.758 347.896 544.382 347.33 526.727C352.844 526.241 358.249 524.548 363.055 521.802C358.338 520.125 353.021 520.197 348.35 522C347.08 517.242 348.007 511.943 350.818 507.9L360.829 506.83C358.816 504.555 356.009 502.996 353.014 502.491C360.239 490.453 377.006 487.158 390.444 491.226C403.881 495.294 414.764 504.985 425.175 514.404C414.319 490.601 384.881 482.929 359.178 478.051L370.393 471.406C363.912 469.64 356.761 470.47 350.856 473.675C354.711 478.451 359.914 482.125 365.703 484.16C356.45 497.332 340.117 505.193 324.05 504.209C308.254 503.242 292.166 508.078 279.522 517.596C300.069 509.241 322.517 505.598 344.653 507.026L340.974 522.967C328.195 525.357 316.002 530.813 305.705 538.748L340.507 526.995C343.995 544.823 358.096 560.147 375.575 565.101C393.053 570.056 413.098 564.41 425.422 551.063C438.502 553.658 441.64 572.542 434.49 583.797C428.829 592.71 419.569 598.261 410.389 603.765C407.975 605.212 405.567 606.655 403.231 608.156C375.147 626.198 354.83 655.92 348.215 688.638C341.6 721.356 348.775 756.636 367.644 784.172C336.478 795.966 315.758 830.691 320.177 863.719C320.278 864.475 320.39 865.237 320.503 866.001C321.17 870.518 321.851 875.129 320.317 879.373C318.525 884.335 312.086 888.011 307.855 884.86C295.783 875.872 281.627 869.702 266.826 866.978C258.113 865.374 245.325 868.978 247.182 877.641C247.8 880.53 250.075 882.734 252.283 884.696C275.19 905.057 303.091 919.759 332.837 927.142C339.568 928.813 347.045 930.029 353.147 926.732C361.833 922.037 363.259 911.511 364.692 900.936C366.1 890.542 367.514 880.101 375.837 875.108C383.353 870.599 392.614 873.127 401.294 875.497L401.299 875.498C402.457 875.814 403.605 876.128 404.736 876.421C425.378 881.771 446.783 879.73 468.198 877.687C476.652 876.881 485.106 876.074 493.516 875.722C516.849 874.746 540.328 877.333 562.888 883.367C570.745 885.468 578.557 881.548 585.997 877.814C587.102 877.259 588.199 876.709 589.287 876.182C597.697 872.115 609.221 869.971 615.221 877.132C617.594 879.963 618.47 883.591 619.35 887.238L619.35 887.239L619.35 887.239L619.351 887.239L619.351 887.24L619.351 887.24L619.351 887.24L619.351 887.241L619.351 887.241L619.351 887.241L619.351 887.242L619.351 887.242L619.351 887.243L619.351 887.243L619.352 887.243L619.352 887.244L619.352 887.244L619.352 887.244L619.352 887.245L619.352 887.245L619.352 887.246L619.352 887.246L619.352 887.246L619.352 887.247L619.352 887.247L619.353 887.247L619.353 887.248L619.353 887.248L619.353 887.248L619.353 887.249L619.353 887.249L619.353 887.25L619.353 887.25L619.353 887.25L619.353 887.251C619.788 889.051 620.224 890.856 620.843 892.572C624.884 903.782 636.999 910.649 648.897 911.315C660.794 911.982 672.412 907.469 682.808 901.646C702.505 890.616 719.352 874.546 731.3 855.392C732.691 853.162 734.066 850.684 733.787 848.071C733.051 841.167 723.122 840.625 716.498 842.704C698.577 848.331 682.102 858.501 669.042 872.001C662.902 866.403 659.913 857.553 661.402 849.379C697.914 824.132 736.788 798.022 781.067 794.884C788.01 794.392 795.058 794.469 802.098 794.544C817.386 794.71 832.631 794.874 846.648 789.219C872.473 778.799 887.39 743.558 871.211 720.892C858.764 703.455 834.428 699.34 813.089 701.251C777.022 704.481 742.306 721.088 717.158 747.142C710.17 754.381 703.794 762.393 697.43 770.39C683.659 787.696 669.943 804.932 650.204 814.116C636.801 795.579 615.798 782.716 593.195 779.202C609.96 748.268 614.3 710.819 605.055 676.87C595.809 642.921 573.08 612.845 542.944 594.683C541.302 593.693 539.629 592.729 537.952 591.762L537.951 591.761C530.362 587.387 522.698 582.968 517.527 576.003C511.213 567.498 510.586 553.527 519.442 547.715C531.218 563.874 555.931 567.364 573.408 557.649C590.884 547.933 600.837 527.545 601.189 507.553L646.396 506.402C631.2 501.319 614.599 500.506 598.979 504.081L593.562 489.332L629.433 484.629C616.199 481.296 602.016 481.827 589.068 486.141C586.126 480.379 581.641 475.414 576.205 471.905C581.309 472.484 586.609 471.117 590.796 468.143L579.027 458.777C583.903 459.673 589.194 456.477 590.67 451.745L571.833 444.125L646.191 408.543C643.023 408.487 639.851 408.604 636.695 408.892L646.307 402.536C631.632 404.31 617.157 400.179 602.7 396.053C587.735 391.783 572.79 387.518 557.662 389.813C551.718 390.715 545.737 392.605 539.79 394.486C527.517 398.365 515.389 402.2 504.035 397.2C480.932 387.028 453.838 386.283 430.211 395.17C428.122 395.956 425.999 396.815 423.856 397.682L423.856 397.682C412.06 402.454 399.631 407.482 388.612 402.05C375.351 395.513 359.269 399.336 345.973 405.801C341.305 408.07 336.775 410.652 332.249 413.231C323.881 417.999 315.527 422.76 306.34 425.528C327.071 438.235 350.549 446.434 374.683 449.398C377.647 451.689 376.612 456.781 373.655 459.081C370.697 461.38 366.699 461.672 362.958 461.872C363.921 468.537 372.509 472.758 378.374 469.449C375.909 469.907 375.725 465.903 376.749 463.615L383.139 449.335C388.102 451.157 394.278 448.233 396.014 443.24C383.725 444.719 370.974 446.158 359.201 442.335C347.429 438.512 336.91 427.846 337.462 415.48C363.679 400.291 398.873 402.348 423.142 420.487C421.268 415.019 416.662 410.563 411.134 408.872C417.517 402.588 425.99 398.464 434.873 397.318C429.596 401.493 427.177 408.958 429.003 415.435L452.698 393.642C448.811 400.61 446.634 408.524 446.41 416.5C455.197 410.757 462.198 402.321 466.223 392.625L476.763 394.105C470.31 399.557 466.715 408.221 467.412 416.64C475.444 411.647 481.67 403.815 484.725 394.865C494.623 396.464 504.235 399.815 512.982 404.714ZM804.143 790.506C798.843 790.331 793.54 790.155 788.268 790.305C749.028 791.419 712.546 810.531 680.17 832.731L679.835 832.961L679.47 833.212L678.831 833.651L678.806 833.668C672.662 837.894 666.458 842.161 659.444 844.653L651.205 820.639C650.762 819.351 650.49 817.58 651.688 816.932C664.287 810.119 675.792 801.287 685.629 790.876C692.183 783.939 697.996 776.317 703.803 768.703C712.026 757.921 720.235 747.156 730.515 738.383C746.931 724.374 767.597 716.355 788.333 710.375C803.679 705.949 819.76 702.477 835.545 704.908C851.33 707.339 866.872 716.76 872.66 731.645C877.258 743.468 875.008 757.414 867.925 767.937C860.841 778.461 849.341 785.622 837.017 788.627C826.299 791.239 815.23 790.873 804.143 790.506ZM352.639 841.377C353.469 843.351 353.992 845.985 352.336 847.341C350.202 849.088 347.176 846.836 345.383 844.742L330.103 826.886C326.445 836.395 324.767 846.661 325.206 856.84C325.294 858.88 325.46 860.951 325.627 863.028L325.627 863.029L325.627 863.029L325.627 863.029L325.627 863.029L325.627 863.03L325.627 863.03L325.627 863.03L325.627 863.031L325.627 863.031L325.628 863.031L325.628 863.031L325.628 863.032L325.628 863.032L325.628 863.032L325.628 863.032L325.628 863.033L325.628 863.033L325.628 863.033L325.628 863.034L325.628 863.034L325.628 863.034L325.628 863.034L325.628 863.035L325.628 863.035L325.628 863.035L325.628 863.035L325.628 863.036L325.628 863.036L325.628 863.036L325.628 863.037L325.628 863.037L325.628 863.037L325.628 863.037C326.267 870.988 326.914 879.045 323.231 885.94C321.616 888.964 318.868 891.74 315.446 891.962C313.507 892.088 311.619 891.379 309.829 890.622C304.923 888.547 300.089 885.997 295.257 883.448C282.817 876.887 270.388 870.331 256.767 871.895C254.907 872.109 252.59 873.026 252.663 874.897C252.695 875.735 253.242 876.455 253.773 877.104C273.412 901.088 304.122 912.718 333.851 921.5C338.713 922.936 343.837 924.334 348.788 923.244C353.739 922.153 358.335 917.689 357.737 912.655C356.155 899.335 360.328 885.43 368.984 875.183C372.439 871.092 376.808 867.452 382.05 866.362C388.49 865.025 394.784 867.678 400.983 870.291L400.984 870.291C402.576 870.963 404.162 871.631 405.742 872.229C417.859 876.81 431.478 877.309 443.898 873.629C439.042 873.566 436.71 867.744 435.704 862.993C429.184 832.216 425.717 800.793 425.372 769.335C425.335 765.914 422.935 762.89 420.041 761.066C417.591 759.523 414.797 758.664 412.019 757.81C411.516 757.655 411.013 757.501 410.512 757.342C400.397 754.137 390.866 749.1 382.52 742.547C381.468 741.722 380.433 740.871 379.396 740.019C376.202 737.394 373.005 734.766 369.338 732.885C364.482 730.393 358.472 729.377 353.605 731.848C352.519 734.435 354.482 737.441 356.994 738.69C358.897 739.636 361.029 739.893 363.155 740.149C363.837 740.231 364.518 740.313 365.19 740.417C368.389 740.915 371.503 741.956 374.357 743.485C377.354 745.09 380.194 749.329 377.522 751.433C376.426 752.296 374.891 752.235 373.5 752.133L357.81 750.98C361.635 761.386 366.511 771.405 372.341 780.836C372.864 781.682 373.563 782.623 374.558 782.632C389.929 782.771 407.094 784.923 416.835 796.814C418.681 799.068 420.196 802.325 418.613 804.771C409.684 793.99 395.717 787.569 381.72 787.81C367.723 788.052 353.986 794.951 345.435 806.035C352.983 811.087 358.983 818.419 362.442 826.817C363.486 829.353 363.294 833.501 360.552 833.444L344.082 813.278C343.346 812.377 342.461 811.399 341.298 811.363C340.366 811.335 339.544 811.931 338.804 812.5C337.202 813.731 335.539 815.036 334.703 816.875C333.867 818.715 334.178 821.246 335.92 822.269C343.345 826.63 349.303 833.439 352.639 841.377ZM540.409 872.935C550.985 864.113 554.435 849.585 557.276 836.107L567.683 786.721C567.795 786.193 567.922 785.634 568.302 785.251C568.803 784.745 569.589 784.69 570.3 784.669C589.272 784.095 609.47 785.903 624.75 797.161C618.515 800.253 613.065 804.912 609.042 810.591C607.913 812.184 606.97 814.58 608.423 815.884C608.968 816.373 609.727 816.546 610.458 816.598C614.1 816.857 617.427 814.582 620.089 812.082C620.663 811.543 621.227 810.986 621.791 810.428C623.843 808.397 625.905 806.358 628.51 805.165C631.83 803.645 636.442 804.071 638.275 807.23C632.353 810.247 627.473 815.265 624.624 821.269C623.882 822.832 623.269 824.639 623.87 826.261C624.471 827.884 626.835 828.836 627.997 827.553L639.438 814.923C639.991 814.312 640.76 813.642 641.534 813.924C641.952 814.077 642.225 814.472 642.464 814.847C648.527 824.361 650.937 835.439 653.358 846.565C654.775 853.08 656.196 859.611 658.356 865.855C660.086 870.857 663.428 876.476 668.721 876.48C671.646 876.482 674.234 874.682 676.549 872.895C679.024 870.984 681.487 868.98 683.962 866.966C695.597 857.498 707.496 847.814 722.15 846.654C724.46 846.472 727.423 846.981 727.965 849.234C728.28 850.542 727.576 851.859 726.874 853.007C715.982 870.835 699.645 884.892 681.597 895.414C672.356 900.802 662.224 905.428 651.528 905.511C640.832 905.594 629.506 900.125 625.464 890.222C624.64 888.202 624.135 886.069 623.632 883.939L623.631 883.938C623.049 881.474 622.466 879.012 621.39 876.73C618.617 870.847 612.47 866.707 605.977 866.347C599.794 866.005 594.108 868.759 588.434 871.507C586.441 872.473 584.449 873.437 582.438 874.267C569.086 879.774 553.386 879.276 540.409 872.935ZM469.807 766.615C465.825 770.012 460.47 771.368 455.25 771.751C445.846 772.441 436.25 770.24 428.087 765.52L431.455 778.269C431.6 778.818 431.773 779.41 432.229 779.748C432.625 780.043 433.15 780.079 433.643 780.105L482.039 782.649C489.095 783.019 496.16 783.39 503.222 783.186C523.031 782.614 542.693 777.442 560.22 768.194C561.232 767.661 562.262 767.093 562.99 766.212C563.858 765.161 564.201 763.785 564.491 762.453C566.946 751.193 567.371 739.493 565.738 728.085C565.338 725.283 564.779 722.409 563.204 720.057C561.628 717.705 558.795 715.986 556.014 716.516C527.535 721.939 498.463 720.264 469.393 718.589H469.392H469.392H469.392H469.392H469.392H469.391H469.391H469.391H469.391H469.39H469.39H469.39H469.39H469.39H469.389H469.389H469.389H469.389H469.388H469.388H469.388H469.388H469.387H469.387H469.387H469.387H469.387H469.386H469.386H469.386H469.386C458.429 717.957 447.472 717.326 436.548 717.075C434.597 717.03 432.546 717.02 430.832 717.954C429.119 718.887 427.94 721.102 428.82 722.843C433.801 732.699 444.094 738.988 454.766 741.825C455.533 742.029 456.317 742.229 457.111 742.431C464.015 744.187 471.618 746.12 474.124 752.546C476.026 757.422 473.788 763.217 469.807 766.615ZM547.455 850.146C545.503 857.898 541.399 865.939 533.953 868.846C531.348 869.863 528.527 870.166 525.743 870.425C499.926 872.828 473.833 872.249 448.148 868.704C446.619 868.493 445.007 868.236 443.815 867.254C442.363 866.06 441.871 864.082 441.49 862.241C440.324 856.597 439.421 850.898 438.783 845.171C438.671 844.156 438.952 842.709 439.97 842.788C456.405 844.067 472.888 844.738 489.373 844.801C500.744 844.844 512.206 844.588 523.313 842.145C534.419 839.703 545.248 834.929 553.367 826.967C551.059 831.814 550.065 837.109 549.07 842.413L549.07 842.413L549.07 842.413L549.07 842.414L549.07 842.414L549.069 842.414L549.069 842.414L549.069 842.415L549.069 842.415L549.069 842.415L549.069 842.415L549.069 842.416L549.069 842.416L549.069 842.416L549.069 842.417L549.069 842.417L549.068 842.417L549.068 842.417L549.068 842.418L549.068 842.418L549.068 842.418L549.068 842.418L549.068 842.419L549.068 842.419L549.068 842.419L549.068 842.42L549.068 842.42L549.067 842.42L549.067 842.42L549.067 842.421L549.067 842.421C548.582 845.011 548.096 847.603 547.455 850.146ZM491.93 817.955C490.876 818.981 489.742 820.199 489.817 821.668C489.891 823.136 492.094 824.233 492.854 822.974C497.003 816.102 504.217 811.161 512.123 809.777C520.03 808.393 528.493 810.59 534.729 815.644C535.377 816.169 536.004 816.724 536.631 817.28C538.109 818.59 539.587 819.899 541.333 820.804C542.227 821.268 543.759 821.281 543.796 820.273C543.808 819.943 543.619 819.642 543.433 819.368C538.955 812.768 532.259 807.701 524.691 805.186C518.056 802.982 510.368 802.843 504.435 806.54C502.28 807.882 500.442 809.668 498.623 811.439L491.93 817.955ZM436.198 814.201C441.918 807.693 451.166 804.811 459.756 805.946C468.345 807.082 476.202 811.921 481.909 818.44C482.915 819.589 483.901 821.24 483.085 822.531C482.403 823.612 480.771 823.691 479.649 823.077C478.671 822.541 477.973 821.637 477.286 820.747L477.282 820.742C477.222 820.664 477.161 820.586 477.101 820.509C477.062 820.459 477.023 820.409 476.984 820.359C471.932 813.932 463.677 810.159 455.511 810.544C447.346 810.93 439.483 815.463 435.058 822.337C433.906 821.335 433.58 819.614 433.926 818.126C434.273 816.639 435.19 815.348 436.198 814.201ZM520.345 797.152C520.212 798.605 522.131 799.508 523.51 799.033C524.751 798.605 525.616 797.533 526.449 796.5C526.542 796.385 526.634 796.271 526.726 796.158C534.405 786.767 549.027 783.937 559.655 789.786C561.049 788.609 561.129 786.351 560.196 784.783C559.263 783.214 557.56 782.252 555.822 781.696C552.057 780.493 547.969 780.903 544.096 781.687C534.927 783.542 525.666 787.888 520.846 795.905C520.613 796.292 520.387 796.702 520.345 797.152ZM473.317 830.231C476.845 828.881 480.533 827.884 484.301 827.622C493.623 826.974 503.151 831.161 508.978 838.466C506.496 840.241 503.227 838.081 500.675 836.397L500.65 836.38C492.508 831.003 481.384 830.522 472.808 835.176C472.139 835.539 471.464 835.934 470.783 836.333C467.575 838.211 464.241 840.164 460.788 839.186C463.642 834.815 468.442 832.097 473.317 830.231ZM499.781 825.266C501.243 824.504 502.555 823.499 503.867 822.494C505.12 821.534 506.374 820.574 507.759 819.825C511.663 817.713 516.527 817.469 520.623 819.18C521.818 819.679 522.939 820.33 524.061 820.98L524.062 820.981C525.028 821.541 525.994 822.102 527.008 822.566C529.199 823.569 531.81 824.09 533.993 823.069C534.235 822.955 534.486 822.806 534.588 822.559C534.754 822.157 534.459 821.724 534.173 821.397C529.287 815.82 521.632 812.798 514.254 813.535C506.876 814.271 499.969 818.747 496.282 825.179C497.052 826.193 498.653 825.854 499.781 825.266ZM445.168 823.514C444.336 824.25 443.505 824.985 442.543 825.532C441.012 826.403 438.95 826.695 437.565 825.606C437.137 823.303 439.46 821.515 441.484 820.334C446.473 817.423 451.834 814.416 457.603 814.714C462.218 814.952 466.43 817.289 470.416 819.627C471.396 820.202 472.401 820.805 473.071 821.722C473.741 822.639 473.992 823.961 473.366 824.909C472.734 825.867 471.402 826.149 470.283 825.889C469.206 825.639 468.274 824.991 467.365 824.359L467.259 824.286C464.034 822.047 460.518 819.983 456.618 819.531C453.119 819.124 449.472 820.109 446.672 822.247C446.155 822.642 445.666 823.075 445.177 823.507L445.176 823.508L445.176 823.508L445.175 823.509L445.175 823.509L445.174 823.509L445.174 823.51L445.173 823.51L445.173 823.51L445.173 823.511L445.172 823.511L445.172 823.511L445.171 823.512L445.171 823.512L445.17 823.513L445.17 823.513L445.169 823.513L445.169 823.514L445.168 823.514L445.168 823.514ZM468.522 803.171C469.564 804.519 471.603 803.074 472.752 801.818C476.294 797.949 481.399 795.553 486.638 795.301C491.878 795.05 497.188 796.945 501.084 800.458C501.164 800.529 501.243 800.602 501.323 800.675C502.236 801.506 503.21 802.393 504.426 802.426C505.748 802.462 506.94 800.616 505.891 799.81C500.274 795.495 493.74 791.969 486.672 791.503C479.605 791.037 471.988 794.208 468.716 800.489C468.278 801.331 467.942 802.421 468.522 803.171ZM533.023 800.398C532.417 801.022 531.804 801.654 531.009 801.99C530.076 802.384 528.795 802.195 528.345 801.288C527.869 800.33 528.533 799.212 529.226 798.397C536.027 790.395 548.828 788.321 557.808 793.766C559.184 794.6 560.626 796.218 559.817 797.608C558.847 799.276 556.335 798.21 554.665 797.244C547.989 793.382 538.777 794.605 533.339 800.075C533.233 800.181 533.128 800.289 533.023 800.398ZM535.973 802.504C535.587 802.827 535.202 803.188 535.04 803.664C534.586 804.994 536.202 806.238 537.602 806.127C538.616 806.046 539.52 805.552 540.423 805.059C540.768 804.87 541.113 804.682 541.464 804.516C544.562 803.055 548.285 803.403 551.43 804.761C551.523 804.801 551.616 804.843 551.709 804.885C551.913 804.976 552.116 805.071 552.32 805.165C553.259 805.603 554.2 806.041 555.219 806.194C556.559 806.396 558.122 805.951 558.733 804.741C553.404 798.136 542.486 797.063 535.973 802.504ZM454.106 799.557C453.595 800.271 452.51 800.342 451.714 799.969C450.975 799.623 450.421 798.992 449.881 798.375L449.757 798.235C446.022 793.999 441.181 790.745 435.848 788.886C434.463 788.403 432.703 787.442 433.093 786.028C436.921 784.721 441.251 785.747 444.689 787.88C448.127 790.013 450.817 793.144 453.318 796.324C454.057 797.263 454.802 798.585 454.106 799.557ZM498.842 803.518C492.549 799.504 483.958 799.434 477.599 803.344C476.494 804.023 475.359 804.978 475.273 806.273C475.187 807.567 476.945 808.769 477.817 807.808C481.329 803.936 487.748 803.132 492.107 806.019C494.247 807.437 497.32 807.243 499.266 805.569C500.185 805.473 499.621 804.015 498.842 803.518ZM520.87 836.075C527.361 829.894 535.682 824.632 544.625 825.236C545.545 825.298 546.778 826.072 546.223 826.807L524.047 836.405C522.955 836.877 521.343 837.167 520.87 836.075ZM459.515 829.219C459.733 829.342 459.951 829.475 460.169 829.608C461.05 830.145 461.943 830.69 462.956 830.691C464.221 830.692 465.474 829.17 464.672 828.193C462.147 825.114 458.178 823.273 454.197 823.334C450.215 823.395 446.305 825.356 443.875 828.511C444.175 829.657 445.578 830.185 446.75 830.014C447.595 829.891 448.368 829.513 449.14 829.135C449.44 828.989 449.739 828.843 450.043 828.711C453.05 827.408 456.664 827.602 459.515 829.219ZM505.642 829.884C504.757 829.932 503.759 829.259 503.86 828.378C503.897 828.053 504.074 827.762 504.26 827.494C506.311 824.545 510.016 823.039 513.607 823.006C517.198 822.973 520.688 824.245 523.858 825.931C524.743 826.402 525.738 827.151 525.595 828.143C524.126 829.706 521.693 828.867 519.572 828.136C519.336 828.055 519.105 827.975 518.879 827.9C515.349 826.728 511.338 827.096 508.08 828.891C507.968 828.952 507.856 829.016 507.743 829.08C507.077 829.458 506.399 829.843 505.642 829.884ZM497.185 789.739C500.882 791.063 504.325 793.091 507.274 795.683C507.479 795.863 507.683 796.047 507.886 796.23L507.887 796.231L507.887 796.231L507.888 796.231L507.888 796.232C508.893 797.137 509.904 798.048 511.129 798.602C512.604 799.268 514.519 799.285 515.674 798.151C513.119 796.191 511.021 793.641 509.589 790.757C508.818 789.204 506.763 788.919 505.031 788.835L497.436 788.463C497.169 788.823 497.074 789.305 497.185 789.739ZM466.234 796.256C465.583 797.084 464.933 797.911 464.165 798.629C462.858 799.849 461.055 800.745 459.309 800.359C461.083 796.054 463.952 792.205 467.569 789.274C470.152 787.182 473.89 787.641 477.165 788.21C477.34 789.393 475.82 789.985 474.663 790.294C471.984 791.008 469.517 792.504 467.644 794.55C467.147 795.094 466.69 795.675 466.234 796.256L466.234 796.256ZM435.05 797.146L442.092 801.734C443.086 802.382 444.354 803.045 445.385 802.458C446.342 801.914 446.488 800.512 445.989 799.531C445.491 798.55 444.54 797.893 443.627 797.278L437.894 793.418C436.293 792.34 433.686 791.481 432.816 793.203C432.065 794.687 433.656 796.238 435.05 797.146ZM487.771 816.84C486.629 817.387 485.371 816.423 484.473 815.532L481.541 812.623C481.197 812.281 480.825 811.865 480.885 811.384C480.923 811.08 481.129 810.827 481.34 810.605C484.093 807.725 489.323 807.804 491.987 810.767L488.934 815.592C488.626 816.079 488.291 816.591 487.771 816.84ZM443.397 838.53C445.306 839.2 447.559 839.398 449.242 838.277C446.708 835.362 443.737 832.826 440.46 830.781C439.53 830.201 438.482 829.641 437.397 829.795C436.312 829.95 435.352 831.183 435.877 832.145C437.49 835.096 440.223 837.417 443.397 838.53ZM550.835 811.83L548.129 815.1C547.872 815.41 547.586 815.739 547.192 815.824C546.597 815.954 546.055 815.483 545.627 815.05L541.698 811.07C541.12 810.484 541.286 809.438 541.86 808.849C542.434 808.261 543.285 808.038 544.101 807.94C546.237 807.683 548.45 808.123 550.325 809.177C550.864 809.481 551.43 809.925 551.455 810.543C551.474 811.03 551.146 811.454 550.835 811.83ZM453.994 791.55C454.803 792.421 455.82 793.313 457.005 793.215C458.232 793.113 459.058 792.037 459.87 790.979C460.738 789.847 461.591 788.736 462.903 788.86C463.584 787.737 461.725 786.838 460.411 786.817L450.212 786.656C451.321 788.397 452.589 790.037 453.994 791.55ZM496.208 839.243L474.991 839.335C475.221 838.237 476.457 837.71 477.54 837.416C482.378 836.105 487.524 835.95 492.431 836.967C493.929 837.277 495.588 837.845 496.208 839.243ZM518.658 831.893L511.638 832.21C510.883 832.245 509.913 832.464 509.82 833.214C509.779 833.549 509.947 833.871 510.11 834.167C510.729 835.291 511.387 836.459 512.457 837.167C513.526 837.874 515.137 837.944 515.969 836.968C516.255 836.632 516.423 836.212 516.59 835.795C516.795 835.282 516.999 834.773 517.418 834.43C517.696 834.202 518.035 834.078 518.375 833.953C518.635 833.858 518.895 833.763 519.13 833.621C519.673 833.292 520.018 832.441 519.515 832.055C519.279 831.874 518.955 831.88 518.658 831.893ZM457.13 832.824C458.104 833.451 458.695 834.832 458.07 835.807C457.321 836.976 456.387 838.263 455.006 838.4C453.225 838.577 451.949 836.782 451.082 835.216C450.787 834.683 450.481 834.094 450.59 833.494C450.82 832.235 452.503 832 453.781 832.063C454.938 832.12 456.156 832.196 457.13 832.824ZM550.505 821.775C551.555 821.862 552.496 821.15 553.233 820.397C555.48 818.099 556.91 815.017 557.211 811.817C556.468 811.342 555.558 812.079 554.988 812.753L549.248 819.541C548.568 820.345 549.455 821.688 550.505 821.775ZM438.083 806.687C436.579 807.5 434.521 807.082 433.454 805.746C432.387 804.411 432.433 802.311 433.557 801.024C433.713 800.845 433.899 800.674 434.132 800.627C434.469 800.557 434.795 800.76 435.079 800.954L437.871 802.857C438.515 803.296 439.213 803.816 439.349 804.583C439.502 805.445 438.853 806.271 438.083 806.687ZM516.092 791.652C517.209 792.59 518.865 791.621 519.974 790.673L523.584 787.589C522.903 786.938 521.814 787.085 520.892 787.276L512.855 788.937L516.092 791.652ZM353.611 720.963C352.79 720.233 352.58 719.04 352.556 717.943C352.528 716.703 352.673 715.461 352.986 714.261L358.313 721.196C358.63 721.61 358.891 722.322 358.422 722.549C357.756 722.102 356.937 721.976 356.123 721.85C355.203 721.707 354.289 721.566 353.611 720.963ZM558.162 778.51C558.836 779.35 560.256 779.169 561.029 778.419C561.803 777.669 562.088 776.56 562.31 775.506C562.363 775.253 562.413 774.979 562.307 774.743C562.036 774.142 561.145 774.323 560.549 774.601C558.943 775.35 557.052 777.129 558.162 778.51ZM497.879 471.894C498.531 470.265 500.048 469.166 501.543 468.248C506.053 465.477 511.062 463.521 516.256 462.501C517.499 462.257 518.979 462.138 519.842 463.065C520.813 464.108 520.327 465.913 519.25 466.845C518.29 467.676 517.027 468.017 515.792 468.35C515.64 468.391 515.489 468.432 515.34 468.473C511.186 469.623 507.278 471.654 503.95 474.393C502.67 475.446 501.153 476.686 499.557 476.242C497.867 475.772 497.227 473.522 497.879 471.894ZM404.451 472.274C403.246 471.621 402.431 469.992 403.182 468.844C403.618 468.177 404.432 467.873 405.205 467.676C411.467 466.087 417.95 468.893 423.615 472.001C424.89 472.7 426.202 473.462 427.006 474.674C427.81 475.887 427.927 477.683 426.878 478.69C425.123 480.377 422.34 478.642 420.358 477.228C416.888 474.753 412.718 473.269 408.464 472.996C408.275 472.984 408.084 472.974 407.892 472.964L407.892 472.963L407.892 472.963C406.701 472.9 405.49 472.836 404.451 472.274ZM470.098 562.056L465.979 550.308C462.313 552.954 459.572 556.857 458.328 561.204C457.203 560.289 457.161 558.741 457.12 557.221C457.108 556.767 457.096 556.315 457.055 555.884C456.812 553.323 455.203 550.931 452.923 549.741C450.642 548.55 447.761 548.596 445.52 549.86C446.115 551.161 447.515 551.574 448.956 551.999C449.914 552.281 450.889 552.569 451.658 553.125C453.284 554.3 453.749 556.515 453.774 558.521C453.781 559.023 453.768 559.529 453.755 560.036V560.037V560.037C453.716 561.552 453.678 563.07 454.151 564.496C454.304 564.957 454.52 565.416 454.893 565.726C455.95 566.605 457.55 565.875 458.62 565.012C461.037 563.063 462.938 560.479 464.079 557.592C465.085 558.597 465.457 560.009 465.826 561.41L465.826 561.41C465.934 561.821 466.042 562.232 466.166 562.63C466.711 564.387 468.016 566.266 469.854 566.18C471.079 566.124 472.066 565.202 472.933 564.335L477.917 559.357C478.517 558.757 479.169 557.994 478.975 557.167C478.79 556.374 477.849 555.949 477.042 556.063C476.235 556.177 475.545 556.685 474.914 557.2C473.144 558.644 471.527 560.275 470.098 562.056ZM458.715 514.932C458.98 512.779 459.127 510.271 457.545 508.786C454.593 506.015 452.008 502.855 449.878 499.412C448.949 497.911 448.076 496.157 448.519 494.448C449.188 491.867 452.326 490.933 454.973 490.611C459.208 490.095 463.495 490.008 467.747 490.35C469.575 490.497 471.512 490.772 472.91 491.957C474.308 493.142 474.813 495.546 473.463 496.786C466.847 502.868 462.973 511.827 463.073 520.814C465.526 522.406 468.02 524.018 470.815 524.879C473.61 525.741 476.795 525.769 479.317 524.286C480.378 523.662 481.269 522.808 482.161 521.952C482.777 521.361 483.394 520.769 484.069 520.251C485.721 518.984 488.087 518.199 489.857 519.295L483.121 525.496C480.437 527.968 477.104 530.626 473.551 529.794C472.375 529.518 471.342 528.882 470.305 528.243C469.688 527.863 469.07 527.482 468.419 527.176C464.94 525.539 460.858 526.151 457.099 526.958C456.873 527.006 456.647 527.055 456.419 527.105L456.411 527.106C452.863 527.875 449.192 528.671 445.71 527.715C442.002 526.698 438.75 522.844 439.91 519.179C442.244 522.595 446.309 524.76 450.446 524.792C452.035 524.804 453.673 524.5 454.989 523.61C457.683 521.789 458.316 518.16 458.715 514.932Z" fill="#00160A"/>
<path d="M228.427 250L198.047 196.87H210.087L240.467 250H228.427ZM188.982 206.145V196.87H210.052L208.162 209.995H204.697V240.725H211.067V250H188.982V240.725H195.352V206.145H188.982ZM226.642 206.145V196.87H248.727V206.145H242.357V250H232.347L228.812 235.44H233.012V206.145H226.642ZM294.129 191.41V226.97H303.439V191.41H294.129ZM300.849 205.06V212.69H312.049V205.06H300.849ZM254.299 194.63V224.66H285.449V194.63H276.209V202.4H263.539V194.63H254.299ZM263.539 209.54H276.209V217.31H263.539V209.54ZM261.089 229.77V255.53H303.439V229.77H294.199V235.44H270.329V229.77H261.089ZM270.329 242.58H294.199V248.18H270.329V242.58ZM348.592 195.33V202.82C348.592 210.1 345.022 218.08 335.992 222.07L340.892 229.28C351.462 224.8 355.872 213.81 355.872 202.82V195.33H348.592ZM350.272 195.33V202.82C350.272 213.39 354.542 223.19 364.622 227.18L369.592 220.11C361.052 216.75 357.552 209.75 357.552 202.82V195.33H350.272ZM383.312 191.48V231.03H392.132V191.48H383.312ZM375.542 207.16V214.65H385.832V207.16H375.542ZM369.592 192.67V229H378.272V192.67H369.592ZM370.152 231.94C356.502 231.94 347.892 236.49 347.892 244.12C347.892 251.68 356.502 256.23 370.152 256.23C383.732 256.23 392.482 251.68 392.482 244.12C392.482 236.49 383.732 231.94 370.152 231.94ZM370.152 238.94C378.482 238.94 383.102 240.69 383.102 244.12C383.102 247.55 378.482 249.23 370.152 249.23C361.822 249.23 357.132 247.55 357.132 244.12C357.132 240.69 361.822 238.94 370.152 238.94ZM443.436 191.41V229.49H452.746V191.41H443.436ZM449.456 206.67V214.3H460.866V206.67H449.456ZM409.136 231.87V238.03H443.576V240.83H409.206V251.75H418.446V246.57H452.746V231.87H409.136ZM409.206 249.65V255.81H454.986V249.65H409.206ZM415.996 217.31V226.55H425.306V217.31H415.996ZM401.506 228.93C412.706 228.93 427.616 228.86 441.266 226.48L440.566 220.81C427.476 222.56 412.006 222.63 400.526 222.63L401.506 228.93ZM402.206 195.47V201.63H438.956V195.47H402.206ZM420.616 202.82C410.956 202.82 404.796 205.97 404.796 211.29C404.796 216.68 410.956 219.83 420.616 219.83C430.206 219.83 436.366 216.68 436.366 211.29C436.366 205.97 430.206 202.82 420.616 202.82ZM420.616 208.56C425.026 208.56 427.546 209.4 427.546 211.29C427.546 213.18 425.026 214.09 420.616 214.09C416.206 214.09 413.616 213.18 413.616 211.29C413.616 209.4 416.206 208.56 420.616 208.56ZM415.996 190.85V198.9H425.306V190.85H415.996ZM510.141 191.34V256.37H519.521V191.34H510.141ZM484.591 195.89C474.791 195.89 467.581 204.85 467.581 218.99C467.581 233.27 474.791 242.23 484.591 242.23C494.391 242.23 501.601 233.27 501.601 218.99C501.601 204.85 494.391 195.89 484.591 195.89ZM484.591 204.36C489.421 204.36 492.641 209.47 492.641 218.99C492.641 228.65 489.421 233.83 484.591 233.83C479.761 233.83 476.471 228.65 476.471 218.99C476.471 209.47 479.761 204.36 484.591 204.36ZM591.903 191.41V230.47H601.213V191.41H591.903ZM598.623 207.37V215H609.823V207.37H598.623ZM559.073 233.27V255.53H601.213V233.27H559.073ZM592.113 240.62V248.18H568.243V240.62H592.113ZM550.183 197.22V204.57H588.333V197.22H550.183ZM569.293 206.46C559.843 206.46 553.333 211.22 553.333 218.15C553.333 225.15 559.843 229.77 569.293 229.77C578.673 229.77 585.183 225.15 585.183 218.15C585.183 211.22 578.673 206.46 569.293 206.46ZM569.293 213.39C573.423 213.39 576.293 215 576.293 218.15C576.293 221.3 573.423 222.98 569.293 222.98C565.093 222.98 562.293 221.3 562.293 218.15C562.293 215 565.093 213.39 569.293 213.39ZM564.603 190.99V201.21H573.913V190.99H564.603ZM622.487 198.76V199.53C622.487 215.56 621.157 226.83 613.597 238.73L620.737 242.58C628.787 229.7 630.327 215.21 630.327 198.76H622.487ZM615.697 198.76V206.25H627.457V198.76H615.697ZM636.977 198.76V199.6C636.977 215.77 636.277 228.93 628.017 241.81L635.157 245.73C643.837 231.87 644.817 215.7 644.817 198.76H636.977ZM632.287 198.76V206.25H642.227V198.76H632.287ZM661.967 191.41V256.23H670.857V191.41H661.967ZM641.667 215.7V223.19H650.837V215.7H641.667ZM649.437 192.81V253.36H658.117V192.81H649.437ZM720.692 191.41V229.35H730.002V191.41H720.692ZM726.292 206.95V214.65H738.612V206.95H726.292ZM687.862 231.87V255.53H730.002V231.87H720.762V236.77H697.032V231.87H687.862ZM697.032 243.77H720.762V248.25H697.032V243.77ZM678.972 197.01V204.36H717.122V197.01H678.972ZM698.082 206.11C688.632 206.11 682.122 210.73 682.122 217.59C682.122 224.45 688.632 229.07 698.082 229.07C707.462 229.07 713.972 224.45 713.972 217.59C713.972 210.73 707.462 206.11 698.082 206.11ZM698.082 212.9C702.212 212.9 705.082 214.58 705.082 217.59C705.082 220.67 702.212 222.28 698.082 222.28C693.882 222.28 691.082 220.67 691.082 217.59C691.082 214.58 693.882 212.9 698.082 212.9ZM693.392 190.92V201.14H702.702V190.92H693.392ZM788.236 191.41V256.23H797.546V191.41H788.236ZM746.796 197.57V237.82H756.036V197.57H746.796ZM746.796 232.36V240.27H752.536C762.406 240.27 773.116 239.57 784.246 237.26L783.196 229.56C772.486 231.66 761.986 232.36 752.536 232.36H746.796ZM849.201 191.34V256.37H858.581V191.34H849.201ZM856.481 215.35V222.98H867.961V215.35H856.481ZM810.281 233.06V240.76H815.741C827.011 240.76 835.901 240.48 845.701 238.73L844.791 231.03C835.271 232.71 826.661 233.06 815.741 233.06H810.281ZM810.281 197.36V236.77H819.521V204.85H840.521V197.36H810.281ZM875.06 196.87H887.485L885.805 234.425H876.775L875.06 196.87ZM874.92 238.24H887.205V250H874.92V238.24Z" fill="#634718"/>
</svg>
