<svg width="750" height="750" viewBox="0 0 750 750" fill="none" xmlns="http://www.w3.org/2000/svg">
<rect width="750" height="750" fill="white"/>
<path fill-rule="evenodd" clip-rule="evenodd" d="M166.661 525.687C211.67 574.632 417.02 507.783 486.155 525.687C533.255 537.885 698.331 550.182 633.001 380.432C425.764 -158.034 24.0478 370.604 166.661 525.687Z" fill="#64FCD9"/>
<ellipse cx="352.538" cy="151.383" rx="33.9459" ry="40.3799" fill="white"/>
<path fill-rule="evenodd" clip-rule="evenodd" d="M74.5029 656.938C64.0559 662.177 55.4777 668.472 58.674 676.296C64.2439 689.931 81.7435 694.959 101.643 698.978C129.483 704.602 168.128 705.308 218.129 703.133C301.712 699.499 292.232 691.5 371.551 687.738C425.534 685.178 519.175 699.393 594.293 699.136C640.251 698.978 840.697 643.574 556.147 631.272C271.597 618.971 115.092 636.586 74.5029 656.938Z" fill="white"/>
<path fill-rule="evenodd" clip-rule="evenodd" d="M74.5029 656.938C64.0559 662.176 55.4777 668.472 58.674 676.296C64.2439 689.93 295.68 646.003 374.999 642.241C428.982 639.681 511.273 657.195 586.39 656.938C632.349 656.781 737.295 647.444 556.147 631.272C374.999 615.1 115.092 636.585 74.5029 656.938Z" fill="#E7EAEE"/>
<path fill-rule="evenodd" clip-rule="evenodd" d="M223.671 629.366C147.888 634.506 95.4658 643.63 73.3824 654.703C67.2024 657.802 62.6837 660.747 59.661 663.924C55.7594 668.025 54.4395 672.541 56.3597 677.242C59.252 684.322 65.0787 689.545 73.7434 693.515C80.4966 696.61 88.5179 698.851 100.37 701.271L101.148 701.429C127.756 706.803 164.676 707.96 218.237 705.631L222.669 705.432C253.73 703.993 270.06 702.229 294.212 698.373L300.804 697.309C325.051 693.417 340.229 691.749 370.553 690.288L373.092 690.17C394.394 689.241 414.041 690.246 468.272 694.549L499.037 697.009C506.046 697.559 511.994 698.008 517.992 698.438L524.376 698.886C551.388 700.74 573.336 701.672 593.255 701.638L594.302 701.635C606.136 701.595 627.544 698.027 648.365 692.615L649.991 692.188C672.661 686.186 691.196 678.947 700.673 671.749C713.679 661.87 710.126 651.671 689.415 644.675C666.997 637.102 623.331 631.674 556.255 628.775C422.84 623.007 310.24 623.495 223.671 629.366ZM556.039 633.77L560.009 633.946C624.393 636.866 666.407 642.18 687.815 649.412L688.784 649.746C697.362 652.757 701.985 655.961 703.02 658.931C703.86 661.342 702.205 664.307 697.649 667.767C688.828 674.466 670.779 681.512 648.692 687.36L647.107 687.776C626.922 693.022 606.172 696.505 594.731 696.632L594.284 696.636C573.187 696.708 549.795 695.678 520.419 693.598L510.864 692.902C504.726 692.443 498.178 691.932 490.108 691.285L470.44 689.706C413.37 685.165 393.829 686.179 371.433 687.241L367.019 687.457C338.654 688.891 323.541 690.596 300.02 694.371L292.6 695.567C268.241 699.436 251.806 701.144 219.14 702.587L218.02 702.636C165.366 704.925 128.985 701.825 102.925 696.685L102.138 696.528C77.2174 691.494 62.6335 687.776 58.3922 675.45C56.6365 670.348 63.8053 665.099 75.6235 659.173C96.9249 648.492 148.869 639.45 224.009 634.354C310.379 628.497 422.797 628.01 556.039 633.77Z" fill="#00160A"/>
<path fill-rule="evenodd" clip-rule="evenodd" d="M323.806 131.88C329.773 117.604 345.844 108.275 361.212 110.166C351.325 104.94 339.863 96.7698 341.67 85.7401C343.059 77.2591 352.151 72.1188 360.682 71.025C373.219 69.4175 387.375 75.1066 392.266 86.7518C397.157 98.3969 388.433 114.496 375.803 114.001C386.428 124.505 390.284 141.3 385.302 155.38C382.801 162.45 371.975 162.863 366.437 157.803C360.898 152.743 359.307 144.79 358.016 137.403C351.785 141.441 344.557 143.931 337.16 144.587C340.65 145.761 343.581 148.494 344.994 151.892C338.834 147.086 331.643 143.607 324.05 141.759C321.289 151.031 318.498 160.643 319.769 170.233C321.041 179.823 327.535 189.433 337.067 191.13C358.671 194.976 373.466 157.633 395.319 159.638C404.319 160.464 411.122 156.467 414.388 148.047C417.654 139.627 414.696 129.212 407.489 123.762C403.206 123.962 399.088 120.403 398.67 116.138C398.252 111.874 401.6 107.584 405.841 106.95C396.837 94.1234 399.104 74.6906 410.819 64.2769C422.534 53.8632 442.115 53.8758 453.817 64.3046C447.409 53.969 453.482 38.3539 465.113 34.7807C476.744 31.2075 490.395 40.3834 491.757 52.4649C493.118 64.5464 482.187 76.4209 470.019 76.3723C472.045 85.7216 480.612 93.262 490.15 94.09C486.073 98.8006 478.264 94.3611 474.884 89.1284C471.505 83.8956 468.296 77.0931 462.091 76.5136C469.714 85.4928 474.744 96.6455 476.427 108.3C471.173 100.15 467.408 91.0445 465.373 81.5657C466.118 89.1473 464.7 96.9289 461.33 103.762C465.3 101.854 469.685 106.912 469.046 111.267C468.408 115.622 464.905 118.898 461.781 122.001C452.887 130.834 445.164 144.249 451.031 155.322C454.984 162.784 463.623 166.146 470.748 170.686C486.102 180.472 495.748 197.433 500.412 215.024C505.076 232.614 505.305 251.032 505.505 269.228C505.933 308.175 506.361 347.121 506.788 386.067C506.93 398.908 506.249 413.605 496.284 421.716C502.377 413.267 505.01 402.402 503.462 392.104C493.232 426.692 485.194 461.274 482.395 501.362C479.596 541.45 485.132 558.248 473.36 612.904C472.3 617.825 474.617 623.626 477.545 628.332C482.661 636.553 501.979 641.159 498.29 647.871C493.583 656.435 472.957 654.421 459.95 653.825C454.603 653.581 448.858 652.705 445.029 648.966C440.271 644.319 440.002 636.889 440.018 630.241C440.184 559.666 437.498 489.085 431.97 418.726C430.914 473.227 429.849 527.852 422.956 581.926C421.015 597.159 417.085 613.099 417.698 628.332C418.031 636.623 421.882 645.508 423.221 653.825C424.284 660.43 419.488 662.7 414.388 662.328C413.037 662.229 411.965 663.361 410.577 663.273C409.426 663.2 408.26 662.419 406.957 662.328C405.563 662.229 404.022 662.818 402.526 662.7C401.407 662.611 401.152 661.684 399.144 661.684C397.135 661.684 396.536 662.307 394.529 661.991C392.521 661.675 388.876 664.16 387.05 661.413C383.746 656.443 392.266 643.128 391.763 636.193C391.259 629.258 388.617 607.156 388.409 601.286C386.61 550.563 375.5 453.791 375.5 453.791C375.5 453.791 369.014 530.698 347.113 576.946C341.68 588.419 334.28 607.297 341.67 617.023C349.06 626.748 344.818 635.373 347.463 645.279C349.576 653.191 354.847 659.961 355.333 669.375C355.573 674.024 348.716 673.031 348.043 672.554C347.369 672.078 346.228 669.357 345.657 669.59C344.802 669.939 347.063 672.368 344.366 674.046C341.67 675.724 340.596 673.879 339.315 674.431C338.066 674.968 337.404 676.643 335.985 676.402C333.11 675.915 332.95 674.776 332.649 674.876C332.335 674.981 332.798 676.76 331.62 677.099C330.443 677.438 327.031 675.957 326.338 675.283C325.323 674.296 325.691 677.885 324.331 677.712C318.791 677.005 316.894 671.918 317.405 668.895C314.494 675.874 310.466 680.451 303.387 682.982C301.783 683.556 300.926 681.753 300.112 681.846C299.665 681.896 300.484 683.315 299.147 683.75C297.81 684.184 297.166 684.019 295.473 683.518C293.78 683.016 294.215 678.754 293.801 678.754C293.387 678.754 293.408 680.952 292.668 681.572C291.247 682.763 290.432 682.868 289.201 681.256C288.512 680.352 289.318 678.856 288.828 678.754C288.495 678.684 287.868 680.489 286.729 680.76C284.734 681.233 284.083 681.415 282.56 679.355C281.894 678.455 283.155 675.95 282.353 675.724C281.55 675.499 280.555 679.675 279.517 680.451C278.48 681.228 277.788 680.558 276.85 679.849C271.663 669.973 279.173 658.614 284.352 648.735C298.996 620.805 295.317 586.899 287.406 556.376C279.495 525.853 267.666 495.807 267.046 464.283C266.804 452.004 268.279 439.644 266.59 427.479C264.75 414.23 259.246 401.815 255.235 389.054C247.615 364.81 245.374 339.22 244.378 313.828C243.593 293.834 243.587 273.516 248.835 254.206C254.083 234.895 265.187 216.462 282.353 206.156C293.058 199.729 306.331 196.117 313.245 185.724C319.713 176.002 318.584 163.291 317.207 151.698C312.63 150.867 309.234 145.928 310.1 141.361C310.965 136.794 315.933 133.437 320.497 134.336C318.519 130.471 316.541 126.606 314.563 122.742C315.829 124.581 321.94 135.601 321.556 121.515C322.039 125.014 322.898 126.075 323.806 131.88Z" fill="white"/>
<path fill-rule="evenodd" clip-rule="evenodd" d="M297.431 380.629C295.45 381.775 292.884 383.261 291.236 381.707C286.735 377.463 279.232 376.905 274.106 380.333L273.8 380.545L273.557 383.42C278.682 379.567 286.571 380.006 291.236 384.405C292.715 385.799 294.935 384.745 296.806 383.685L297.855 383.087C303.13 380.212 310.071 380.678 314.896 384.266C317.596 386.273 320.843 385.007 324.205 383.695C327.014 382.6 329.902 381.473 332.619 382.198C333.889 382.537 335.141 383.268 336.368 383.985C338.616 385.299 340.78 386.563 342.814 385.273C346.842 382.717 352.406 382.846 356.311 385.586L355.958 383.499L355.803 382.552C351.934 380.143 346.67 380.129 342.814 382.575C340.781 383.865 338.616 382.601 336.368 381.288C335.141 380.571 333.889 379.84 332.619 379.5C329.902 378.775 327.014 379.902 324.205 380.998C320.843 382.309 317.596 383.576 314.896 381.568C309.972 377.907 302.846 377.497 297.534 380.569L297.431 380.629ZM297.393 411.302C295.457 412.524 292.95 414.106 291.244 412.617C286.583 408.549 273.643 415.008 273.643 415.008C274.423 415.357 276.21 414.994 278.413 414.546C282.564 413.703 288.192 412.559 291.348 415.313C292.879 416.649 295.057 415.511 296.886 414.38L297.911 413.741C303.072 410.666 310.025 410.865 314.985 414.266C317.759 416.168 320.956 414.777 324.265 413.338C327.029 412.135 329.873 410.898 332.615 411.519C333.897 411.809 335.176 412.492 336.43 413.161C338.727 414.387 340.938 415.567 342.921 414.2L343.197 414.015C345.46 412.553 350.46 413.463 354.993 414.288C358.29 414.889 361.34 415.444 362.908 415.008C362.908 415.008 346.577 408.912 342.817 411.504C340.835 412.872 338.624 411.692 336.326 410.465C335.073 409.796 333.793 409.113 332.511 408.823C329.769 408.203 326.926 409.44 324.161 410.643C320.852 412.082 317.656 413.472 314.881 411.57C309.82 408.1 302.684 407.964 297.494 411.238L297.393 411.302ZM299.009 300.441C297.238 301.716 294.457 302.505 293.113 300.786C288.894 295.392 279.053 296.283 275.873 302.348C279.589 300.291 283.969 298.18 287.9 299.79C288.994 300.238 289.998 300.959 290.991 301.673C292.646 302.862 294.272 304.03 296.235 303.879C297.695 303.767 298.955 302.922 300.208 302.081C301.554 301.178 302.892 300.28 304.464 300.298C306.209 300.318 307.629 301.453 309.051 302.588C310.468 303.719 311.885 304.851 313.624 304.879C315.048 304.902 316.344 304.164 317.628 303.433C319.064 302.616 320.485 301.807 322.053 302.079C323.924 302.403 325.048 304.074 326.174 305.748C327.293 307.412 328.413 309.079 330.271 309.421C331.372 309.624 332.463 309.288 333.526 308.879L334.58 308.463C337.064 307.497 339.836 306.961 342.396 307.704C344.595 308.343 346.553 310.124 347.071 312.301C347.04 311.817 347.003 311.335 346.961 310.855L346.896 308.104C344.077 305.775 340.135 304.871 336.582 305.744C335.973 305.893 335.373 306.092 334.774 306.29C333.621 306.672 332.47 307.053 331.263 307.081C329.429 307.125 327.348 305.925 327.335 304.092L327.328 303.896C327.13 300.857 322.834 299.852 319.809 300.644C319.166 300.813 318.513 301.017 317.857 301.223C315.356 302.007 312.798 302.808 310.529 301.691C309.652 301.26 308.911 300.57 308.178 299.886C307.152 298.93 306.14 297.987 304.788 297.783C303.128 297.533 301.65 298.486 300.25 299.52L299.009 300.441ZM276.02 278.601C277.227 275.717 277.194 272.53 277.05 269.979C277.05 269.979 274.957 273.662 272.173 273.266L271.977 273.245C270.724 273.153 269.411 273.87 268.175 274.544C266.506 275.455 264.976 276.29 263.919 274.959C261.325 271.697 257.085 269.815 252.924 270.077C251.742 270.152 250.491 270.43 249.671 271.284C248.851 272.138 248.712 273.71 249.652 274.429C250.615 272.021 253.979 271.559 256.384 272.533C257.755 273.088 258.959 273.954 260.164 274.821C261.073 275.475 261.984 276.131 262.968 276.654C265.259 277.872 268.477 278.162 270.134 276.167L270.263 276.021C271.557 274.662 274.058 274.688 275.291 276.121C275.876 276.8 276.105 277.714 276.02 278.601ZM287.658 241.867C284.832 243.137 281.711 240.901 279.607 238.628L278.598 237.545C276.741 235.584 274.638 233.69 272.027 233.831C270.617 233.907 269.32 234.596 268.112 235.325C264.506 237.502 261.211 240.192 258.358 243.288C261.126 243.523 263.431 241.619 265.715 239.732C268.114 237.751 270.489 235.789 273.353 236.342C275.538 236.764 277.059 238.539 278.575 240.308C280.133 242.126 281.685 243.938 283.949 244.269C285.45 244.488 286.921 243.979 288.375 243.475C288.728 243.352 289.081 243.23 289.433 243.119C296.422 240.908 304.634 243.282 309.362 248.879C311.521 251.435 315.552 250.223 318.606 248.679L319.446 248.245C322.501 246.703 326.545 245.51 328.683 248.083L328.886 248.319C332.323 252.161 338.357 251.826 343.597 250.94L344.53 250.775C344.585 251.089 344.638 251.431 344.69 251.799L344.794 252.569C345.921 248.614 345.476 247.711 344.53 249.806C342.835 248.287 339.525 248.75 337.303 249.247L337.099 249.291C334.904 249.736 332.112 249.561 331.292 247.512C329.792 243.763 324.314 244.286 320.581 245.833L320.099 246.03C316.441 247.516 311.899 248.96 309.244 246.148C303.874 240.46 294.794 238.66 287.658 241.867ZM346.061 237.786C346.103 236.527 346.235 235.029 346.475 233.326L346.535 232.913C343.962 231.307 340.696 230.854 337.782 231.7C335.384 232.397 333.364 230.744 331.294 229.05C329.451 227.543 327.57 226.003 325.347 226.06C323.556 226.105 322.087 227.179 320.601 228.264C319.401 229.142 318.189 230.027 316.787 230.386C313.371 231.26 310.227 228.869 307.432 226.526L306.318 225.588C303.255 223.012 298.418 220.931 295.573 223.746L295.391 223.917C292.992 226.061 289.072 225.299 286.237 223.684C285.338 223.172 284.47 222.588 283.603 222.004C281.664 220.699 279.729 219.397 277.466 218.913C274.192 218.214 269.971 220.453 270.412 223.769C272.812 221.229 276.85 220.399 280.059 221.786C281.57 222.439 282.979 223.532 284.365 224.606C286.889 226.563 289.338 228.461 292.194 227.546C293.062 227.267 293.812 226.743 294.565 226.217C295.201 225.771 295.839 225.326 296.551 225.027C300.161 223.513 303.523 226.085 306.926 228.688C310.214 231.202 313.54 233.746 317.163 232.663C318.508 232.262 319.686 231.377 320.848 230.505C322.439 229.31 324.001 228.137 325.919 228.26C327.879 228.385 329.388 229.842 330.833 231.237C330.927 231.328 331.021 231.418 331.114 231.508L331.513 231.887C333.173 233.439 335.679 234.77 337.613 233.575C340.71 231.66 344.89 234.317 346.061 237.786ZM348.798 222.565C349.433 221.803 350.029 220.837 350.588 219.667C351.343 218.085 351.355 215.363 350.588 216.969C349.657 218.92 347.503 220.469 345.397 219.974C344.471 219.756 343.68 219.187 342.891 218.621C342.015 217.992 341.142 217.365 340.093 217.227C338.906 217.071 337.786 217.574 336.671 218.073C336.313 218.234 335.956 218.394 335.598 218.532C334.123 219.1 332.083 219.103 331.361 217.698C328.87 212.855 321.123 211.975 317.608 216.137C316.16 217.852 313.283 216.753 311.76 215.104C311.38 214.693 311.018 214.247 310.656 213.8C309.567 212.458 308.472 211.109 306.847 210.661C305.017 210.158 303.244 210.979 301.453 211.809C299.837 212.557 298.207 213.313 296.507 213.109C294.757 212.899 293.37 211.735 291.989 210.576C291.524 210.185 291.059 209.795 290.582 209.443C288.686 208.043 285.617 207.365 284.254 209.286C286.595 209.629 288.626 210.889 290.66 212.151C291.519 212.684 292.379 213.217 293.262 213.682C296.239 215.248 300.368 215.855 302.607 213.346L302.741 213.206C304.391 211.603 307.331 212.919 308.924 214.671C309.215 214.99 309.503 215.328 309.793 215.668C311.134 217.243 312.524 218.873 314.518 219.054C316.306 219.216 317.843 218.134 319.381 217.052C320.909 215.977 322.439 214.9 324.217 215.042C326.038 215.187 327.379 216.544 328.724 217.903C330.043 219.238 331.366 220.575 333.147 220.773C334.103 220.88 335.041 220.629 335.98 220.378C336.371 220.273 336.763 220.169 337.156 220.09C340.816 219.355 344.484 220.862 347.885 222.477L348.585 222.811L348.798 222.565ZM281.456 254.202C281.981 254.49 282.483 254.972 282.541 255.606C282.599 256.239 281.962 256.905 281.436 256.618C279.386 255.499 276.906 256.367 274.843 257.458C274.601 257.586 274.358 257.717 274.114 257.849L274.114 257.849C272.279 258.843 270.385 259.868 268.365 259.682C266.616 259.521 264.991 258.472 263.402 257.446C261.291 256.083 259.243 254.761 257.048 255.614C255.935 256.046 255.101 256.966 254.262 257.893C253.639 258.581 253.012 259.272 252.266 259.771C252.053 259.913 251.81 260.044 251.562 260.003C250.881 259.892 250.912 258.802 251.207 258.129C253.128 253.756 258.603 251.711 262.613 253.869C263.312 254.244 263.967 254.726 264.62 255.206C265.746 256.034 266.866 256.858 268.189 257.124C270.33 257.555 272.419 256.423 274.387 255.357C274.521 255.284 274.656 255.211 274.789 255.14C276.873 254.018 279.38 253.063 281.456 254.202ZM298.066 259.862C301.055 261.492 304.981 261.295 307.786 259.376C309.781 258.01 312.554 259.163 314.435 260.677C314.807 260.976 315.175 261.292 315.544 261.61C317.041 262.898 318.561 264.206 320.492 264.48C322.065 264.704 323.584 264.188 325.113 263.67C326.376 263.241 327.646 262.81 328.96 262.792C331.153 262.761 333.125 263.862 335.063 264.945C335.478 265.177 335.892 265.408 336.307 265.627C338.653 266.867 341.676 267.718 343.865 266.226L333.869 262.019C332.491 261.439 331.073 260.85 329.575 260.789C328.212 260.734 326.877 261.119 325.547 261.502C324.011 261.945 322.482 262.386 320.925 262.143C318.968 261.839 317.424 260.54 315.888 259.247C315.382 258.821 314.877 258.395 314.358 258.007C312.263 256.437 308.972 255.527 307.205 257.446C305.624 259.162 302.813 259.105 300.618 258.264C299.579 257.866 298.603 257.329 297.628 256.792L297.628 256.792C296.543 256.195 295.458 255.598 294.288 255.193C292.066 254.425 289.216 254.566 287.817 256.428C287.681 257.035 288.414 257.526 289.046 257.49C289.45 257.467 289.827 257.316 290.205 257.164L290.205 257.164C290.417 257.078 290.629 256.993 290.847 256.93C292.765 256.375 294.516 257.552 296.254 258.721C296.858 259.126 297.459 259.531 298.066 259.862ZM349.121 356.182C348.317 358.255 345.47 358.565 343.526 357.601C342.388 357.037 341.424 356.188 340.458 355.337L340.458 355.337C339.774 354.734 339.088 354.131 338.339 353.627C336.532 352.41 333.884 351.915 332.382 353.517C328.651 357.496 322.731 359.096 317.601 357.513C315.638 356.907 313.834 355.891 312.027 354.873L312.027 354.873C311.016 354.303 310.003 353.733 308.962 353.234C306.06 351.844 302.605 351.031 299.71 352.436C298.605 352.972 297.668 353.791 296.73 354.611C295.926 355.314 295.121 356.018 294.208 356.546C291.113 358.335 287.122 357.813 284.069 355.948C283.545 355.629 283.038 355.271 282.531 354.913C281.374 354.097 280.218 353.282 278.874 352.924C276.942 352.409 274.413 353.395 274.202 355.453C272.844 353.405 275.029 350.469 277.418 350.277C279.807 350.085 281.978 351.593 283.941 353.017C285.905 354.441 288.113 355.914 290.495 355.64C292.489 355.41 294.035 354.048 295.603 352.668C296.666 351.732 297.738 350.787 298.966 350.182C303.039 348.172 307.823 350.23 311.8 352.437C315.776 354.645 320.224 357.105 324.562 355.824C326.27 355.319 327.751 354.279 329.232 353.238L329.233 353.238L329.233 353.237L329.233 353.237L329.233 353.237L329.233 353.237C329.806 352.835 330.379 352.432 330.965 352.06C333.067 350.728 335.701 349.769 337.962 350.785C338.955 351.231 339.75 352.002 340.546 352.776L340.546 352.776L340.546 352.776C340.907 353.126 341.267 353.476 341.646 353.796C343.719 355.547 346.459 356.421 349.121 356.182ZM370.201 438.795C367.881 441.793 363.189 440.768 359.639 439.434C356.089 438.1 351.436 437.006 349.042 439.945C347.681 441.615 344.991 441.351 343.107 440.303C342.299 439.854 341.556 439.295 340.814 438.737C339.827 437.994 338.841 437.253 337.707 436.774C333.295 434.909 328.489 437.5 324.202 439.812L323.781 440.039L323.505 440.187L323.441 440.221C318.967 442.618 312.66 444.144 309.426 440.234C307.216 437.563 302.922 438.238 299.814 439.778C299.184 440.091 298.554 440.432 297.922 440.774L297.921 440.774C295.439 442.117 292.919 443.48 290.165 443.237C287.722 443.021 285.519 441.566 283.362 440.142C280.626 438.334 277.964 436.576 274.981 437.463C274.044 437.741 273.199 438.272 272.359 438.8C271.292 439.47 270.233 440.136 269 440.276C269.004 437.22 272.346 435.048 275.404 435.101C278.332 435.152 281.008 436.625 283.583 438.042L283.926 438.231C286.607 439.702 289.543 441.127 292.582 440.778C294.68 440.537 296.535 439.487 298.394 438.434C299.194 437.981 299.996 437.527 300.817 437.138C303.546 435.843 307.266 435.45 309.195 437.773C311.707 440.795 316.417 440.854 320.119 439.53C321.867 438.904 323.517 438.039 325.165 437.174L325.166 437.173C327.007 436.207 328.847 435.241 330.823 434.611C334.569 433.417 339.336 433.835 341.517 437.103C342.854 439.107 345.886 438.962 348.107 438.029C348.725 437.769 349.334 437.465 349.943 437.16C351.522 436.371 353.1 435.582 354.839 435.571C356.688 435.56 358.484 436.428 360.241 437.277C362.574 438.405 364.836 439.499 367.057 438.451L370.201 438.795ZM320.562 329.835C318.047 330.276 315.793 328.929 313.509 327.563C311.548 326.39 309.565 325.205 307.375 325.126C304.769 325.032 302.431 326.507 300.116 327.967C297.567 329.576 295.045 331.167 292.224 330.627C291.102 330.413 290.087 329.87 289.069 329.327C288.564 329.056 288.057 328.786 287.537 328.555C283.639 326.827 278.812 327.521 275.536 330.279C276.164 327.377 279.069 325.393 281.98 325.155C284.89 324.917 287.747 326.112 290.213 327.704C292.313 329.06 295.111 328.5 297.335 327.367C298.225 326.914 299.075 326.377 299.923 325.842L299.923 325.842C301.195 325.039 302.465 324.237 303.867 323.717C307.771 322.27 312.462 323.36 315.363 326.388C317.128 328.23 320.144 327.737 322.485 326.768C322.821 326.629 323.16 326.482 323.5 326.335C325.53 325.454 327.629 324.545 329.737 325.046C331.606 325.49 333.087 326.959 334.537 328.399C336.303 330.151 338.024 331.86 340.35 331.62C341.108 331.542 341.816 331.248 342.526 330.952L342.526 330.952C343.047 330.735 343.57 330.518 344.114 330.385C345.4 330.072 347.092 330.517 347.369 331.833C343.687 333.236 339.392 334.598 336.008 332.56C334.946 331.92 334.044 330.978 333.152 330.047C331.739 328.571 330.353 327.125 328.407 326.956C326.819 326.819 325.402 327.605 323.968 328.401C322.871 329.01 321.764 329.625 320.562 329.835ZM303.836 281.053C305.18 280.204 306.524 279.355 308.093 279.228C310.481 279.035 312.489 280.528 314.435 281.976C314.869 282.299 315.299 282.619 315.731 282.918C318.096 284.558 321.98 285.396 323.541 283.046C324.455 281.669 326.641 281.588 328.165 282.337C329.274 282.882 330.153 283.736 331.031 284.589C331.36 284.909 331.689 285.229 332.031 285.532C333.46 286.803 335.222 287.841 337.174 288.02C339.125 288.198 341.26 287.348 342.113 285.676C337.491 286.619 332.355 284.554 329.859 280.749C328.601 278.829 325.487 279.753 323.449 280.927C321.41 282.101 318.412 283.18 316.976 281.375C313.63 277.169 306.399 276.424 302.176 279.85C300.115 281.522 296.873 280.409 294.802 278.748C294.259 278.313 293.736 277.839 293.212 277.365C291.74 276.032 290.265 274.697 288.334 274.198C284.941 273.323 281.053 275.926 280.792 279.248C281.746 279.361 282.747 278.863 283.191 278.055C284.178 276.257 286.88 275.921 288.851 276.709C290.419 277.336 291.669 278.461 292.912 279.581L292.912 279.581C293.232 279.87 293.552 280.158 293.877 280.437C295.462 281.798 297.424 283.038 299.557 282.878C301.135 282.759 302.486 281.906 303.836 281.053Z" fill="#FFB61D"/>
<path fill-rule="evenodd" clip-rule="evenodd" d="M323.806 131.88C329.773 117.604 345.844 108.275 361.212 110.166C351.325 104.94 339.863 96.7698 341.67 85.7401C343.059 77.2591 352.151 72.1188 360.682 71.025C373.219 69.4175 387.375 75.1066 392.266 86.7518C397.157 98.3969 388.433 114.496 375.803 114.001C386.428 124.505 390.284 141.3 385.302 155.38C382.801 162.45 371.975 162.863 366.437 157.803C360.898 152.743 359.307 144.79 358.016 137.403C351.785 141.441 344.557 143.931 337.16 144.587C340.65 145.761 343.581 148.494 344.994 151.892C338.834 147.086 331.643 143.607 324.05 141.759C321.289 151.031 318.498 160.643 319.769 170.233C321.041 179.823 327.535 189.433 337.067 191.13C348.054 193.086 357.28 184.388 366.57 175.631C375.546 167.17 384.58 158.653 395.319 159.638C404.319 160.464 411.122 156.467 414.388 148.047C417.654 139.627 414.696 129.212 407.489 123.762C403.206 123.962 399.088 120.403 398.67 116.138C398.252 111.874 401.6 107.584 405.841 106.95C396.837 94.1234 399.104 74.6906 410.819 64.2769C422.534 53.8632 442.115 53.8758 453.817 64.3046C447.409 53.969 453.482 38.3539 465.113 34.7807C476.744 31.2075 490.395 40.3834 491.757 52.4649C493.118 64.5464 482.187 76.4209 470.019 76.3723C472.045 85.7216 480.612 93.262 490.15 94.09C486.073 98.8006 478.264 94.3611 474.884 89.1284C474.402 88.3813 473.923 87.6022 473.438 86.8137C470.527 82.08 467.41 77.0104 462.091 76.5136C469.714 85.4928 474.744 96.6455 476.427 108.3C471.173 100.15 467.408 91.0445 465.373 81.5657C466.118 89.1473 464.7 96.9289 461.33 103.762C465.3 101.854 469.685 106.912 469.046 111.267C468.439 115.409 465.242 118.574 462.243 121.543C462.088 121.696 461.934 121.849 461.781 122.001C452.887 130.834 445.164 144.249 451.031 155.322C454.068 161.055 459.871 164.367 465.628 167.654C467.364 168.645 469.097 169.634 470.748 170.686C486.102 180.472 495.748 197.433 500.412 215.024C505.076 232.614 505.305 251.032 505.505 269.228L506.788 386.067C506.93 398.908 506.249 413.605 496.284 421.716C502.377 413.267 505.01 402.402 503.462 392.104C493.232 426.692 485.194 461.274 482.395 501.362C481.486 514.377 481.456 524.937 481.427 535.134C481.366 556.347 481.31 575.992 473.36 612.904C472.3 617.825 474.617 623.626 477.545 628.332C479.762 631.895 484.647 634.778 489.17 637.449C495.084 640.941 500.38 644.068 498.29 647.871C494.027 655.627 476.708 654.706 463.816 654.022C462.473 653.95 461.178 653.881 459.95 653.825C454.603 653.581 448.858 652.705 445.029 648.966C440.271 644.319 440.002 636.889 440.018 630.241C440.184 559.666 437.498 489.085 431.97 418.726C430.914 473.227 429.849 527.852 422.956 581.926C422.379 586.453 421.626 591.043 420.87 595.659C419.08 606.572 417.267 617.627 417.698 628.332C417.893 633.202 419.303 638.278 420.704 643.323C421.689 646.866 422.669 650.394 423.221 653.825C424.284 660.43 419.488 662.7 414.388 662.328C413.714 662.278 413.109 662.536 412.499 662.795C411.888 663.055 411.272 663.317 410.577 663.273C410.016 663.237 409.451 663.033 408.869 662.823L408.868 662.823C408.256 662.602 407.625 662.375 406.957 662.328C406.278 662.28 405.565 662.395 404.839 662.511C404.073 662.635 403.294 662.76 402.526 662.7C402.068 662.663 401.755 662.487 401.408 662.291C400.905 662.008 400.331 661.684 399.144 661.684C398.291 661.684 397.693 661.796 397.133 661.901C396.373 662.043 395.684 662.173 394.529 661.991C393.858 661.885 393.005 662.092 392.097 662.313C390.288 662.751 388.266 663.242 387.05 661.413C385.176 658.594 387.107 653.088 389.037 647.585C390.509 643.389 391.981 639.194 391.763 636.193C391.548 633.23 390.942 627.497 390.303 621.445C389.446 613.333 388.528 604.648 388.409 601.286C386.61 550.563 382.687 499.447 374.754 449.316C361.715 458.164 347.471 465.24 332.54 470.286C327.291 472.06 326.055 478.787 325.691 484.311C323.024 524.752 320.541 566.573 334.437 604.65C352.47 557.597 366.038 508.838 374.901 459.239C370.558 499.514 360.85 539.209 346.113 576.946C341.15 589.655 334.28 607.297 341.67 617.023C346.314 623.133 346.365 628.81 346.417 634.642C346.448 638.092 346.48 641.597 347.463 645.279C348.268 648.292 349.531 651.14 350.813 654.032C352.897 658.732 355.032 663.546 355.333 669.375C355.573 674.024 348.716 673.031 348.043 672.554C347.758 672.353 347.39 671.751 347.017 671.14C346.507 670.306 345.987 669.456 345.657 669.59C345.353 669.714 345.443 670.1 345.563 670.622C345.783 671.57 346.105 672.964 344.366 674.046C342.695 675.086 341.647 674.773 340.787 674.516C340.259 674.358 339.802 674.221 339.315 674.431C338.826 674.641 338.427 675.026 338.037 675.402C337.432 675.986 336.849 676.549 335.985 676.402C333.946 676.057 333.273 675.384 332.946 675.057C332.812 674.923 332.736 674.847 332.649 674.876C332.542 674.912 332.525 675.141 332.503 675.441C332.46 676.024 332.398 676.876 331.62 677.099C330.443 677.438 327.221 676.074 326.528 675.4C326.026 674.912 325.816 675.514 325.567 676.227C325.313 676.955 325.018 677.799 324.331 677.712C318.791 677.005 316.894 671.918 317.405 668.895C314.494 675.874 310.466 680.451 303.387 682.982C302.403 683.334 301.701 682.792 301.117 682.342C300.748 682.058 300.427 681.81 300.112 681.846C299.948 681.864 299.954 682.066 299.962 682.335C299.976 682.802 299.995 683.474 299.147 683.75C297.81 684.184 297.166 684.019 295.473 683.518C294.345 683.183 294.162 681.181 294.043 679.881C293.983 679.229 293.939 678.754 293.801 678.754C293.614 678.754 293.515 679.204 293.395 679.755C293.25 680.421 293.073 681.233 292.668 681.572C291.247 682.763 290.432 682.868 289.201 681.256C288.817 680.752 288.897 680.065 288.959 679.537C289.008 679.118 289.045 678.799 288.828 678.754C288.699 678.727 288.526 678.981 288.296 679.318C287.933 679.852 287.427 680.594 286.729 680.76L286.661 680.776C284.719 681.236 284.065 681.392 282.56 679.355C282.229 678.908 282.374 678.065 282.505 677.302C282.638 676.529 282.756 675.838 282.353 675.724C281.927 675.605 281.447 676.724 280.935 677.917C280.482 678.973 280.005 680.086 279.517 680.451C278.563 681.165 277.902 680.656 277.072 680.018C277 679.962 276.926 679.906 276.85 679.849C272.254 671.097 277.627 661.182 282.515 652.163L282.517 652.159L282.521 652.151C283.147 650.996 283.765 649.856 284.352 648.735C298.996 620.805 295.317 586.899 287.406 556.376C285.362 548.486 283.055 540.629 280.748 532.769C274.129 510.222 267.506 487.659 267.046 464.283C266.961 459.964 267.088 455.635 267.216 451.307C267.45 443.333 267.685 435.365 266.59 427.479C265.283 418.069 262.128 409.081 258.973 400.09L258.973 400.09C257.685 396.421 256.397 392.752 255.235 389.054C247.615 364.81 245.374 339.22 244.378 313.828C243.593 293.834 243.587 273.516 248.835 254.206C254.083 234.895 265.187 216.462 282.353 206.156C285.474 204.282 288.814 202.647 292.151 201.014C300.258 197.046 308.347 193.087 313.245 185.724C319.713 176.002 318.584 163.291 317.207 151.698C312.63 150.867 309.234 145.928 310.1 141.361C310.965 136.794 315.933 133.437 320.497 134.336L314.563 122.742C314.683 122.917 314.848 123.176 315.047 123.488L315.047 123.488C316.935 126.454 321.903 134.259 321.556 121.515C321.776 123.107 322.073 124.195 322.418 125.454C322.831 126.962 323.311 128.717 323.806 131.88ZM490.54 393.305C491.781 391.817 492.26 389.854 492.661 387.959C498.989 358.041 494.488 327.956 480.173 300.929C448.416 303.646 416.389 303.2 384.721 299.598C380.034 299.065 377.04 304.368 375.551 308.84C367.277 333.69 364.331 360.297 366.969 386.354C367.424 390.847 372.821 392.8 377.284 393.514C387.514 395.15 393.165 394.101 401.545 392.546L401.545 392.546L401.546 392.546L401.546 392.546L401.547 392.546L401.548 392.546C407.982 391.351 416.026 389.859 428.986 389.054C430.516 388.958 430.447 383.722 430.359 377.048C430.265 369.927 430.15 361.169 431.931 355.269C437.427 449.415 441.268 543.657 443.453 637.937C443.521 640.872 443.649 644.001 445.341 646.401C447.739 649.804 452.393 650.588 456.548 650.876C469.422 651.769 493.961 652.293 494.966 647.579C494.336 643.37 489.544 640.974 485.055 638.73C484.157 638.281 483.27 637.838 482.432 637.387C475.233 633.521 471.411 625.156 470.689 617.022C470.044 609.755 471.459 602.508 472.862 595.325C473.029 594.469 473.197 593.613 473.36 592.758C477.614 570.51 479.43 547.797 478.764 525.155C478.706 523.194 478.63 521.232 478.554 519.27C478.287 512.388 478.019 505.504 478.551 498.643C479.212 490.102 481.101 481.723 482.987 473.356L482.988 473.351L482.989 473.346L482.99 473.342L482.991 473.337C483.379 471.618 483.766 469.9 484.143 468.18C489.272 444.76 492.433 420.91 493.583 396.963C474.846 405.109 452.226 403.682 434.662 393.247C449.902 399.252 466.752 399.121 482.939 396.602C485.732 396.167 488.732 395.476 490.54 393.305ZM503.111 247.587C501.129 230.214 497.012 213.085 490.88 196.708C489.768 193.739 488.044 191.5 486.198 189.102C485.68 188.43 485.152 187.745 484.626 187.027C480.236 181.045 473.887 177.139 467.506 173.212C462.518 170.143 457.509 167.061 453.4 162.965C447.76 168.188 439.946 170.99 432.27 170.542C424.593 170.094 417.159 166.402 412.167 160.559C411.798 160.127 411.144 160.118 410.577 160.149C401.135 160.659 391.647 162.378 383.09 166.398C374.533 170.418 366.938 176.883 362.657 185.307C360.908 188.749 359.734 192.45 358.635 196.152C353.078 214.875 349.253 234.111 347.224 253.534C347.103 254.697 347.028 256 347.777 256.898C348.283 257.504 349.065 257.793 349.817 258.034C356.412 260.148 363.567 260.49 370.334 259.016L351.484 256.364C350.363 256.207 348.91 255.013 349.815 254.334C350.11 254.112 350.518 254.148 350.885 254.194L373.093 256.974C374.081 257.097 374.664 255.899 374.827 254.918C375.298 252.077 374.933 249.087 374.572 246.133C374.032 241.704 373.501 237.354 375.814 233.707C377.848 253.473 377.476 273.486 374.709 293.163C374.386 295.46 377.391 296.592 379.696 296.865C411.252 300.606 443.15 301.457 474.861 299.403C479.816 299.082 483.564 294.339 484.449 289.458C485.335 284.576 484.035 279.592 482.744 274.801L473.028 238.727C472.44 236.543 471.997 233.833 473.704 232.347L479.596 255.093C479.839 256.031 480.174 257.084 481.052 257.495C481.694 257.796 482.447 257.658 483.143 257.513L498.611 254.299C499.913 254.029 501.305 253.709 502.204 252.73C503.421 251.405 503.314 249.374 503.111 247.587ZM348.033 229.031L348.033 229.031C350.465 217.453 353.628 202.394 339.55 207.011L339.304 207.092C333.712 208.926 327.104 211.094 321.112 209.191C315.032 207.259 309.873 202.613 307.32 196.771C308.941 195.573 310.946 197.564 312.175 199.161C318.135 206.902 329.72 209.677 338.546 205.479C342.868 203.422 342.896 197.383 342.268 192.641C332.77 195.846 321.214 189.166 319.26 179.341C317.383 185.874 313.024 191.663 307.261 195.274C305.094 196.632 302.757 197.683 300.421 198.733L300.42 198.733L300.42 198.734L300.419 198.734L300.419 198.734L300.419 198.734L300.419 198.734L300.419 198.734L300.418 198.734L300.418 198.734L300.418 198.734L300.418 198.735L300.418 198.735L300.417 198.735L300.417 198.735L300.417 198.735C299.684 199.064 298.951 199.394 298.224 199.733C269.472 213.129 249.126 242.966 247.169 274.603C247.083 276.005 247.367 277.855 248.754 278.083L270.089 281.591C270.344 281.633 270.578 281.68 270.803 281.725C271.957 281.957 272.836 282.133 274.733 281.262C276.999 280.221 277.425 269.189 277.212 265.77C276.999 262.35 276.772 257.987 279.869 256.517C280.152 267.584 278.337 278.525 276.521 289.477C275.046 298.369 273.569 307.269 273.214 316.25C273.099 319.141 273.188 322.041 273.277 324.938C273.375 328.127 273.472 331.314 273.298 334.482C271.007 376.221 270.59 470.967 270.59 470.967C270.59 470.967 310.885 467.821 325.691 464.283C347.519 459.066 361.796 452.698 369.001 449.484C372.301 448.011 374.118 447.201 374.497 447.466C373.167 439.721 369.668 424.583 365.612 407.032L365.612 407.032C357.652 372.597 347.546 328.873 347.463 313.455C347.457 312.386 346.962 310.948 346.554 309.763C345.946 307.997 345.531 306.793 347.22 308.21L346.893 294.433C346.818 291.255 346.594 284.291 346.36 282.716C343.843 265.784 344.999 255.079 345.864 247.062C346.21 243.858 346.51 241.083 346.51 238.512C346.51 236.281 347.231 232.845 348.033 229.031ZM400.042 657.385C400.399 661.684 403.34 662.288 405.841 660.214C406.667 659.53 406.97 657.089 407.276 654.619C407.332 654.169 407.388 653.717 407.447 653.275C407.908 654.351 407.976 655.962 408.039 657.456C408.123 659.469 408.198 661.27 409.214 661.27C413.253 661.27 412.609 654.237 412.305 650.911C412.285 650.691 412.266 650.487 412.25 650.302C413.079 649.097 414.42 652.326 414.079 654.193C413.738 656.061 413.694 658.459 415.041 659.798C417.185 661.93 420.5 658.486 420.899 655.49C421.594 650.258 419.828 645.24 418.048 640.181C416.792 636.613 415.528 633.024 415.116 629.324C414.579 624.496 415.511 619.648 416.431 614.869L416.434 614.852C416.479 614.618 416.524 614.384 416.569 614.15C424.91 570.616 426.276 526.09 427.618 481.785L430.291 393.545C410.732 398.252 390.2 398.877 370.391 395.369C369.285 395.174 368.913 396.795 369.037 397.91C371.344 418.543 374.566 439.102 377.786 459.652C383.901 498.673 390.012 537.664 389.844 577.084C389.833 579.784 389.792 582.488 389.752 585.195C389.571 597.226 389.39 609.289 391.763 621.052C391.982 622.139 392.223 623.23 392.464 624.326C393.665 629.771 394.884 635.297 393.544 640.644C393.001 642.806 392.05 644.926 391.105 647.032C389.295 651.064 387.51 655.042 388.676 659.149C389.011 660.325 389.927 661.621 391.133 661.413C392.618 661.157 392.624 659.342 392.63 657.561C392.636 655.769 392.642 654.011 394.156 653.913C393.892 656.581 395.421 661.025 397.163 660.493C398.272 660.493 398.474 658.493 398.689 656.349C398.839 654.858 398.996 653.298 399.47 652.293C400.341 653.698 400.198 655.115 400.088 656.211C400.042 656.665 400.002 657.065 400.042 657.385ZM363.372 365.945C363.266 353.122 365.767 340.438 368.258 327.859C370.283 317.635 372.435 307.099 378.317 298.492C376.562 299.318 374.398 298.048 373.556 296.302C372.715 294.556 372.836 292.52 372.975 290.587L374.898 263.908C375.002 262.465 374.352 260.369 372.973 260.808C365.858 263.071 357.982 262.863 350.997 260.227C349.951 259.832 349.312 261.374 349.263 262.49C346.986 314.097 363.532 385.395 363.372 365.945ZM336.773 666.73C337.801 666.587 338.578 668.924 339.224 670.87C339.539 671.818 339.823 672.673 340.091 673.102C340.95 674.483 343.292 673.956 344.117 672.554C344.554 671.812 344.483 670.088 344.423 668.63C344.37 667.335 344.325 666.25 344.653 666.25C346.488 666.25 347.078 667.718 347.64 669.117C348.197 670.501 348.726 671.817 350.407 671.576C351.781 671.378 352.667 669.999 353.055 668.668C354.457 663.847 351.832 659.414 349.153 654.888C347.704 652.441 346.24 649.968 345.387 647.392C344.245 643.943 344.226 640.265 344.208 636.591C344.188 632.722 344.169 628.858 342.836 625.27C341.983 622.971 340.629 620.907 339.28 618.85C339.004 618.429 338.728 618.008 338.457 617.586C324.559 595.958 322.054 569.085 321.556 543.387C321.105 520.125 321.982 496.838 324.182 473.676L315.473 474.922L271.581 481.2C278.276 520.848 289.362 559.605 300.425 598.264C301.839 603.204 303.258 608.157 305.227 612.904C307.333 617.978 310.064 622.793 313.338 627.205C318.248 633.822 317.878 642.746 317.534 651.036L317.533 651.043L317.533 651.049L317.509 651.644L317.49 652.094C317.485 652.213 317.48 652.333 317.475 652.453L317.464 652.717C317.456 652.904 317.448 653.092 317.44 653.281L317.418 653.755C317.051 661.995 316.628 671.495 323.806 675.139C325.573 676.036 325.33 674.389 325.029 672.35C324.796 670.771 324.528 668.956 325.131 667.903C325.327 669.803 325.545 671.772 326.528 673.41C327.511 675.048 329.491 676.255 331.327 675.724C331.844 675.442 331.629 674.182 331.372 672.668C331.096 671.045 330.77 669.131 331.245 667.821C331.819 668.758 332.07 669.736 332.332 670.755C332.611 671.844 332.902 672.98 333.612 674.164C334.84 676.213 337.937 675.058 338.143 673.16C338.259 672.094 337.811 671.104 337.372 670.132C336.861 669.003 336.361 667.899 336.773 666.73ZM266.172 415.461C268.733 384.166 271.296 352.816 270.942 321.419C270.936 320.847 270.928 320.275 270.921 319.703L270.921 319.701C270.859 314.933 270.798 310.159 271.29 305.419C271.803 300.481 272.918 295.605 274.603 290.934L248.514 287.757C248.153 287.713 247.734 287.689 247.482 287.951C247.292 288.148 247.264 288.446 247.246 288.719C244.423 331.668 250.924 375.206 266.172 415.461ZM481.952 262.041L485.132 274.888C486.212 279.251 487.301 283.695 487.046 288.183C486.79 292.672 484.983 297.293 481.312 299.891C492.541 315.733 496.379 335.707 496.997 355.109C497.325 365.428 496.826 375.743 496.327 386.06V386.061V386.061V386.062V386.062V386.062V386.063V386.063V386.064V386.064V386.065V386.065V386.066V386.066V386.067V386.067C495.888 395.148 495.448 404.229 495.573 413.315C503.147 393.199 503.449 371.191 503.659 349.7L504.226 291.703C504.342 279.811 504.456 267.871 502.897 256.08L484.626 259.689C483.315 259.948 481.631 260.745 481.952 262.041ZM415.918 63.5569C407.618 67.7415 403.313 77.5937 403.506 86.8809C403.587 90.7563 404.682 95.1244 408.091 96.9741C410.284 98.1639 413.159 97.962 415.164 96.4773C417.169 94.9927 418.199 92.3026 417.698 89.8601C417.459 88.7005 419.035 87.8183 420.12 88.294C421.204 88.7697 421.728 90.0219 421.882 91.1956C421.942 91.6477 421.962 92.1054 421.983 92.5626V92.5629V92.5631C422.016 93.2925 422.049 94.0206 422.239 94.7228C422.764 96.661 424.569 98.1837 426.57 98.3759C428.57 98.5681 430.632 97.417 431.517 95.6142C431.746 95.1483 431.904 94.6434 432.062 94.1407C432.331 93.2842 432.597 92.4338 433.207 91.793C434.174 90.7759 436.512 91.2635 436.203 92.6321C435.571 95.4316 438.525 98.1921 441.38 97.8782C444.235 97.5644 446.431 94.8395 446.752 91.9875L446.765 91.8641L446.776 91.7706C446.947 90.2102 447.168 88.2011 448.686 88.0659C449.951 89.326 450.241 91.2129 450.527 93.0734C450.847 95.1517 451.161 97.1971 452.824 98.2992C455.183 99.8627 458.437 98.0966 460.041 95.7658C462.332 92.4378 462.786 88.0891 461.966 84.1341C461.147 80.179 459.165 76.5576 456.908 73.2065C455.209 70.6835 453.321 68.2556 450.999 66.2905C443.769 60.1746 433.328 59.3799 424.007 61.0694C421.222 61.5743 418.446 62.2826 415.918 63.5569ZM298.451 599.447C297.456 604.771 297.047 610.136 296.639 615.502C296.23 620.868 295.821 626.234 294.826 631.557C294.544 633.067 292.386 637.183 289.643 642.413C284.143 652.899 276.293 667.865 276.511 675.283C276.551 676.621 277.158 679.26 278.292 679.096C280.424 678.787 280.821 676.433 281.19 674.242C281.235 673.975 281.279 673.71 281.326 673.451C281.761 671.075 282.121 670.351 284.514 670.702C285.246 670.932 285.246 671.857 284.42 673.451C283.593 675.046 282.985 677.053 283.954 678.566C284.924 680.078 287.982 679.675 287.832 677.885C287.712 676.456 288.731 675.015 290.119 674.65C290.585 675.465 290.385 676.566 290.198 677.6C289.966 678.879 289.753 680.054 290.845 680.451C292.341 680.995 293.147 678.775 293.425 677.209C293.704 675.642 295.825 673.959 296.5 675.4C294.711 677.573 292.86 682.711 297.81 682.711C299.186 682.711 299.166 680.467 299.146 678.224C299.136 677.102 299.126 675.98 299.29 675.139C300.613 675.056 301.15 676.864 300.914 678.167C300.858 678.477 300.786 678.747 300.722 678.994C300.513 679.784 300.371 680.326 301.002 681.114C302.178 682.58 304.548 681.485 305.899 680.178C311.118 675.125 313.908 668.867 314.976 661.684C316.044 654.501 315.534 647.188 315.022 639.944C314.756 636.179 314.402 632.171 312.093 629.182C305.368 620.476 300.663 610.221 298.451 599.447ZM432.191 99.0051C429.6 101.685 424.743 101.657 422.184 98.9466C421.947 98.6952 421.727 98.4247 421.507 98.1545C421.057 97.601 420.608 97.0487 420.012 96.6645C419.126 96.0927 417.727 96.0895 417.215 97.0108C415.075 100.864 409.263 102.022 405.807 99.2856L412.975 126.578C414.31 131.658 415.784 136.99 419.488 140.718C421.826 143.07 424.882 144.586 428.006 145.703C429.686 146.303 431.439 146.806 433.222 146.755C435.219 146.699 437.135 145.952 438.901 145.02C446.308 141.11 451.578 133.9 454.549 126.075C457.521 118.25 458.402 109.795 458.756 101.433C454.736 102.802 449.866 100.939 447.79 97.2366C445.018 99.9137 440.642 100.784 437.055 99.3724C436.92 99.3192 436.782 99.2636 436.642 99.2072C435.103 98.5879 433.297 97.8607 432.191 99.0051ZM383.602 131.101C381.145 123.185 375.031 116.209 367.077 113.857C364.206 113.007 361.182 112.762 358.188 112.828C343.888 113.145 329.242 121.901 325.17 135.601C324.845 136.693 324.604 137.936 325.178 138.92C325.73 139.868 326.868 140.282 327.928 140.569C337.196 143.076 347.586 141.019 355.198 135.171L355.29 135.1L355.394 135.02L355.396 135.018C356.233 134.371 357.1 133.701 358.139 133.542C359.26 133.37 360.607 134.107 360.601 135.24C360.55 144.961 365.425 155.367 374.497 158.878C376.388 159.61 378.692 159.968 380.314 158.753C381.352 157.976 381.888 156.713 382.331 155.495C385.166 147.707 386.058 139.017 383.602 131.101ZM345.104 92.4389C346.837 96.3541 350.027 99.4308 353.362 102.118C359.166 106.794 366.01 110.73 373.461 110.997C380.912 111.264 388.9 106.912 390.819 99.7133C391.818 95.9663 391.114 91.9668 389.92 88.2774C388.673 84.4253 386.713 80.5374 383.247 78.4413C373.893 72.7859 361.776 71.9738 351.751 76.3307C349.613 77.2599 347.516 78.4514 346.055 80.267C343.371 83.6032 343.372 88.5237 345.104 92.4389ZM483.114 63.6181C487.271 55.9621 486.474 45.8941 481.164 38.9865C480.396 37.9883 479.52 37.0339 478.401 36.4558C477.306 35.8901 476.049 35.7217 474.818 35.6761C468.594 35.4456 462.332 38.3125 458.442 43.1723C454.553 48.0321 453.132 54.7669 454.726 60.782C455.614 60.3628 455.951 59.2977 456.2 58.3491C456.449 57.4005 456.798 56.3357 457.692 55.9313C458.586 55.5269 459.889 56.5915 459.292 57.3696C457.296 59.969 456.341 63.3442 456.679 66.603C457.01 67.3163 458.037 66.5163 458.322 65.7832L459.598 62.4955C459.898 61.7224 460.235 60.9013 460.923 60.4377C461.611 59.974 462.755 60.107 463.033 60.8884L459.87 67.424C459.462 68.2674 459.237 69.588 460.131 69.87L468.953 63.1321C470.08 64.4099 469.044 66.469 467.672 67.4799C467.251 67.7899 466.795 68.065 466.339 68.3397C465.309 68.9607 464.283 69.5795 463.679 70.5945C466.673 70.9502 469.707 70.9644 472.705 70.6368C474.305 70.4619 475.917 70.1832 477.378 69.5083C479.91 68.3386 481.784 66.0683 483.114 63.6181ZM416.543 160.786C419.761 164.11 424.457 165.495 428.986 166.445C435.703 167.856 443.411 168.375 448.729 164.04C449.82 163.151 450.834 161.712 450.243 160.436C447.744 155.045 446.817 148.938 447.605 143.049C446.499 142.862 445.613 143.889 444.893 144.747C442.169 147.998 438.197 150.331 433.958 150.52C428.069 150.781 422.828 147.083 418.108 143.554C417.75 147.537 416.648 151.451 414.877 155.037C413.934 156.947 415.062 159.256 416.543 160.786ZM271.239 477.002C272.765 477.965 274.713 477.833 276.511 477.666C303.311 475.169 330.935 471.964 354.333 458.672C334.754 465.899 313.884 468.781 293.206 471.617C285.703 472.646 278.067 473.674 270.59 472.469C269.114 473.508 269.712 476.038 271.239 477.002ZM344.039 193.36L344.653 200.874C344.704 201.509 344.763 202.168 345.078 202.723C345.46 203.397 346.16 203.818 346.83 204.208L352.094 207.276C352.347 207.424 352.64 207.577 352.919 207.488C353.254 207.381 353.39 206.99 353.479 206.65L358.266 188.436C353.4 189.685 348.636 191.334 344.039 193.36ZM272.465 287.815C272.912 287.834 273.374 287.849 273.788 287.681C274.908 287.225 275.108 285.754 275.138 284.546C265.836 283.725 256.601 282.147 247.555 279.833C246.218 280.812 246.473 283.033 247.645 284.205C248.817 285.376 250.544 285.76 252.177 286.042C258.871 287.198 265.678 287.532 272.465 287.815ZM316.51 147.683C317.92 148.174 319.24 146.62 319.547 145.16C319.648 144.677 319.698 144.178 319.748 143.679V143.679C319.849 142.67 319.949 141.666 320.477 140.818C321.258 139.564 320.18 137.79 318.746 137.431C317.312 137.071 315.811 137.742 314.633 138.634C312.699 140.097 311.218 142.754 312.332 144.907C313.12 146.431 314.89 147.119 316.51 147.683ZM466.13 108.201C466.003 107.703 465.822 107.204 465.481 106.82C464.474 105.687 462.475 106.1 461.489 107.252C460.502 108.404 460.258 109.997 460.069 111.502C459.832 113.379 459.621 115.26 459.433 117.143C459.384 117.636 459.573 118.354 460.055 118.239C464.291 117.228 467.202 112.418 466.13 108.201ZM406.69 119.487C407.005 119.309 407.306 119.076 407.467 118.752C407.715 118.252 407.582 117.656 407.445 117.115L406.628 113.91C406.307 112.648 405.814 111.194 404.574 110.791C403.19 110.341 401.79 111.545 401.152 112.853C400.209 114.786 400.296 117.347 401.832 118.853C403.083 120.079 405.166 120.351 406.69 119.487ZM468.031 74.0956C466.974 73.5645 465.728 73.4172 464.576 73.687C465.541 74.7672 467.174 75.1951 468.546 74.7275C468.938 74.5169 468.538 73.7675 468.144 73.9762L468.031 74.0956ZM480.523 253.968L498.586 249.583C498.899 249.507 499.255 249.436 499.529 249.59C500.241 249.992 499.384 250.916 498.608 251.207C493.687 253.056 488.455 254.245 483.142 254.723C482.165 254.811 480.944 254.759 480.523 253.968ZM329.849 154.42C330.402 154.117 330.608 153.541 330.815 152.962C330.903 152.717 330.992 152.471 331.106 152.244C331.492 151.485 332.876 151.002 333.203 151.784C334.371 154.575 337.558 156.556 340.837 156.53C342.013 156.521 342.49 158.115 341.78 158.968C341.07 159.822 339.783 160.052 338.612 160.146C337.63 158.759 335.937 158.033 334.245 157.308L334.245 157.308C332.53 156.574 330.818 155.841 329.849 154.42ZM359.915 172.397C359.337 172.309 358.946 171.788 358.565 171.279C358.142 170.714 357.73 170.164 357.085 170.24C354.829 170.506 353.447 167.871 352.734 165.697C352.448 164.828 352.726 163.361 353.57 163.699C355.728 166.073 358.716 167.664 361.877 168.124C363.103 168.302 364.678 168.596 364.889 169.825L361.26 171.971C360.846 172.216 360.389 172.47 359.915 172.397ZM349.361 177.937C342.315 180.391 333.502 177.228 330.168 171.048C329.798 170.362 328.517 170.651 328.212 171.364C327.908 172.077 328.259 172.875 328.662 173.545C330.723 176.975 334.341 179.594 338.466 180.643C342.591 181.692 347.17 181.157 350.873 179.193C350.645 178.522 350.079 177.687 349.361 177.937ZM342.483 162.359C343.089 161.552 343.761 160.734 344.689 160.341C345.616 159.948 346.867 160.137 347.369 161.012C345.518 162.679 343.844 164.544 342.387 166.567C341.834 167.335 341.287 168.228 341.437 169.164C341.588 170.099 342.843 170.817 343.512 170.148C344.012 169.649 344.988 170.17 345.029 170.877C345.07 171.584 344.433 172.187 343.745 172.347C343.058 172.507 342.341 172.332 341.662 172.138C340.466 171.795 339.139 171.251 338.731 170.073C338.356 168.992 338.916 167.828 339.495 166.843C340.405 165.293 341.403 163.795 342.483 162.359ZM423.409 105.897C424.834 106.01 426.682 106.962 426.101 108.168C425.094 108.951 423.709 108.687 422.351 108.429C421.948 108.352 421.546 108.276 421.158 108.228C419.507 108.023 417.852 108.39 416.204 108.755C414.385 109.159 412.572 109.561 410.777 109.191C410.291 108.883 410.37 108.148 410.781 107.757C411.192 107.367 411.802 107.23 412.378 107.111C416.006 106.36 419.704 105.605 423.409 105.897ZM445.02 106.895C447.482 107.198 449.998 107.138 452.439 106.717C452.813 105.573 451.066 104.9 449.759 104.774L443.625 104.181C442.3 104.053 440.872 103.943 439.718 104.547C438.564 105.151 437.992 106.777 438.983 107.585C440.374 106.308 442.622 106.593 444.621 106.845C444.755 106.862 444.889 106.879 445.02 106.895ZM447.79 115.871C447.705 116.127 447.368 116.217 447.08 116.254C444.445 116.601 441.67 115.943 439.543 114.466C439.037 114.113 438.532 113.658 438.477 113.075C438.423 112.492 439.105 111.872 439.666 112.146C442.603 113.58 446.459 113.213 449.017 111.258C449.624 110.794 450.648 111.357 450.731 112.081C450.813 112.804 450.239 113.467 449.565 113.845C449.162 114.071 448.72 114.226 448.277 114.38L448.277 114.38C447.98 114.484 447.683 114.588 447.397 114.714C447.275 115.126 447.435 115.597 447.79 115.871ZM439.635 128.127C441.673 126.659 443.536 124.186 442.655 121.849C439.001 126.753 432.645 129.549 426.517 128.949C425.47 128.847 424.562 129.856 424.469 130.893C424.376 131.931 424.896 132.93 425.539 133.755C428.508 137.571 434.313 138.604 438.762 136.654C443.212 134.704 446.231 130.23 447.102 125.492C447.281 124.523 447.358 123.447 446.806 122.628C446.254 121.808 444.841 121.548 444.299 122.374C445.246 123.722 445.216 125.533 444.791 127.119C443.906 130.414 441.406 133.244 438.224 134.551C435.043 135.858 431.252 135.612 428.269 133.906C427.791 133.632 427.302 133.284 427.136 132.763C426.97 132.241 427.326 131.546 427.878 131.575C432.04 131.794 436.266 130.555 439.635 128.127ZM425.946 113.231C423.818 117.862 417.779 118.993 413.119 117.445C411.782 117 411.978 114.696 413.172 113.923C414.367 113.149 415.897 113.434 417.266 113.753C418.636 114.073 420.157 114.379 421.369 113.636C421.844 113.345 422.221 112.919 422.598 112.492C422.921 112.127 423.244 111.761 423.631 111.478C424.469 110.865 425.947 110.936 426.181 111.982C426.276 112.403 426.125 112.841 425.946 113.231ZM429.018 111.858L428.029 120.321C427.954 120.964 427.885 121.645 428.163 122.232C428.585 123.124 429.748 123.522 430.723 123.286C431.697 123.051 432.474 122.305 432.977 121.454C433.49 120.586 433.163 118.949 432.199 119.286C431.941 119.376 431.757 119.601 431.576 119.822C431.358 120.087 431.146 120.347 430.817 120.358C430.054 120.383 430.066 119.24 430.32 118.534C431.376 115.599 431.539 112.361 430.783 109.338C429.634 109.298 429.148 110.739 429.018 111.858ZM357.548 157.076C360.829 158.274 363.786 160.335 366.036 162.992C366.3 163.303 366.562 163.642 366.628 164.043C366.724 164.635 366.299 165.266 365.71 165.402C362.329 161.588 357.649 158.932 352.625 157.976C353.397 156.316 355.821 156.445 357.548 157.076ZM337.004 545.823C336.105 545.748 335.183 545.67 334.42 545.352C334.008 545.179 333.646 544.934 333.284 544.689C332.937 544.455 332.591 544.221 332.201 544.05C331.402 543.7 330.215 543.751 329.849 544.458C332.491 546.848 336.659 547.882 340.361 547.068C339.753 546.054 338.405 545.941 337.004 545.823ZM468.934 498.014L475.583 496.579C476.159 496.455 476.985 496.555 477.019 497.279C474.002 499.869 470.045 500.702 466.507 499.493C466.985 498.502 468.016 498.212 468.934 498.014ZM375.702 336.887C374.371 337.212 373.03 337.54 371.898 338.253C374.433 339.451 377.513 338.66 380.095 337.553C385.9 335.062 390.933 331.03 394.446 326.056C395.807 324.129 396.976 321.754 396.151 319.58C394.831 319.822 394.214 321.202 393.712 322.366C390.754 329.223 384.246 334.662 376.608 336.66C376.308 336.739 376.005 336.813 375.702 336.887ZM489.283 339.932C488.59 340.941 487.008 340.642 485.876 340.144C477.097 336.278 471.237 326.81 471.8 317.4C471.825 316.984 471.88 316.528 472.19 316.244C472.501 315.959 473.142 316.04 473.206 316.451C473.782 320.165 474.368 323.915 475.771 327.411C477.173 330.908 479.483 334.179 482.8 336.065C483.487 336.455 484.219 336.79 484.949 337.124C486.565 337.862 488.175 338.598 489.283 339.932ZM401.067 502.758C398.948 502.189 396.817 501.617 394.674 501.838C398.889 505.337 405.277 506.29 410.425 504.186C410.613 503.361 409.204 503.29 408.338 503.495C405.93 504.064 403.506 503.413 401.067 502.758ZM420.715 317.8C421.569 317.981 422.247 317.116 422.688 316.363C424.537 313.21 425.745 312.061 428.161 309.764L428.321 309.611C428.449 311.362 428.586 312.384 428.723 313.406C428.86 314.428 428.997 315.451 429.125 317.201C429.167 317.769 429.221 318.373 429.571 318.822C430.546 320.077 432.609 318.999 433.438 317.644C435.362 314.501 434.791 310.053 432.135 307.498C431.453 306.842 432.46 305.61 433.388 305.793C434.317 305.975 434.886 306.898 435.282 307.757C436.433 310.251 437.102 313.08 436.492 315.758C435.882 318.436 433.769 320.883 431.049 321.283C430.089 321.424 429.021 321.277 428.321 320.606C427.553 319.869 427.41 318.713 427.312 317.654L426.993 314.204C426.09 314.753 425.511 315.679 424.936 316.6C424.305 317.611 423.678 318.616 422.628 319.11C420.973 319.887 418.859 318.911 418.002 317.297C417.146 315.683 417.361 313.668 418.133 312.012C418.904 310.356 420.167 308.986 421.426 307.662C422.187 306.861 422.999 306.036 424.05 305.695C425.102 305.353 426.457 305.676 426.912 306.683C422.869 307.634 419.712 311.517 419.611 315.667C419.589 316.538 419.862 317.619 420.715 317.8ZM291.456 532.273C291.619 532.502 291.874 532.617 292.121 532.712C296.767 534.486 301.772 532.084 306.21 529.73C306.715 529.462 307.312 528.841 306.974 528.34C306.801 528.084 306.472 528.058 306.187 528.074C304.466 528.167 302.801 528.939 301.157 529.701C298.92 530.738 296.722 531.757 294.469 531.03C294.298 530.974 294.126 530.909 293.954 530.843C293.429 530.642 292.901 530.44 292.36 530.528C291.642 530.645 291.003 531.636 291.456 532.273Z" fill="#00160A"/>
<path fill-rule="evenodd" clip-rule="evenodd" d="M361.905 95.9128C362.381 98.926 364.153 101.764 366.781 103.723C367.867 104.532 368.472 105.821 368.353 107.073C368.635 107.68 367.346 107.726 366.76 107.324C363.331 104.975 360.837 101.575 359.806 97.8456C359.609 97.1335 359.486 96.3147 359.976 95.7244C360.467 95.134 361.79 95.1868 361.905 95.9128V95.9128Z" fill="#00160A"/>
<path fill-rule="evenodd" clip-rule="evenodd" d="M349.291 132.904C351.431 131.585 353.732 129.891 356.13 130.483C349.301 138.238 338.396 140.274 328.653 138.551C327.842 138.407 326.942 138.176 326.5 137.421C326.059 136.666 326.624 135.35 327.412 135.605C334.64 137.946 342.729 136.948 349.291 132.904V132.904Z" fill="#00160A"/>
<circle cx="326" cy="166" r="4" fill="#FFB61D"/>
<circle cx="356" cy="179" r="4" fill="#FFB61D"/>
<circle cx="418.5" cy="127.5" r="2.5" fill="#FFB61D"/>
<circle cx="451.5" cy="125.5" r="2.5" fill="#FFB61D"/>
</svg>
