<svg width="1080" height="1024" viewBox="0 0 1080 1024" fill="none" xmlns="http://www.w3.org/2000/svg">
<rect width="1080" height="1024" fill="white"/>
<rect width="750" height="750" transform="translate(165 274)" fill="white"/>
<path fill-rule="evenodd" clip-rule="evenodd" d="M331.661 799.687C376.67 848.632 582.02 781.783 651.155 799.687C698.255 811.885 863.331 824.182 798.001 654.432C590.764 115.966 189.048 644.604 331.661 799.687Z" fill="#64FCD9"/>
<ellipse cx="517.538" cy="425.383" rx="33.9459" ry="40.3799" fill="white"/>
<path fill-rule="evenodd" clip-rule="evenodd" d="M239.503 930.938C229.056 936.177 220.478 942.472 223.674 950.296C229.244 963.931 246.743 968.959 266.643 972.978C294.483 978.602 333.128 979.308 383.129 977.133C466.712 973.499 457.232 965.5 536.551 961.738C590.534 959.178 684.175 973.393 759.293 973.136C805.251 972.978 1005.7 917.574 721.147 905.272C436.597 892.971 280.092 910.586 239.503 930.938Z" fill="white"/>
<path fill-rule="evenodd" clip-rule="evenodd" d="M239.503 930.938C229.056 936.177 220.478 942.472 223.674 950.296C229.244 963.931 460.68 920.003 539.999 916.242C593.982 913.681 676.273 931.196 751.39 930.938C797.349 930.781 902.295 921.445 721.147 905.273C539.999 889.1 280.092 910.586 239.503 930.938Z" fill="#E7EAEE"/>
<path fill-rule="evenodd" clip-rule="evenodd" d="M388.671 903.366C312.888 908.506 260.466 917.63 238.382 928.704C232.202 931.802 227.684 934.748 224.661 937.925C220.759 942.025 219.44 946.542 221.36 951.242C224.252 958.322 230.079 963.545 238.743 967.516C245.497 970.61 253.518 972.851 265.37 975.271L266.148 975.429C292.756 980.803 329.676 981.96 383.237 979.631L387.669 979.432C418.73 977.993 435.06 976.229 459.212 972.373L465.804 971.309C490.051 967.418 505.229 965.749 535.553 964.289L538.092 964.17C559.394 963.241 579.041 964.246 633.272 968.55L664.037 971.01C671.046 971.559 676.994 972.008 682.992 972.438L689.376 972.886C716.388 974.74 738.336 975.672 758.255 975.638L759.302 975.636C771.136 975.595 792.544 972.027 813.365 966.615L814.991 966.189C837.661 960.186 856.196 952.947 865.673 945.749C878.679 935.871 875.126 925.671 854.415 918.675C831.997 911.102 788.331 905.675 721.255 902.775C587.84 897.007 475.24 897.495 388.671 903.366ZM721.039 907.77L725.009 907.946C789.393 910.867 831.407 916.18 852.815 923.412L853.784 923.746C862.362 926.757 866.985 929.961 868.02 932.932C868.86 935.342 867.205 938.307 862.649 941.767C853.828 948.466 835.779 955.512 813.692 961.36L812.107 961.776C791.922 967.023 771.172 970.506 759.731 970.632L759.284 970.636C738.187 970.708 714.795 969.678 685.419 967.598L675.864 966.902C669.726 966.444 663.178 965.932 655.108 965.285L635.44 963.706C578.37 959.165 558.829 960.179 536.433 961.241L532.019 961.457C503.654 962.891 488.541 964.596 465.02 968.371L457.6 969.567C433.241 973.436 416.806 975.144 384.14 976.587L383.02 976.636C330.366 978.926 293.985 975.825 267.925 970.685L267.138 970.528C242.217 965.494 227.634 961.776 223.392 949.451C221.636 944.348 228.805 939.099 240.624 933.173C261.925 922.492 313.869 913.451 389.009 908.355C475.379 902.497 587.797 902.01 721.039 907.77Z" fill="#00160A"/>
<path fill-rule="evenodd" clip-rule="evenodd" d="M488.806 405.88C494.773 391.604 510.844 382.275 526.212 384.166C516.325 378.94 504.863 370.77 506.67 359.74C508.059 351.259 517.151 346.119 525.682 345.025C538.219 343.418 552.375 349.107 557.266 360.752C562.157 372.397 553.433 388.496 540.803 388.001C551.428 398.505 555.284 415.3 550.302 429.38C547.801 436.45 536.975 436.863 531.437 431.803C525.898 426.743 524.307 418.79 523.016 411.403C516.785 415.441 509.557 417.931 502.16 418.587C505.65 419.761 508.581 422.494 509.994 425.892C503.834 421.086 496.643 417.607 489.05 415.759C486.289 425.031 483.498 434.643 484.769 444.233C486.041 453.823 492.535 463.433 502.067 465.13C523.671 468.976 538.466 431.633 560.319 433.638C569.319 434.464 576.122 430.467 579.388 422.047C582.654 413.627 579.696 403.212 572.489 397.762C568.206 397.962 564.088 394.403 563.67 390.138C563.252 385.874 566.6 381.584 570.841 380.95C561.837 368.123 564.104 348.691 575.819 338.277C587.534 327.863 607.115 327.876 618.817 338.305C612.409 327.969 618.482 312.354 630.113 308.781C641.744 305.207 655.395 314.383 656.757 326.465C658.118 338.546 647.187 350.421 635.019 350.372C637.045 359.722 645.612 367.262 655.15 368.09C651.073 372.801 643.264 368.361 639.884 363.128C636.505 357.896 633.296 351.093 627.091 350.514C634.714 359.493 639.744 370.646 641.427 382.3C636.173 374.15 632.408 365.044 630.373 355.566C631.118 363.147 629.7 370.929 626.33 377.762C630.3 375.854 634.685 380.912 634.046 385.267C633.408 389.622 629.905 392.898 626.781 396.001C617.887 404.834 610.164 418.249 616.031 429.322C619.984 436.784 628.623 440.146 635.748 444.686C651.102 454.472 660.748 471.433 665.412 489.024C670.076 506.614 670.305 525.032 670.505 543.228C670.933 582.175 671.361 621.121 671.788 660.067C671.93 672.908 671.249 687.605 661.284 695.716C667.377 687.267 670.01 676.402 668.462 666.104C658.232 700.692 650.194 735.274 647.395 775.362C644.596 815.45 650.132 832.248 638.36 886.904C637.3 891.825 639.617 897.626 642.545 902.332C647.661 910.553 666.979 915.159 663.29 921.871C658.583 930.435 637.957 928.421 624.95 927.825C619.603 927.581 613.858 926.705 610.029 922.966C605.271 918.319 605.002 910.889 605.018 904.241C605.184 833.666 602.498 763.085 596.97 692.726C595.914 747.227 594.849 801.852 587.956 855.926C586.015 871.159 582.085 887.099 582.698 902.332C583.031 910.623 586.882 919.508 588.221 927.825C589.284 934.43 584.488 936.7 579.388 936.328C578.037 936.229 576.965 937.361 575.577 937.273C574.426 937.2 573.26 936.419 571.957 936.328C570.563 936.229 569.022 936.818 567.526 936.7C566.407 936.611 566.152 935.684 564.144 935.684C562.135 935.684 561.536 936.307 559.529 935.991C557.521 935.675 553.876 938.16 552.05 935.413C548.746 930.443 557.266 917.128 556.763 910.193C556.259 903.258 553.617 881.156 553.409 875.286C551.61 824.563 540.5 727.791 540.5 727.791C540.5 727.791 534.014 804.698 512.113 850.946C506.68 862.419 499.28 881.297 506.67 891.023C514.06 900.748 509.818 909.373 512.463 919.279C514.576 927.191 519.847 933.961 520.333 943.375C520.573 948.024 513.716 947.031 513.043 946.554C512.369 946.078 511.228 943.357 510.657 943.59C509.802 943.939 512.063 946.368 509.366 948.046C506.67 949.724 505.596 947.879 504.315 948.431C503.066 948.968 502.404 950.643 500.985 950.402C498.11 949.915 497.95 948.776 497.649 948.876C497.335 948.981 497.798 950.76 496.62 951.099C495.443 951.438 492.031 949.957 491.338 949.283C490.323 948.296 490.691 951.885 489.331 951.712C483.791 951.005 481.894 945.918 482.405 942.895C479.494 949.874 475.466 954.451 468.387 956.982C466.783 957.556 465.926 955.753 465.112 955.846C464.665 955.896 465.484 957.315 464.147 957.75C462.81 958.184 462.166 958.019 460.473 957.518C458.78 957.016 459.215 952.754 458.801 952.754C458.387 952.754 458.408 954.952 457.668 955.572C456.247 956.763 455.432 956.868 454.201 955.256C453.512 954.352 454.318 952.856 453.828 952.754C453.495 952.684 452.868 954.489 451.729 954.76C449.734 955.233 449.083 955.415 447.56 953.355C446.894 952.455 448.155 949.95 447.353 949.724C446.55 949.499 445.555 953.675 444.517 954.451C443.48 955.228 442.788 954.558 441.85 953.849C436.663 943.973 444.173 932.614 449.352 922.735C463.996 894.805 460.317 860.899 452.406 830.376C444.495 799.853 432.666 769.807 432.046 738.283C431.804 726.004 433.279 713.644 431.59 701.479C429.75 688.23 424.246 675.815 420.235 663.054C412.615 638.81 410.374 613.22 409.378 587.828C408.593 567.834 408.587 547.516 413.835 528.206C419.083 508.895 430.187 490.462 447.353 480.156C458.058 473.729 471.331 470.117 478.245 459.724C484.713 450.002 483.584 437.291 482.207 425.698C477.63 424.867 474.234 419.928 475.1 415.361C475.965 410.794 480.933 407.437 485.497 408.336C483.519 404.471 481.541 400.606 479.563 396.742C480.829 398.581 486.94 409.601 486.556 395.515C487.039 399.014 487.898 400.075 488.806 405.88Z" fill="white"/>
<path fill-rule="evenodd" clip-rule="evenodd" d="M462.431 654.629C460.45 655.775 457.884 657.26 456.236 655.707C451.735 651.463 444.232 650.905 439.106 654.333L438.8 654.544L438.557 657.42C443.682 653.567 451.571 654.006 456.236 658.405C457.715 659.799 459.935 658.745 461.806 657.685L462.855 657.086C468.13 654.212 475.071 654.678 479.896 658.266C482.596 660.273 485.843 659.006 489.205 657.695C492.014 656.599 494.902 655.473 497.619 656.198C498.889 656.537 500.141 657.268 501.368 657.985C503.616 659.299 505.78 660.563 507.814 659.272C511.842 656.717 517.406 656.846 521.311 659.585L520.958 657.499L520.803 656.552C516.934 654.142 511.67 654.128 507.814 656.575C505.781 657.865 503.616 656.601 501.368 655.288C500.141 654.571 498.889 653.839 497.619 653.5C494.902 652.775 492.014 653.902 489.205 654.998C485.843 656.309 482.596 657.576 479.896 655.568C474.972 651.907 467.846 651.497 462.534 654.569L462.431 654.629ZM462.393 685.302C460.457 686.523 457.95 688.106 456.244 686.617C451.583 682.549 438.643 689.007 438.643 689.007C439.423 689.357 441.21 688.994 443.413 688.546C447.564 687.703 453.192 686.559 456.348 689.313C457.879 690.649 460.057 689.51 461.886 688.38L462.911 687.741C468.072 684.666 475.025 684.865 479.985 688.265C482.759 690.168 485.956 688.777 489.265 687.338C492.029 686.135 494.873 684.898 497.615 685.519C498.897 685.809 500.176 686.492 501.43 687.161C503.727 688.387 505.938 689.567 507.921 688.2L508.197 688.015C510.46 686.553 515.46 687.463 519.993 688.288C523.29 688.889 526.34 689.444 527.908 689.007C527.908 689.007 511.577 682.911 507.817 685.504C505.835 686.872 503.624 685.692 501.326 684.465C500.073 683.796 498.793 683.113 497.511 682.823C494.769 682.203 491.926 683.44 489.161 684.642C485.852 686.082 482.656 687.472 479.881 685.57C474.82 682.1 467.684 681.964 462.494 685.238L462.393 685.302ZM464.009 574.441C462.238 575.715 459.457 576.505 458.113 574.786C453.894 569.392 444.053 570.283 440.873 576.348C444.589 574.291 448.969 572.18 452.9 573.79C453.994 574.238 454.998 574.959 455.991 575.673C457.646 576.862 459.272 578.03 461.235 577.879C462.695 577.766 463.955 576.921 465.208 576.081C466.554 575.178 467.892 574.28 469.464 574.298C471.209 574.318 472.629 575.452 474.051 576.587C475.468 577.719 476.885 578.851 478.624 578.879C480.048 578.902 481.344 578.164 482.628 577.433C484.064 576.616 485.485 575.807 487.053 576.079C488.924 576.402 490.048 578.074 491.174 579.748C492.293 581.412 493.413 583.078 495.271 583.421C496.372 583.624 497.463 583.288 498.526 582.879L499.58 582.463C502.064 581.497 504.836 580.961 507.396 581.704C509.595 582.343 511.553 584.124 512.071 586.301C512.04 585.817 512.003 585.335 511.961 584.855L511.896 582.104C509.077 579.775 505.135 578.871 501.582 579.744C500.973 579.893 500.373 580.092 499.774 580.29C498.621 580.672 497.47 581.053 496.263 581.081C494.429 581.124 492.348 579.925 492.335 578.092L492.328 577.895C492.13 574.857 487.834 573.852 484.809 574.644C484.166 574.813 483.513 575.017 482.857 575.223C480.356 576.007 477.798 576.808 475.529 575.691C474.652 575.26 473.911 574.57 473.178 573.886C472.152 572.93 471.14 571.987 469.788 571.783C468.128 571.532 466.65 572.486 465.25 573.519L464.009 574.441ZM441.02 552.601C442.227 549.717 442.194 546.53 442.05 543.978C442.05 543.978 439.957 547.662 437.173 547.265L436.977 547.244C435.724 547.153 434.411 547.869 433.175 548.544C431.506 549.455 429.976 550.29 428.919 548.959C426.325 545.697 422.085 543.815 417.924 544.077C416.742 544.152 415.491 544.43 414.671 545.284C413.851 546.138 413.712 547.71 414.652 548.429C415.615 546.021 418.979 545.559 421.384 546.533C422.755 547.088 423.959 547.954 425.164 548.821C426.073 549.475 426.984 550.131 427.968 550.654C430.259 551.872 433.477 552.162 435.134 550.167L435.263 550.021C436.557 548.662 439.058 548.688 440.291 550.121C440.876 550.8 441.105 551.713 441.02 552.601ZM452.658 515.867C449.832 517.137 446.711 514.901 444.607 512.628L443.598 511.545C441.741 509.584 439.638 507.69 437.027 507.831C435.617 507.907 434.32 508.595 433.112 509.325C429.506 511.502 426.211 514.192 423.358 517.288C426.126 517.523 428.431 515.619 430.715 513.732C433.114 511.751 435.489 509.789 438.353 510.342C440.538 510.764 442.059 512.539 443.575 514.308C445.133 516.126 446.685 517.938 448.949 518.269C450.45 518.488 451.921 517.979 453.375 517.475C453.728 517.352 454.081 517.23 454.433 517.119C461.422 514.908 469.634 517.282 474.362 522.879C476.521 525.435 480.552 524.223 483.606 522.679L484.446 522.245C487.501 520.703 491.545 519.51 493.683 522.083L493.886 522.319C497.323 526.161 503.357 525.826 508.597 524.94L509.53 524.775C509.585 525.089 509.638 525.43 509.69 525.798L509.794 526.569C510.921 522.614 510.476 521.711 509.53 523.806C507.835 522.287 504.525 522.75 502.303 523.247L502.099 523.291C499.904 523.736 497.112 523.561 496.292 521.512C494.792 517.763 489.314 518.286 485.581 519.832L485.099 520.03C481.441 521.516 476.899 522.96 474.244 520.148C468.874 514.46 459.794 512.66 452.658 515.867ZM511.061 511.786C511.103 510.527 511.235 509.029 511.475 507.326L511.535 506.913C508.962 505.307 505.696 504.854 502.782 505.7C500.384 506.396 498.364 504.743 496.294 503.05C494.451 501.543 492.57 500.003 490.347 500.06C488.556 500.105 487.087 501.179 485.601 502.264C484.401 503.141 483.189 504.027 481.787 504.386C478.371 505.26 475.227 502.869 472.432 500.526L471.318 499.588C468.255 497.012 463.418 494.931 460.573 497.746L460.391 497.917C457.992 500.061 454.072 499.299 451.237 497.684C450.338 497.172 449.47 496.588 448.603 496.004C446.664 494.699 444.729 493.397 442.466 492.913C439.192 492.214 434.971 494.453 435.412 497.769C437.812 495.229 441.85 494.399 445.059 495.786C446.57 496.439 447.979 497.531 449.365 498.606C451.889 500.563 454.338 502.461 457.194 501.546C458.062 501.267 458.812 500.742 459.565 500.216C460.201 499.771 460.839 499.325 461.551 499.027C465.161 497.513 468.523 500.085 471.926 502.688C475.214 505.202 478.54 507.746 482.163 506.663C483.508 506.262 484.686 505.377 485.848 504.505C487.439 503.31 489.001 502.137 490.919 502.26C492.879 502.385 494.388 503.842 495.833 505.237C495.927 505.328 496.021 505.418 496.114 505.508L496.513 505.886C498.173 507.438 500.679 508.77 502.613 507.575C505.71 505.66 509.89 508.316 511.061 511.786ZM513.798 496.565C514.433 495.803 515.029 494.837 515.588 493.666C516.343 492.085 516.355 489.363 515.588 490.969C514.657 492.919 512.503 494.469 510.397 493.974C509.471 493.756 508.68 493.187 507.891 492.621C507.015 491.992 506.142 491.365 505.093 491.227C503.906 491.071 502.786 491.574 501.671 492.073C501.313 492.234 500.956 492.394 500.598 492.532C499.123 493.1 497.083 493.103 496.361 491.698C493.87 486.855 486.123 485.975 482.608 490.137C481.16 491.852 478.283 490.752 476.76 489.104C476.38 488.693 476.018 488.247 475.656 487.8C474.567 486.458 473.472 485.108 471.847 484.661C470.017 484.158 468.244 484.979 466.453 485.809C464.837 486.557 463.207 487.313 461.507 487.108C459.757 486.898 458.37 485.735 456.989 484.576C456.524 484.185 456.059 483.795 455.582 483.442C453.686 482.043 450.617 481.365 449.254 483.286C451.595 483.629 453.626 484.889 455.66 486.151C456.519 486.684 457.379 487.217 458.262 487.682C461.239 489.248 465.368 489.855 467.607 487.346L467.741 487.206C469.391 485.603 472.331 486.919 473.924 488.671C474.215 488.99 474.503 489.328 474.793 489.668C476.134 491.242 477.524 492.873 479.518 493.054C481.306 493.216 482.843 492.134 484.381 491.052C485.909 489.977 487.439 488.9 489.217 489.042C491.038 489.187 492.379 490.544 493.724 491.903C495.043 493.237 496.366 494.575 498.147 494.773C499.103 494.88 500.041 494.629 500.98 494.378C501.371 494.273 501.763 494.168 502.156 494.089C505.816 493.355 509.484 494.862 512.885 496.476L513.585 496.811L513.798 496.565ZM446.456 528.202C446.981 528.49 447.483 528.972 447.541 529.606C447.599 530.239 446.962 530.905 446.436 530.618C444.386 529.499 441.906 530.367 439.843 531.458C439.601 531.586 439.358 531.717 439.114 531.849L439.114 531.849C437.279 532.843 435.385 533.867 433.365 533.681C431.616 533.52 429.991 532.472 428.402 531.446C426.291 530.083 424.243 528.761 422.048 529.614C420.935 530.046 420.101 530.966 419.262 531.893C418.639 532.581 418.012 533.272 417.266 533.771C417.053 533.913 416.81 534.044 416.562 534.003C415.881 533.892 415.912 532.802 416.207 532.129C418.128 527.756 423.603 525.71 427.613 527.868C428.312 528.244 428.967 528.726 429.62 529.206C430.746 530.034 431.866 530.857 433.189 531.124C435.33 531.555 437.419 530.423 439.387 529.357C439.521 529.284 439.656 529.211 439.789 529.139C441.873 528.018 444.38 527.062 446.456 528.202ZM463.066 533.862C466.055 535.491 469.981 535.295 472.786 533.376C474.781 532.01 477.554 533.163 479.435 534.676C479.807 534.976 480.175 535.292 480.544 535.61C482.041 536.898 483.561 538.206 485.492 538.48C487.065 538.704 488.584 538.188 490.113 537.67C491.376 537.241 492.646 536.81 493.96 536.792C496.153 536.761 498.125 537.862 500.063 538.944C500.478 539.177 500.892 539.408 501.307 539.627C503.653 540.867 506.676 541.717 508.865 540.225L498.869 536.019C497.491 535.439 496.073 534.85 494.575 534.789C493.212 534.734 491.877 535.119 490.547 535.502C489.011 535.945 487.482 536.386 485.925 536.143C483.968 535.838 482.425 534.54 480.888 533.247C480.382 532.821 479.877 532.395 479.358 532.007C477.263 530.437 473.972 529.527 472.205 531.446C470.624 533.162 467.813 533.105 465.618 532.264C464.579 531.866 463.603 531.329 462.628 530.792L462.628 530.792C461.543 530.195 460.458 529.598 459.288 529.193C457.066 528.424 454.216 528.566 452.817 530.428C452.681 531.035 453.414 531.526 454.046 531.49C454.45 531.467 454.827 531.316 455.205 531.164L455.205 531.164C455.417 531.078 455.629 530.993 455.847 530.93C457.765 530.375 459.516 531.552 461.254 532.72C461.858 533.126 462.459 533.531 463.066 533.862ZM514.121 630.182C513.317 632.255 510.47 632.565 508.526 631.601C507.388 631.037 506.424 630.188 505.458 629.337C504.774 628.734 504.088 628.131 503.339 627.626C501.532 626.41 498.884 625.915 497.382 627.517C493.651 631.496 487.731 633.096 482.601 631.513C480.638 630.906 478.834 629.89 477.027 628.873L477.027 628.873C476.015 628.303 475.003 627.733 473.962 627.234C471.06 625.844 467.605 625.03 464.71 626.436C463.605 626.972 462.668 627.791 461.73 628.611C460.926 629.314 460.121 630.018 459.208 630.546C456.113 632.335 452.122 631.813 449.069 629.948C448.545 629.628 448.038 629.271 447.531 628.913C446.374 628.097 445.218 627.282 443.874 626.924C441.942 626.409 439.413 627.395 439.202 629.452C437.844 627.405 440.029 624.469 442.418 624.277C444.807 624.085 446.978 625.592 448.941 627.017C450.905 628.441 453.113 629.914 455.495 629.64C457.489 629.41 459.035 628.048 460.603 626.668C461.666 625.732 462.738 624.787 463.966 624.182C468.039 622.172 472.823 624.23 476.8 626.437C480.776 628.645 485.224 631.105 489.562 629.824C491.27 629.319 492.751 628.278 494.232 627.237L494.233 627.237C494.806 626.835 495.379 626.432 495.965 626.06C498.067 624.728 500.701 623.769 502.962 624.785C503.955 625.23 504.75 626.002 505.546 626.776C505.906 627.126 506.267 627.476 506.646 627.796C508.719 629.546 511.459 630.421 514.121 630.182ZM535.201 712.795C532.881 715.793 528.189 714.768 524.639 713.434C521.089 712.1 516.436 711.006 514.042 713.945C512.681 715.615 509.991 715.35 508.107 714.303C507.299 713.854 506.556 713.295 505.814 712.737C504.827 711.994 503.841 711.253 502.707 710.774C498.295 708.909 493.489 711.5 489.202 713.812L488.781 714.038L488.505 714.187L488.441 714.221C483.967 716.617 477.66 718.144 474.426 714.234C472.216 711.563 467.922 712.238 464.814 713.778C464.184 714.091 463.554 714.431 462.922 714.773L462.921 714.774C460.439 716.117 457.919 717.48 455.165 717.237C452.722 717.021 450.519 715.566 448.362 714.142C445.626 712.334 442.964 710.576 439.981 711.463C439.044 711.741 438.199 712.272 437.359 712.8C436.292 713.47 435.233 714.136 434 714.276C434.004 711.22 437.346 709.047 440.404 709.101C443.332 709.152 446.008 710.624 448.583 712.042L448.926 712.23C451.606 713.702 454.543 715.127 457.582 714.778C459.68 714.537 461.535 713.486 463.394 712.434C464.194 711.981 464.996 711.527 465.817 711.137C468.546 709.843 472.266 709.45 474.195 711.772C476.707 714.795 481.417 714.854 485.119 713.53C486.867 712.904 488.517 712.039 490.165 711.173L490.166 711.173C492.007 710.207 493.847 709.241 495.823 708.611C499.569 707.417 504.336 707.835 506.517 711.103C507.854 713.106 510.886 712.962 513.107 712.029C513.725 711.769 514.334 711.465 514.943 711.16C516.522 710.371 518.1 709.582 519.839 709.571C521.688 709.56 523.484 710.428 525.241 711.277C527.574 712.405 529.836 713.499 532.057 712.451L535.201 712.795ZM485.562 603.835C483.047 604.276 480.793 602.928 478.509 601.563C476.548 600.39 474.565 599.204 472.375 599.126C469.769 599.032 467.431 600.507 465.116 601.967C462.567 603.576 460.045 605.166 457.224 604.627C456.102 604.412 455.087 603.87 454.069 603.327C453.564 603.056 453.057 602.786 452.537 602.555C448.639 600.827 443.812 601.52 440.536 604.279C441.164 601.377 444.069 599.393 446.98 599.155C449.89 598.917 452.747 600.112 455.213 601.704C457.313 603.06 460.111 602.5 462.335 601.367C463.225 600.913 464.075 600.377 464.923 599.842L464.923 599.842C466.195 599.039 467.465 598.237 468.867 597.717C472.771 596.27 477.462 597.36 480.363 600.388C482.128 602.23 485.144 601.737 487.485 600.768C487.821 600.629 488.16 600.482 488.5 600.334C490.53 599.454 492.629 598.544 494.737 599.046C496.606 599.49 498.087 600.959 499.537 602.398C501.303 604.151 503.024 605.86 505.35 605.62C506.108 605.542 506.816 605.247 507.526 604.952L507.526 604.952C508.047 604.735 508.57 604.518 509.114 604.385C510.4 604.072 512.092 604.517 512.369 605.833C508.687 607.236 504.392 608.598 501.008 606.559C499.946 605.92 499.044 604.978 498.152 604.046C496.739 602.571 495.353 601.124 493.407 600.956C491.819 600.819 490.402 601.605 488.968 602.401C487.871 603.01 486.764 603.625 485.562 603.835ZM468.836 555.052C470.18 554.204 471.524 553.354 473.093 553.228C475.481 553.035 477.489 554.528 479.435 555.976L479.436 555.976C479.869 556.299 480.3 556.619 480.731 556.918C483.096 558.558 486.98 559.396 488.541 557.046C489.455 555.669 491.641 555.588 493.165 556.337C494.274 556.882 495.153 557.735 496.031 558.589C496.36 558.909 496.689 559.228 497.031 559.532C498.46 560.803 500.222 561.841 502.174 562.02C504.125 562.198 506.26 561.348 507.113 559.676C502.491 560.619 497.355 558.554 494.859 554.749C493.601 552.829 490.487 553.753 488.449 554.927C486.41 556.101 483.412 557.18 481.976 555.375C478.63 551.169 471.399 550.423 467.176 553.85C465.115 555.522 461.873 554.409 459.802 552.748C459.259 552.313 458.736 551.839 458.212 551.365C456.74 550.032 455.265 548.697 453.334 548.198C449.941 547.323 446.053 549.926 445.792 553.247C446.746 553.36 447.747 552.863 448.191 552.055C449.178 550.257 451.88 549.921 453.851 550.709C455.418 551.336 456.669 552.461 457.912 553.581C458.232 553.869 458.552 554.157 458.877 554.437C460.462 555.798 462.424 557.038 464.557 556.878C466.135 556.759 467.486 555.906 468.836 555.052Z" fill="#FFB61D"/>
<path fill-rule="evenodd" clip-rule="evenodd" d="M488.806 405.88C494.773 391.604 510.844 382.275 526.212 384.166C516.325 378.94 504.863 370.77 506.67 359.74C508.059 351.259 517.151 346.119 525.682 345.025C538.219 343.418 552.375 349.107 557.266 360.752C562.157 372.397 553.433 388.496 540.803 388.001C551.428 398.505 555.284 415.3 550.302 429.38C547.801 436.45 536.975 436.863 531.437 431.803C525.898 426.743 524.307 418.79 523.016 411.403C516.785 415.441 509.557 417.931 502.16 418.587C505.65 419.761 508.581 422.494 509.994 425.892C503.834 421.086 496.643 417.607 489.05 415.759C486.289 425.031 483.498 434.643 484.769 444.233C486.041 453.823 492.535 463.433 502.067 465.13C513.054 467.086 522.28 458.388 531.57 449.631C540.546 441.17 549.58 432.653 560.319 433.638C569.319 434.464 576.122 430.467 579.388 422.047C582.654 413.627 579.696 403.212 572.489 397.762C568.206 397.962 564.088 394.403 563.67 390.138C563.252 385.874 566.6 381.584 570.841 380.95C561.837 368.123 564.104 348.691 575.819 338.277C587.534 327.863 607.115 327.876 618.817 338.305C612.409 327.969 618.482 312.354 630.113 308.781C641.744 305.207 655.395 314.383 656.757 326.465C658.118 338.546 647.187 350.421 635.019 350.372C637.045 359.722 645.612 367.262 655.15 368.09C651.073 372.801 643.264 368.361 639.884 363.128C639.402 362.381 638.923 361.602 638.438 360.814C635.527 356.08 632.41 351.01 627.091 350.514C634.714 359.493 639.744 370.646 641.427 382.3C636.173 374.15 632.408 365.044 630.373 355.566C631.118 363.147 629.7 370.929 626.33 377.762C630.3 375.854 634.685 380.912 634.046 385.267C633.439 389.409 630.242 392.574 627.243 395.543C627.088 395.696 626.934 395.849 626.781 396.001C617.887 404.834 610.164 418.249 616.031 429.322C619.068 435.055 624.871 438.367 630.628 441.654C632.364 442.645 634.097 443.634 635.748 444.686C651.102 454.472 660.748 471.433 665.412 489.024C670.076 506.614 670.305 525.032 670.505 543.228L671.788 660.067C671.93 672.908 671.249 687.605 661.284 695.716C667.377 687.267 670.01 676.402 668.462 666.104C658.232 700.692 650.194 735.274 647.395 775.362C646.486 788.377 646.456 798.937 646.427 809.134C646.366 830.347 646.31 849.992 638.36 886.904C637.3 891.825 639.617 897.626 642.545 902.332C644.762 905.895 649.647 908.778 654.17 911.449C660.084 914.941 665.38 918.068 663.29 921.871C659.027 929.627 641.708 928.706 628.816 928.022C627.473 927.95 626.178 927.881 624.95 927.825C619.603 927.581 613.858 926.705 610.029 922.966C605.271 918.319 605.002 910.889 605.018 904.241C605.184 833.666 602.498 763.085 596.97 692.726C595.914 747.227 594.849 801.852 587.956 855.926C587.379 860.453 586.626 865.043 585.87 869.659C584.08 880.572 582.267 891.627 582.698 902.332C582.893 907.202 584.303 912.278 585.704 917.323C586.689 920.866 587.669 924.394 588.221 927.825C589.284 934.43 584.488 936.7 579.388 936.328C578.714 936.278 578.109 936.536 577.499 936.795C576.888 937.055 576.272 937.317 575.577 937.273C575.016 937.237 574.451 937.033 573.869 936.823L573.868 936.823C573.256 936.602 572.625 936.375 571.957 936.328C571.278 936.28 570.565 936.395 569.839 936.511C569.073 936.635 568.294 936.76 567.526 936.7C567.068 936.663 566.755 936.487 566.408 936.291C565.905 936.008 565.331 935.684 564.144 935.684C563.291 935.684 562.693 935.796 562.133 935.901C561.373 936.043 560.684 936.173 559.529 935.991C558.858 935.885 558.005 936.092 557.097 936.313C555.288 936.751 553.266 937.242 552.05 935.413C550.176 932.594 552.107 927.088 554.037 921.585C555.509 917.389 556.981 913.194 556.763 910.193C556.548 907.23 555.942 901.497 555.303 895.445C554.446 887.333 553.528 878.648 553.409 875.286C551.61 824.563 547.687 773.447 539.754 723.316C526.715 732.164 512.471 739.24 497.54 744.286C492.291 746.06 491.055 752.787 490.691 758.311C488.024 798.752 485.541 840.573 499.437 878.65C517.47 831.597 531.038 782.838 539.901 733.239C535.558 773.514 525.85 813.209 511.113 850.946C506.15 863.655 499.28 881.297 506.67 891.023C511.314 897.133 511.365 902.81 511.417 908.642C511.448 912.092 511.48 915.597 512.463 919.279C513.268 922.292 514.531 925.14 515.813 928.032C517.897 932.732 520.032 937.546 520.333 943.375C520.573 948.024 513.716 947.031 513.043 946.554C512.758 946.353 512.39 945.751 512.017 945.14C511.507 944.306 510.987 943.456 510.657 943.59C510.353 943.714 510.443 944.1 510.563 944.622C510.783 945.57 511.105 946.964 509.366 948.046C507.695 949.086 506.647 948.773 505.787 948.516C505.259 948.358 504.802 948.221 504.315 948.431C503.826 948.641 503.427 949.026 503.037 949.402C502.432 949.986 501.849 950.549 500.985 950.402C498.946 950.057 498.273 949.384 497.946 949.057C497.812 948.923 497.736 948.847 497.649 948.876C497.542 948.912 497.525 949.141 497.503 949.441C497.46 950.024 497.398 950.876 496.62 951.099C495.443 951.438 492.221 950.074 491.528 949.4C491.026 948.912 490.816 949.514 490.567 950.227C490.313 950.955 490.018 951.799 489.331 951.712C483.791 951.005 481.894 945.918 482.405 942.895C479.494 949.874 475.466 954.451 468.387 956.982C467.403 957.334 466.701 956.792 466.117 956.342C465.748 956.058 465.427 955.81 465.112 955.846C464.948 955.864 464.954 956.066 464.962 956.335C464.976 956.802 464.995 957.474 464.147 957.75C462.81 958.184 462.166 958.019 460.473 957.518C459.345 957.183 459.162 955.181 459.043 953.881C458.983 953.229 458.939 952.754 458.801 952.754C458.614 952.754 458.515 953.204 458.395 953.755C458.25 954.421 458.073 955.233 457.668 955.572C456.247 956.763 455.432 956.868 454.201 955.256C453.817 954.752 453.897 954.065 453.959 953.537C454.008 953.118 454.045 952.799 453.828 952.754C453.699 952.727 453.526 952.981 453.296 953.318C452.933 953.852 452.427 954.594 451.729 954.76L451.661 954.776C449.719 955.236 449.065 955.392 447.56 953.355C447.229 952.908 447.374 952.065 447.505 951.302C447.638 950.529 447.756 949.838 447.353 949.724C446.927 949.605 446.447 950.724 445.935 951.917C445.482 952.973 445.005 954.086 444.517 954.451C443.563 955.165 442.902 954.656 442.072 954.018C442 953.962 441.926 953.906 441.85 953.849C437.254 945.097 442.627 935.182 447.515 926.163L447.517 926.159L447.521 926.151C448.147 924.996 448.765 923.856 449.352 922.735C463.996 894.805 460.317 860.899 452.406 830.376C450.362 822.486 448.055 814.629 445.748 806.769C439.129 784.222 432.506 761.659 432.046 738.283C431.961 733.964 432.088 729.635 432.216 725.307C432.45 717.333 432.685 709.365 431.59 701.479C430.283 692.069 427.128 683.081 423.973 674.09L423.973 674.09C422.685 670.421 421.397 666.752 420.235 663.054C412.615 638.81 410.374 613.22 409.378 587.828C408.593 567.834 408.587 547.516 413.835 528.206C419.083 508.895 430.187 490.462 447.353 480.156C450.474 478.282 453.814 476.647 457.151 475.014C465.258 471.046 473.347 467.087 478.245 459.724C484.713 450.002 483.584 437.291 482.207 425.698C477.63 424.867 474.234 419.928 475.1 415.361C475.965 410.794 480.933 407.437 485.497 408.336L479.563 396.742C479.683 396.917 479.848 397.176 480.047 397.488L480.047 397.488C481.935 400.454 486.903 408.259 486.556 395.515C486.776 397.107 487.073 398.195 487.418 399.454C487.831 400.962 488.311 402.717 488.806 405.88ZM655.54 667.305C656.781 665.817 657.26 663.854 657.661 661.959C663.989 632.041 659.488 601.956 645.173 574.929C613.416 577.646 581.389 577.2 549.721 573.598C545.034 573.065 542.04 578.368 540.551 582.84C532.277 607.69 529.331 634.297 531.969 660.354C532.424 664.847 537.821 666.8 542.284 667.514C552.514 669.15 558.165 668.101 566.545 666.546L566.545 666.546L566.546 666.546L566.546 666.546L566.547 666.546L566.548 666.546C572.982 665.351 581.026 663.859 593.986 663.054C595.516 662.958 595.447 657.722 595.359 651.048C595.265 643.927 595.15 635.169 596.931 629.269C602.427 723.415 606.268 817.657 608.453 911.937C608.521 914.872 608.649 918.001 610.341 920.401C612.739 923.804 617.393 924.588 621.548 924.876C634.422 925.769 658.961 926.293 659.966 921.579C659.336 917.37 654.544 914.974 650.055 912.73C649.157 912.281 648.27 911.838 647.432 911.387C640.233 907.521 636.411 899.156 635.689 891.022C635.044 883.755 636.459 876.508 637.862 869.325C638.029 868.469 638.197 867.613 638.36 866.758C642.614 844.51 644.43 821.797 643.764 799.155C643.706 797.194 643.63 795.232 643.554 793.27C643.287 786.388 643.019 779.504 643.551 772.643C644.212 764.102 646.101 755.723 647.987 747.356L647.988 747.351L647.989 747.346L647.99 747.342L647.991 747.337C648.379 745.618 648.766 743.9 649.143 742.18C654.272 718.76 657.433 694.91 658.583 670.963C639.846 679.109 617.226 677.682 599.662 667.247C614.902 673.252 631.752 673.121 647.939 670.602C650.732 670.167 653.732 669.476 655.54 667.305ZM668.111 521.587C666.129 504.214 662.012 487.085 655.88 470.708C654.768 467.739 653.044 465.5 651.198 463.102C650.68 462.43 650.152 461.745 649.626 461.027C645.236 455.045 638.887 451.139 632.506 447.212C627.518 444.143 622.509 441.061 618.4 436.965C612.76 442.188 604.946 444.99 597.27 444.542C589.593 444.094 582.159 440.402 577.167 434.559C576.798 434.127 576.144 434.118 575.577 434.149C566.135 434.659 556.647 436.378 548.09 440.398C539.533 444.418 531.938 450.883 527.657 459.307C525.908 462.749 524.734 466.45 523.635 470.152C518.078 488.875 514.253 508.111 512.224 527.534C512.103 528.697 512.028 530 512.777 530.898C513.283 531.504 514.065 531.793 514.817 532.034C521.412 534.148 528.567 534.49 535.334 533.016L516.484 530.364C515.363 530.207 513.91 529.013 514.815 528.334C515.11 528.112 515.518 528.148 515.885 528.194L538.093 530.974C539.081 531.097 539.664 529.899 539.827 528.918C540.298 526.077 539.933 523.087 539.572 520.133C539.032 515.704 538.501 511.354 540.814 507.707C542.848 527.473 542.476 547.486 539.709 567.163C539.386 569.46 542.391 570.592 544.696 570.865C576.252 574.606 608.15 575.457 639.861 573.403C644.816 573.082 648.564 568.339 649.449 563.458C650.335 558.576 649.035 553.592 647.744 548.801L638.028 512.727C637.44 510.543 636.997 507.833 638.704 506.347L644.596 529.093C644.839 530.031 645.174 531.084 646.052 531.495C646.694 531.796 647.447 531.658 648.143 531.513L663.611 528.299C664.913 528.029 666.305 527.709 667.204 526.73C668.421 525.405 668.314 523.374 668.111 521.587ZM513.033 503.031L513.033 503.031C515.465 491.453 518.628 476.394 504.55 481.011L504.304 481.092C498.712 482.926 492.104 485.094 486.112 483.191C480.032 481.259 474.873 476.613 472.32 470.771C473.941 469.573 475.946 471.564 477.175 473.161C483.135 480.902 494.72 483.677 503.546 479.479C507.868 477.422 507.896 471.383 507.268 466.641C497.77 469.846 486.214 463.166 484.26 453.341C482.383 459.874 478.024 465.663 472.261 469.274C470.094 470.632 467.757 471.683 465.421 472.733L465.42 472.733L465.42 472.734L465.419 472.734L465.419 472.734L465.419 472.734L465.419 472.734L465.419 472.734L465.418 472.734L465.418 472.734L465.418 472.734L465.418 472.735L465.418 472.735L465.417 472.735L465.417 472.735L465.417 472.735C464.684 473.064 463.951 473.394 463.224 473.733C434.472 487.129 414.126 516.966 412.169 548.603C412.083 550.005 412.367 551.855 413.754 552.083L435.089 555.591C435.344 555.633 435.578 555.68 435.803 555.725C436.957 555.957 437.836 556.133 439.733 555.262C441.999 554.221 442.425 543.189 442.212 539.77C441.999 536.35 441.772 531.987 444.869 530.517C445.152 541.584 443.337 552.525 441.521 563.477C440.046 572.369 438.569 581.269 438.214 590.25C438.099 593.141 438.188 596.041 438.277 598.938C438.375 602.127 438.472 605.314 438.298 608.482C436.007 650.221 435.59 744.967 435.59 744.967C435.59 744.967 475.885 741.821 490.691 738.283C512.519 733.066 526.796 726.698 534.001 723.484C537.301 722.011 539.118 721.201 539.497 721.466C538.167 713.721 534.668 698.583 530.612 681.032L530.612 681.032C522.652 646.597 512.546 602.873 512.463 587.455C512.457 586.386 511.962 584.948 511.554 583.763C510.946 581.997 510.531 580.793 512.22 582.21L511.893 568.433C511.818 565.255 511.594 558.291 511.36 556.716C508.843 539.784 509.999 529.079 510.864 521.062C511.21 517.858 511.51 515.083 511.51 512.512C511.51 510.281 512.231 506.845 513.033 503.031ZM565.042 931.385C565.399 935.684 568.34 936.288 570.841 934.214C571.667 933.53 571.97 931.089 572.276 928.619C572.332 928.169 572.388 927.717 572.447 927.275C572.908 928.351 572.976 929.962 573.039 931.456C573.123 933.469 573.198 935.27 574.214 935.27C578.253 935.27 577.609 928.237 577.305 924.911C577.285 924.691 577.266 924.487 577.25 924.302C578.079 923.097 579.42 926.326 579.079 928.193C578.738 930.061 578.694 932.459 580.041 933.798C582.185 935.93 585.5 932.486 585.899 929.49C586.594 924.258 584.828 919.24 583.048 914.181C581.792 910.613 580.528 907.024 580.116 903.324C579.579 898.496 580.511 893.648 581.431 888.869L581.434 888.852C581.479 888.618 581.524 888.384 581.569 888.15C589.91 844.616 591.276 800.09 592.618 755.785L595.291 667.545C575.732 672.252 555.2 672.877 535.391 669.369C534.285 669.174 533.913 670.795 534.037 671.91C536.344 692.543 539.566 713.102 542.786 733.652C548.901 772.673 555.012 811.664 554.844 851.084C554.833 853.784 554.792 856.488 554.752 859.195C554.571 871.226 554.39 883.289 556.763 895.052C556.982 896.139 557.223 897.23 557.464 898.326C558.665 903.771 559.884 909.297 558.544 914.644C558.001 916.806 557.05 918.926 556.105 921.032C554.295 925.064 552.51 929.042 553.676 933.149C554.011 934.325 554.927 935.621 556.133 935.413C557.618 935.157 557.624 933.342 557.63 931.561C557.636 929.769 557.642 928.011 559.156 927.913C558.892 930.581 560.421 935.025 562.163 934.493C563.272 934.493 563.474 932.493 563.689 930.349C563.839 928.858 563.996 927.298 564.47 926.293C565.341 927.698 565.198 929.115 565.088 930.211C565.042 930.665 565.002 931.065 565.042 931.385ZM528.372 639.945C528.266 627.122 530.767 614.438 533.258 601.859C535.283 591.635 537.435 581.099 543.317 572.492C541.562 573.318 539.398 572.048 538.556 570.302C537.715 568.556 537.836 566.52 537.975 564.587L539.898 537.908C540.002 536.465 539.352 534.369 537.973 534.808C530.858 537.071 522.982 536.863 515.997 534.227C514.951 533.832 514.312 535.374 514.263 536.49C511.986 588.097 528.532 659.395 528.372 639.945ZM501.773 940.73C502.801 940.587 503.578 942.924 504.224 944.87C504.539 945.818 504.823 946.673 505.091 947.102C505.95 948.483 508.292 947.956 509.117 946.554C509.554 945.812 509.483 944.088 509.423 942.63C509.37 941.335 509.325 940.25 509.653 940.25C511.488 940.25 512.078 941.718 512.64 943.117C513.197 944.501 513.726 945.817 515.407 945.576C516.781 945.378 517.667 943.999 518.055 942.668C519.457 937.847 516.832 933.414 514.153 928.888C512.704 926.441 511.24 923.968 510.387 921.392C509.245 917.943 509.226 914.265 509.208 910.591C509.188 906.722 509.169 902.858 507.836 899.27C506.983 896.971 505.629 894.907 504.28 892.85C504.004 892.429 503.728 892.008 503.457 891.586C489.559 869.958 487.054 843.085 486.556 817.387C486.105 794.125 486.982 770.838 489.182 747.676L480.473 748.922L436.581 755.2C443.276 794.848 454.362 833.605 465.425 872.264C466.839 877.204 468.258 882.157 470.227 886.904C472.333 891.978 475.064 896.793 478.338 901.205C483.248 907.822 482.878 916.746 482.534 925.036L482.533 925.043L482.533 925.049L482.509 925.644L482.49 926.094C482.485 926.213 482.48 926.333 482.475 926.453L482.464 926.717C482.456 926.904 482.448 927.092 482.44 927.281L482.418 927.755C482.051 935.995 481.628 945.495 488.806 949.139C490.573 950.036 490.33 948.389 490.029 946.35C489.796 944.771 489.528 942.956 490.131 941.903C490.327 943.803 490.545 945.772 491.528 947.41C492.511 949.048 494.491 950.255 496.327 949.724C496.844 949.442 496.629 948.182 496.372 946.668C496.096 945.045 495.77 943.131 496.245 941.821C496.819 942.758 497.07 943.736 497.332 944.755C497.611 945.844 497.902 946.98 498.612 948.164C499.84 950.213 502.937 949.058 503.143 947.16C503.259 946.094 502.811 945.104 502.372 944.132C501.861 943.003 501.361 941.899 501.773 940.73ZM431.172 689.461C433.733 658.166 436.296 626.816 435.942 595.419C435.936 594.847 435.928 594.275 435.921 593.703L435.921 593.701C435.859 588.933 435.798 584.159 436.29 579.419C436.803 574.481 437.918 569.605 439.603 564.934L413.514 561.757C413.153 561.713 412.734 561.689 412.482 561.951C412.292 562.148 412.264 562.446 412.246 562.719C409.423 605.668 415.924 649.206 431.172 689.461ZM646.952 536.041L650.132 548.888C651.212 553.251 652.301 557.695 652.046 562.183C651.79 566.672 649.983 571.293 646.312 573.891C657.541 589.733 661.379 609.707 661.997 629.109C662.325 639.428 661.826 649.743 661.327 660.06V660.061V660.061V660.062V660.062V660.062V660.063V660.063V660.064V660.064V660.065V660.065V660.066V660.066V660.067V660.067C660.888 669.148 660.448 678.229 660.573 687.315C668.147 667.199 668.449 645.191 668.659 623.7L669.226 565.703C669.342 553.811 669.456 541.871 667.897 530.08L649.626 533.689C648.315 533.948 646.631 534.745 646.952 536.041ZM580.918 337.557C572.618 341.741 568.313 351.594 568.506 360.881C568.587 364.756 569.682 369.124 573.091 370.974C575.284 372.164 578.159 371.962 580.164 370.477C582.169 368.993 583.199 366.303 582.698 363.86C582.459 362.701 584.035 361.818 585.12 362.294C586.204 362.77 586.728 364.022 586.882 365.196C586.942 365.648 586.962 366.105 586.983 366.563V366.563V366.563C587.016 367.292 587.049 368.021 587.239 368.723C587.764 370.661 589.569 372.184 591.57 372.376C593.57 372.568 595.632 371.417 596.517 369.614C596.746 369.148 596.904 368.643 597.062 368.141C597.331 367.284 597.597 366.434 598.207 365.793C599.174 364.776 601.512 365.263 601.203 366.632C600.571 369.432 603.525 372.192 606.38 371.878C609.235 371.564 611.431 368.839 611.752 365.988L611.765 365.864L611.776 365.771C611.947 364.21 612.168 362.201 613.686 362.066C614.951 363.326 615.241 365.213 615.527 367.073C615.847 369.152 616.161 371.197 617.824 372.299C620.183 373.863 623.437 372.097 625.041 369.766C627.332 366.438 627.786 362.089 626.966 358.134C626.147 354.179 624.165 350.558 621.908 347.207C620.209 344.683 618.321 342.256 615.999 340.291C608.769 334.175 598.328 333.38 589.007 335.069C586.222 335.574 583.446 336.283 580.918 337.557ZM463.451 873.447C462.456 878.771 462.047 884.136 461.639 889.502C461.23 894.868 460.821 900.234 459.826 905.557C459.544 907.067 457.386 911.183 454.643 916.413C449.143 926.899 441.293 941.865 441.511 949.283C441.551 950.621 442.158 953.26 443.292 953.096C445.424 952.787 445.821 950.433 446.19 948.242C446.235 947.975 446.279 947.71 446.326 947.451C446.761 945.075 447.121 944.351 449.514 944.702C450.246 944.932 450.246 945.857 449.42 947.451C448.593 949.046 447.985 951.053 448.954 952.566C449.924 954.078 452.982 953.675 452.832 951.885C452.712 950.456 453.731 949.015 455.119 948.65C455.585 949.465 455.385 950.566 455.198 951.6C454.966 952.879 454.753 954.054 455.845 954.451C457.341 954.995 458.147 952.775 458.425 951.209C458.704 949.642 460.825 947.959 461.5 949.4C459.711 951.573 457.86 956.711 462.81 956.711C464.186 956.711 464.166 954.467 464.146 952.224C464.136 951.102 464.126 949.98 464.29 949.139C465.613 949.056 466.15 950.864 465.914 952.167C465.858 952.477 465.786 952.747 465.722 952.994C465.513 953.784 465.371 954.326 466.002 955.114C467.178 956.58 469.548 955.485 470.899 954.178C476.118 949.125 478.908 942.867 479.976 935.684C481.044 928.501 480.534 921.188 480.022 913.944C479.756 910.179 479.402 906.171 477.093 903.182C470.368 894.476 465.663 884.221 463.451 873.447ZM597.191 373.005C594.6 375.685 589.743 375.657 587.184 372.947C586.947 372.695 586.727 372.425 586.507 372.155C586.057 371.601 585.608 371.049 585.012 370.664C584.126 370.093 582.727 370.089 582.215 371.011C580.075 374.864 574.263 376.022 570.807 373.286L577.975 400.578C579.31 405.658 580.784 410.99 584.488 414.718C586.826 417.07 589.882 418.586 593.006 419.703C594.686 420.303 596.439 420.806 598.222 420.755C600.219 420.699 602.135 419.952 603.901 419.02C611.308 415.11 616.578 407.9 619.549 400.075C622.521 392.25 623.402 383.795 623.756 375.433C619.736 376.802 614.866 374.939 612.79 371.237C610.018 373.914 605.642 374.784 602.055 373.372C601.92 373.319 601.782 373.264 601.642 373.207C600.103 372.588 598.297 371.861 597.191 373.005ZM548.602 405.101C546.145 397.185 540.031 390.209 532.077 387.857C529.206 387.007 526.182 386.762 523.188 386.828C508.888 387.145 494.242 395.901 490.17 409.601C489.845 410.693 489.604 411.936 490.178 412.92C490.73 413.868 491.868 414.282 492.928 414.569C502.196 417.076 512.586 415.019 520.198 409.171L520.29 409.1L520.394 409.02L520.396 409.018C521.233 408.371 522.1 407.701 523.139 407.542C524.26 407.37 525.607 408.107 525.601 409.24C525.55 418.961 530.425 429.367 539.497 432.878C541.388 433.61 543.692 433.968 545.314 432.753C546.352 431.976 546.888 430.713 547.331 429.495C550.166 421.707 551.058 413.017 548.602 405.101ZM510.104 366.439C511.837 370.354 515.027 373.431 518.362 376.118C524.166 380.794 531.01 384.73 538.461 384.997C545.912 385.264 553.9 380.912 555.819 373.713C556.818 369.966 556.114 365.967 554.92 362.277C553.673 358.425 551.713 354.537 548.247 352.441C538.893 346.786 526.776 345.974 516.751 350.331C514.613 351.26 512.516 352.451 511.055 354.267C508.371 357.603 508.372 362.524 510.104 366.439ZM648.114 337.618C652.271 329.962 651.474 319.894 646.164 312.987C645.396 311.988 644.52 311.034 643.401 310.456C642.306 309.89 641.049 309.722 639.818 309.676C633.594 309.446 627.332 312.313 623.442 317.172C619.553 322.032 618.132 328.767 619.726 334.782C620.614 334.363 620.951 333.298 621.2 332.349C621.449 331.4 621.798 330.336 622.692 329.931C623.586 329.527 624.889 330.592 624.292 331.37C622.296 333.969 621.341 337.344 621.679 340.603C622.01 341.316 623.037 340.516 623.322 339.783L624.598 336.496C624.898 335.722 625.235 334.901 625.923 334.438C626.611 333.974 627.755 334.107 628.033 334.888L624.87 341.424C624.462 342.267 624.237 343.588 625.131 343.87L633.953 337.132C635.08 338.41 634.044 340.469 632.672 341.48C632.251 341.79 631.795 342.065 631.339 342.34C630.309 342.961 629.283 343.58 628.679 344.594C631.673 344.95 634.707 344.964 637.705 344.637C639.305 344.462 640.917 344.183 642.378 343.508C644.91 342.339 646.784 340.068 648.114 337.618ZM581.543 434.786C584.761 438.11 589.457 439.495 593.986 440.445C600.703 441.856 608.411 442.375 613.729 438.04C614.82 437.151 615.834 435.712 615.243 434.436C612.744 429.045 611.817 422.938 612.605 417.049C611.499 416.862 610.613 417.889 609.893 418.747C607.169 421.998 603.197 424.331 598.958 424.52C593.069 424.781 587.828 421.083 583.108 417.554C582.75 421.537 581.648 425.451 579.877 429.037C578.934 430.947 580.062 433.256 581.543 434.786ZM436.239 751.002C437.765 751.965 439.713 751.833 441.511 751.666C468.311 749.169 495.935 745.964 519.333 732.672C499.754 739.899 478.884 742.781 458.206 745.617C450.703 746.646 443.067 747.674 435.59 746.469C434.114 747.508 434.712 750.038 436.239 751.002ZM509.039 467.36L509.653 474.874C509.704 475.509 509.763 476.168 510.078 476.723C510.46 477.397 511.16 477.818 511.83 478.208L517.094 481.276C517.347 481.424 517.64 481.577 517.919 481.488C518.254 481.381 518.39 480.99 518.479 480.65L523.266 462.436C518.4 463.685 513.636 465.334 509.039 467.36ZM437.465 561.815C437.912 561.834 438.374 561.849 438.788 561.681C439.908 561.225 440.108 559.754 440.138 558.546C430.836 557.725 421.601 556.147 412.555 553.833C411.218 554.812 411.473 557.033 412.645 558.205C413.817 559.376 415.544 559.76 417.177 560.042C423.871 561.198 430.678 561.532 437.465 561.815ZM481.51 421.683C482.92 422.174 484.24 420.62 484.547 419.16C484.648 418.677 484.698 418.178 484.748 417.679V417.679C484.849 416.67 484.949 415.666 485.477 414.818C486.258 413.564 485.18 411.79 483.746 411.431C482.312 411.071 480.811 411.742 479.633 412.634C477.699 414.097 476.218 416.754 477.332 418.907C478.12 420.431 479.89 421.119 481.51 421.683ZM631.13 382.201C631.003 381.703 630.822 381.204 630.481 380.82C629.474 379.687 627.475 380.1 626.489 381.252C625.502 382.404 625.258 383.997 625.069 385.502C624.832 387.379 624.621 389.26 624.433 391.143C624.384 391.636 624.573 392.354 625.055 392.239C629.291 391.228 632.202 386.418 631.13 382.201ZM571.69 393.487C572.005 393.309 572.306 393.076 572.467 392.752C572.715 392.252 572.582 391.656 572.445 391.115L571.628 387.91C571.307 386.648 570.814 385.194 569.574 384.791C568.19 384.341 566.79 385.545 566.152 386.853C565.209 388.786 565.296 391.347 566.832 392.853C568.083 394.079 570.166 394.351 571.69 393.487ZM633.031 348.096C631.974 347.564 630.728 347.417 629.576 347.687C630.541 348.767 632.174 349.195 633.546 348.727C633.938 348.517 633.538 347.768 633.144 347.976L633.031 348.096ZM645.523 527.968L663.586 523.583C663.899 523.507 664.255 523.436 664.529 523.59C665.241 523.992 664.384 524.916 663.608 525.207C658.687 527.056 653.455 528.245 648.142 528.723C647.165 528.811 645.944 528.759 645.523 527.968ZM494.849 428.42C495.402 428.117 495.608 427.541 495.815 426.962C495.903 426.717 495.992 426.471 496.106 426.244C496.492 425.485 497.876 425.002 498.203 425.784C499.371 428.575 502.558 430.556 505.837 430.53C507.013 430.521 507.49 432.115 506.78 432.968C506.07 433.822 504.783 434.052 503.612 434.146C502.63 432.759 500.937 432.033 499.245 431.308L499.245 431.308C497.53 430.574 495.818 429.841 494.849 428.42ZM524.915 446.397C524.337 446.309 523.946 445.788 523.565 445.279C523.142 444.714 522.73 444.164 522.085 444.24C519.829 444.506 518.447 441.871 517.734 439.697C517.448 438.828 517.726 437.361 518.57 437.699C520.728 440.073 523.716 441.664 526.877 442.124C528.103 442.302 529.678 442.596 529.889 443.825L526.26 445.971C525.846 446.216 525.389 446.47 524.915 446.397ZM514.361 451.937C507.315 454.391 498.502 451.228 495.168 445.048C494.798 444.362 493.517 444.651 493.212 445.364C492.908 446.077 493.259 446.875 493.662 447.545C495.723 450.975 499.341 453.594 503.466 454.643C507.591 455.692 512.17 455.157 515.873 453.193C515.645 452.522 515.079 451.687 514.361 451.937ZM507.483 436.359C508.089 435.552 508.761 434.734 509.689 434.341C510.616 433.948 511.867 434.137 512.369 435.012C510.518 436.679 508.844 438.544 507.387 440.567C506.834 441.335 506.287 442.228 506.437 443.164C506.588 444.099 507.843 444.817 508.512 444.148C509.012 443.649 509.988 444.17 510.029 444.877C510.07 445.584 509.433 446.187 508.745 446.347C508.058 446.507 507.341 446.332 506.662 446.138C505.466 445.795 504.139 445.251 503.731 444.073C503.356 442.992 503.916 441.828 504.495 440.843C505.405 439.293 506.403 437.795 507.483 436.359ZM588.409 379.897C589.834 380.01 591.682 380.962 591.101 382.168C590.094 382.951 588.709 382.687 587.351 382.429C586.948 382.352 586.546 382.276 586.158 382.228C584.507 382.023 582.852 382.39 581.204 382.755C579.385 383.159 577.572 383.561 575.777 383.191C575.291 382.883 575.37 382.148 575.781 381.757C576.192 381.367 576.802 381.23 577.378 381.111C581.006 380.36 584.704 379.605 588.409 379.897ZM610.02 380.895C612.482 381.198 614.998 381.138 617.439 380.717C617.813 379.573 616.066 378.9 614.759 378.774L608.625 378.181C607.3 378.053 605.872 377.943 604.718 378.547C603.564 379.151 602.992 380.777 603.983 381.585C605.374 380.308 607.622 380.593 609.621 380.845C609.755 380.862 609.889 380.879 610.02 380.895ZM612.79 389.871C612.705 390.127 612.368 390.217 612.08 390.254C609.445 390.601 606.67 389.943 604.543 388.466C604.037 388.113 603.532 387.658 603.477 387.075C603.423 386.492 604.105 385.872 604.666 386.146C607.603 387.58 611.459 387.213 614.017 385.258C614.624 384.794 615.648 385.357 615.731 386.081C615.813 386.804 615.239 387.467 614.565 387.845C614.162 388.071 613.72 388.226 613.277 388.38L613.277 388.38C612.98 388.484 612.683 388.588 612.397 388.714C612.275 389.126 612.435 389.597 612.79 389.871ZM604.635 402.127C606.673 400.659 608.536 398.186 607.655 395.849C604.001 400.753 597.645 403.549 591.517 402.949C590.47 402.847 589.562 403.856 589.469 404.893C589.376 405.931 589.896 406.93 590.539 407.755C593.508 411.571 599.313 412.604 603.762 410.654C608.212 408.704 611.231 404.23 612.102 399.492C612.281 398.523 612.358 397.447 611.806 396.628C611.254 395.808 609.841 395.548 609.299 396.374C610.246 397.722 610.216 399.533 609.791 401.119C608.906 404.414 606.406 407.244 603.224 408.551C600.043 409.858 596.252 409.612 593.269 407.906C592.791 407.632 592.302 407.284 592.136 406.763C591.97 406.241 592.326 405.546 592.878 405.575C597.04 405.794 601.266 404.555 604.635 402.127ZM590.946 387.231C588.818 391.862 582.779 392.993 578.119 391.445C576.782 391 576.978 388.696 578.172 387.923C579.367 387.149 580.897 387.434 582.266 387.753C583.636 388.073 585.157 388.379 586.369 387.636C586.844 387.345 587.221 386.919 587.598 386.492C587.921 386.127 588.244 385.761 588.631 385.478C589.469 384.865 590.947 384.936 591.181 385.982C591.276 386.403 591.125 386.841 590.946 387.231ZM594.018 385.858L593.029 394.321C592.954 394.964 592.885 395.645 593.163 396.232C593.585 397.124 594.748 397.522 595.723 397.286C596.697 397.051 597.474 396.305 597.977 395.454C598.49 394.586 598.163 392.949 597.199 393.286C596.941 393.376 596.757 393.601 596.576 393.822C596.358 394.087 596.146 394.347 595.817 394.358C595.054 394.383 595.066 393.24 595.32 392.534C596.376 389.599 596.539 386.361 595.783 383.338C594.634 383.298 594.148 384.739 594.018 385.858ZM522.548 431.076C525.829 432.274 528.786 434.335 531.036 436.992C531.3 437.303 531.562 437.642 531.628 438.043C531.724 438.635 531.299 439.266 530.71 439.402C527.329 435.588 522.649 432.932 517.625 431.976C518.397 430.316 520.821 430.445 522.548 431.076ZM502.004 819.823C501.105 819.748 500.183 819.67 499.42 819.352C499.008 819.179 498.646 818.934 498.284 818.689C497.937 818.455 497.591 818.221 497.201 818.05C496.402 817.7 495.215 817.751 494.849 818.458C497.491 820.848 501.659 821.882 505.361 821.068C504.753 820.054 503.405 819.941 502.004 819.823ZM633.934 772.014L640.583 770.579C641.159 770.455 641.985 770.555 642.019 771.279C639.002 773.869 635.045 774.702 631.507 773.493C631.985 772.502 633.016 772.212 633.934 772.014ZM540.702 610.887C539.371 611.212 538.03 611.54 536.898 612.253C539.433 613.451 542.513 612.66 545.095 611.553C550.9 609.062 555.933 605.03 559.446 600.056C560.807 598.129 561.976 595.754 561.151 593.58C559.831 593.822 559.214 595.202 558.712 596.366C555.754 603.223 549.246 608.662 541.608 610.66C541.308 610.739 541.005 610.813 540.702 610.887ZM654.283 613.932C653.59 614.941 652.008 614.642 650.876 614.144C642.097 610.278 636.237 600.81 636.8 591.4C636.825 590.984 636.88 590.528 637.19 590.244C637.501 589.959 638.142 590.04 638.206 590.451C638.782 594.165 639.368 597.915 640.771 601.411C642.173 604.908 644.483 608.179 647.8 610.065C648.487 610.455 649.219 610.79 649.949 611.124C651.565 611.862 653.175 612.598 654.283 613.932ZM566.067 776.758C563.948 776.189 561.817 775.617 559.674 775.838C563.889 779.337 570.277 780.29 575.425 778.186C575.613 777.361 574.204 777.29 573.338 777.495C570.93 778.064 568.506 777.413 566.067 776.758ZM585.715 591.8C586.569 591.981 587.247 591.116 587.688 590.363C589.538 587.21 590.745 586.061 593.161 583.763L593.321 583.611C593.449 585.362 593.586 586.384 593.723 587.406C593.86 588.428 593.997 589.451 594.125 591.201C594.167 591.769 594.221 592.373 594.571 592.822C595.546 594.077 597.609 592.999 598.438 591.644C600.362 588.501 599.791 584.053 597.135 581.498C596.453 580.842 597.46 579.61 598.388 579.793C599.317 579.975 599.886 580.898 600.282 581.757C601.433 584.251 602.102 587.08 601.492 589.758C600.882 592.436 598.769 594.883 596.049 595.283C595.089 595.424 594.021 595.277 593.321 594.606C592.553 593.869 592.41 592.713 592.312 591.654L591.993 588.204C591.09 588.753 590.511 589.679 589.936 590.6C589.305 591.611 588.678 592.616 587.628 593.11C585.973 593.887 583.859 592.911 583.002 591.297C582.146 589.683 582.361 587.668 583.133 586.012C583.904 584.356 585.167 582.986 586.426 581.662C587.187 580.861 587.999 580.036 589.05 579.695C590.102 579.353 591.457 579.676 591.912 580.683C587.869 581.634 584.712 585.517 584.611 589.667C584.589 590.538 584.862 591.619 585.715 591.8ZM456.456 806.273C456.619 806.502 456.874 806.617 457.121 806.712C461.767 808.486 466.772 806.084 471.21 803.73C471.715 803.462 472.312 802.841 471.974 802.34C471.801 802.084 471.472 802.058 471.187 802.074C469.466 802.167 467.801 802.939 466.157 803.701C463.92 804.738 461.722 805.757 459.469 805.03C459.298 804.974 459.126 804.909 458.954 804.843C458.429 804.642 457.901 804.44 457.36 804.528C456.642 804.645 456.003 805.636 456.456 806.273Z" fill="#00160A"/>
<path fill-rule="evenodd" clip-rule="evenodd" d="M526.905 369.913C527.381 372.926 529.153 375.764 531.781 377.723C532.867 378.532 533.472 379.821 533.353 381.073C533.635 381.68 532.346 381.726 531.76 381.324C528.331 378.975 525.837 375.575 524.806 371.846C524.609 371.134 524.486 370.315 524.976 369.724C525.467 369.134 526.79 369.187 526.905 369.913V369.913Z" fill="#00160A"/>
<path fill-rule="evenodd" clip-rule="evenodd" d="M514.291 406.904C516.431 405.585 518.732 403.891 521.13 404.483C514.301 412.238 503.396 414.274 493.653 412.551C492.842 412.407 491.942 412.176 491.5 411.421C491.059 410.666 491.624 409.349 492.412 409.605C499.64 411.946 507.729 410.948 514.291 406.904V406.904Z" fill="#00160A"/>
<circle cx="491" cy="440" r="4" fill="#FFB61D"/>
<circle cx="521" cy="453" r="4" fill="#FFB61D"/>
<circle cx="583.5" cy="401.5" r="2.5" fill="#FFB61D"/>
<circle cx="616.5" cy="399.5" r="2.5" fill="#FFB61D"/>
<path d="M235.849 98.34V163.37H245.229V98.34H235.849ZM210.299 102.89C200.499 102.89 193.289 111.85 193.289 125.99C193.289 140.27 200.499 149.23 210.299 149.23C220.099 149.23 227.309 140.27 227.309 125.99C227.309 111.85 220.099 102.89 210.299 102.89ZM210.299 111.36C215.129 111.36 218.349 116.47 218.349 125.99C218.349 135.65 215.129 140.83 210.299 140.83C205.469 140.83 202.179 135.65 202.179 125.99C202.179 116.47 205.469 111.36 210.299 111.36ZM302.203 98.48V146.71H311.023V98.48H302.203ZM282.603 115.63V123.12H292.753V115.63H282.603ZM289.533 99.67V145.24H298.213V99.67H289.533ZM267.413 154.69V162.11H312.703V154.69H267.413ZM267.413 141.46V159.59H276.723V141.46H267.413ZM267.203 109.54V113.6C267.203 120.81 263.633 128.16 254.953 131.73L259.643 138.8C270.143 134.74 274.413 124.52 274.413 113.6V109.54H267.203ZM268.953 109.54V113.6C268.953 124.17 272.943 133.76 283.093 137.68L287.643 130.47C279.523 127.25 276.163 120.53 276.163 113.6V109.54H268.953ZM256.983 103.94V111.43H285.613V103.94H256.983ZM384.735 98.34V163.37H394.115V98.34H384.735ZM359.185 102.89C349.385 102.89 342.175 111.85 342.175 125.99C342.175 140.27 349.385 149.23 359.185 149.23C368.985 149.23 376.195 140.27 376.195 125.99C376.195 111.85 368.985 102.89 359.185 102.89ZM359.185 111.36C364.015 111.36 367.235 116.47 367.235 125.99C367.235 135.65 364.015 140.83 359.185 140.83C354.355 140.83 351.065 135.65 351.065 125.99C351.065 116.47 354.355 111.36 359.185 111.36ZM404.68 126.83V134.32H463.34V126.83H404.68ZM429.25 130.12V140.41H438.49V130.12H429.25ZM429.04 143V144.12C429.04 149.09 422.6 154.76 408.46 156.02L411.47 163.02C428.13 161.48 436.95 153.57 436.95 144.12V143H429.04ZM430.72 143V144.12C430.72 153.99 439.68 161.48 456.27 163.02L459.21 156.02C444.86 154.83 438.63 149.44 438.63 144.12V143H430.72ZM434.01 99.11C419.66 99.11 410.56 103.66 410.56 111.36C410.56 119.06 419.66 123.61 434.01 123.61C448.36 123.61 457.46 119.06 457.46 111.36C457.46 103.66 448.36 99.11 434.01 99.11ZM434.01 106.04C442.9 106.04 447.87 107.79 447.87 111.36C447.87 114.79 442.9 116.61 434.01 116.61C425.05 116.61 420.15 114.79 420.15 111.36C420.15 107.79 425.05 106.04 434.01 106.04ZM483.634 103.38V112.83C483.634 124.87 478.664 137.33 467.744 142.44L473.344 149.93C485.594 143.91 491.194 128.86 491.194 112.83V103.38H483.634ZM485.524 103.38V112.83C485.524 128.37 490.634 142.79 502.324 148.74L507.924 141.32C497.564 136.28 492.944 124.45 492.944 112.83V103.38H485.524ZM510.514 98.41V163.23H519.894V98.41H510.514ZM517.794 123.33V131.1H529.274V123.33H517.794ZM575.189 98.48V136.91H584.499V98.48H575.189ZM581.839 113.67V121.37H593.109V113.67H581.839ZM542.289 139.71V162.53H584.499V139.71H542.289ZM575.399 146.99V155.18H551.459V146.99H575.399ZM535.779 127.11V134.67H541.239C554.329 134.67 562.519 134.32 571.619 132.57L570.779 125.22C561.819 126.9 553.979 127.11 541.239 127.11H535.779ZM535.709 101.63V109.05H556.149V114.44H535.779V131.24H545.019V121.37H565.319V101.63H535.709ZM597.933 123.54V130.89H656.593V123.54H597.933ZM605.143 112.76V120.04H649.663V112.76H605.143ZM605.143 99.6V119.06H614.383V107.02H649.103V99.6H605.143ZM604.583 134.53V141.53H640.213V145.1H604.653V157.28H613.823V151.68H649.383V134.53H604.583ZM604.653 155.6V162.74H651.063V155.6H604.653ZM664.988 104.85V112.2H692.918V104.85H664.988ZM673.318 123.4V145.38H682.488V123.4H673.318ZM689.208 104.85V110.1C689.208 116.33 689.208 123.82 687.528 134.18L696.628 135.02C698.378 124.24 698.378 116.4 698.378 110.1V104.85H689.208ZM703.908 98.41V163.23H713.218V98.41H703.908ZM710.488 124.45V132.15H721.898V124.45H710.488ZM662.538 150.14C673.808 150.14 688.368 149.86 701.458 147.62L700.968 140.83C688.228 142.44 673.108 142.65 661.698 142.65L662.538 150.14ZM788.47 98.41V137.47H797.78V98.41H788.47ZM795.19 114.37V122H806.39V114.37H795.19ZM755.64 140.27V162.53H797.78V140.27H755.64ZM788.68 147.62V155.18H764.81V147.62H788.68ZM746.75 104.22V111.57H784.9V104.22H746.75ZM765.86 113.46C756.41 113.46 749.9 118.22 749.9 125.15C749.9 132.15 756.41 136.77 765.86 136.77C775.24 136.77 781.75 132.15 781.75 125.15C781.75 118.22 775.24 113.46 765.86 113.46ZM765.86 120.39C769.99 120.39 772.86 122 772.86 125.15C772.86 128.3 769.99 129.98 765.86 129.98C761.66 129.98 758.86 128.3 758.86 125.15C758.86 122 761.66 120.39 765.86 120.39ZM761.17 97.99V108.21H770.48V97.99H761.17ZM819.055 105.76V106.53C819.055 122.56 817.725 133.83 810.165 145.73L817.305 149.58C825.355 136.7 826.895 122.21 826.895 105.76H819.055ZM812.265 105.76V113.25H824.025V105.76H812.265ZM833.545 105.76V106.6C833.545 122.77 832.845 135.93 824.585 148.81L831.725 152.73C840.405 138.87 841.385 122.7 841.385 105.76H833.545ZM828.855 105.76V113.25H838.795V105.76H828.855ZM858.535 98.41V163.23H867.425V98.41H858.535ZM838.235 122.7V130.19H847.405V122.7H838.235ZM846.005 99.81V160.36H854.685V99.81H846.005ZM128.985 196.41V261.23H137.875V196.41H128.985ZM120.515 221.4V228.82H131.295V221.4H120.515ZM114.495 197.53V258.15H123.175V197.53H114.495ZM84.8854 203.55V241H94.1954V203.55H84.8854ZM84.8854 237.5V245.48H89.3654C95.9454 245.48 103.365 245.13 111.835 243.59L110.925 235.61C102.875 237.15 95.5954 237.5 89.3654 237.5H84.8854ZM188.2 196.34V261.16H197.58V196.34H188.2ZM195.13 221.12V228.75H206.54V221.12H195.13ZM171.19 203.06V204.67C171.19 222.24 163.14 234.14 146.13 242.96L151.31 250.03C172.87 239.18 180.29 222.52 180.29 203.06H171.19ZM149.7 203.06V210.55H175.95V203.06H149.7ZM241.332 237.78V245.06H276.192V261.3H285.502V237.78H241.332ZM276.192 196.41V234.77H285.502V196.41H276.192ZM262.962 211.88V219.37H278.502V211.88H262.962ZM233.912 201.1V231.27H264.572V201.1H233.912ZM255.402 208.45V223.99H243.082V208.45H255.402ZM301.667 201.87V209.36H342.757V201.87H301.667ZM295.717 245.9V253.46H354.307V245.9H295.717ZM316.437 223.64V249.61H325.747V223.64H316.437ZM339.397 201.87V208.1C339.397 215.87 339.397 225.25 336.807 238.13L346.117 239.18C348.707 225.32 348.707 216.22 348.707 208.1V201.87H339.397ZM404.561 196.48V232.32H413.941V196.48H404.561ZM375.231 198.65V204.88C375.231 212.79 370.611 220.91 359.691 224.2L364.241 231.48C376.911 227.63 382.931 216.85 382.931 204.88V198.65H375.231ZM377.121 198.65V204.88C377.121 216.64 382.931 226.72 395.391 230.43L399.871 223.08C389.301 220.07 384.751 212.58 384.751 204.88V198.65H377.121ZM370.121 235.26V242.61H414.221V235.26H370.121ZM369.491 253.18V260.53H414.851V253.18H369.491ZM377.751 237.99V257.52H386.851V237.99H377.751ZM397.491 237.99V257.52H406.661V237.99H397.491ZM424.436 229.45V236.87H483.026V229.45H424.436ZM431.506 252.69V260.11H476.446V252.69H431.506ZM431.506 241.21V255.07H440.816V241.21H431.506ZM453.766 198.3C439.626 198.3 430.316 203.41 430.316 211.67C430.316 219.93 439.626 225.04 453.766 225.04C467.836 225.04 477.216 219.93 477.216 211.67C477.216 203.41 467.836 198.3 453.766 198.3ZM453.766 205.72C462.516 205.72 467.626 207.75 467.626 211.67C467.626 215.66 462.516 217.62 453.766 217.62C445.016 217.62 439.906 215.66 439.906 211.67C439.906 207.75 445.016 205.72 453.766 205.72ZM538.258 197.6C523.978 197.6 514.808 202.43 514.808 210.27C514.808 218.11 523.978 222.87 538.258 222.87C552.538 222.87 561.708 218.11 561.708 210.27C561.708 202.43 552.538 197.6 538.258 197.6ZM538.258 204.81C547.078 204.81 552.118 206.56 552.118 210.27C552.118 213.91 547.078 215.73 538.258 215.73C529.368 215.73 524.398 213.91 524.398 210.27C524.398 206.56 529.368 204.81 538.258 204.81ZM515.718 238.41V260.53H560.518V238.41H515.718ZM551.418 245.76V253.18H524.888V245.76H551.418ZM508.928 226.58V233.93H567.518V226.58H508.928ZM588.512 199.35V205.58C588.512 213.77 583.962 222.17 573.042 225.67L577.592 233.02C590.262 228.96 596.212 217.83 596.212 205.58V199.35H588.512ZM590.402 199.35V205.58C590.402 217.62 596.142 227.98 608.532 231.9L613.082 224.62C602.512 221.4 598.032 213.56 598.032 205.58V199.35H590.402ZM582.982 237.92V245.34H617.842V261.23H627.222V237.92H582.982ZM617.842 196.41V235.05H627.222V196.41H617.842ZM639.607 201.73V233.02H670.477V201.73H639.607ZM661.307 209.08V225.67H648.777V209.08H661.307ZM679.437 196.41V243.66H688.747V196.41H679.437ZM686.087 215.1V222.73H697.357V215.1H686.087ZM646.957 252.69V260.11H691.057V252.69H646.957ZM646.957 239.04V256.4H656.267V239.04H646.957ZM738.029 201.38V210.83C738.029 223.43 732.709 235.89 721.439 240.79L726.969 248.49C739.849 242.54 745.589 227.49 745.589 210.83V201.38H738.029ZM739.849 201.38V210.83C739.849 226.79 745.589 241.21 758.119 246.95L763.579 239.46C752.519 234.7 747.409 222.8 747.409 210.83V201.38H739.849ZM766.659 196.34V261.37H776.039V196.34H766.659ZM812.714 202.64V203.76C812.714 222.1 807.044 234.56 787.094 244.5L791.994 251.71C816.354 239.6 821.674 222.59 821.674 202.64H812.714ZM790.944 202.64V209.99H817.264V202.64H790.944ZM812.574 218.53L787.654 219.93L788.844 227.77L812.574 225.67V218.53ZM831.264 196.41V261.23H840.644V196.41H831.264ZM876.548 218.18V225.74H887.258V218.18H876.548ZM862.688 202.01V212.93C862.688 223.92 859.328 235.47 849.808 241.35L855.408 248.35C865.768 241.98 869.828 227.63 869.828 212.93V202.01H862.688ZM864.718 202.01V212.51C864.718 226.51 867.938 240.51 878.228 246.88L883.268 239.6C874.448 233.86 871.718 223.08 871.718 212.51V202.01H864.718ZM897.828 196.41V261.23H906.718V196.41H897.828ZM884.668 197.39V258.29H893.348V197.39H884.668ZM928.343 229.31V247.51H937.583V229.31H928.343ZM951.863 229.31V247.51H961.173V229.31H951.863ZM915.463 246.18V253.74H974.123V246.18H915.463ZM944.723 199.56C930.723 199.56 920.503 206.42 920.503 216.99C920.503 227.56 930.723 234.35 944.723 234.35C958.653 234.35 968.943 227.56 968.943 216.99C968.943 206.42 958.653 199.56 944.723 199.56ZM944.723 206.84C953.753 206.84 959.773 210.55 959.773 216.99C959.773 223.36 953.753 227.14 944.723 227.14C935.693 227.14 929.673 223.36 929.673 216.99C929.673 210.55 935.693 206.84 944.723 206.84ZM982.692 201.87H995.117L993.437 239.425H984.407L982.692 201.87ZM982.552 243.24H994.837V255H982.552V243.24Z" fill="#634718"/>
</svg>
