<svg width="1080" height="1024" fill="none" xmlns="http://www.w3.org/2000/svg"><path fill="#fff" d="M0 0h1080v1024H0z"/><path d="M34.608 226.62v13.37h9.38v-13.37h-9.38Zm-.07-23.1v1.47c0 6.93-4.55 13.72-14.91 16.45l4.2 7.14c12.32-3.29 18.13-12.74 18.13-23.59v-1.47h-7.42Zm1.96 0v1.47c0 10.57 6.02 19.88 18.34 23.03l4.13-7.14c-10.29-2.66-14.98-9.24-14.98-15.89v-1.47h-7.49Zm-14.91-4.48v7.35h35.49v-7.35h-35.49Zm13.02-7.07v10.29h9.38v-10.29h-9.38Zm28.21-.63v65.03h9.31v-65.03h-9.31Zm-43.4 52.99c11.2-.07 26.46-.21 40.53-2.94l-.7-6.79c-13.65 2.03-29.61 2.17-40.95 2.17l1.12 7.56Zm63.064-3.29v7.63h58.66v-7.63h-58.66Zm24.36-14.42v16.45h9.24v-16.45h-9.24Zm-.35-31.64v4.69c0 8.96-7.91 18.9-22.68 21.28l3.85 7.77c16.94-3.08 26.95-15.26 26.95-29.05v-4.69h-8.12Zm1.82 0v4.69c0 14 10.01 25.9 27.02 29.05l3.85-7.77c-14.84-2.38-22.75-12.11-22.75-21.28v-4.69h-8.12Zm62.505 3.64v1.89c0 6.65-6.86 13.93-21.14 15.68l3.43 7.28c16.45-2.24 25.76-11.55 25.76-22.96v-1.89h-8.05Zm2.66 0v1.89c0 11.41 9.31 20.72 25.83 22.96l3.36-7.28c-14.28-1.75-21.14-9.03-21.14-15.68v-1.89h-8.05Zm-2.17 33.88v23.8h9.24v-23.8h-9.24Zm-24.43-5.32v7.42h58.59v-7.42h-58.59Zm5.18-32.48v7.35h48.09v-7.35h-48.09Zm59.144 28.7v7.42h58.66v-7.42h-58.66Zm25.41 4.69v13.65h9.38v-13.65h-9.38Zm-18.2-33.95v24.08h44.03v-24.08h-44.03Zm34.86 7.28v9.52h-25.76v-9.52h25.76Zm-35.28 46.27v7.42h45.43v-7.42h-45.43Zm0-11.41v13.86h9.24v-13.86h-9.24Zm64.815-42v7.42h41.09v-7.42h-41.09Zm-7.14 23.31v7.42h58.66v-7.42h-58.66Zm42.63-23.31v5.18c0 5.53 0 11.48-2.03 19.88l9.24.14c1.96-8.4 1.96-14.42 1.96-20.02v-5.18h-9.17Zm-35.77 37.52v23.73h44.66V231.8h-44.66Zm35.49 7.21v9.17h-26.39v-9.17h26.39Zm37.024-43.68c-8.61 0-14.84 6.51-14.84 15.89 0 9.31 6.23 15.75 14.84 15.75 8.54 0 14.84-6.44 14.84-15.75 0-9.38-6.3-15.89-14.84-15.89Zm0 7.84c3.71 0 6.44 2.94 6.44 8.05 0 5.04-2.73 8.05-6.44 8.05-3.78 0-6.44-3.01-6.44-8.05 0-5.11 2.66-8.05 6.44-8.05Zm31.36-11.69v38.64h8.82v-38.64h-8.82Zm-7.77 15.61v7.56h10.29v-7.56h-10.29Zm-5.81-14.49v37.24h8.68V192.6h-8.68Zm-22.12 40.39v7.42h35.28v15.82h9.24v-23.24H350.7Zm85.123-23.66v1.68c0 9.94-3.29 20.51-12.53 25.9l5.25 7c10.36-5.95 14.28-19.46 14.28-32.9v-1.68h-7Zm1.82 0v1.68c0 13.23 3.99 25.9 14.49 31.36l5.04-6.86c-9.17-4.9-12.53-14.77-12.53-24.5v-1.68h-7Zm-12.18-7v7.49h29.47v-7.49h-29.47Zm10.36-8.75v14.77h8.82v-14.77h-8.82Zm35.98-2.17v64.82h8.82v-64.82h-8.82Zm-7.77 24.85v7.56h10.78v-7.56h-10.78Zm-6.16-23.87v60.9h8.68v-60.9h-8.68Zm31.004 35.28v7.49h58.73v-7.49h-58.73Zm24.5 4.83v23.8h9.24v-23.8h-9.24Zm4.69-38.92c-13.79 0-23.38 5.74-23.38 14.63 0 8.82 9.59 14.49 23.38 14.49 13.86 0 23.45-5.67 23.45-14.49 0-8.89-9.59-14.63-23.45-14.63Zm0 7.42c8.54 0 13.86 2.52 13.86 7.21 0 4.62-5.32 7.14-13.86 7.14-8.47 0-13.86-2.52-13.86-7.14 0-4.69 5.39-7.21 13.86-7.21Zm79.865-9.59v64.82h9.38v-64.82h-9.38Zm-19.11 6.72v1.68c0 17.36-6.72 29.12-25.34 38.08l4.83 7.42c23.03-11.13 29.75-27.37 29.75-47.18h-9.24Zm-21.91 0v7.35h26.32v-7.35h-26.32Zm125.372-6.72v39.13h9.38v-39.13h-9.38Zm-33.74 41.86v22.26h43.12v-22.26h-43.12Zm33.95 7.35v7.56h-24.85v-7.56h24.85Zm-43.96-43.47v7.35h38.99v-7.35h-38.99Zm19.53 9.31c-9.66 0-16.17 4.62-16.17 11.69 0 7.14 6.51 11.62 16.17 11.62 9.73 0 16.24-4.48 16.24-11.62 0-7.07-6.51-11.69-16.24-11.69Zm0 6.86c4.55 0 7.35 1.54 7.35 4.83 0 3.22-2.8 4.83-7.35 4.83-4.48 0-7.35-1.61-7.35-4.83 0-3.29 2.87-4.83 7.35-4.83Zm-4.69-22.4v11.13h9.38v-11.13h-9.38Zm55.644 30.38v7.42h45.57v-7.42h-45.57Zm-6.79 19.53v7.63h58.66v-7.63h-58.66Zm6.79-44.1v27.65h9.24v-20.09h35.84v-7.56h-45.08Zm73.355-.35v9.45c0 12.6-5.32 25.06-16.59 29.96l5.53 7.7c12.88-5.95 18.62-21 18.62-37.66v-9.45h-7.56Zm1.82 0v9.45c0 15.96 5.74 30.38 18.27 36.12l5.46-7.49c-11.06-4.76-16.17-16.66-16.17-28.63v-9.45h-7.56Zm26.81-5.04v65.03h9.38v-65.03h-9.38Zm61.384 0v65.03h9.38v-65.03h-9.38Zm7.28 24.01v7.63h11.48v-7.63h-11.48Zm-46.2 17.71v7.7h5.46c11.27 0 20.16-.28 29.96-2.03l-.91-7.7c-9.52 1.68-18.13 2.03-29.05 2.03h-5.46Zm0-35.7v39.41h9.24v-31.92h21v-7.49h-30.24Zm68.595-2.17v7.35h40.67v-7.35h-40.67Zm-6.65 27.58v7.49h58.59v-7.49h-58.59Zm24.29 5.25v28.28h9.38v-28.28h-9.38Zm18.27-32.83v5.74c0 6.72 0 14.42-2.52 25.27l9.17 1.05c2.52-11.48 2.52-19.32 2.52-26.32v-5.74h-9.17Zm34.715 29.12v18.2h9.24v-18.2h-9.24Zm23.52 0v18.2h9.313v-18.2h-9.313Zm-36.4 16.87v7.56h58.663v-7.56h-58.663Zm29.26-46.62c-14 0-24.22 6.86-24.22 17.43s10.22 17.36 24.22 17.36c13.933 0 24.223-6.79 24.223-17.36s-10.29-17.43-24.223-17.43Zm0 7.28c9.03 0 15.053 3.71 15.053 10.15 0 6.37-6.023 10.15-15.053 10.15-9.03 0-15.05-3.78-15.05-10.15 0-6.44 6.02-10.15 15.05-10.15Zm35.663 18.9c-.54-1.283-.94-2.52-1.19-3.71a18.52 18.52 0 0 1-.35-3.605c0-3.477.85-6.51 2.55-9.1 1.73-2.59 4.08-4.597 7.07-6.02 2.99-1.447 6.39-2.17 10.22-2.17 4.06 0 7.56.747 10.5 2.24 2.96 1.493 5.24 3.523 6.83 6.09 1.61 2.567 2.41 5.46 2.41 8.68 0 2.263-.36 4.212-1.08 5.845-.7 1.633-1.63 3.033-2.77 4.2a24.473 24.473 0 0 1-3.57 3.08c-1.26.863-2.46 1.68-3.6 2.45-1.12.747-2.05 1.528-2.77 2.345-.7.817-1.05 1.75-1.05 2.8v1.505h-10.81v-1.68c0-2.053.33-3.792 1.01-5.215.7-1.423 1.59-2.66 2.66-3.71a22.522 22.522 0 0 1 3.43-2.765 72.767 72.767 0 0 0 3.43-2.45c1.1-.817 1.98-1.715 2.66-2.695.7-1.003 1.05-2.193 1.05-3.57 0-1.307-.33-2.508-.98-3.605-.65-1.097-1.61-1.972-2.87-2.625-1.24-.677-2.75-1.015-4.55-1.015-1.66 0-3.14.303-4.44.91-1.31.583-2.35 1.435-3.12 2.555-.75 1.12-1.12 2.45-1.12 3.99 0 .56.06 1.12.18 1.68.14.56.33 1.155.59 1.785l-10.32 3.78Zm11.62 18.41h12.32V250h-12.32v-10.85Z" fill="#634718"/><path fill="#fff" d="M165 274h750v750H165z"/><path fill-rule="evenodd" clip-rule="evenodd" d="M875.503 830.231c-22.472 40.146-196.228-39.636-278.144-21.756-69.102 15.082-202.655 155.213-241.841 127.895-39.188-27.319 56.925-164.055 27.439-242.703-28.554-76.164-200.067-189.887-175.858-228.049 24.21-38.161 172.443 33.302 252.743 12.69 74.476-19.121 215.824-144.126 253.274-118.791 37.452 25.332-37.325 156.967-7.178 235.846 31.103 81.381 192.037 194.722 169.565 234.868Z" fill="#64FCD9"/><path fill-rule="evenodd" clip-rule="evenodd" d="M728.489 489.644c0-.163 0-.327-.082-.49-2.098 0-4.112 0-6.128.081-.527.218-1.07.4-1.613.581-.864.29-1.728.579-2.525 1.012-4.671 2.541-7.057 7.601-8.754 12.382-.834-.061-1.272-.099-1.166-.147-3.948-7.198-16.263-12.898-22.538-5.229-4.439 5.425-5.665 12.624-4.177 19.377.416.657 2.216 1.374 4.091 2.121 2.52 1.005 5.176 2.063 4.782 3.101-1.331 3.504-4.083 5.85-6.757 8.129l-.001.001c-.923.787-1.838 1.566-2.681 2.383-.785.759-1.817 1.622-2.896 2.523-1.788 1.493-3.704 3.093-4.834 4.511-5.105 6.423-10.74 13.592-12.946 22.688a57.332 57.332 0 0 1-.609 2.259c-.787 2.776-1.558 5.494-.711 8.267.243.797-.209 1.804-.66 2.808-.488 1.086-.975 2.169-.576 2.977 3.707 7.506 12.544 7.79 19.457 7.708 1.219-.014 2.444-.04 3.672-.067 6.379-.138 12.843-.278 19.07 1.291 1.98.501 2.173 3.105 2.134 4.679-.119 4.67-.388 6.603-.715 8.961a104.424 104.424 0 0 0-.772 7.032c-.026.314 13.449-.257 26.664-4.517 11.576-2.021 24.19-12.464 24.928-13.076l.032-.026c.873-.717 2.059-3.056 2.379-4.097 2.582-8.435 3.524-17.305 3.661-26.1.284-18.153-3.311-36.243-9.596-53.228-2.507-6.783-7.831-12.126-13.783-16.006-1.817-1.183-4.079-2.411-6.35-1.889Zm-1.271 114.422c10.094-3.254 20.036-8.659 23.695-17.467 4.778-11.502-2.338-29.304-8.616-45.013-4.262-10.664-8.139-20.364-7.647-26.472.805-10.029-19.145-11.464-24.907-11.878l-.356-.026-.038.108c-.056.16-.122.334-.191.52-.627 1.676-1.602 4.286.354 5.458-1.065 1.989.249 4.335 1.363 5.919.522.74-.049 6.826-.857 15.454-1.893 20.193-5.09 54.306 1.354 66.364 3.608 6.751 9.575 8.128 15.846 7.033Zm-297.283 73.807h.001c.852.275 1.438.463 1.609.468 6.311.187 19.369-.275 25.637-1.066 1.742-.221 3.452-.628 5.164-1.034 1.205-.287 2.411-.574 3.628-.795 3.184-.583 6.547-1.888 9.511-3.966 4.145-2.905 4.449-5.245-1.009-8.154-2.424-1.29-3.899-1.197-5.842-1.075-.86.054-1.813.113-2.98.061-4.145-.182-7.288.149-10.323.468-3.735.392-7.307.768-12.382.15a134.52 134.52 0 0 0-2.969-.314c-4.79-.473-10.297-1.016-14.38-3.599-6.367-4.028-10.658-7.673-13.07-11.072-3.5-4.932.116-4.124 3.458-3.378 2.054.459 4.005.894 4.134-.041.189-1.366.584-1.931.984-2.502.398-.568.8-1.143 1.007-2.514.47-3.115.13-7.598-.608-10.644-1.231-5.06-3.307-9.804-5.384-14.549-1.885-4.305-3.77-8.611-5.023-13.154-1.275-4.617-.405-10.605 4.102-13.226 3.381-1.965 7.255-.917 10.85.057 1.12.303 2.213.599 3.256.794 4.838.91 15.741-2.29 19.107-5.294 1.739-1.55 1.439-3.042 1.101-4.726-.312-1.552-.656-3.266.53-5.338.396-.692 1.854-.845 3.243-.99 1.574-.164 3.059-.319 2.81-1.239-5.899-21.824-9.769-29.814-22.143-40.582-1.241-1.079-3.784-2.021-6.247-2.933-2.077-.77-4.099-1.518-5.238-2.312-.981-.682-1.06-1.799-1.149-3.043-.062-.878-.129-1.82-.521-2.715-.518-1.182 1.274-3.824 2.72-5.957.856-1.262 1.591-2.346 1.653-2.842.67-5.333-1.111-10.892-4.811-13.869-4.998-4.027-8.56-3.8-13.894-.03-.587.415-1.039 1.061-1.497 1.714-.759 1.083-1.53 2.184-2.945 2.278-.391.025-.79-.433-1.077-.763l-.001-.001c-.082-.094-.155-.178-.216-.237a35.384 35.384 0 0 1-.699-.698c-.583-.592-1.167-1.184-1.841-1.665-3.981-2.833-7.543-2.404-12.145-.762-11.626 4.142-17.414 14.887-21.48 25.446-3.368 8.752-4.394 17.852-5.431 27.051-.663 5.878-1.33 11.796-2.616 17.69-.975 4.472-1.751 10.248-2.632 16.804v.001c-1.385 10.311-3.029 22.548-6.115 34.662-7.98 31.33-20.68 63.639-26.042 73.374-3.333 6.05-10.517 19.841-11.292 24.991-1.722 11.413-2.892 15.424-8.132 23.087-5.967 8.73-17.027 11.378-27.074 13.783-3.61.864-7.09 1.697-10.155 2.77-2.66.931-5.873 1.37-9.14 1.815-5.227.714-10.591 1.446-14.046 4.244-2.833 2.295-4.425 5.663-5.956 8.903l-.001.003c-.276.583-.55 1.163-.829 1.732-.161.327-.321.634-.474.929h-.001c-.817 1.57-1.45 2.785-1.024 4.865-.202.036-.404.075-.606.196 0 2.536 0 4.99.082 7.444.703 1.046.819 1.685.946 2.388.102.563.211 1.167.636 2.055 1.802 3.757 3.437 6.479 6.687 9.182 3.81 3.167 9.343 6.22 13.769 8.372 16.619 8.082 37.198 17.685 55.442 8.465 5.056-2.559 7.841-5.117 11.427-9.456 1.503-1.822 2.68-4.626 3.444-6.822.036-.101.057-.292.082-.517.058-.527.137-1.239.464-1.407.785-.397 1.268-.151 1.795.117.321.163.658.334 1.088.374 3.648.334 7.311.523 10.975.615 10.813.27 19.683.045 30.17-.221h.005c.949-.025 1.911-.049 2.888-.073l3.688-.091c11.434-.277 25.196-.61 36.027-1.536 2.796-.239 5.245-1.465 7.696-2.691 2.339-1.171 4.679-2.342 7.325-2.658 2.269-.272 4.576-.373 6.887-.475 4.544-.199 9.106-.4 13.436-1.894 2.624-.904 3.633-3.828 4.455-6.213l.219-.629c.369-1.05.827-2.385-.281-3.308.938-3.497-2.206-6.501-4.403-8.566-3.575-3.36-8.55-4.751-13.26-5.48-2.091-.325-4.214-.386-6.333-.448-.335-.009-.67-.019-1.004-.03-1.561-.051-3.121-.032-4.682-.013h-.002c-.857.01-1.715.021-2.572.02-.867-.002-1.733.001-2.6.004-2.039.007-4.078.014-6.117-.044h-.02c-.222-.006-.544-.016-.607-.222-.089-.291.098-.632.297-.861.652-.741 1.367-1.425 2.081-2.108.776-.741 1.552-1.483 2.246-2.299a43.834 43.834 0 0 0 6.554-10.395c7.036-15.614 4.7-33.429 1.34-49.629-.098-.469-.759-1.806-1.658-3.627-2.657-5.375-7.395-14.964-5.86-18.858 1.5-3.804 10.428-.93 14.183.278Zm358.46 135.858c7.423 5.906 16.639 8.936 25.807 10.798h12.339c1.661-.337 3.118-.598 4.491-.845l.009-.001.004-.001.004-.001.008-.001.012-.002h.002l.001-.001c3.089-.553 5.765-1.032 9.434-2.132 12.123-3.635 23.853-9.198 33.472-17.551 1.621-1.41 6.651-7.195 7.713-9.083 1.465-2.598 2.599-5.382 3.622-8.186.125-.342.078-.777.031-1.223-.082-.761-.167-1.552.6-1.954.081-2.647.081-5.209 0-7.771-.304-.887-.543-1.616-.749-2.241-.907-2.761-1.155-3.514-3.353-7.048-5.429-8.74-15.626-13.258-25.399-15.058-2.532-.468-5.153-.821-7.802-1.177-8.261-1.113-16.789-2.261-23.712-7.045-6.274-4.334-6.965-12.784-7.534-19.743l-.026-.308c-.031-.381.022-1.271.091-2.448l.001-.011V720.687c.161-2.714.41-6.938-.055-9.978a29.012 29.012 0 0 0 1.251-.316c3.095-.913 5.661-4.348 4.596-7.643-.866-2.67-3.678-3.657-6.138-4.521-.57-.2-1.121-.393-1.625-.6l-1.182-.481c-4.317-1.757-5.872-2.39-10.241-5.294-6.01-3.991-9.809-8.777-13.768-13.766-3.454-4.352-7.031-8.859-12.304-13.126-12.618-10.212-19.631-33.097-24.425-48.74l-.045-.149c-.679-2.215-1.09-4.101-1.517-6.068l-.001-.002c-.278-1.28-.565-2.595-.937-4.057-.256-1.006-.471-2.204-.684-3.387-.559-3.114-1.101-6.129-2.313-5.28-3.638 2.549-7.37 4.639-11.495 6.295-4.742 1.905-7.308 2.561-11.111 3.534-1.194.305-2.509.641-4.051 1.057l-.939.251-.879.235c-10.49 2.795-22.872 6.095-27.624 16.92a26.678 26.678 0 0 0-1.588 4.849c-.765 3.413 1.196 19.671 1.928 19.105.095-.075 8.916 1.355 8.334 3.455-.835 3.021-5.022 4.968-6.534 5.671h-.001c-.202.095-.357.167-.449.216-1.201.637-2.584 1.124-3.836 1.565-2.026.713-3.712 1.307-3.747 2.227-.15 4.034-.919 6.444-1.699 8.886v.002l-.001.001v.001a57.042 57.042 0 0 0-.797 2.651c-1.174 1.293-1.883 3.111-.761 3.959-.014.121.059.159.206.134.169.093.368.169.601.225 3.032-1.4 6.323-1.488 9.609-1.313.329.377.642.791.941 1.188l.002.002.001.001v.001l.001.001c.438.58.849 1.125 1.244 1.467-2.82.773-3.477 5.179-3.952 8.356-.125.841-.238 1.596-.374 2.174-2.537 10.703-6.217 21.206-11.946 30.639-.39.641-.947 1.387-1.557 2.206-2.412 3.234-5.667 7.6-2.813 11.088 2.036 2.49 5.432 3.272 8.396 3.874.205.041.975-.043 2.236-.236.912 3.134 3.046 6.347 4.491 7.558-.477 1.911.529 3.766 1.414 5.399l.005.01.127.235.156.292c.404.757 1.749 2.418 3.327 4.366 3.398 4.194 7.876 9.721 6.354 10.436-2.908 1.37-9.364 1.853-15.999 2.35h-.001c-7.105.532-14.418 1.079-17.805 2.748-3.428 1.688-7.497 3.694-9.03 7.532-1.196 2.997.735 6.239 3.186 7.892 4.099 2.764 8.446 5.539 13.365 6.583.595.127 1.973-.096 3.704-.375 3.135-.505 7.43-1.198 10.334-.342 1.649.487 2.471 1.794 3.311 3.133.938 1.493 1.901 3.025 4.065 3.499 4.847 1.064 12.62 1.761 17.558 2.039 13.306.749 28.37 1.456 41.702.942 2.92-.111 5.821-.53 8.722-.949 4.08-.589 8.16-1.178 12.294-.913 1.586.103 2.353 1.574 3.029 2.871l.001.001.001.001c.208.399.407.782.619 1.103 2.697 4.067 4.19 6.289 8.047 9.354Zm-102.977-75.765c-.374-1.284-.542-2.556-.373-3.671 1.034-6.822 104.612-23.282 125.778-26.645 2.315-.368 3.644-.579 3.745-.604 1.657-.405 2.471 1.259 2.838 3.663-13.19 3.133-115.338 24.709-131.988 27.257Zm7.821-60.761c.838.044 1.676.106 2.509.167 1.414.104 2.815.207 4.181.223 6.253.072 2.383-4.103-5.02-4.256-1.324-.028-2.646-.16-3.967-.291-1.637-.163-3.273-.326-4.913-.292-.77.016-1.701.624-2.445 1.444a27.866 27.866 0 0 0-.761 3.958v.001c.063.048.131.092.206.134.258-.044.742-.278 1.38-.588 1.616-.782 4.221-2.043 6.65-1.906.808.047 1.526.654 2.18 1.406Zm-184.02 106.091c-.048-.233.177-.204.475-.166.776.1 2.055.265.355-3.95-1.089-2.703-5.115-6.229-8.75-9.413-3.097-2.712-5.91-5.176-6.38-6.669-1.801-5.736-4.605-15.11-5.889-20.698-.809-3.529-.966-7.114-1.11-10.396-.282-6.435-.513-11.704-5.509-13.09-15.94-4.431-15.587-18.346-15.587-18.346s-6.537-14.511 21.869-14.328c8.821.059 19.427-1.437 24.85-7.542 3.745-4.218 2.418-13.219 2.418-13.219s-28.605-23.152-2.846-47.041c1.483-1.377 19.973-18.977 24.261-23.587.681-.734-1.341-2.481-4.064-4.836-3.434-2.969-7.984-6.903-9.641-10.987-3.922-9.666-3.232-16.658-2.451-18.935.065-.187.158-.439.273-.746l.001-.003v-.001c1.105-2.964 4.124-11.061 1.252-16.271-6.085-11.039-7.791-28.767 4.583-39.237 5.638-4.77 12.975-.144 17.796 6.367 2.339 3.157 2.3 4.116 2.279 4.651-.017.423-.023.582 1.163 1.35.616.401 1.898-.449 3.789-1.701 6.839-4.533 21.637-14.341 41.674 10.715.763.955 1.498-.964 2.59-3.813 2.499-6.524 6.866-17.924 17.713-10.894 10.082 6.53 2.734 20.931-1.516 29.261-1.261 2.472-2.25 4.41-2.429 5.448-.372 2.165-1.819 2.972-3.167 3.724-1.782.993-3.393 1.892-2.124 5.709 2.703 8.131 1.16 24.438-2.193 29.922-3.15 5.153-4.925 7.428-5.828 8.586-.573.734-.795 1.019-.795 1.304 0 .181.089.361.235.657.077.157.171.347.276.587 1.477 3.372 3.85 5.782 6.713 8.689 4.103 4.165 9.21 9.351 14.126 19.849 6.796 14.509 4.237 18.491 1.757 22.35-1.375 2.14-2.725 4.242-2.443 8.079.255 3.474-3.625 6.799-7.506 10.125-3.774 3.235-7.55 6.471-7.522 9.844.046 6.07 6.749 12.777 6.749 12.777 3.148-2.091 57.06 3.269 54.144 17.482-1.484 7.228-5.151 12.067-16.263 16.51-5.091 2.036-12.329 2.62-18.101 3.085-5.386.435-9.494.766-9.383 2.078.837 9.937 1.461 20.457.755 24.53-1.875 10.824-6.399 15.063-9.848 18.295-1.24 1.162-2.342 2.194-3.131 3.356-2.941 4.323-.369 4.923-.048 4.997.019.005.03.007.032.009 2.497 1.701 4.755 4.94 3.49 8.088-.67 1.669-2.127 3.014-3.654 3.868-5.68 3.177-12.227 4.377-18.587 5.225-16.447 2.189-37.096-1.257-53.445-4.116-2.208-.386-4.944-.445-7.798-.507-7.703-.166-16.263-.35-17.61-7.025Zm174.189-118.069c.138 6.003.299 13.07-5.808 15.827a31.973 31.973 0 0 1-4.955 1.77c-2.419.644-5.501 1.122-7.671-.569-2.605.831-5.363-2.055-4.471-4.624.341-.987.78-1.288 1.245-1.607.408-.28.836-.573 1.236-1.354.529-1.03.843-2.169 1.094-3.298.252-1.132.419-2.294.399-3.452-.039-2.316-.114-4.653-.572-6.92-.195-.963-.624-1.974-1.064-3.01-.97-2.284-1.993-4.692-.678-6.992.762-1.335 2.334-1.721 3.684-1.928 5.059-.765 10.818-.592 14.953 2.87 2.017 1.689 2.167 4.334 2.309 6.833.055.982.11 1.942.276 2.813-.034 1.129-.006 2.359.023 3.637v.004Zm-46.434.612c0-1.351.013-3.21.8-4.417.803-1.229 1.438-.957 2.732-.402l.294.125.217.091c.876.359 9.354 1.613 12.844 1.325.376-.031.821-.095 1.307-.166 2.565-.37 6.278-.907 7.08 2.443.546 2.277.288 7.781-1.549 9.103-2.128 1.528-4.722.895-7.288.268a47.09 47.09 0 0 0-1.622-.376c-1.115-.232-2.262-.406-3.402-.578-5.131-.778-10.119-1.534-11.413-7.416Zm16.703-14.6c-.472-1.737-1.132-4.169-3.303-4.05-2.236-.743-4.666-1.343-7.067-1.382.294-.752.551-1.495.764-2.11l.001-.001c.071-.204.136-.393.197-.564.231-.65.41-1.319.588-1.987v-.001a27.04 27.04 0 0 1 .543-1.857c.19-.556.429-1.107.67-1.663.571-1.314 1.15-2.648 1.104-4.102-.039-1.266-.225-2.833-1.35-3.658-.395-.288-1.395-.775-1.735-.065-.659 1.374-.795 2.89-.93 4.392a28.146 28.146 0 0 1-.221 1.955 6.499 6.499 0 0 1-.117 1.836c-.196.884-1.112.922-1.901.955-.306.013-.594.025-.812.085-1.026.285-1.546.844-2.026 1.8-.997 1.977-.982 4.382-.403 6.201-3.564 1.84-7.575 6.84-4.588 10.8.582.769 1.216 1.508 1.958 2.127.8.669 12.062-2.923 17.094-4.528 1.215-.388 2.067-.66 2.32-.727.153-.039.202-.288.17-.442-.101-.483-.274-.948-.446-1.412l-.052-.141-.06-.162a13.532 13.532 0 0 1-.148-.428c-.083-.253-.163-.55-.25-.871Zm-15.998-4.216.086-.043c1.755-.883 3.639-1.204 5.542-1.173-.657 1.68-1.497 3.401-2.424 3.813-1.345.598-2.591-.67-3.204-2.597Zm-159.549 5.074c1.667 1.387 4.458 5.065 1.738 6.819-1.414.91-1.963-.385-2.543-1.754-.482-1.137-.986-2.325-2.026-2.346-3.491-.071-6.984-.074-10.477-.077-2.134-.002-4.269-.004-6.404-.021-.321-.003-.968-.01-1.173-.38-.17-.307.121-.958.3-1.178l.294-.357c2.106-2.561 4.31-5.242 7.302-6.811a6.824 6.824 0 0 1 1.689-.622c-.032.561-.008 1.054.145 1.371.218.457.723.222 1.095.05.054-.025.105-.049.152-.069.046-.02.088-.036.125-.047.063-.017.152-.022.251-.028h.001c.299-.019.686-.043.673-.407a44.22 44.22 0 0 1-.022-.97 8.687 8.687 0 0 1 1.734.417c.028.364.091.657.22.792a3.055 3.055 0 0 0 1.111.726c.351.129.655-.069.909-.438 1.761 1.085 3.315 2.601 4.451 4.103.14.187.196.417.251.648.049.202.098.405.204.579Zm-4.906-5.33c.653-.95.969-3.033.882-3.596-.078-.523-.379-1.453-.611-1.924a21.138 21.138 0 0 0-.977-1.763c-.285-.452-.994-.37-1.278.032-.185.262-.073.557.031.834.047.125.093.247.109.361.059.413-.077.79-.214 1.168-.123.342-.247.685-.227 1.057.072.234.058.761.041 1.341v.001c-.013.477-.027.99.004 1.409.772.268 1.523.638 2.24 1.08Zm-3.974-1.497c-.021-1.578.013-3.581.044-5.367v-.002c.017-.966.032-1.867.037-2.603.005-.71.14-1.437.277-2.168.249-1.33.5-2.674-.032-3.96-.484-1.168-2.101-.386-2.726.019-1.467.962-1.745 3.017-1.14 4.548.212.699.236 1.327.26 1.957.023.601.047 1.204.233 1.871.099.356.268.688.436 1.02.177.35.354.699.45 1.074.122.484.013 1.338-.102 2.23-.064.502-.13 1.015-.157 1.481a6.974 6.974 0 0 1 2.42-.1Z" fill="#fff"/><path fill-rule="evenodd" clip-rule="evenodd" d="M588.037 647.142c2.515-.902 5.516-.268 7.448 1.572a121.211 121.211 0 0 1-21.164 6.564c-1.693.359-3.434.698-4.908 1.601-.906.555-1.702 1.317-2.708 1.659.908-3.409 3.32-6.392 6.47-7.998 2.995-1.528 6.023-3.079 8.555-5.289 2.531-2.209 4.553-5.183 4.932-8.517 1.864.66 2.892 2.765 2.908 4.737.017 1.972-.765 3.854-1.533 5.671Z" fill="#00160A"/><path fill-rule="evenodd" clip-rule="evenodd" d="M613.31 655.349c3.412-4.301 6.245-9.381 6.366-14.864.14-6.337-3.304-12.133-6.635-17.532l-18.362-29.761c7.171 3.277 12.424 9.613 16.973 16.039 4.95 6.993 9.454 14.513 11.347 22.861 1.892 8.348.858 17.699-4.417 24.451-1.65 2.113-3.66 3.917-5.658 5.708l-4.83 4.328c-1.623 1.455-3.25 2.914-5.017 4.192-5.869 4.245-13.251 6.363-20.485 5.878l.23-4.263c11.984-.689 23.04-7.65 30.488-17.037ZM530.501 636.418c1.931 6.145 5.916 11.63 11.169 15.376 2.458 1.751 5.346 3.323 6.486 6.112-2.293.138-4.506-.787-6.586-1.759-3.95-1.846-7.924-4.048-10.472-7.578-2.548-3.529-3.266-8.712-.597-12.151ZM524.828 748.618c1.637-.736 3.549.452 4.554 1.936 1.005 1.483 1.503 3.278 2.609 4.688.661-1.591-.202-3.35-.708-4.996-.507-1.646-.341-3.924 1.298-4.465l9.42 17.78c.489.922.991 1.902.944 2.944-.047 1.042-.873 2.126-1.917 2.056-.643-.043-1.177-.49-1.657-.919a103.225 103.225 0 0 1-14.791-16.39c-.396-.548-.807-1.224-.568-1.857.136-.36.465-.618.816-.777ZM613.671 765.683c2.832-4.657 3.283-10.327 3.596-15.764.133-2.308.254-4.617.363-6.927 3.243 5.297 4.297 11.881 2.871 17.92-1.426 6.04-5.317 11.464-10.589 14.761-1.395.873-2.942 1.657-3.834 3.038-.893 1.382-.737 3.602.77 4.266.785-.462.328-1.954-.582-1.899.36-.692 1.335-.871 2.052-.563.718.308 1.215.97 1.606 1.644a11.281 11.281 0 0 1 1.145 8.429 11.314 11.314 0 0 1-5.134 6.793c-1.226.724-2.68 1.219-4.072.913-1.391-.305-2.616-1.626-2.42-3.033.157-1.122 1.091-1.945 1.729-2.881 1.09-1.599 1.333-3.738.631-5.539-.703-1.802-2.332-3.215-4.218-3.66-2.224-.524-4.518.241-6.779.568-7.345 1.061-14.555-2.549-20.601-6.84.584-2.163 3.044-3.396 5.288-3.287 2.244.109 4.296 1.248 6.19 2.451-.491.739-.184 1.798.472 2.396.656.598 1.564.83 2.443.966 5.127.793 10.287-.996 15.024-3.106 5.457-2.429 10.95-5.551 14.049-10.646ZM564.725 642.853c2.459 2.313 2.696 6.227 1.672 9.44-.915 2.869-2.954 5.634-5.892 6.327-1.052.248-2.147.216-3.227.177-1.969-.071-4.072-.208-5.641-1.396-.926-.701-1.57-1.704-2.137-2.716a30.65 30.65 0 0 1-2.106-4.622c-.507-1.41-.914-2.887-.858-4.385.057-1.497.631-3.031 1.798-3.975s2.973-1.151 4.179-.257c1.205.895 1.44 2.929.3 3.907a9.733 9.733 0 0 0 7.35-.451c-.941-.909-.256-2.697.983-3.124 1.238-.427 2.625.179 3.579 1.075m-2.174 6.16a22.668 22.668 0 0 1-8.76 1.09 5.057 5.057 0 0 1-.957-.14c-.592 1.809.418 3.937 2.119 4.8 1.701.863 3.889.507 5.367-.698 1.477-1.205 2.253-3.149 2.231-5.052Z" fill="#00160A"/><path fill-rule="evenodd" clip-rule="evenodd" d="M583.614 791.079c.167-.794.527-1.559 1.102-2.132a3.49 3.49 0 0 1 1.467-.867c.124-.037.259-.065.379-.017s.198.163.265.273c1.532 2.527 1.026 6.098-1.147 8.104-1.638-1.194-2.48-3.38-2.066-5.361ZM575.931 582.347c-6.248 3.787-13.846 5.308-21.075 4.217-2.593-.391-5.184-1.129-7.356-2.595-2.171-1.466-3.888-3.738-4.254-6.327 2.889.444 5.411 2.137 8.155 3.139 5.866 2.14 12.544.979 18.136-1.797 5.591-2.775 10.289-7.029 14.82-11.316.631 2.944-.192 6.079-1.826 8.61-1.634 2.53-4.021 4.505-6.6 6.069ZM556.217 629.377a15.65 15.65 0 0 0 .957 6.81c.62 1.636 1.529 3.231 1.551 4.98.012.914-.354 1.969-1.229 2.241-.607.189-1.282-.075-1.745-.508-.464-.433-.757-1.012-1.037-1.58-1.017-2.063-2.002-4.238-1.993-6.537.008-2.299 1.286-4.752 3.496-5.406ZM527.848 793.704c-.874 1.752-3.052 2.703-4.965 2.265-1.912-.438-3.426-2.16-3.729-4.093-.303-1.934.561-3.976 2.087-5.207a6.079 6.079 0 0 1 2.341-1.164c1.877-.466 3.887-.006 5.616.859l-.696 4.783c-.127.874-.259 1.766-.654 2.557ZM595.817 796.55c-.088.103.103.309-.015.378-.703.41-1.645.126-2.236-.433a2.946 2.946 0 0 1-.846-2.679c.126-.619.453-1.18.829-1.689a8.796 8.796 0 0 1 2.069-2.001c1.629 1.694 1.721 4.633.199 6.424Z" fill="#00160A"/><path fill-rule="evenodd" clip-rule="evenodd" d="M525.524 777.83c1.775-.119 3.544-.425 5.32-.338 1.777.086 3.621.624 4.833 1.922-7.342 3.128-15.737 3.735-23.454 1.695-1.002-.264-2.073.341-2.661 1.192-.588.85-.798 1.898-.978 2.916-.303 1.704-.556 3.499.02 5.131.576 1.632 2.255 3.009 3.953 2.652-.024-1.179.02-2.388.453-3.485.433-1.098 1.32-2.078 2.473-2.341 1.153-.263 2.523.386 2.812 1.529.495 1.956-2.059 4.173-.786 5.741.447.552-.12 1.343-.692 1.765-4.207 3.099-10.811 2.246-14.086-1.82-3.275-4.066-2.686-10.68 1.256-14.107.744-.647.743-1.85.282-2.72-.461-.87-1.27-1.492-2.035-2.114-9.899-8.038-15.923-20.62-15.978-33.349-.004-1.077.077-2.268.839-3.031.761-.764 2.411-.579 2.57.486 1.42 9.504 4.577 18.98 10.702 26.399 6.124 7.418 15.542 12.517 25.157 11.877ZM570.677 561.783c.002 1.153-.478 2.249-1.002 3.276-1.142 2.238-2.585 4.395-4.63 5.858-2.046 1.463-4.786 2.136-7.143 1.252-1.959-.734-3.428-2.442-4.306-4.337-.877-1.895-1.232-3.983-1.54-6.048-.128-.859-.248-1.746-.035-2.589.214-.842.843-1.639 1.703-1.786.97-.165 1.856.501 2.706.997 3.268 1.909 7.342 1.552 11.094 1.036.679-.093 1.406-.182 2.017.127.781.395 1.134 1.342 1.136 2.214m-4.71 2.422a42.197 42.197 0 0 0-7.247-1.069c-.64-.038-1.287-.061-1.917.06.989 1.949 2.922 3.395 5.076 3.796 1.688-.192 3.076-1.427 4.088-2.787ZM539.28 538.788a202.259 202.259 0 0 1 7.897 8.641c.457.531.209 1.431-.376 1.816-.586.384-1.37.337-2.022.078-.651-.26-1.207-.704-1.783-1.104-1.192-.826-2.502-1.479-3.657-2.356-1.156-.878-2.179-2.042-2.48-3.459-.302-1.416.311-3.089 1.648-3.655.253-.107.582-.158.773.039ZM589.66 545.206a18.13 18.13 0 0 1-5.084 3.155c-.794.328-1.624.604-2.483.647-.858.043-1.756-.169-2.41-.725-.654-.557-1.013-1.491-.755-2.308.258-.818 1.205-1.397 2.022-1.131.85.278 1.796-.008 2.546-.494.749-.486 1.356-1.157 2.02-1.753.864-.775 1.914-1.455 3.075-1.463 1.161-.008 2.38.906 2.324 2.063-.039.81-.646 1.471-1.255 2.009Z" fill="#00160A"/><path fill-rule="evenodd" clip-rule="evenodd" d="M505.121 654.206c6.698 8.634 16.583 14.753 27.316 16.907l-.756 5.72c-8.371-2.264-16.617-5.484-23.503-10.741-6.886-5.259-12.336-12.744-13.855-21.258-1.889-10.587 2.5-21.534 9.366-29.825 6.867-8.291 16.006-14.356 25.122-20.101 1.586-.999 1.813-3.321 1.071-5.039-.742-1.718-2.189-3.009-3.482-4.365-9.845-10.323-11.37-27.554-3.49-39.437-8.479-10.543-12.148-24.788-9.813-38.101.805-4.593 2.467-9.33 6.122-12.239 4.948-3.939 12.485-3.343 17.758.152 5.272 3.496 8.576 9.312 10.635 15.283 8.02-5.78 18.673-7.764 28.244-5.259 5.894 1.543 11.239 4.641 16.502 7.705-1.178-2.418.274-5.254 1.838-7.443 3.316-4.643 7.904-9.068 13.608-9.438 6.804-.442 12.84 5.434 14.42 12.046 1.58 6.613-.404 13.589-3.4 19.695-2.996 6.107-6.997 11.691-9.844 17.867-3.267-3.503-.214-8.997 2.301-13.07a50.224 50.224 0 0 0 5.808-13.513c1.149-4.342 1.349-9.778-2.263-12.459-4.257-3.161-10.411-.017-13.853 4.012-1.739 2.035-2.871 5.757-.434 6.875 4.794 2.199 7.555 8.066 6.188 13.147a21.837 21.837 0 0 1-7.672-7.844c1.02 13.155 8.916 25.059 9.828 38.222.86 12.419-5.478 25.465-16.587 31.146-13.611 6.96-30.071 2.083-45.284 3.67a4.135 4.135 0 0 1-.231 3.941c-3.426-3.073-7.668-6.372-12.148-5.292-1.707.411-3.194 1.43-4.613 2.463a111.127 111.127 0 0 0-25.362 25.731c-2.527 3.581-4.889 7.436-5.631 11.752-1.164 6.776 1.875 13.651 6.094 19.09m36.068-66.995a69.155 69.155 0 0 0 30.283 4.101c8.165-.73 16.588-3.157 22.319-9.002 5.726-5.84 7.986-14.396 7.739-22.56-.248-8.163-2.744-16.079-5.413-23.801-2.126-6.154-4.47-12.425-8.8-17.296-4.019-4.519-9.654-7.58-15.641-8.496-5.987-.915-12.283.32-17.475 3.431-5.191 3.109-9.122 7.887-12.964 12.554-6.481 7.872-13.151 15.936-16.429 25.582-3.278 9.646-2.448 21.389 4.754 28.611 3.201 3.212 7.375 5.284 11.627 6.876m-1.793-66.624c2.142-2.159 2.167-5.668 1.297-8.579a18.069 18.069 0 0 0-5.457-8.433c-2.185-1.889-5.062-3.28-7.912-2.79-2.442.42-4.498 2.184-5.765 4.307-1.267 2.123-1.841 4.583-2.224 7.024a52.792 52.792 0 0 0 2.326 25.547c.299.852.723 1.8 1.587 2.072.835.263 1.706-.227 2.425-.726 5.543-3.847 9.812-9.487 12.001-15.858-3.181 1.417-5.779 4.089-7.102 7.302-1.821-1.155-2.056-3.867-1.071-5.781.985-1.914 2.847-3.202 4.665-4.361.866-.553 1.784-1.111 2.81-1.194 1.025-.082 2.179.473 2.42 1.47Z" fill="#00160A"/><path fill-rule="evenodd" clip-rule="evenodd" d="M535.799 655.31c-2.936 4.831-8.347 13.016-.892 23.812l-5.863 4.781s-70.844-2.138-60.753 10.691l1.451 16.017s10.823 14.691 84.115 17.285c0 0 13.196 16.277 2.439 28.807 0 0 2.767 7.795-5.284 14.421-10.621 8.74-32.421 17.355-28.505 22.271 0 0 .703 11.269 40.867 12.74 0 0 36.704 1.593 46.216-8.35 0 0 1.129-7.449-19.613-12.014-12.224-2.623-16.744-14.647-13.956-29.068 0 0 9.11-27.513 16.712-29.589 0 0 63.267 1.123 68.312-10.083 0 0 4.117-6.548 2.596-15.561 0 0-3.639-10.268-62.518-15.282l-11.146.956s16.096-11.092 6.804-23.806c0 0-1.517-5.588-23.548-3.718 0 0-9.985-6.334-20.71-9.483 0 0-13.912.545-16.724 5.173Z" fill="#fff"/><path fill-rule="evenodd" clip-rule="evenodd" d="M365.803 704.057c1.417.793 2.825 1.606 4.254 2.377.624.339 1.355.503 1.929.901 4.915 3.408 9.144 7.515 12.412 12.54.883 1.361 1.713 2.795 2.297 4.297 1.097 2.824 2.203 5.674 2.91 8.609.551 2.288.635 4.714.687 7.088.068 3.072.391 6.216-1.261 9.066.761 2.096-.464 3.898-1.175 5.609-.92 2.21-1.377 4.682-3.311 6.504-1.027.969-1.409 2.611-2.118 3.93-.148.275-.483.444-.674.706-.327.444-.609.924-.91 1.387.533.216 1.05.555 1.601.627 2.393.31 4.79.604 7.195.77.84.059 1.701-.306 2.561-.414 2.513-.314 4.882-1.107 7.216-2.054 1.711-.695 3.314-1.557 4.92-2.478 3.86-2.213 6.905-5.184 9.628-8.671 1.279-1.636 2.278-3.412 3.413-5.113.687-1.028.947-2.331 1.484-3.474.559-1.185 1.431-2.262 1.787-3.499.53-1.835.63-3.791 1.085-5.655 1.214-4.969 1.11-10.049 1.45-15.097-1.255-1.593-.124-3.493-.715-5.269-.578-1.74.028-3.872-.55-5.609-.663-1.991-1.019-4.035-1.579-6.033-.448-1.6-.524-3.311-1.04-4.884-1.13-3.442-2.48-6.811-3.648-10.239-.598-1.756-.903-3.614-1.516-5.364-.462-1.322-1.254-2.527-1.78-3.833-.123-.303.115-.934.393-1.188 1.094-1.006 3.851-.284 4.361 1.139 1.364 3.814 2.729 7.63 3.989 11.479.472 1.44.567 3.004.992 4.463.717 2.462 1.684 4.855 2.31 7.336.519 2.054.669 4.199 1.04 6.292.243 1.368.596 2.716.884 4.074.118.555.239 1.113.287 1.675.131 1.541.296 3.082.32 4.626.049 3.174.092 6.353-.014 9.524-.066 1.991-.183 4.032-.69 5.945-.493 1.858-.736 3.787-1.311 5.654-.486 1.571-1.347 3.187-1.434 4.983-.048.999-.814 1.958-1.237 2.944-.222.516-.321 1.101-.617 1.568-.882 1.384-2.055 2.628-2.716 4.103-1.744 3.895-4.775 6.703-7.738 9.57-.889.858-.015 1.07.33 1.08 2.523.072 5.049.039 7.574.039h1.144c4.469 0 8.938-.062 13.404.04 1.182.026 2.345.587 3.53.839 1.074.225 2.193.264 3.246.551 2.824.774 5.585 1.695 7.577 4.055.922 1.091 2.115 2.011 2.815 3.223 1.008 1.75 2.307 3.513 1.699 5.778 1.205 1.006.57 2.175.279 3.301-.69 2.671-1.748 4.927-4.676 6.827-2.915 1.893-5.935 2.318-9.133 2.455-3.046.131-6.102.026-9.154.029-1.329.004-2.805-.356-3.956.102-2.184.861-4.486 1.521-6.439 2.971-1.951 1.446-4.273 2.004-6.676 2.144-4.104.242-8.209.484-12.317.65-5.005.199-10.013.307-15.019.483-4.131.147-8.26.405-12.392.49-7.692.16-15.385.284-23.078.32-3.823.016-7.647-.189-11.471-.307-3.17-.098-6.34-.209-9.509-.333-.291-.013-.574-.245-.866-.255-.8-.032-1.627-.101-2.385.082-.172.043.031 1.11-.178 1.603-.592 1.404-1.304 2.759-1.977 4.13-.404.823-.697 1.744-1.265 2.436-1.21 1.475-2.483 2.922-3.886 4.208-1.653 1.518-3.4 2.958-5.243 4.238-1.073.744-2.471 1.005-3.621 1.662-2.652 1.518-5.503 2.412-8.479 2.974-.659.124-1.318.313-1.982.333-2.461.081-4.923.104-7.385.147-.273.003-.545-.004-.818 0-1.834.009-3.638-.732-5.326-.777-1.83-.053-3.48-.454-5.163-.879-2.658-.675-5.31-1.403-7.903-2.291a51.225 51.225 0 0 1-6.192-2.606c-3.733-1.861-7.385-3.878-11.1-5.779-1.876-.956-3.863-1.707-5.716-2.706-3.907-2.106-7.327-4.861-10.335-8.12-.853-.924-1.958-1.759-2.433-2.856-.568-1.313-1.43-2.498-1.979-3.833-.596-1.453-.675-3.089-1.584-4.434-.081-2.448-.081-4.897-.081-7.427.202-.121.404-.16.606-.196-.447-2.174.271-4.019 1.499-5.782.508-.731.848-1.61 1.114-2.468 1.033-3.321 3.173-5.887 5.675-8.146 2.319-2.089 4.707-4.146 7.273-5.916 2.115-1.459 4.518-2.51 6.825-3.679 1.413-.719 2.857-1.398 4.341-1.953 1.709-.64 3.445-1.312 5.23-1.616 1.552-.264 2.836-1.159 4.567-1.198 1.851-.042 3.634-1.459 5.52-2.04 2.287-.702 4.541-1.486 6.634-2.612 1.781-.96 3.53-2.051 5.086-3.33 1.379-1.137 2.651-2.498 3.636-3.98.767-1.153.94-2.684 1.522-3.983.706-1.577.902-3.262 1.296-4.907.844-3.53 1.705-7.052 2.62-10.565.473-1.815 1.004-3.624 1.646-5.384.48-1.319 1.261-2.53 1.759-3.843.513-1.351.754-2.807 1.281-4.152.647-1.656 1.444-3.252 2.217-4.852 1.275-2.641 2.513-5.299 3.896-7.881 1.036-1.936 2.324-3.732 3.402-5.648.627-1.114.966-2.39 1.607-3.494.697-1.198 1.675-2.233 2.38-3.431.779-1.319 1.288-2.804 2.093-4.107 1.529-2.475 3.239-4.835 4.767-7.313.809-1.309 1.294-2.818 2.1-4.13 1.185-1.933 2.603-3.722 3.775-5.659.822-1.359 1.315-2.914 2.113-4.29.722-1.244 1.783-2.297 2.47-3.557.95-1.742 1.603-3.643 2.537-5.395 1.608-3.017 3.422-5.925 4.975-8.969.814-1.594 1.182-3.41 1.895-5.065.478-1.11 1.356-2.056 1.788-3.178.627-1.632.925-3.388 1.527-5.033.592-1.618 1.844-3.119 1.993-4.747.256-2.786 1.2-5.376 1.85-8.019.963-3.917 1.622-7.848 1.83-11.84.257-4.953.236-9.92.37-14.88.065-2.405-.001-4.841.38-7.201.365-2.263.164-4.557.619-6.781.352-1.718.511-3.436.666-5.174.155-1.74.543-3.47.965-5.171.379-1.53.901-3.135 1.081-4.589.267-2.153.779-4.235 1.231-6.325.394-1.816 1.23-3.533 1.772-5.324.364-1.201.485-2.476.846-3.679.354-1.179.875-2.309 1.322-3.461.832-2.142 1.765-4.251 2.459-6.436.429-1.352 1.039-2.61 1.537-3.877.606-1.546 1.231-3.14 1.844-4.712a26.58 26.58 0 0 1 1.635-3.485c1.09-1.917 2.307-3.76 3.418-5.665.806-1.383 1.37-2.934 2.322-4.198 1.394-1.851 2.982-3.567 4.599-5.234.936-.964 1.991-1.906 3.169-2.518 1.651-.857 3.433-1.514 5.223-2.036 1.39-.405 2.918-.789 4.315-.617 2.17.267 4.41.737 6.377 1.645 1.626.751 3.007 2.156 4.3 3.463 1.31 1.324 1.288 1.374 2.567-.108 1.906-2.208 4.204-3.863 7.029-4.782 2.393-.779 4.845-1.296 7.311-.901 3.653.585 7.024 1.89 9.443 4.938 2.731 3.442 4.187 7.352 3.935 11.73-.094 1.633-.81 3.252-1.379 4.828-.448 1.241-1.217 2.372-1.596 3.627-.102.335.607 1.109 1.108 1.394 1.425.813 3.063 1.299 4.383 2.24 2.387 1.702 4.673 3.563 6.875 5.501 2.334 2.055 4.646 4.162 6.731 6.46 1.733 1.91 3.211 4.072 4.634 6.233 1.085 1.647 2.059 3.405 2.806 5.227.841 2.049 1.117 4.351 2.091 6.32 2.094 4.231 2.166 8.723 2.156 13.238-.002 1.231-.662 2.45-.776 3.697-.06.648-.325 1.382-.313 1.778.082 2.578-1.372 4.559-2.414 6.611-1.021 2.012-2.356 4.179-4.151 5.412-2.637 1.813-5.251 3.602-8.741 4.363-3.808.829-7.512.995-11.275.978-2.655-.011-5.38-.32-7.935-1.011-1.796-.485-3.839-.951-5.331-.66-1.868.364-3.714 2.055-5.065 3.609-3.241 3.729-3.214 8.263-2.169 12.765.536 2.311 1.275 4.711 2.534 6.682 1.231 1.929 2.474 3.769 3.248 5.947.329.926 1.33 1.598 1.75 2.512.885 1.924 1.825 3.874 2.314 5.916.973 4.065 2.032 8.173 1.687 12.396-.125 1.536.23 3.191-.85 4.682-.427.59.19 1.848-.116 2.627-1.167 2.977 1.671 3.979 2.708 5.857 1.358-.337 2.185.879 3.364 1.19 2.316.611 4.449 1.887 6.741 2.631 1.579.513 3.323.496 4.952.886 5.013 1.199 10.106.929 15.185.958 3.144.018 6.378-.459 9.41.126 3.776.729 7.677.781 11.339 1.911 2.017.621 3.853 1.923 4.05 4.48.207 2.673.777 5.455-1.183 7.698-.892 1.022-1.884 1.946-3.311 2.631-1.795.866-3.609 1.633-5.49 2.227-.934.294-2.006.118-2.986.31-1.93.372-3.837.862-5.759 1.28-1.006.215-2.017.47-3.038.545-4.83.363-9.66.803-14.499.96-5.062.163-10.134.062-15.202.02-1.645-.013-3.33-.017-4.919-.373-1.188-.267-2.345-.12-3.501-.274-3.983-.522-7.971-1.012-11.936-1.648-2.593-.415-5.17-.98-7.714-1.633-2.209-.565-4.429-1.185-6.523-2.067-2.499-1.051-4.806-2.566-7.312-3.597-3.423-1.414-6.396-3.464-9.095-5.91-3.027-2.742-5.955-5.618-8.145-9.107-.941-1.499-1.73-3.106-2.452-4.723-1.579-3.53-2.819-7.163-2.837-11.097-.008-1.869-.293-3.796.069-5.592a37.336 37.336 0 0 1 2.337-7.399c1.775-4.097 5.067-7.024 8.463-9.748 1.536-1.232 3.549-1.81 5.292-2.676 2.944-1.463 5.879-1.964 8.905-1.619 1.895.216 3.839.627 5.741 1.549 2.283 1.106 4.481 2.237 6.301 3.931 2.031 1.889 3.848 4.011 5.714 6.071.835.922 1.558 1.946 2.35 2.909.079.096.394.15.412.118.097-.17.193-.378.181-.566-.092-1.479-.158-2.964-.334-4.434-.134-1.117-.508-2.207-.617-3.325-.171-1.746-.184-3.507-.313-5.258-.059-.791-.29-1.57-.352-2.361-.263-3.31-.465-6.624-.75-9.932-.066-.773-.581-1.54-.529-2.284.171-2.475.595-4.854 1.421-7.28.851-2.497 2.284-4.193 4.188-5.663 1.845-1.424 4.046-1.853 6.362-1.654.736.063.743.03.308-.653-2.103-3.294-2.477-6.919-1.131-10.519.668-1.784 2.063-3.3 3.152-4.921.091-.136.36-.153.546-.225.052.196.146.391.149.588.015 1.034-.039 2.07.019 3.101.074 1.34-.203 2.953.439 3.96 1.638 2.57 2.796 5.469 5.455 7.405 5.256 3.828 10.767 3.573 16.49 1.558.711-.251 1.314-.823 1.951-1.269.507-.356 1.419-.784 1.391-1.116-.052-.625-.518-1.407-1.052-1.762-1.382-.919-1.476-2.256-1.459-3.637.039-3.108 3.679-5.91 6.747-5.244 1.97.428 3.425-.742 3.347-2.931-.087-2.417-.399-4.827-.627-7.239-.131-1.383-.088-2.827-.49-4.131-.514-1.669-1.673-3.162-2.054-4.844-.489-2.158-1.805-3.9-2.613-5.874-.993-2.424-2.995-4.483-4.752-6.537-1.953-2.284-4.018-4.495-6.233-6.522-1.332-1.22-3.045-2.024-4.581-3.025-1.289-.839-2.469-1.954-3.872-2.484-3.139-1.186-6.367-2.151-9.596-3.077-2.303-.661-4.712-.965-6.988-1.694-2.52-.808-4.955-1.89-7.4-2.916-.874-.366-.566-.276-.1-.997 1.21-1.873 3.008-1.353 4.544-1.195 1.47.152 2.888 1.397 4.303 1.352 2.674-.083 5.207 1.762 8.005.259 1.943-1.043 3-2.462 3.435-4.511.297-1.398.822-2.781.887-4.187.136-2.916-.848-5.536-2.6-7.886-1.469-1.971-3.675-2.179-5.797-2.369-2.72-.243-5.076 1.005-7.425 2.225-2.301 1.195-3.848 3.202-5.544 5.011-.878.936-1.182 2.393-1.816 3.577-.698 1.302-1.499 2.55-2.209 3.846-.301.55-.423 1.199-.734 1.741-2.257 3.937-4.403 8.03-8.637 10.234-1.474.767-3.012 1.433-4.871 1.659-1.486.182-2.927.472-4.31.024-1.392-.452-2.662-1.286-3.967-1.986-.154-.082-.319-.486-.268-.54.164-.173.421-.269.655-.36.437-.17.882-.043 1.399-.225 2.282-.798 4.714-1.155 7.055-1.804.638-.177 1.089-.964 1.727-1.215 3.742-1.475 6.366-4.054 8.232-7.598 1.803-3.427.937-10.091-2.004-12.522-.779-.643-1.965-.922-3.01-1.088-1.484-.237-3.058-.482-4.503-.222-1.269.228-2.424 1.128-3.613 1.761-5.386 2.867-8.33 7.932-11.494 12.791-.831 1.275-1.745 2.539-2.312 3.933-.664 1.633-1.949 2.919-2.265 4.778-.192 1.123-1.289 2.062-1.736 3.181-.496 1.24-.631 2.619-1.073 3.886-.644 1.85-1.492 3.631-2.114 5.488-.317.944-.238 2.015-.506 2.982-.31 1.118-.91 2.159-1.191 3.281-.269 1.074-.24 2.217-.428 3.314-.742 4.313-1.539 8.617-2.266 12.933-.202 1.2-.201 2.432-.347 3.644-.419 3.476-.877 6.948-1.296 10.425a79.588 79.588 0 0 0-.33 3.619c-.123 1.65-.054 3.334-.37 4.945-.443 2.253-.204 4.556-.643 6.779-.703 3.568-.691 7.212-1.292 10.781-.708 4.21-1.451 8.416-2.305 12.599-.354 1.73-1.102 3.376-1.545 5.092-.431 1.669-.569 3.421-1.076 5.061-.6 1.941-1.757 3.748-2.117 5.714-.341 1.858-1.304 3.319-1.934 4.958-.942 2.451-1.765 4.875-3.279 7.068-.706 1.023-.875 2.401-1.49 3.506-.947 1.699-2.114 3.275-3.099 4.956-.544.928-.884 1.974-1.356 2.947a27.514 27.514 0 0 1-1.174 2.154c-.824 1.368-1.634 2.747-2.529 4.069-1.329 1.964-2.789 3.842-4.075 5.83-1.114 1.724-2.035 3.568-3.091 5.328a283.126 283.126 0 0 1-4.278 6.938c-.89 1.394-1.942 2.69-2.804 4.1-.56.914-.831 2.005-1.37 2.939-1.02 1.763-2.19 3.441-3.197 5.21-.438.771-.565 1.711-.945 2.521-.628 1.338-1.571 2.572-1.967 3.966-.442 1.561-1.377 2.854-1.898 4.375-.942 2.762-2.426 5.332-3.572 8.025-.457 1.078-.53 2.312-.94 3.412-.424 1.136-1.166 2.161-1.546 3.307-.382 1.153-.316 2.462-.747 3.585-1.34 3.497-1.818 7.212-2.899 10.771-.503 1.658-.656 3.46-1.374 5.008-1.009 2.177-1.683 4.548-3.641 6.268-1.752 1.538-3.008 3.68-4.855 5.057-2.582 1.93-4.882 4.414-8.294 5.084-.644.127-1.12.966-1.773 1.217-1.68.647-3.57.879-5.094 1.763-2.592 1.502-5.471 2.119-8.197 3.19-1.758.689-3.51 1.404-5.297 2.011-3.247 1.104-6.18 2.821-9.158 4.473-2.209 1.224-4.258 2.625-5.99 4.466-1.608 1.711-3.619 3.197-4.726 5.185-1.98 3.555-3.414 7.434-3.374 11.613.019 1.906-.134 4.123.749 5.648 2.136 3.686 4.221 7.522 7.954 10.02 1.553 1.041 2.842 2.497 4.443 3.441 2.364 1.394 4.913 2.468 7.357 3.731 2.11 1.088 4.155 2.309 6.287 3.353.912.448 1.995.536 2.96.898 1.09.408 2.127.957 3.203 1.407.758.32 1.541.581 2.314.862.908.33 1.816.66 2.729.976.969.337 2.012.533 2.905 1.009 1.941 1.035 4.093 1.336 6.159 1.904 3.678 1.015 7.46 1.505 11.275 1.296 1.893-.105 3.76-.859 5.645-.882 2.621-.032 4.577-1.684 6.783-2.572 2.21-.888 4.009-2.936 5.81-4.663 1.595-1.531 3.464-3.098 4.276-5.04 1.127-2.697 2.634-5.26 3.203-8.241.937-4.894.554-9.572-.946-14.303-.786-2.481-2.023-4.649-3.329-6.817-1.68-2.791-3.758-5.211-6.587-6.941-1.707-1.045-3.286-2.302-5.017-3.297-.785-.454-1.812-.474-2.709-.754-3.843-1.202-7.795-1.408-11.777-1.29-1.836.052-3.828-.196-5.462.434-1.866.718-3.822.957-5.641 1.642-1.507.572-2.749 1.822-4.245 2.439-2.112.875-3.751 2.361-5.54 3.663l-.346.255c-.04-.203-.16-.428-.105-.601.412-1.306.654-2.726 1.348-3.865.827-1.362 1.878-2.717 3.147-3.647 1.792-1.309 3.79-2.442 5.861-3.226 1.24-.47 2.61-.832 4.07-.973 1.979-.189 3.895-.956 5.979-.48.16.036.706-.907.805-1.446.278-1.508 1.634-2.938 2.948-2.651 1.23.271 2.379.904 3.566 1.371.485.19 1.007.307 1.46.555a822.425 822.425 0 0 1 7.749 4.28c1.509.843 3.107 1.574 4.483 2.599 1.867 1.394 3.599 2.974 5.314 4.558 1.22 1.126 2.506 2.259 3.422 3.621 1.449 2.151 2.807 4.407 3.851 6.777 1.466 3.327 1.826 6.902 1.575 10.536-.115 1.665.529 3.01 1.753 4.176 1.584 1.511 3.449 2.203 5.564 2.66 5.524 1.199 11.091.431 16.633.585 5.119.14 10.245.072 15.366.016a465.32 465.32 0 0 0 12.779-.326c4.435-.167 8.868-.395 13.298-.65 2.964-.17 5.924-.421 8.884-.656.204-.017.567-.216.56-.307-.025-.333-.097-.718-.294-.976-.718-.934-1.091-4.248-.274-4.982.426-.382 1.801-.448 2.089-.108.97 1.156 1.684 2.533 2.421 3.869.526.953.967 1.838 2.011 2.468 1.607.973 3.05 1.198 4.946.79 2.504-.539 4.039-1.884 4.786-4.127.529-1.59 1.244-3.438.881-4.93-.701-2.879-2.352-5.488-4.549-7.538-1.04-.97-2.553-1.44-3.873-2.096-1.957-.973-3.854-2.168-5.921-2.792-2.483-.747-5.173-.806-7.668-1.528-1.603-.463-3.241.164-4.892-.777-1.029-.587-2.777.167-4.203.177-2.913.016-5.754.708-8.62.894-2.308.147-4.304 1.421-6.718 1.221-1.219-.098-2.518 1.163-3.827 1.692-1.876.76-3.904 1.214-5.666 2.171-1.981 1.074-3.736 2.566-5.599 3.862-.187.13-.444.163-.669.238.046-.225.083-.45.138-.672.861-3.513 3.145-6.001 6.029-7.934 2.253-1.508 4.63-2.857 7.044-4.097 1.895-.97 3.637-2.227 5.514-3.141 2.696-1.316 4.538-3.542 6.737-5.37.879-.729 1.212-2.077 1.922-3.05 2.775-3.803 3.87-8.168 4.188-12.736.196-2.804.194-5.651-.072-8.443-.133-1.394-1.055-2.713-1.628-4.064-.726-1.705-1.417-3.428-2.21-5.103-.355-.751-.883-1.43-1.406-2.08-.718-.898-1.546-1.707-2.253-2.612-1.359-1.737-2.652-3.526-3.999-5.276-1.893-2.458-3.807-4.9-5.718-7.346-1.195-1.531-2.4-3.052-3.519-4.658.245-.301.408-.52.572-.735m57.873-48.483c-.944-.615-2.049-1.079-2.8-1.876a122.401 122.401 0 0 1-6.321-7.223c-.789-.98-1.131-2.306-1.791-3.406-1.109-1.845-2.359-3.605-3.445-5.463-.415-.709-.416-1.656-.823-2.373-.88-1.552-1.896-3.027-2.864-4.529-.609-.947-1.19-1.915-1.857-2.819-.848-1.149-1.869-2.181-2.64-3.376-1.895-2.939-4.703-4.676-7.659-6.356-3.157-1.794-6.457-2.478-10.024-2.264-.488.029-1.087-.408-1.471-.245-1.39.59-2.709 1.347-4.058 2.035-3.25 1.656-5.279 4.382-6.965 7.527-.726 1.356-1.192 2.723-1.57 4.174-.334 1.282-1.227 2.603-1.063 3.796.395 2.884-.44 5.788.386 8.649.336 1.166.051 2.528.459 3.654.648 1.787 1.613 3.466 2.495 5.163.995 1.914 1.778 4.025 3.143 5.636 1.698 2.003 3.765 3.769 5.915 5.297 2.575 1.832 5.344 3.422 8.152 4.881 1.394.725 3.069.901 4.605 1.368 1.052.32 2.069.761 3.127 1.058 1.358.379 2.746.646 4.112.996 1.059.271 2.095.64 3.16.885 1.206.277 2.446.408 3.647.705.7.173 1.33.679 2.03.79 1.051.17 2.15.032 3.204.189 1.899.284 3.725.921 5.687.95 1.888.026 3.715.634 5.639.666 2.8.049 5.591.51 8.391.588 7.301.202 14.596-.075 21.832-1.048 1.266-.17 2.567-.118 3.879-.47 3.083-.833 6.317-1.084 9.449-1.76 1.929-.418 3.992-.597 5.608-1.959.994-.839 2.071-1.678 1.424-3.209-.426-1.006-.73-2.377-1.527-2.857-1.861-1.113-4.123-1.619-6.217-1.89-3.296-.431-6.732.186-10.019-.274-2.744-.382-5.51.271-8.276-.745-1.791-.659-3.995-.388-5.993-.245-2.324.167-4.483-.238-6.743-.718-1.623-.343-3.316-.823-4.891-.95-2.341-.189-4.112-1.39-6.134-2.124-.409-.149-.69-.651-1.193-.828m17.983 116.881c-.263-.154-.513-.412-.791-.444-1.28-.157-2.571-.226-3.853-.379-3.523-.418-7.033-1.103-10.566-1.244-5.381-.212-10.777-.062-16.166-.032-.224.003-.659.489-.635.528.358.578.675 1.261 1.201 1.636 1.225.878 2.674 1.466 3.823 2.423 2.589 2.151 3.949 5.142 4.986 8.243.373 1.117.176 2.413.463 3.572.187.751.748 1.982 1.195 2.004 3.561.193 7.142.281 10.696.066.678-.043 2.977.715 2.421-1.636-.157-.663-.851-1.188-1.049-1.854-.205-.686-.354-1.571-.085-2.175.529-1.185 1.976-1.038 2.701-.659 1.053.548 1.981 1.596 2.601 2.648.765 1.296 1.434 2.654 2.94 3.085.751.215 2.126.166 2.385-.265.391-.649.166-1.759-.016-2.628-.139-.666-.598-1.27-.947-1.884-.63-1.1.045-1.923.736-2.533.773-.679 1.694-.699 2.559.144.468.457 1.159.682 1.749 1.015.064-.62.192-1.244.172-1.861a5.98 5.98 0 0 0-.318-1.655c-.629-1.907-1.708-3.448-3.526-4.453-.899-.5-1.679-1.212-2.676-1.662m-26.157-145.938c-.198-.633-.554-1.264-.561-1.899-.014-1.31-.768-1.556-1.815-1.516-.149.006-.433.215-.419.273.41 1.717-.659 3.364-.579 4.829.181 3.288.018 6.785 2.049 9.766 1.024 1.505 1.849 3.143 2.808 4.694.178.288.564.448.853.667.126-.305.271-.604.376-.917.528-1.575-.03-3.041-.403-4.552-.518-2.098-.89-4.231-1.329-6.348-.323-1.557-.653-3.113-.98-4.997m34.168-50.767c-.15.693-.354 1.383-.407 2.084-.012.155.526.514.787.492.483-.04 1.11-.157 1.385-.486.504-.604.811-1.376 1.168-2.094.112-.227.118-.506.173-.762-.791-.153-1.579-.375-2.376-.408-.174-.008-.377.656-.73 1.174Z" fill="#00160A"/><path fill-rule="evenodd" clip-rule="evenodd" d="M478.279 652.799c.324.269.593.525.627.809.246 2.074.45 4.154.628 6.237.005.059-.513.297-.65.215-1.323-.763-2.286-1.707-2.025-3.482.044-.297-.895-1.034-1.412-1.067-2.139-.138-4.291-.093-6.439-.098-3.482-.008-6.965-.007-10.447 0-1.24.003-1.6-.49-.876-1.552.961-1.41 1.791-2.958 2.97-4.16 3.206-3.272 7.714-4.874 12.635-2.07 1.709.975 3.073 2.568 4.533 3.945.255.241.203.807.456 1.223m-14.223-1.632c.494.377.937.933 1.493 1.092.953.273 1.978.416 2.97.401 2.045-.033 4.09-.191 6.132-.342.239-.017.484-.293.664-.503.037-.043-.167-.423-.321-.479-1.285-.469-2.564-1.17-3.885-1.271-1.594-.121-3.234.235-4.842.469-.645.094-1.257.415-2.211.633Z" fill="#00160A"/><path fill-rule="evenodd" clip-rule="evenodd" d="M404.794 556.895c3.496-3.214 7.878-3.463 10.431.892.63 1.075.65 2.652.56 3.972-.23 3.339-3.421 5.164-6.777 4.972-2.728-.156-4.534-1.265-5.105-3.53-.498-1.973-.763-4.326.891-6.306m5.149 3.02c-.368.15-.811.221-1.082.475-.235.22-.461.865-.367.945.363.311 1.09.768 1.257.635.588-.464.998-1.15 1.476-1.752-.297-.231-.592-.466-.9-.683-.015-.01-.144.141-.384.38Z" fill="#FFB61D"/><path fill-rule="evenodd" clip-rule="evenodd" d="M465.855 636.475c-.793-2.007.107-3.566 1.486-4.824.446-.408 1.383-.351 2.093-.335.125.003.341.86.325 1.315-.061 1.802-.302 3.603-.282 5.401.028 2.389.241 4.776.364 7.164.007.138-.057.39-.121.401-.264.046-.599-.082-.803.036-1.785 1.03-1.492-.684-1.707-1.396-.219-.726.264-1.852-.132-2.298-.923-1.043-.722-2.219-.898-3.356-.108-.695-.111-1.405-.325-2.108ZM416.891 546.285c-.056-1.322-.271-2.549.876-3.574 1.684-1.505 4.906-1.228 5.74.798.391.95.451 2.298.068 3.22-.309.744-.877 1.624-2.342 1.724-2.26.155-3.397-.073-3.948-2.083-.007-.028-.204-.004-.394-.085ZM413.459 792.778c-.831.967-.907 1.029-1.913-.156-.857-1.013-1.757-2.11-2.183-3.327-.378-1.081.257-2.23 1.165-3.056.883-.8 1.751-.604 2.577.095.25.212.642.479.643.724.007 1.881 1.378 3.823-.289 5.72ZM471.087 643.658c-.059-1.092.874-1.94.192-2.955-.1-.149.225-.766.493-.916.175-.097.747.176.893.427.498.857.948 1.755 1.296 2.683.236.629.437 1.359.342 1.997-.074.496-.58 1.229-.986 1.295-.474.077-1.167-.346-1.542-.756-.373-.406-.47-1.064-.688-1.775ZM365.803 703.975a2.588 2.588 0 0 1-.572.735c-.378-.411-.675-.823-.971-1.234.514.14 1.029.277 1.543.499ZM814.482 824.855c-1.612-.327-3.142-.673-4.675-.976-2.989-.591-5.974-1.074-8.619-2.831-1.082-.715-2.632-.692-3.796-1.325-1.749-.954-3.267-2.338-5.029-3.268-2.629-1.391-4.937-3.157-6.892-5.345-1.773-1.985-3.819-3.748-4.856-6.363-.533-1.352-1.517-2.609-2.567-3.634-.477-.467-1.605-.307-2.439-.352-.336-.02-.68.215-1.03.254-3.969.448-7.935.924-11.911 1.293a77.07 77.07 0 0 1-6.729.33c-7.026.042-14.06.14-21.086-.026-4.659-.111-9.309-.575-13.981-.627-1.426-.013-2.89-.036-4.267-.356-1.504-.349-3.034-.006-4.466-.339-1.406-.327-2.796-.049-4.153-.291-3.449-.617-7.026-.14-10.397-1.022-3.123-.813-6.268-1.907-7.789-5.273-.229-.512-.876-.819-1.2-1.305-.425-.634-.853-1.316-1.033-2.041a25.018 25.018 0 0 1-.664-4.022c-.173-2.292.739-4.336 1.91-6.21.83-1.332 1.798-2.648 2.959-3.686 1.596-1.43 3.508-2.174 5.692-2.742 1.593-.415 3.342-.914 4.964-1.303 1.828-.434 3.56-.947 5.231-1.76.275-.134.527-.313.788-.47-.291-.059-.582-.17-.873-.173-1.71-.006-3.629-.48-5.084.134-2.237.94-4.473.46-6.673.748-4.741.62-9.548.728-14.322 1.077-2.475.18-4.95.369-7.412.666-1.991.238-3.959.503-5.849 1.394-2.031.963-3.738 2.067-4.29 4.378-.052.212.203.712.275.705 2.21-.248 2.687 1.643 3.563 2.939 1.214 1.792 2.237 3.712 3.447 5.511.209.313.994.499 1.396.372.7-.222 1.033-.689.722-1.642-.434-1.332-.483-2.792.213-4.107.598-1.133 1.717-1.28 2.805-1.048.906.189 1.374.904 1.37 1.893-.023 4.284 4.025 6.726 7.416 6.197 1.412-.219 1.125.228.827 1.136-.494 1.505-1.805 2.272-3.024 2.406-2.547.287-5.166.268-7.72.01a27.076 27.076 0 0 1-3.701-.64c-1.393-.339-2.613-1.401-4.006-1.707-1.154-.258-2.18-.706-2.913-1.44-1.507-1.518-3.165-2.824-4.061-5.035-.549-1.361-1.206-2.775-1.38-4.152-.333-2.707.788-5.071 2.796-6.961 1.785-1.678 3.734-3.04 6.196-3.591 3.675-.823 7.295-1.799 11.146-1.482 1.622.133 3.293-.33 4.941-.529.248-.033.493-.164.742-.17 2.926-.059 5.853-.088 8.779-.154 1.687-.039 3.642.373 4.976-.346 1.145-.613 2.093-.156 3.061-.483.242-.078.5-.104.755-.153-.147-.262-.242-.572-.441-.781-.932-.966-1.972-1.841-2.829-2.866-1.68-2.011-3.38-4.022-4.852-6.187-1.072-1.58-1.988-3.337-2.599-5.139-.654-1.936-2.276-3.633-1.704-5.922-1.392-1.166-.673-2.958-1.294-4.352-.18-.405-.507-.855.385-.741.21.026.442-.242.681-.301.941-.235 1.925-.721 2.825-.6 1.631.225.444 1.619.696 2.452 1.298 4.316 2.707 8.557 5.195 12.39 1.71 2.631 3.492 5.112 5.892 7.221 2.028 1.783 4.401 2.942 6.595 4.405.893.597 2.214.512 3.267.927 1.02.401 2.01.953 2.893 1.606 1.21.895 2.348 1.73 3.993 1.649 3.603-.177 7.212-.219 10.816-.356 1.213-.046 2.419-.203 3.626-.323.176-.02.343-.121.516-.186-.153-.154-.278-.369-.464-.451-3.077-1.378-5.392-3.728-7.461-6.242-1.707-2.077-3.375-4.241-4.264-6.892-.556-1.656-1.599-3.151-2.116-4.813-.392-1.276.072-2.889-.5-4.019-1.092-2.151-.255-4.296-.497-6.421-.108-.973.151-1.999.327-2.985.026-.143.533-.323.791-.287 1.223.173 2.44.415 3.656.634-.072.169-.196.336-.203.509-.117 2.592-.464 5.21-.232 7.77.154 1.672 1.399 3.216 1.733 4.901.611 3.114 2.982 5.158 4.44 7.74.814 1.437 2.397 2.514 3.79 3.536 2.027 1.489 4.07 3.066 6.346 4.071 2.001.882 4.329 1.029 6.51 1.512 1.72.379 3.407.382 5.169.114.546-.085 1.56 1.114 1.907 1.917.48 1.107-.409 2.017-1.305 2.494a8.9 8.9 0 0 1-3.172.986c-2.229.232-4.482.271-6.725.356-3.335.127-6.67.189-10.002.343-3.835.176-7.664.463-11.5.63-2.602.111-5.234-.111-7.811.183-4.597.519-9.22 1.064-13.726 2.066-4.365.97-7.576 3.66-8.874 8.143-.523 1.795-.248 3.558.255 5.393.586 2.142 2.482 2.896 3.774 4.28.143.154.706-.081 1.072-.137a48.849 48.849 0 0 0-.301-.666c-.814-1.815-2.132-3.408-1.831-5.661.245-1.815 1.609-3.725 3.407-4.009.147-.023.507.431.54.695.258 1.917.539 3.836.657 5.766.157 2.622 1.975 3.732 4.054 4.476.886.317 2.008.196 2.972.013 1.007-.196 1.357-.777.537-1.776-1.043-1.264-.504-4.878.925-5.635.726-.382 1.877-.398 2.668-.118 1.151.405 1.115 1.633.945 2.648-.5 2.948-.082 4.267 2.341 5.361 1.105.499 2.488.437 3.754.526 3.505.251 7.019.372 10.518.682 8.57.757 17.162.734 25.749.591 4.564-.075 9.119-.617 13.68-.927.87-.056 1.746.019 2.616-.013 2.187-.082 4.348-.454 6.307-1.404 1.442-.699 2.436-1.809 2.481-3.703.03-1.185 1.109-2.337 1.151-3.526.112-2.974 1.55-5.435 2.848-7.9 1.027-1.95 2.828-3.484 3.934-5.407 1.638-2.847 4.09-4.848 6.598-6.742a32.247 32.247 0 0 1 5.79-3.516 131.39 131.39 0 0 1 7.387-3.164c1.768-.698 3.697-.979 5.483-1.642a46.695 46.695 0 0 0 5.748-2.569c1.161-.624 2.132-1.597 3.198-2.4.241-.183.523-.31.788-.46-.05.261-.112.522-.138.787-.232 2.083-.477 4.162-.634 6.252-.01.127.667.375 1.049.457 2.757.584 5.663.783 8.253 1.789 4.045 1.57 7.877 3.679 10.8 7.068a94.132 94.132 0 0 0 2.965 3.288c1.109 1.172.023 1.42-.729 1.544-1.353.225-2.629-.023-3.763-.956-1.628-1.339-3.257-2.707-5.032-3.827-1.678-1.058-3.531-1.841-5.34-2.683-1.899-.885-3.904-1.453-5.927-2.018-3.607-1.012-7.256-.993-10.915-.898-2.007.052-4.087.16-5.983.738-2.148.653-4.159 1.796-6.173 2.834-3.8 1.959-7.04 4.613-9.688 7.992-.847 1.081-1.923 1.995-2.704 3.118-.608.868-.909 1.949-1.373 2.925-.89 1.884-1.946 3.703-2.639 5.655-.432 1.218-.177 2.661-.481 3.944-.758 3.245.04 6.265.792 9.389.402 1.682 1.464 2.769 2.285 4.042 2.07 3.226 5.111 5.456 8.419 7.323 1.302.731 2.534 1.665 3.924 2.129 1.037.346 1.883 1.058 3.051 1.227.83.124 1.661.696 2.583.97 1.527.451 3.063.842 4.603 1.224 1.383.343 2.796.487 4.192.715 3.567.581 7.138.588 10.718.588 1.448-.003 3.106.388 4.29-.183 1.618-.787 3.312-.408 4.934-1.022 1.968-.744 4.267-.574 6.32-1.152 1.972-.555 3.776-1.669 5.722-2.338a44.447 44.447 0 0 0 5.215-2.151c1.334-.66 2.724-1.208 4.028-1.917 2.554-1.391 5.062-2.866 7.596-4.296 1.373-.774 2.942-1.316 4.113-2.322 3.485-3.006 7.298-5.641 10.146-9.386 1.968-2.586 3.161-5.452 4.227-8.443.396-1.11.654-2.207.638-3.382-.033-2.53.046-5.064-.111-7.584-.046-.764-.847-1.453-1.066-2.24-1.583-5.687-5.578-9.314-10.372-12.275-.918-.569-1.84-1.208-2.854-1.538-1.37-.441-2.599-1.202-4.035-1.518-1.206-.268-2.292-1.048-3.492-1.401-1.059-.313-2.217-.294-3.305-.532-.883-.193-1.714-.673-2.6-.79-.729-.098-1.386-.101-2.154-.32-2.273-.65-4.787-.398-7.119-.905-1.517-.326-3.102-.146-4.623-1.093-1.233-.767-3.09-.474-4.63-.816-1.543-.343-3.191-.64-4.522-1.417-1.801-1.048-3.753-1.829-5.555-2.864-2.566-1.472-4.757-3.388-6.523-5.419-2.91-3.35-5.091-7.343-4.76-12.191.193-2.814.127-5.661-.004-8.482-.065-1.394-.395-2.824-.892-4.13-.298-.787-1.138-1.371-1.746-2.034-.174-.189-.386-.339-.579-.506.262-.16.504-.388.788-.467a89.838 89.838 0 0 1 4.434-1.12c.173-.039.608.294.624.484.16 1.776-.121 3.702.491 5.295.5 1.309.546 2.596.824 3.879.506 2.37.866 4.773 1.334 7.153.539 2.749.892 5.566 1.795 8.191.467 1.358 1.824 2.514 3.001 3.494 1.324 1.1 2.838 2.024 4.388 2.784 1.056.523 2.374.497 3.472.96 2.613 1.101 5.402 1.489 8.122 2.155 2.502.614 5.026 1.12 7.55 1.642 2.22.461 4.453.862 6.677 1.319 1.458.297 2.919.604 4.361.983 1.573.415 3.182.78 4.673 1.41 2.187.921 4.218 2.243 6.438 3.066 4.969 1.835 8.785 5.136 11.999 9.168 1.347 1.684 2.4 3.646 3.329 5.605.677 1.421.935 3.043 1.461 4.574.082 2.557.082 5.113 0 7.754-.229.121-.503.154-.503.196-.046.999.212 2.099-.128 2.974-1.069 2.779-2.194 5.564-3.623 8.169-.958 1.753-2.494 3.186-3.724 4.799-2.393 3.138-5.395 5.609-8.573 7.881a113.518 113.518 0 0 1-5.022 3.38c-.981.63-2.027 1.159-3.054 1.717-.369.202-.771.346-1.151.545-1.742.908-3.459 1.884-5.238 2.723-1.363.643-2.821 1.084-4.208 1.675-.863.369-1.641.953-2.521 1.257-1.079.372-2.256.457-3.331.832-1.485.523-2.878 1.329-4.379 1.766-1.412.415-3.063.203-4.345.817-2.066.989-4.241 1.123-6.399 1.511-1.079.196-2.151.431-3.227.65h-12.343ZM728.654 490.212c.082.163.082.326.082.489 2.462-.565 4.427.863 6.35 1.885 2.213 1.175 4.384 2.666 6.098 4.47 2.148 2.265 3.878 4.944 5.663 7.532.837 1.215 1.478 2.594 2.03 3.969 1.194 2.954 2.489 5.897 3.312 8.958.416 1.547 1.017 3.036 1.37 4.586.556 2.444.903 4.935 1.406 7.392.213 1.019.687 1.985.896 3.004.487 2.376.962 4.76 1.302 7.16.506 3.573 1.069 7.154 1.278 10.75.219 3.742.088 7.507.036 11.261-.039 2.622-.01 5.269-.369 7.855-.344 2.431-.452 4.891-.929 7.302a429.385 429.385 0 0 1-1.308 6.342c-.327 1.522-.608 3.06-1.056 4.546a17.075 17.075 0 0 1-1.445 3.398c-.857 1.523-2.74 1.684-3.728.271-.307-.437-.049-1.35.108-2.009.386-1.614.919-3.194 1.282-4.813.281-1.262.347-2.573.602-3.844.618-3.07.931-6.178 1.343-9.277.37-2.749.573-5.486.622-8.251.042-2.242.265-4.48.297-6.722.046-2.746.262-5.537-.137-8.229-.311-2.101-1.19-4.104-.504-6.276-1.582-3.132-1.311-6.681-2.177-9.99-.432-1.662-.896-3.376-1.22-5.101-.634-3.394-2.092-6.565-3.086-9.862-.533-1.769-1.465-3.345-1.995-5.084-.804-2.654-2.442-4.888-3.577-7.367-1.18-2.59-3.41-4.28-5.127-6.391-.974-1.197-2.668-2.324-4.136-2.467-1.52-.148-2.766-.945-4.322-1.035-3.035-.176-5.761.349-8.371 1.765-.448.243-.82.648-1.183 1.021-4.172 4.273-4.758 9.325-3.42 14.906.716 2.986 2.874 4.956 4.737 7.041 1.315 1.474 3.293 2.573 5.186 3.264 2.253.823 4.722 1.138 7.125 1.461 1.255.168 1.756.76 1.952 1.858.251 1.399-.998 2.427-1.995 2.387-1.792-.071-3.524-.158-5.369-.688-2.471-.711-4.898-1.393-6.895-2.911-2.387-1.816-4.741-3.805-6.628-6.113-1.2-1.468-2.331-3.221-2.518-5.45-.075-.863-1.095-1.752-.483-2.895-1.354-.809-.55-2.097-.582-3.123-.063-1.958.732-3.751 1.337-5.616.942-2.917 2.426-5.321 4.604-7.347.977-.908 2.089-1.738 3.272-2.341 1.299-.661 2.754-1.018 4.14-1.59 2.017-.081 4.031-.081 6.13-.081Z" fill="#00160A"/><path fill-rule="evenodd" clip-rule="evenodd" d="M753.177 600.97c-.693.419-1.246 1.017-1.923 1.398-1.36.767-2.756 1.491-4.198 2.091-1.563.652-3.227 1.067-4.79 1.725-1.393.586-2.665 1.462-4.061 2.031-2.184.89-4.404 1.723-6.66 2.399-1.697.508-3.499.666-5.222 1.106-1.196.306-2.308.983-3.511 1.218-3.388.66-6.648 1.794-10.208 1.857-1.9.034-3.773 1.561-5.657 2.418-3.296 1.498-6.085 3.571-8.017 6.716-.945 1.542-2.217 2.896-3.07 4.48-.53.981-.373 2.315-.84 3.348-.815 1.809-.504 3.668-.628 5.515-.209 3.132.418 6.126 1.301 9.096.105.344.098.969-.108 1.117-1.582 1.136-3.22 2.193-4.855 3.251-.124.08-.366-.019-.553-.035.023-.148 0-.327.075-.438 1.792-2.593.219-5.653 1.171-8.36-1.259-1.695-1.069-3.843-1.125-5.649-.101-3.347-.062-6.839 1.91-9.922.915-1.436 1.17-3.345 2.226-4.628 1.877-2.279 4.061-4.328 6.271-6.301.959-.856 2.27-1.351 3.476-1.888 1.534-.683 3.087-1.344 4.689-1.83 2.786-.844 5.591-1.631 8.426-2.272 1.422-.321 3.063.077 4.365-.45 3.096-1.257 6.376-1.686 9.56-2.509 1.955-.505 3.78-1.279 5.608-2.07 1.854-.803 3.724-1.601 5.496-2.573a68.742 68.742 0 0 0 6.003-3.711c1.677-1.158 3.201-2.533 4.816-3.78 1.053-.812 1.959-.934 2.763.453.471.807 1.638 1.32 1.861 2.137.673 2.483.99 5.061 1.543 7.58.34 1.54.932 3.024 1.282 4.562.379 1.646.572 3.335.931 4.986.099.453.576.811.749 1.262.317.805.527 1.651.798 2.474.575 1.757 1.193 3.501 1.736 5.268.451 1.478.713 3.023 1.256 4.464.516 1.368 1.487 2.58 1.906 3.966.566 1.875 1.726 3.463 2.093 5.482.297 1.657 1.765 3.068 2.455 4.698 1.171 2.762 2.773 5.322 3.901 8.072 2.508 6.112 5.964 11.744 8.717 17.725.768 1.668 2.033 3.114 2.736 4.802 1.03 2.465 2.757 4.457 4.172 6.644 3.002 4.639 6.635 8.747 11.068 12.113 1.749 1.325 3.332 2.882 5.163 4.074 1.269.829 2.887 1.104 4.247 1.819 2.106 1.103 4.359 1.668 6.615 2.344 1.994.597 3.685 1.981 4.401 4.097.647 1.913.562 3.774-.893 5.387-1.298 1.44-2.746 2.436-4.816 2.54-4.179.209-8.125 1.247-12.009 2.955-1.639.718-2.469 1.916-3.712 2.837-1.419 1.048-2.543 2.396-4.554 2.909-1.583.401-3.178.849-4.784 1.273-5.143 1.358-10.306.359-15.426.797-2.799.241-5.48 1.035-8.011 2.34-2.563 1.323-4.891 2.985-7.232 4.633-1.324.931-2.639 1.887-4.035 2.7-1.795 1.045-3.619 2.073-5.526 2.893-2.37 1.022-4.799 1.955-7.278 2.674-1.432.414-3.211-.069-4.479.561-1.965.976-3.878.405-5.768.421-1.932.013-3.868-.587-5.8-.917.385-.408-1.315-.036-.262-.692-.16-.092-.324-.268-.481-.261-4.711.153-8.815-2.126-13.183-3.324-.968-.264-1.886-.597-2.903-.614-2.286-.036-4.571-.134-6.857-.124-.52.004-1.026.415-1.559.526-3.208.672-5.958 2.298-8.645 4.065-2.273 1.495-4.853 2.644-7.491 2.288-2.923-.395-5.935-.467-8.779-1.361-4.015-1.264-5.176-4.982-4.483-8.103.455-2.038 1.128-4.189 2.917-5.841 1.445-1.332 2.468-3.193 3.426-4.956 1.553-2.854 2.887-5.825 4.342-8.734.837-1.678 2.011-3.251 2.508-5.018.471-1.687.958-3.31 1.579-4.956.573-1.514.945-3.235 1.354-4.867.71-2.837.605-5.867 1.148-8.757.359-1.916.467-4.028 2.213-5.478.824-.686 2.815-1.136 3.705-.588.444.275.297.255.127.986-.287 1.241-.31 2.544-.559 3.797-.268 1.359-.686 2.684-.997 4.036-.147.649-.167 1.328-.301 1.981-.307 1.512-.598 3.027-.987 4.519-.491 1.874-1.007 3.748-1.642 5.579-.66 1.914-1.824 3.722-2.128 5.678-.327 2.106-1.151 3.794-2.286 5.511-.709 1.081-.85 2.524-1.484 3.67-.798 1.439-1.861 2.732-2.776 4.11-1.226 1.848-2.41 3.722-3.629 5.57-.514.773-1.393 1.462-1.531 2.285-.147.898.288 1.936.615 2.863.889 2.524 3.165 3.51 5.163 3.575 1.762.056 3.682.193 5.274-.398 2.063-.764 3.878-2.204 5.79-3.369 4.653-2.828 9.577-4.284 15.057-3.056 2.014.45 4.071.751 6.043 1.345 1.978.594 3.835 1.596 5.813 2.184 1.743.519 3.636.536 5.366 1.081 4.074 1.276 8.249 1.028 12.382.858 1.739-.071 3.587-.261 5.306-.992 1.233-.522 2.747-.457 3.904-1.087 2.681-1.46 5.264-3.121 7.812-4.816 2.364-1.57 4.541-3.444 6.974-4.891 1.69-1.005 3.279-2.141 5.346-2.722 1.867-.529 3.479-1.822 5.594-1.104.618-1.329 1.906-.738 2.632-.548 2.276.594 4.529.084 6.781.225a17.862 17.862 0 0 0 5.971-.624c1.752-.493 3.57-.8 5.264-1.443 1.501-.574 2.845-1.541 4.293-2.259 2.41-1.192 4.846-2.331 7.272-3.487 2.161-1.031 4.325-2.057 6.487-3.085 1.252-.594 2.508-1.185 3.753-1.796.193-.094.347-.267.517-.405-.16-.088-.324-.254-.484-.251-1.498.029-2.871-.695-4.185-1.123-2.518-.819-4.807-2.367-7.148-3.689-1.971-1.114-4.077-2.109-5.777-3.562-2.586-2.21-5.009-4.649-7.252-7.212-2.41-2.752-4.646-5.678-6.736-8.688-1.36-1.959-2.151-4.309-3.482-6.294-5.065-7.568-8.449-16.009-12.66-24.017-1.118-2.123-2.338-4.246-3.047-6.514-.54-1.722-2.067-2.986-1.969-5.035.04-.837-1.095-1.677-1.497-2.602-.579-1.338-.971-2.759-1.458-4.138a30.643 30.643 0 0 0-.739-1.902c-.998-2.323-2.122-4.6-2.976-6.973-.654-1.818-.899-3.779-1.468-5.633-.719-2.35-1.664-4.632-2.354-6.99-.373-1.28-.275-2.698-.651-3.976-.471-1.598-1.213-3.117-1.919-4.752ZM681.734 518.207c-.409-1.85-1.069-3.636-.981-5.384.124-2.497.451-4.983 1.818-7.314 1.02-1.746 1.998-3.359 3.587-4.665 2.102-1.731 2.24-1.392 5.398-2.624 2.56-1 4.872-.916 7.318-.474 3.456.623 6.5 2.113 8.772 4.892.347.423.546.965.814 1.452-.605.271-1.242.822-1.808.757-1.357-.153-2.756-.42-3.995-.966-1.769-.78-3.541-1.435-5.474-1.585-1.272-.099-2.583-.37-3.816-.176-1.327.208-2.825.575-3.815 1.393-1.998 1.647-3.777 3.541-4.336 6.306-.543 2.669.085 4.911 1.635 7.081.716 1.004 1.7 1.393 2.681 1.938 2.773 1.543 5.663 1.049 8.612.838 2.404-.172 4.323-1.539 6.559-2.036.592-.132 1.504-.509 1.743-.263.906.924.18 1.663-.566 2.362-2.475 2.327-5.63 3.231-8.772 4.058-1.844.485-3.803.522-5.699.826-.33.054-.576.521-.916.653-4.358 1.688-7.588 4.975-11.08 7.865-2.629 2.175-5.193 4.457-7.553 6.915-2.158 2.248-4.022 4.782-5.981 7.217-1.052 1.309-2.171 2.595-3.011 4.036-.84 1.436-1.373 3.053-2.043 4.59-.681 1.563-1.681 3.069-1.972 4.701-.546 3.083-.726 6.234-.942 9.366-.026.378.625 1.003 1.083 1.16.506.174 1.173.02 1.732-.131 1.266-.341 2.413-1.6 3.823-.769 1.517.895 3.783 4.581 3.374 6.736-.239 1.264-1.883 2.941-3.008 3.032-1.668.135-2.877-1.56-2.24-3.104.141-.34.141-.738.206-1.11-.464.512-.896-.672-1.612.142-1.667 1.901-1.651 3.663.572 4.978 1.557.918 3.228 2.089 4.921 2.222 3.084.243 6.229-.136 9.335-.389a19.442 19.442 0 0 0 4.339-.879c.978-.314 1.805-1.071 2.75-1.523 4.155-1.985 7.824-4.648 11.077-7.887.935-.93 1.73-2.004 2.668-2.931.334-.33 1.011-.684 1.338-.551.389.157.467.96.856 1.25 1.23.916.19 1.972.079 2.816-.128.952-.935 1.934-1.684 2.658-1.91 1.851-3.79 3.821-6.006 5.239-1.308.837-2.443 2.469-4.473 2.072-.429-.084-1.017.572-1.498.936-.062.048.069.549.157.565.925.163 1.854.334 2.786.38 2.027.098 3.966-.102 5.921-.891 1.298-.525 2.891-.327 4.352-.46 3.319-.301 5.039.139 6.242 2.425.981 1.86 1.563 3.886 1.824 6.161.308 2.642.37 5.276.219 7.841-.153 2.647-.098 5.438-1.703 7.922-.778 1.2-.791 2.884-1.213 4.33-.072.243-.18.791-.831.213-.703-.622-1.85-.724-2.619-1.298-.258-.192 0-1.15.112-1.741.238-1.262.47-2.532.82-3.767 1.132-4.022.409-8.131.667-12.191.079-1.232-.314-2.242-.814-3.295-.67-1.417-1.772-1.689-3.25-1.675-7.353.067-14.71.09-22.064 0-2.91-.035-5.901-.053-8.69-.742-1.978-.489-4.006-1.146-5.856-2.548-2.547-1.928-4.643-4.044-5.951-6.871-.651-1.413-.651-3.121-1.269-4.555-1.138-2.633-.84-5.36-.804-8.06.013-1.126.67-2.232.775-3.371.059-.648.212-1.234.317-1.805.33-1.824.491-3.534 1.681-5.162.866-1.181.86-2.963 1.569-4.302.837-1.581 2.273-2.863 3.015-4.474.987-2.148 2.4-3.89 4.002-5.553 1.635-1.697 3.162-3.501 4.855-5.132a190.32 190.32 0 0 1 7.527-6.866c2.197-1.902 4.525-3.656 6.765-5.515.226-.187.415-.753.301-.962-.811-1.442-1.704-2.836-2.652-4.327Z" fill="#00160A"/><path fill-rule="evenodd" clip-rule="evenodd" d="M745.329 655.329c-2.462 4.359-5.68 7.954-9.329 11.157-1.654 1.452-3.475 2.745-5.342 3.911-1.74 1.087-3.623 1.952-5.477 2.843-1.354.653-2.763 1.199-4.152 1.776-.318.128-.667.18-.998.268.033-.333-.006-.692.111-.992 1.76-4.565 2.4-9.158.962-13.98-.844-2.83-2.848-4.565-5.039-6.187-1.265-.935-2.596-1.894-4.048-2.434-1.912-.711-3.962-1.068-5.973-1.493-2.953-.624-5.912-1.228-8.966-1.004-.023.002-.124-.259-.085-.305 1.887-2.159 2.799-4.915 4.454-7.214 1-1.386 2.004-2.775 2.89-4.232.775-1.273 1.324-2.68 2.089-3.961.553-.932 1.383-1.701 1.923-2.638.863-1.499 1.559-3.091 2.377-4.617 1.161-2.164 2.475-4.235 4.898-5.175.53-.204 1.331-.106 1.847.16.67.343 1.001.788.245 1.711-1.484 1.816-2.766 3.823-3.949 5.858-.841 1.447-1.315 3.101-2.07 4.605-.971 1.931-2.086 3.787-3.083 5.706-.749 1.44-1.413 2.924-2.099 4.394-.239.507-.53.871-.148 1.61.501.969.9.047 1.321.134 2.894.6 5.654 1.398 7.982 3.357 1.249 1.05 2.697 1.862 3.926 2.932.972.844 1.825 1.855 2.577 2.902.899 1.248 1.759 2.556 2.403 3.945.621 1.332.778 2.883 1.442 4.185.922 1.806.706 3.673.772 5.547.003.04.317.147.405.095.651-.395 1.354-.738 1.9-1.25 2.805-2.638 5.653-5.24 8.308-8.025 1.023-1.072 1.605-2.573 2.344-3.904.752-1.354 1.432-2.747 2.171-4.108 1.171-2.163 1.789-4.526 2.505-6.852.549-1.78 1.043-3.576 1.537-5.372.036-.129-.219-.321-.21-.476.089-1.543.193-3.085.341-4.623.009-.092.542-.265.595-.203.647.781 1.347 1.543 1.85 2.415 1.651 2.868 1.324 5.97.762 9.015-.35 1.905-.915 3.8-1.638 5.599-.647 1.608-1.645 3.075-2.472 4.612-.013.028.144.149.141.308ZM683.614 662.267c-.108 3.618-.036 7.092-.386 10.523-.262 2.556-.514 5.341-2.59 7.202-1.053.947-2.576 1.394-3.923 1.988-1.256.555-2.525 1.136-3.845 1.479-2.6.676-5.245 1.319-7.674-.568-1.92.611-2.521-1.267-3.414-2.115-1.851-1.767-1.416-3.748.994-5.296 1.037-.666 1.226-1.417 1.223-2.442-.007-2.991-.317-6.027.082-8.965.448-3.311-.814-6.076-1.871-8.96-.637-1.746-.009-3.465 1.675-4.33 1.405-.723 3.034-.689 4.407-1.151 1.184-.397 2.279-.455 3.325-.365 2.6.221 5.176.71 7.429 2.206.353.235.84.262 1.233.455 1.67.823 1.811 2.425 2.079 4.006.356 2.066.831 4.113 1.256 6.333m-3.597-1.142c0-1.143.271-2.374-.062-3.408a18.702 18.702 0 0 0-2.331-4.72c-.285-.416-1.57-.207-2.394-.185-1.259.033-1.968.904-1.743 2.142.354 1.946 1.021 3.778 1.194 5.834.15 1.806.781 3.706.729 5.622-.016.66-.67 1.401-.507 1.946.801 2.681-.735 4.959-1.157 7.411-.259 1.512-1.102 2.922-1.655 4.388-.078.209-.003.48.004.722 1.203-.033 2.785.408 3.534-.193 2.017-1.616 4.113-3.327 4.104-6.418-.004-2.25.51-4.496.575-6.749.059-2.017-.183-4.045-.291-6.392m-8.828-.327c-.108-1.312-.082-2.657-.36-3.932-.372-1.704-.628-3.556-2.933-3.979-.778-.143-1.458-.271-1.873.399-.226.369-.137.998-.046 1.483.15.801.546 1.569.612 2.37.372 4.426.977 8.86.895 13.281-.052 2.902-.611 6.023-3.531 7.865-.118.075-.124.489-.039.679.069.153.356.277.553.287.65.029 1.301.016 1.951-.01 1.406-.059 3.273-1.378 3.839-2.719.726-1.715 1.314-3.455 1.269-5.361-.085-3.399-.118-6.801-.337-10.363Z" fill="#00160A"/><path fill-rule="evenodd" clip-rule="evenodd" d="M712.715 541.796c-.2-.471-.379-.793-.599-1.083-1.71-2.234-4.351-2.235-6.693-2.334-2.131-.089-4.299 1.072-6.447 1.053-3.705-.032-7.138-3.09-7.099-7.037.026-2.591 1.39-4.818 4.022-5.954 1.471-.635 2.887-1.391 4.345-2.059 2.276-1.046 4.63-1.287 6.961-.282.736.316 1.351.977 1.93 1.569 2.439 2.502 4.835 5.046 7.268 7.555.562.58.837 1.1 2.024.31 1.278-.849 2.54-2.411 4.538-1.958.373.085.847-.41 1.305-.545 2.063-.613 4.021-.103 5.323 1.437 1.635 1.94 2.279 4.085 1.321 6.907-.53 1.559-.906 3.132-1.835 4.529-1.114 1.676-2.707 2.826-4.754 4.54-1.442 1.206-2.942 1.699-4.656 1.818-1.778.124-3.276-.72-4.643-1.762-1.667-1.273-2.213-2.999-2.007-5.048.049-.483-.196-.995-.304-1.656m4.087 3.917c1.586 1.352 3.361 1.547 5.248.644 2.439-1.165 3.747-3.296 4.924-5.567.85-1.64 1.54-3.326.919-5.17-.206-.614-.877-1.519-1.344-1.524-2.593-.028-4.735 1.224-6.559 2.951-.435.411-.451 1.259-.667 1.904-.432 1.294-.183 3.245-2.603 2.629-.157-.041-.683.508-.657.742.118 1.084.373 2.153.739 3.391m-21.089-12.243c-1.128.364.075 1.179-.327 1.682.264.147.529.418.797.421 2.718.032 5.435.028 8.152.01.395-.003.791-.132 1.187-.203-.203-.296-.481-.566-.596-.893-.241-.691-.673-1.483-.513-2.103.177-.69.971-1.203 1.409-1.85.396-.579.932-1.231.945-1.86.017-.817-.206-2.136-.716-2.363-1.138-.508-2.57-.779-3.783-.567-1.134.198-2.328.96-3.152 1.807-1.092 1.125-1.896 2.544-2.723 3.898-.308.501-1.132.869-.68 2.021m17.492.49c-.281-.218-.703-.68-.824-.612a9.16 9.16 0 0 0-1.821 1.347c-.127.123.043.848.124.857.651.072 1.357.179 1.969.004.686-.198 1.379-.633.552-1.596m3.27 3.918c-.285-.218-.628-.663-.84-.607-.465.122-.962.426-1.236.805-.125.169.251.701.402 1.069.261-.125.572-.197.768-.388.242-.242.389-.582.906-.879Z" fill="#FFB61D"/><path fill-rule="evenodd" clip-rule="evenodd" d="M637.186 666.512c0-4.28.696-5.26 4.319-6.641.869-.33 1.553-1.136 2.416-1.489a16.513 16.513 0 0 1 3.535-.985c1.37-.225 2.772-.284 4.165-.346 3.06-.134 6.121-.272 9.178-.279.412-.001 1.053.678 1.197 1.16.791 2.612.673 2.537-2.103 2.746-3.534.261-7.049.819-10.57 1.266-1.59.203-3.237.252-4.732.751-.856.284-1.651 1.221-2.115 2.06-.33.601-.173 1.548-.036 2.305.369 2.067 2.217 2.302 3.77 2.681 1.962.476 4.008.6 5.98 1.041 1.664.376 3.332.516 5.016.669 1.203.108 2.351.725 3.554.902.925.133 1.321.754 1.213 1.371-.124.689-.667 1.776-1.151 1.844-2.089.307-4.231.474-6.337.363-2.118-.108-4.24-.493-6.313-.967-1.57-.359-3.038-1.364-4.601-1.511-2.835-.261-4.231-2.214-5.65-4.16-.5-.685-.503-1.736-.735-2.781ZM683.86 679.163c-.245-.059-.572-.255-.546-.333.51-1.525 1-3.066 1.648-4.535.186-.418.866-.901 1.298-.881 2.962.13 5.918.47 8.884.581 2.265.085 4.558.088 6.807-.147 2.622-.275 5.205-.872 7.815-1.28 1.647-.255 3.331-.307 4.956-.65 1.436-.303 2.812-.894 4.221-1.335.821-.258.942-.199.612.728a35.813 35.813 0 0 1-1.982 4.561c-.212.401-.954.63-1.497.741-2.335.48-4.666 1.055-7.03 1.283-2.946.284-5.918.343-8.88.346-2.786 0-5.575-.179-8.361-.307-2.7-.124-5.349.033-7.945 1.228Z" fill="#00160A"/><path fill-rule="evenodd" clip-rule="evenodd" d="M650.591 647.902c1.183-.064 3.184 1.412 3.25 2.672.081 1.528.389 2.981 1.01 4.377.046.108-.085.426-.17.442-1.321.244-2.649.459-3.976.662-.134.02-.36-.048-.415-.146-1.36-2.415-3.819-1.444-5.781-1.731-2.187-.319-4.457-.076-6.69-.072-1.762.004-2.096.586-1.291 2.185.454.899.84 1.83 1.321 2.715.369.676.585 1.241-.331 1.639-.143.062-.281.251-.323.411-.55 1.936-1.06 1.117-1.704.026-1.301-2.187-3.067-4.147-2.9-6.968.141-2.332 2.272-4.565 4.323-5.713 1.772-.993 3.501-1.434 5.408-1.527 1.438-.07 2.896-.072 4.329.077 1.324.138 2.628.515 3.94.951m-3.924 3.102c-.203-.164-.386-.359-.608-.485-1.586-.897-3.172.215-4.767.02-.37-.044-.775.232-1.164.36.457.231.922.668 1.373.654 1.671-.048 3.335-.245 5.166-.549Z" fill="#00160A"/><path fill-rule="evenodd" clip-rule="evenodd" d="M703.558 569.873c-2.465-1.413-4.028-3.547-4.126-6.124-.066-1.754.386-3.864 2.347-4.987.971-.557 1.808-1.442 2.838-1.795 1.596-.548 3.215-.562 4.853.363a7.693 7.693 0 0 1 3.374 3.838c.556 1.388.615 2.946.091 4.737-1.079 3.699-6.104 5.936-9.377 3.968m.654-5.387c.255.381.471 1.046.775 1.09.971.142 1.994.16 2.962.004.432-.07 1.05-.636 1.096-1.035.055-.454-.409-1.38-.687-1.395-1.288-.069-2.596.086-3.888.228-.114.012-.173.509-.258 1.108Z" fill="#FFB61D"/><path fill-rule="evenodd" clip-rule="evenodd" d="M695.712 547.672c-1.442.843-2.622 2.017-4.028 2.439-1.589.478-3.119 1.177-4.859 1.431-1.298.19-2.635.228-3.936.334-1.446.117-2.122-1.056-1.187-2.113.742-.838 1.932-1.28 2.92-1.901.264-.166.51-.374.788-.511 1.474-.725 2.916-1.419 4.59-1.75 1.318-.261 2.475-1.311 3.724-1.973.805-.426 1.622-.862 2.479-1.154 1.013-.343 1.981.176 2.252 1.028.193.611-.245 1.562-.66 2.192-.494.753-1.265 1.327-2.083 1.978ZM643.153 636.883c.245-1.532.376-2.988.588-4.432.095-.65.249-1.335.563-1.901.444-.806 1.605-.4 2.36.823 1.19 1.927.739 3.853.013 5.805-.703 1.889-1.494 3.773-1.912 5.731-.291 1.379-.919 2.466-2.145 2.615-1.014.124-2.25-.359-3.165-.932-1.553-.973-1.769-2.493-.599-3.751.55-.591 1.181-1.739 2.387-.831.088.066.415-.034.507-.153a30.08 30.08 0 0 0 1.605-2.237c.072-.113-.179-.432-.202-.737ZM698.572 652.717c-1.667 1.121-3.145 2.431-4.872 3.113-1.36.536-2.547 1.602-4.335 1.363-1.217-.164-2.564.693-3.868 1.033-.138.035-.497-.304-.553-.524-.17-.643-.232-1.315-.353-1.972-.111-.617.52-1.873 1.056-1.837 2.75.185 4.846-1.556 7.184-2.484 1.602-.637 2.965-.506 4.466-.132.346.087.703.135 1.049.219.324.078.641.18.962.272-.219.289-.435.579-.736.949ZM571.137 639.413c-.32.098-.631-.218-.837.552-.327 1.217-1.462 2.199-1.919 3.407-.566 1.496-.857 3.109-1.148 4.694-.245 1.334-.507 2.71-.418 4.046.062.955.575 1.939 1.085 2.792.497.835 1.02 1.628 1.798 2.367 1.419 1.353 2.914 1.441 4.568 1.389 1.511-.046 3.217.192 4.493-.415 2.779-1.321 5.64-.937 8.419-.764 1.73.108 3.551.578 5.336 1.195 2.593.895 4.45 2.357 6.157 4.202 1.363 1.469 2.017 3.206 2.511 5.305.556 2.367-.2 4.182-.683 6.154-.301 1.231-1.74 2.292-1.766 3.448-.036 1.623-.974 2.7-1.553 3.931-1.507 3.209-3.924 5.687-6.912 7.682-2.976 1.982-6.01 4.009-8.122 6.938-.5.692-1.138 1.864-.958 3.16.108.777-.425 1.867-1.023 2.465-.697.692-1.714.862-2.839 1.032-5.012.754-10.031.715-15.063.737-1.543.007-3.186.34-4.611-.071-2.865-.826-5.48-1.789-7.284-4.852-1.543-2.618-4.422-4.561-6.969-6.454-2.939-2.185-6.272-3.859-8.598-6.801-.899-1.139-1.886-2.093-2.061-3.826-.169-1.672-1.466-3.2-2.034-4.871-.459-1.349-.244-3.001-.913-4.189-1.043-1.855-.771-3.732-.817-5.622-.063-2.609.469-5.025 1.378-7.571.916-2.572 2.316-4.471 4.179-6.12 1.723-1.526 3.751-2.599 6.235-2.688 1.415-.051 2.801-.862 4.218-.922 2.705-.115 5.424.005 8.132.14 1.542.076 2.773.971 3.635 2.177.357.5.231 1.344.324 2.031-.418.005-.836.022-1.254.012-3.398-.078-6.803-.365-10.164.458-1.44.352-2.945.497-4.333.984-1.052.369-1.969 1.126-2.937 1.724-.099.061-.135.224-.2.339.151.03.304.051.453.089 6.656 1.701 13.444 1.805 20.247 1.603 1.036-.03 2.184-.213 3.064-.709 1.15-.649 1.477-1.674 1.098-3.208-.477-1.932-.523-4.042-.359-6.042.209-2.558.843-5.08 1.239-7.627.157-1.033 1.141-2.05-.255-3.127-1.54-1.191-3.159-1.978-5.059-1.652-.491.085-.923 1.109-1.175 1.779-.173.46.011 1.054.035 1.588.591-.093 1.199-.124 1.767-.293 1.391-.415 2.552.266 3.729.777.052.022-.226 1.07-.507 1.548-1.736 2.944-7.276 3.007-9.081.038-.953-1.567-.96-3.127-.426-5.124.6-2.243 1.764-3.562 3.543-4.264 1.135-.449 2.649-1.772 3.999-.11 2.822-.297 4.348 1.517 5.826 3.479.144.191.88.22 1.083.038 1.2-1.092 2.151-2.569 3.515-3.337 1.618-.911 2.991-2.681 5.231-2.179 1.174-1.487 2.701-.479 3.793-.171 1.978.558 3.923 1.763 4.482 3.939.478 1.863.259 3.832-1.464 5.18-1.148.899-2.286 1.945-3.607 2.458-1.376.534-2.992.76-4.463.636-1.013-.085-2.04-.89-2.9-1.575-.461-.37-.585-1.163-.778-1.847.696-.191 1.311-.298 1.926-.408 1.379-.249 2.795-.379 4.126-.787 1.105-.338 2.138-.954 3.136-1.561.284-.174.532-1.034.454-1.088-.572-.397-1.252-.963-1.864-.925-1.579.099-3.25-.017-4.626 1.088-1.282 1.027-2.9 1.73-3.234 3.599m-30.898 46.035c1.091.763 2.124 1.629 3.285 2.262 1.953 1.068 3.913 2.214 6.012 2.883 1.54.493 3.064 1.087 4.67 1.469 4.929 1.182 9.842 1.923 14.927 1.59 1.965-.131 3.92-.121 5.83-.692 2.099-.627 4.374-.901 6.267-1.907 2.364-1.253 4.673-2.69 6.71-4.538 3.008-2.729 5.522-5.749 6.951-9.598.546-1.466 1.841-3.043 1.583-4.33-.36-1.802.232-3.555-.399-5.367-.772-2.213-1.972-3.379-4.205-4.084-3.44-1.084-6.948-1.113-10.447-1.146-3.011-.026-6.035.3-9.037.633-1.991.222-3.989.196-5.987.536-1.435.245-2.965.274-4.453.401-2.015.173-4.036.327-6.056.366-2.916.059-5.838.117-8.748-.029-1.914-.098-3.814-.533-5.712-.866-1.876-.333-3.742-.721-5.61-1.093-.392-.079-1.015-.392-1.119-.265-.344.425-.752 1.035-.689 1.515.593 4.522-.404 9.181 1.395 13.634.533 1.322.703 2.824 1.548 4.052a171.979 171.979 0 0 0 3.284 4.574m30.898 14.528c.085-.163.17-.467.258-.47 1.998-.017 3.911-.33 5.86-.888.938-.268 1.092-.705 1.402-1.303-.539-.147-1.089-.454-1.612-.411-1.984.147-3.959.581-5.937.581-2.711 0-5.418-.314-8.132-.454-1.677-.088-3.361-.121-5.043-.153-1.105-.02-2.219-.066-3.313.049-.3.032-.543.604-.812.927.25.108.652.157.724.336.432 1.074 1.302.043 1.991.47.982.604 2.24.986 3.401 1.042 3.179.153 6.367.075 9.552.124.5.01.997.202 1.661.15ZM557.404 757.455c.154-1.296.446-2.432.416-3.562-.022-.826-.63-1.629-.689-2.462-.102-1.459-.782-2.566-1.682-3.62-.353-.412-.689-.859-.931-1.342-.456-.911-.169-1.649.618-2.273.817-.646 1.714-1.266 2.654-.499.792.646 1.424 1.534 1.993 2.4 1.951 2.974 2.085 6.461 2.049 9.771-.017 1.799-.115 3.761-.988 5.736-1.397 3.151-1.26 4.274-3.39 6.69-1.772 2.008-3.592 4.058-5.724 5.645-2.143 1.593-4.659 2.713-7.086 3.885-1.421.686-3.055.93-4.475 1.619-2.819 1.362-5.501 3.017-8.345 4.32-2.835 1.299-5.306 3.082-7.22 5.445-.757.937-.644 2.596-.869 3.934-.328 1.943 1.568 2.648 2.372 3.951.334.542 1.521.506 2.26.858 2.245 1.071 4.73 1.228 7.075 1.917 1.627.48 3.325.744 5.008.996 3.918.584 7.834 1.221 11.774 1.609 3.816.379 7.659.549 11.494.666 3.558.108 7.122.101 10.679-.006 2.419-.072 4.839-.346 7.245-.64 2.74-.333 5.461-.793 8.194-1.185 2.165-.31 4.391-.389 6.487-.95 2.871-.771 5.765-1.659 8.42-2.962 1.804-.888 1.203-3.845-.651-5.031-2.554-1.632-5.477-2.122-8.308-2.895-1.586-.435-3.254-.588-4.839-1.022-1.553-.425-3.028-1.401-4.578-1.499-2.688-.176-4.872-1.361-6.971-2.752-2.295-1.525-4.296-3.386-5.372-6.053-.461-1.141-1.905-5.192-1.918-10.52-.013-5.62 1.43-12.529 1.918-13.731.451-1.109 3.424-16.091 4.339-10.196.267 1.726-1.401 13.299-1.714 21.184-.176 4.432.936 7.352.959 7.549.153 1.372.856 2.678 1.268 4.026.749 2.445 2.541 3.967 4.656 5.139 1.54.855 3.113 1.746 4.784 2.236 1.419.418 3.014.18 4.499.418 2.956.47 5.938.888 8.818 1.665 2.171.588 4.287 1.518 5.82 3.376 2.403 2.925 3.999 6.794 1.926 9.804-.984 1.427-2.102 2.609-4.074 2.847-1.125.134-2.112 1.313-3.24 1.482-2.328.35-4.424 1.437-6.88 1.574-1.513.082-3.086 1.006-4.881.983-.517-.007-1.72.009-2.04.31-.844.79-1.779-.013-2.24.251-2.286 1.313-4.816.839-7.184 1.094-4.221.454-8.507.437-12.764.388-3.836-.045-7.684-.241-11.491-.679-2.209-.254-4.446-.235-6.621-.633-1.779-.326-3.565-.438-5.342-.669-1.507-.196-3.114-.239-4.499-.696-1.566-.516-3.284.199-4.815-1.084-.818-.685-2.599-.081-3.784-.506-1.855-.666-3.577-1.704-5.346-2.602-.319-.16-.648-.356-.887-.61-2.082-2.24-4.064-4.564-4.444-7.754-.134-1.127.466-2.158.774-3.209.408-1.385.897-2.619 1.847-3.566 1.589-1.583 2.916-3.451 5.303-4.192 1.35-.418 2.364-1.818 3.686-2.452 1.794-.858 3.8-1.273 5.602-2.118 2.788-1.306 5.428-2.929 8.227-4.209 3.587-1.642 6.431-4.27 9.284-6.833 1.327-1.195 2.253-2.951 3.024-4.607.557-1.195.56-2.647.81-4.149ZM523.726 722.993c4.387.326 8.627.526 12.824 1.058 1.232.156 2.447.107 3.662.245 4.319.486 8.653.646 12.997.672 1.754.01 3.505.268 5.26.297 8.018.137 16.038.288 24.055.317 4.424.016 8.845-.206 13.269-.3 2.485-.053 5.048.31 7.435-.187 4.035-.835 8.118-.633 12.163-1.077 2.148-.235 4.303-.552 6.454-.646 2.181-.095 4.316-.565 6.461-.63 2.243-.072 4.401-.653 6.618-.719 2.272-.065 4.47-.529 6.686-.95 1.429-.271 2.94-.065 4.395-.232 1.38-.156 2.727-.571 4.107-.77 1.203-.176 1.945.47 2.095 1.642.157 1.215-.791 2.184-1.961 2.426-1.348.281-2.636.859-3.986 1.113-1.749.327-3.538.451-5.31.683-3.306.427-6.611.888-9.92 1.292-2.139.262-4.283.484-6.432.653-3.23.255-6.467.418-9.697.67-3.8.297-7.596.646-11.392.969-.163.017-.327 0-.49.004-4.042.107-8.083.257-12.124.316-9.217.137-18.435.268-27.652.317-3.442.016-6.887-.16-10.327-.317-3.834-.176-7.68-.29-11.492-.705-1.664-.18-3.345-.007-4.958-.307-2.529-.473-5.094-.251-7.609-.627-4.671-.698-9.416-.721-14.068-1.596-1.301-.245-2.663-.154-3.973-.363-4.021-.64-8.098-.904-12.092-1.674-1.395-.268-2.799-.317-4.184-.585-1.882-.366-3.782-.64-5.666-.996-2.176-.411-4.379-.741-6.505-1.338-1.584-.447-3.012-1.463-4.602-1.864-2.289-.578-4.453-1.456-6.119-3.027-1.584-1.492-3.414-2.736-4.379-5.008-.496-1.169-1.384-2.403-1.735-3.683-.453-1.652-.574-3.425-.615-5.148-.021-.892.426-1.799.687-2.691.276-.937 1.271-1.041 1.993-.098.517.676.901 1.496 1.173 2.309.344 1.025.541 2.105.755 3.17.569 2.85 2.322 5.011 4.202 7.062.479.522 1.326.702 1.982 1.074 1.324.754 2.564 1.71 3.968 2.256 1.485.571 3.136.702 4.683 1.136 1.215.339 2.355.986 3.581 1.237 1.358.278 2.791.173 4.164.399 1.901.31 3.868.143 5.681 1.198.751.434 1.975-.023 2.96.107 1.725.229 3.461.444 5.169.715 1.556.245 3.149.203 4.67.585 2.736.685 5.593.437 8.298 1.048 1.573.352 3.202-.196 4.841.568ZM608.412 711.24c-2.044-.219-3.927-.418-5.804-.679-.203-.027-.533-.415-.503-.585.088-.542.163-1.322.523-1.531 1.039-.611 2.197-1.319 3.345-1.391 4.149-.261 8.318-.369 12.477-.362 4.966.01 9.936.196 14.903.303 3.587.075 7.193.428 10.747.134 3.165-.258 6.271-1.211 9.394-1.903 1.592-.353 3.204-.686 4.724-1.254.916-.343 1.704-1.084 2.472-1.733.164-.138.141-.823-.039-.98-.971-.855-1.955-1.724-3.051-2.406-2.978-1.864-6.509-2.018-9.792-2.902-3.724-1.006-7.569-1.564-11.352-2.348a135.18 135.18 0 0 0-5.693-1.032c-3.037-.499-6.085-.891-9.139-1.247-1.873-.218-3.76-.339-5.61-.676-2.632-.476-5.278-.555-7.936-.649-3.78-.141-7.556-.447-11.336-.611-.932-.042-1.87.199-2.808.297-.151.017-.308-.036-.461-.058.085-.154.137-.353.268-.454.912-.718 1.844-1.417 2.766-2.126.042-.032.098-.068.114-.114 1.321-3.735 4.349-1.058 6.494-1.694.399-.118.906.183 1.367.199 3.55.124 7.105.143 10.652.365 2.155.134 4.326.379 6.448.699 3.822.578 7.687.846 11.486 1.564 2.734.516 5.457 1.071 8.181 1.629 1.468.304 2.949.571 4.385.996 1.51.447 2.945 1.165 4.463 1.574 1.563.417 3.214.506 4.78.92 1.965.526 3.93 1.114 5.804 1.894 2.043.849 3.796 2.341 4.217 4.522.471 2.419-.173 4.678-2.135 6.572-2.821 2.732-6.199 3.819-9.959 4.077-2.315.16-4.744-.163-6.922.444-2.38.67-4.715.82-7.115.872-5.032.108-10.064.294-15.096.304-4.149.006-8.301-.18-12.451-.317-.882-.026-1.762-.206-2.808-.313Z" fill="#00160A"/><path fill-rule="evenodd" clip-rule="evenodd" d="M523.809 682.754c1.235-.029 2.387-.215 3.541-.222.989-.006 1.993.134 2.962.336.355.075.687.477.934.8.681.895 1.367 1.796 1.927 2.769.151.261.691 1.084-.567 1.002-4.589-.3-9.184-.568-13.781-.659-5.463-.111-10.931-.03-16.396-.027-1.768.004-3.781-.496-5.24.183-1.663.774-3.286.474-4.855.683-3.367.444-6.738.862-10.097 1.394-1.212.192-2.486-.023-3.706.14-1.232.163-2.429.581-3.648.862-1.495.343-3 .64-4.49 1.002-.206.049-.531.487-.491.552.96 1.557 1.631 3.8 3.037 4.457 1.972.917 3.963 2.213 6.399 2.216 1.663 0 3.331.562 4.984.928 1.247.277 2.597.421 3.68 1.021 1.61.895 3.037 2.123 4.507 3.252.221.17.255.585.375.885-.329.127-.655.356-.986.366-1.579.036-3.198.238-4.73-.03-3.541-.62-7.164-1.136-10.514-2.35-2.566-.931-5.391-1.701-7.34-4.026-.808-.966-2.198-1.417-3.151-2.292-2.016-1.844-1.774-5.54.447-7.215 1.891-1.427 4.018-2.462 6.305-2.961 2.094-.461 4.283-.464 6.404-.826 1.519-.258 2.972-.918 4.492-1.146 2.237-.336 4.576-.183 6.739-.748 1.319-.343 2.727.291 3.918-.578.107-.078.319-.006.482-.013 2.079-.108 4.157-.261 6.238-.316 4.802-.138 9.604-.285 14.408-.314 2.568-.016 5.139.186 7.707.323.149.01.283.307.506.552Z" fill="#00160A"/><path fill-rule="evenodd" clip-rule="evenodd" d="M503.782 689.039c1.544.92 3.289-.336 4.729.858.597.493 1.763.255 2.639.477 1.997.5 2.906 3.882 1.457 5.358-3.872 3.934-8.65 5.501-14.055 5.001-1.709-.156-3.322-1.201-5.037-1.488-2.8-.471-4.877-2.025-6.792-3.912-1.218-1.198-.701-3.3 1.213-4.296a13.018 13.018 0 0 1 4.017-1.3c1.638-.241 3.333-.088 4.998-.186 2.225-.13 4.446-.336 6.831-.512m3.107 3.591c-1.519-.437-3.114-.108-4.62-.369-3.407-.594-6.735-.01-10.072.408-.857.108-1.649.722-2.471 1.101.326.453.586.985 1.003 1.328.248.203.748.079 1.124.154 4.738.95 9.476 1.1 14.209-.017a58.982 58.982 0 0 0 3.671-.992c.295-.088.521-.398.779-.607-.341-.118-.681-.239-1.023-.353-.812-.274-1.625-.545-2.6-.653ZM631.892 692.652c1.543.921 3.289-.336 4.729.859.597.493 1.762.255 2.638.477 1.998.499 2.907 3.882 1.457 5.357-3.872 3.934-8.65 5.501-14.054 5.002-1.71-.157-3.322-1.202-5.038-1.489-2.799-.47-4.876-2.024-6.792-3.911-1.217-1.198-.701-3.301 1.214-4.297a13.002 13.002 0 0 1 4.016-1.299c1.639-.242 3.333-.088 4.998-.186 2.225-.131 4.446-.336 6.832-.513m3.106 3.592c-1.519-.438-3.114-.108-4.619-.369-3.408-.594-6.736-.01-10.073.408-.856.108-1.649.721-2.471 1.1.326.454.587.986 1.003 1.329.248.202.748.078 1.124.153 4.739.95 9.476 1.101 14.209-.016a59.533 59.533 0 0 0 3.672-.993c.294-.088.521-.398.779-.607-.342-.117-.682-.238-1.024-.352-.812-.275-1.624-.546-2.6-.653Z" fill="#FFB61D"/></svg>