<svg width="1080" height="1024" fill="none" xmlns="http://www.w3.org/2000/svg"><path fill="#fff" d="M0 0h1080v1024H0z"/><path fill="#fff" d="M165 274h750v750H165z"/><path fill-rule="evenodd" clip-rule="evenodd" d="M576.159 339c175.34 0 212.256 242.997 212.973 244.997.739 2.06 1.436 4.18 2.109 6.238 1.367 4.18 3.127 8.204 4.495 12.356.837 2.533 2.375 4.631 3.405 7.023 2 4.57 4.45 8.931 7.314 13.017a19.759 19.759 0 0 1 2.756 5.303c.452 1.452 1.951 1.84 2.598 3.121 1.047 2.074 2.443 3.969 3.652 5.961.275.7.907 1.198 1.653 1.302l-.236 1.977c.438.713.587-.25 1.045-.081.573.772 1.39 1.457 1.473 2.632.076 1.104 1.365 1.208 1.806 2.171.967 2.091 3.656 3.157 3.617 5.9 1.933 1.214 2.884 3.298 4.343 4.933a4.486 4.486 0 0 1 1.293 2.797l.013.243c-.011 1.047 2.01.812 1.466 2.24 3.094 2.322 3.897 6.115 5.531 9.258 2.62 5.042 5.639 9.914 7.419 15.436.891 2.762 2.619 5.375 3.579 8.172 2.161 6.287 4.755 12.437 6.159 18.985.579 2.704 1.762 5.281 2.316 7.993l.639 3.134c.952 4.704 1.854 9.42 2.453 14.187a5.982 5.982 0 0 1-.001 3.29c-.516 1.224.854 2.008.965 3.236.137 1.456-.445 2.836-.026 4.382.231.852 0 2.22.266 3.209.861 3.214-.23 6.529.707 9.721a8.34 8.34 0 0 1-.38 3.663c-.648 3.93.538 7.943-.645 11.78a12.707 12.707 0 0 0-.311 5.823l.146.747c.105.553.174 1.092-.098 1.464-1.078 1.474-.8 3.212-1.015 4.824l-.041.267c-.31 1.805.01 3.697-.535 5.536a16.394 16.394 0 0 0-1.234 5.664c.275 3.3-.836 6.262-1.517 9.326-.339 1.53-.058 3.35-1.743 4.489-.857.579 1.165 1.703-.061 2.551l-.144.09c-.9.508-.861 1.327-.607 2.309.232.897-1.336 1.517-.887 2.435.448.918.651 2.255.127 2.424-1.31.43.022 1.854-1.078 2.124a.395.395 0 0 0-.202.286c-.375 3.447-2.595 6.276-3.144 9.721a16.645 16.645 0 0 1-2.361 5.778 35.226 35.226 0 0 0-2.409 5.305c-1.231 3.081-3.338 5.654-4.524 8.719-.323.83-2.472.552-1.379 2.255-1.254.443-.873 1.742-1.377 2.553a8.067 8.067 0 0 1-1.918 1.553 11.98 11.98 0 0 1-2.59 4.933 90.958 90.958 0 0 1-7.079 9.065l-2.105 2.357c-2.814 3.143-5.719 6.218-9.427 8.385-.953.557-.519 1.613-1.304 2.186-4.546 3.356-8.734 7.163-13.906 9.707-2.165 1.066-4.021 2.958-6.234 4.067-4.193 2.105-8.087 4.726-12.573 6.365l-.798.279c-2.857.95-5.669 2.391-8.569 3.437a79.856 79.856 0 0 1-18.52 4.812l-3.913.434c-3.479.384-6.963.738-10.477.835-1.663.045-3.258-.482-4.781-.292a10.852 10.852 0 0 1-4.422-.356c-1.132-.317-2.09.657-3.31.134a3.372 3.372 0 0 0-3.105-.246l-.2.092c-.578.335-1.716-.284-2.597-.483a18.694 18.694 0 0 1-3.767-.931c-.946-.437-2.151.967-2.809-.526-1.196.928-82.43-18.376-157.051 20.824-6.077 4.026-13.188 5.794-19.681 8.921-3.019 1.457-6.412 2.122-9.661 3.117l-.694.218c-5.736 1.854-11.618 3.119-17.492 4.441a126.018 126.018 0 0 1-16.368 2.432c-3.957.358-7.932.524-11.879.955-1.601.174-3.17-.954-4.736.015-3.52-.958-7.214.205-10.724-.877-2.334.69-4.527-.166-6.672-.798-1.638-.486-3.181.522-4.835-.193a9.67 9.67 0 0 0-4.89-1.086c-2.818.432-5.271-.602-7.837-1.148a530.483 530.483 0 0 1-17.828-4.119c-1.939-.484-4.117-.298-5.778-1.78-1.458-1.302-3.758-.486-5.19-2.023-.522-.559-1.189.525-1.976.102-1.536-.825-3.509-.281-4.944-1.768-1.063-1.101-3.069-.356-4.245-1.686l-.155-.194c-.695-.965-2.527 1.309-3.069-.839-2.19-.168-4.005-1.362-5.955-2.18-1.615-.675-3.522-.294-4.98-1.7-1.242-1.199-3.589-.317-4.665-2.114-2.633-.022-4.574-1.992-7.083-2.51a22.06 22.06 0 0 1-5.437-2.237 171.522 171.522 0 0 0-8.209-3.94 29.672 29.672 0 0 1-2.891-1.544c-.524-.306-.651-.985-1.4-1.15-4.739-1.05-8.724-3.812-12.772-6.228a48.726 48.726 0 0 1-6.605-4.112l-.692-.521c-.611-.525-1.88-.784-2.417-1.515-1.498-2.034-3.738-3.029-5.77-4.251l-.336-.206a13.71 13.71 0 0 1-3.089-2.484c-.171-.186-.24-.588-.422-.633-3.372-.833-5.385-3.618-7.963-5.565-2.218-1.673-4.157-3.713-6.341-5.418l-.832-.623c-5.11-3.655-61.032-65.19-67.369-75.809l-1.813-3.039c-1.811-3.045-3.601-6.112-5.249-9.24l-1.404-2.662c-1.401-2.669-2.78-5.356-4-8.09l-1.631-3.65c-3.255-7.303-6.44-14.643-9.155-22.183-2.421-6.727-4.425-13.565-6.448-20.408a164.509 164.509 0 0 1-3.316-13.285 492.084 492.084 0 0 1-3.954-21.55c-1.08-6.791-.68-13.682-2.122-20.396.945-4.123-.793-8.308.286-12.426-.8-2.034-.097-4.144-.021-6.149.077-2.069-.387-4.237.439-6.334.379-.953-.497-2.098-.022-3.261.52-.968.58-2.118.163-3.135 1.405-.646-.269-1.64.314-2.56a5.303 5.303 0 0 0 .79-3.352c-.409-2.627 1.104-5.053.839-7.427-.277-2.427.921-4.485.918-6.661l-.016-.409c-.207-2.856 1.835-5.007 1.903-7.709.006-.236.565-.454.872-.689-.099-.608-.771-.47-1.248-.943a10.88 10.88 0 0 0 1.979-2.266c.418-1.156.715-2.351.886-3.568l-1.936-2.497c.715-1.428.466-2.727 1.419-3.847.415-.49.184-1.985.235-3.018.067-1.356 1.81-2.164 1.39-3.235a5.608 5.608 0 0 1 .298-3.702 3957.78 3957.78 0 0 1 7.62-32.947c.272-1.176.035-2.655 1.482-3.344-1.581-1.633.902-2.203.941-3.497a8.34 8.34 0 0 1 1.365-3.37c.988-1.888 1.079-4.233 1.641-6.361a8.052 8.052 0 0 1 1.645-4.134c.963-.997.825-2.735 1.55-4.136a22.216 22.216 0 0 0 2.362-5.416 7.34 7.34 0 0 1 1.572-3.733c.768-.847.137-2.601 1.629-3.24.418-2.458 1.886-4.433 2.973-6.587l.199-.406a153.65 153.65 0 0 1 8.985-16.106c2.754-4.363 5.434-8.772 8.23-13.108.91-1.4 1.877-2.794 2.877-4.123a162.535 162.535 0 0 1 11.212-14.052c3.653-3.871 7.135-7.916 10.97-11.638 2.039-1.98 3.707-4.411 5.687-6.514 4.665-4.965 9.455-9.795 14.493-14.379a92.62 92.62 0 0 1 13.894-11.292c1.356-.825 2.47-2.033 3.779-2.946a38.353 38.353 0 0 0 4.561-2.952c1.685-1.585 3.753-2.593 5.455-4.061 1.321-1.139 3.435-.489 4.381-2.539.689-1.491 3.269-.944 4.137-2.686 2.382-.08 3.494-2.386 5.657-3.144l.288-.089c2.279-.622 4.224-2.461 6.314-3.765a55.314 55.314 0 0 1 6.316-3.866c4.11-1.851 7.657-4.671 11.675-6.583 3.83-1.82 7.277-4.485 11.455-5.499.987-.239.803-1.11 1.482-1.481.707-.389 1.481-.131 2.119-.579C383.169 399.859 400.819 339 576.159 339Z" fill="#64FCD9"/><path fill-rule="evenodd" clip-rule="evenodd" d="M378.374 469.449c-5.865 3.309-14.453-.912-15.416-7.577 3.741-.2 7.739-.492 10.697-2.791 2.957-2.3 3.992-7.392 1.028-9.683-24.134-2.964-47.612-11.163-68.343-23.87 14.156-4.265 26.336-13.262 39.633-19.727 13.296-6.465 29.378-10.288 42.639-3.751 13.021 6.419 28.011-1.769 41.599-6.88 23.627-8.887 50.721-8.142 73.824 2.03 16.856 7.422 45.418-4.624 63.627-7.387 29.743-4.513 58.779 16.333 88.645 12.723l-9.612 6.356a87.507 87.507 0 0 1 9.496-.349l-74.358 35.582 18.837 7.62c-1.476 4.732-6.767 7.928-11.643 7.032l11.769 9.366c-4.187 2.974-9.487 4.341-14.591 3.762a37.14 37.14 0 0 1 12.863 14.236c12.948-4.314 27.131-4.845 40.365-1.512l-35.871 4.703 5.417 14.749c15.62-3.575 32.221-2.762 47.417 2.321l-45.207 1.151c-.352 19.992-10.305 40.38-27.781 50.096-17.477 9.715-52.399 18.354-63.966-9.934-8.856 5.812-8.229 19.783-1.915 28.288 6.314 8.505 16.345 13.212 25.417 18.68 30.136 18.162 52.865 48.238 62.111 82.187 9.245 33.949 4.905 71.398-11.86 102.332 22.603 3.514 43.606 16.377 57.009 34.914 28.861-13.429 44.846-44.071 66.954-66.974 25.148-26.054 59.864-42.661 95.931-45.891 21.339-1.911 45.675 2.204 58.122 19.641 16.179 22.666 1.262 57.907-24.563 68.327-20.471 8.259-43.561 4.105-65.581 5.665-44.279 3.138-83.153 29.248-119.665 54.495-1.489 8.174 1.5 17.024 7.64 22.622 13.06-13.5 29.535-23.67 47.456-29.297 6.624-2.079 16.553-1.537 17.289 5.367.279 2.613-1.096 5.091-2.487 7.321-11.948 19.154-28.795 35.224-48.492 46.254-10.396 5.823-22.014 10.336-33.911 9.669-11.898-.666-24.013-7.533-28.054-18.743-1.873-5.195-2.076-11.208-5.622-15.44-6-7.161-17.524-5.017-25.934-.95-8.41 4.068-17.375 9.598-26.399 7.185a231.545 231.545 0 0 0-69.372-7.645c-29.714 1.244-59.991 8.161-88.78.699-9.617-2.493-20.379-6.424-28.899-1.313-16.79 10.072-5.465 42.315-22.69 51.624-6.102 3.297-13.579 2.081-20.31.41-29.746-7.383-57.647-22.085-80.554-42.446-2.208-1.962-4.483-4.166-5.101-7.055-1.857-8.663 10.931-12.267 19.644-10.663a99.005 99.005 0 0 1 41.029 17.882c4.231 3.151 10.67-.525 12.462-5.487 1.793-4.961.56-10.425-.14-15.654-4.419-33.028 16.301-67.753 47.467-79.547-18.869-27.536-26.044-62.816-19.429-95.534 6.615-32.718 26.932-62.44 55.016-80.482 11.219-7.208 24.109-13.103 31.259-24.359 7.15-11.255 4.012-30.139-9.068-32.734-12.324 13.347-32.369 18.993-49.847 14.038-17.479-4.954-31.58-20.278-35.068-38.106l-34.802 11.753a83.054 83.054 0 0 1 35.269-15.781l3.679-15.941c-22.136-1.428-44.584 2.215-65.131 10.57 12.644-9.518 28.732-14.354 44.528-13.387 16.067.984 32.4-6.877 41.653-20.049a33.456 33.456 0 0 1-14.847-10.485c5.905-3.205 13.056-4.035 19.537-2.269M491.93 817.955c-1.054 1.026-2.188 2.244-2.113 3.713.074 1.468 2.277 2.565 3.037 1.306 4.149-6.872 11.363-11.813 19.269-13.197 7.907-1.384 16.37.813 22.606 5.867 2.176 1.763 4.118 3.871 6.604 5.16.894.464 2.426.477 2.463-.531.012-.33-.177-.631-.363-.905-4.478-6.6-11.174-11.667-18.742-14.182-6.635-2.204-14.323-2.343-20.256 1.354-2.155 1.342-3.993 3.128-5.812 4.899l-6.693 6.516Zm-32.174-12.009c-8.59-1.135-17.838 1.747-23.558 8.255-1.008 1.147-1.925 2.438-2.272 3.925-.346 1.488-.02 3.209 1.132 4.211 4.425-6.874 12.288-11.407 20.453-11.793 8.166-.385 16.421 3.388 21.473 9.815.79 1.005 1.544 2.104 2.665 2.718 1.122.614 2.754.535 3.436-.546.816-1.291-.17-2.942-1.176-4.091-5.707-6.519-13.564-11.358-22.153-12.494Zm60.589-8.794c-.133 1.453 1.786 2.356 3.165 1.881 1.379-.476 2.293-1.746 3.216-2.875 7.679-9.391 22.301-12.221 32.929-6.372 1.394-1.177 1.474-3.435.541-5.003-.933-1.569-2.636-2.531-4.374-3.087-3.765-1.203-7.853-.793-11.726-.009-9.169 1.855-18.43 6.201-23.25 14.218-.233.387-.459.797-.501 1.247Zm-36.044 30.47c-3.768.262-7.456 1.259-10.984 2.609-4.875 1.866-9.675 4.584-12.529 8.955 4.185 1.185 8.197-1.935 12.02-4.01 8.576-4.654 19.7-4.173 27.843 1.204 2.554 1.687 5.836 3.866 8.327 2.086-5.827-7.305-15.355-11.492-24.677-10.844Zm15.48-2.356c2.858-1.489 5.143-3.908 7.978-5.441 3.904-2.112 8.768-2.356 12.864-.645 2.224.929 4.193 2.382 6.385 3.386 2.191 1.003 4.802 1.524 6.985.503.242-.114.493-.263.595-.51.166-.402-.129-.835-.415-1.162-4.886-5.577-12.541-8.599-19.919-7.862-7.378.736-14.285 5.212-17.972 11.644.77 1.014 2.371.675 3.499.087Zm-57.238.266c1.531-.871 2.729-2.216 4.129-3.285 2.8-2.138 6.447-3.123 9.946-2.716 3.9.452 7.416 2.516 10.641 4.755.943.655 1.906 1.343 3.024 1.603 1.119.26 2.451-.022 3.083-.98.626-.948.375-2.27-.295-3.187-.67-.917-1.675-1.52-2.655-2.095-3.986-2.338-8.198-4.675-12.813-4.913-5.769-.298-11.13 2.709-16.119 5.62-2.024 1.181-4.347 2.969-3.919 5.272 1.385 1.089 3.447.797 4.978-.074Zm25.979-22.361c1.042 1.348 3.081-.097 4.23-1.353 3.542-3.869 8.647-6.265 13.886-6.517 5.24-.251 10.55 1.644 14.446 5.157.983.886 2.019 1.932 3.342 1.968 1.322.036 2.514-1.81 1.465-2.616-5.617-4.315-12.151-7.841-19.219-8.307-7.067-.466-14.684 2.705-17.956 8.986-.438.842-.774 1.932-.194 2.682Zm62.487-1.181c.933-.394 1.616-1.197 2.33-1.915 5.438-5.47 14.65-6.693 21.326-2.831 1.67.966 4.182 2.032 5.152.364.809-1.39-.633-3.008-2.009-3.842-8.98-5.445-21.781-3.371-28.582 4.631-.693.815-1.357 1.933-.881 2.891.45.907 1.731 1.096 2.664.702Zm4.964.514c-.386.323-.771.684-.933 1.16-.454 1.33 1.162 2.574 2.562 2.463 1.401-.112 2.591-1.012 3.862-1.611 3.098-1.461 6.821-1.113 9.966.245 1.244.537 2.449 1.231 3.789 1.433 1.34.202 2.903-.243 3.514-1.453-5.329-6.605-16.247-7.678-22.76-2.237Zm-84.259-2.535c.796.374 1.881.302 2.392-.412.696-.972-.049-2.294-.788-3.233-2.501-3.18-5.191-6.311-8.629-8.444-3.438-2.133-7.768-3.159-11.596-1.852-.39 1.414 1.37 2.375 2.755 2.858a33.214 33.214 0 0 1 13.909 9.349c.581.659 1.162 1.361 1.957 1.734Zm47.129 3.549c-6.294-4.014-14.885-4.084-21.244-.174-1.105.679-2.24 1.634-2.326 2.929-.086 1.294 1.672 2.496 2.544 1.535 3.512-3.872 9.931-4.676 14.29-1.789 2.14 1.418 5.213 1.224 7.159-.45.919-.096.355-1.554-.423-2.051Zm45.782 21.718c-8.942-.604-17.264 4.658-23.755 10.839.473 1.092 2.085.802 3.177.33l22.176-9.598c.555-.735-.678-1.509-1.598-1.571Zm-85.11 3.983c1.1.623 2.177 1.471 3.441 1.472 1.265.001 2.518-1.521 1.716-2.498-2.525-3.079-6.494-4.92-10.475-4.859-3.982.061-7.892 2.022-10.322 5.177.3 1.146 1.703 1.674 2.875 1.503 1.172-.171 2.205-.832 3.293-1.303 3.007-1.303 6.621-1.109 9.472.508Zm44.345-.841c-.101.881.897 1.554 1.782 1.506.885-.048 1.662-.566 2.438-.993 3.258-1.795 7.269-2.163 10.799-.991 2.262.751 5.084 1.979 6.716.243.144-.992-.852-1.741-1.737-2.212-3.17-1.686-6.66-2.959-10.251-2.925-3.591.033-7.296 1.539-9.347 4.488-.186.268-.363.559-.4.884Zm-6.675-38.639a31.323 31.323 0 0 1 10.089 5.944c1.216 1.068 2.38 2.252 3.855 2.919 1.475.666 3.39.683 4.545-.451a21.29 21.29 0 0 1-6.085-7.394c-.771-1.553-2.826-1.838-4.558-1.922l-7.595-.372c-.267.36-.362.842-.251 1.276Zm-33.02 8.89c1.307-1.221 2.272-2.76 3.479-4.079a14.718 14.718 0 0 1 7.019-4.256c1.157-.309 2.677-.901 2.502-2.084-3.275-.569-7.013-1.028-9.596 1.064a28.142 28.142 0 0 0-8.26 11.085c1.746.386 3.549-.51 4.856-1.73Zm-29.115-1.483 7.042 4.588c.994.648 2.262 1.311 3.293.724.957-.544 1.103-1.946.604-2.927-.498-.981-1.449-1.638-2.362-2.253l-5.733-3.86c-1.601-1.078-4.208-1.937-5.078-.215-.751 1.484.84 3.035 2.234 3.943Zm49.423 18.386c.898.891 2.156 1.855 3.298 1.308.52-.249.855-.761 1.163-1.248l3.053-4.825c-2.664-2.963-7.894-3.042-10.647-.162-.211.222-.417.475-.455.779-.06.481.312.897.656 1.239l2.932 2.909Zm-41.076 22.998c1.909.67 4.162.868 5.845-.253a39.056 39.056 0 0 0-8.782-7.496c-.93-.58-1.978-1.14-3.063-.986-1.085.155-2.045 1.388-1.52 2.35a13.905 13.905 0 0 0 7.52 6.385Zm104.732-23.43 2.706-3.27c.311-.376.639-.8.62-1.287-.025-.618-.591-1.062-1.13-1.366a10.292 10.292 0 0 0-6.224-1.237c-.816.098-1.667.321-2.241.909-.574.589-.74 1.635-.162 2.221l3.929 3.98c.428.433.97.904 1.565.774.394-.085.68-.414.937-.724Zm-94.135-23.55c.809.871 1.826 1.763 3.011 1.665 2.54-.21 3.36-4.595 5.898-4.355.681-1.123-1.178-2.022-2.492-2.043l-10.199-.161a34.199 34.199 0 0 0 3.782 4.894Zm20.997 47.785 21.217-.092c-.62-1.398-2.279-1.966-3.777-2.276a32.202 32.202 0 0 0-14.891.449c-1.083.294-2.319.821-2.549 1.919Zm43.667-7.442-7.02.317c-.755.035-1.725.254-1.818 1.004-.041.335.127.657.29.953.619 1.124 1.277 2.292 2.347 3 1.07.707 2.68.777 3.512-.199.638-.748.688-1.915 1.449-2.538.49-.402 1.17-.481 1.712-.809.543-.329.888-1.18.385-1.566-.236-.181-.56-.175-.857-.162Zm-60.588 3.914c.625-.975.034-2.356-.94-2.983-.974-.628-2.192-.704-3.349-.761-1.278-.063-2.961.172-3.191 1.431-.109.6.197 1.189.492 1.722.867 1.566 2.143 3.361 3.924 3.184 1.381-.137 2.315-1.424 3.064-2.593Zm92.435-14.032c1.05.087 1.991-.625 2.728-1.378a14.302 14.302 0 0 0 3.978-8.58c-.743-.475-1.653.262-2.223.936l-5.74 6.788c-.68.804.207 2.147 1.257 2.234Zm-117.051-16.029c1.067 1.336 3.125 1.754 4.629.941.77-.416 1.419-1.242 1.266-2.104-.136-.767-.834-1.287-1.478-1.726l-2.792-1.903c-.284-.194-.611-.397-.947-.327-.233.047-.419.218-.575.397-1.124 1.287-1.17 3.387-.103 4.722Zm82.638-14.094c1.117.938 2.773-.031 3.882-.979l3.61-3.084c-.681-.651-1.77-.504-2.692-.313l-8.037 1.661 3.237 2.715Zm42.07-13.142c.674.84 2.094.659 2.867-.091.774-.75 1.059-1.859 1.281-2.913.053-.253.103-.527-.003-.763-.271-.601-1.162-.42-1.758-.142-1.606.749-3.497 2.528-2.387 3.909Z" fill="#fff"/><path fill-rule="evenodd" clip-rule="evenodd" d="M348.214 688.638c6.615-32.718 29.233-60.107 57.317-78.149-14.199 19.465-57.774 51.385-43.768 86.947 22.387 56.845 109.479 65.786 106.449 66.403-51.511 10.503-124.923-50.841-119.998-75.201Z" fill="#E7EAEE"/><path fill-rule="evenodd" clip-rule="evenodd" d="M512.982 404.714c-3.584.435-6.741 3.305-7.515 6.831 29.008-15.597 64.045-19.606 95.826-10.967.027 16.028-11.216 31.444-26.486 36.315l-33.104 10.561a52.517 52.517 0 0 0 25.819-3.685c2.883 4.542 7.631 7.86 12.888 9.003l-10.176 2.232a21.963 21.963 0 0 0 8.559 11.294 16.589 16.589 0 0 0-10.561-.033l2.278 8.274c-15.004-2.082-31.037-.039-43.675 8.313-12.638 8.352-21.124 23.705-18.847 38.681 2.665-16.283 13.824-30.932 28.813-37.827 14.989-6.896 33.373-5.836 47.471 2.735l-9.563 7.083c3.673 1.461 8.025 1.088 11.395-.977 7.361 3.257 5.323 16.724-2.672 17.657l10.576.736c1.833 17.982-9.276 36.527-25.996 43.396s-37.658 1.49-48.996-12.588c-14.074 7.187-13.087 28.97-3.057 41.182 7.002 8.525 16.645 14.063 26.304 19.61 4.177 2.399 8.358 4.8 12.329 7.446 21.095 14.051 36.82 35.962 43.379 60.446a126.928 126.928 0 0 0-30.034 28.165c12.412-.578 24.567-5.642 33.72-14.045l1.954 18.905c-10.048 3.095-19.077 9.411-25.429 17.79 8.956.912 18.191-1.18 25.879-5.862a324.243 324.243 0 0 1-14.808 63.977l-23.096-.189c5.479-15.143 11.03-31.436 6.993-47.025-4.037-15.59-22.144-28.459-36.396-20.96 16.391-13.212 28.803-31.297 35.236-51.342l-41.276 53.278-31.674.269c-.996-14.924-1.954-30.219 2.289-44.562 4.242-14.342 14.835-27.769 29.43-31.039 1.583-.355 3.269-.644 4.977-.936 7.133-1.222 14.655-2.511 16.749-8.957-23.659-1.377-47.375 13.769-56.077 35.813-6.201 15.707-5.109 33.216-3.921 50.062a200.282 200.282 0 0 0-65.975 1.493c-3.768-12.845-7.676-25.978-15.581-36.782-7.904-10.803-20.737-18.997-34.057-17.663 21.451 3.188 32.077 27.025 40.166 47.147 8.089 20.122 22.773 43.106 44.369 41.115 6.15-.567 8.108 9.535 3.394 13.526-4.714 3.991-11.717 3.231-17.751 1.911-31.08-6.802-60.097-22.761-82.486-45.365-4.359-4.402-8.574-9.218-10.589-15.076-2.485-7.228-1.327-15.21.81-22.548 10.917-37.489 44.514-63.176 76.443-85.651 17.178-12.092 16.562-42.058-1.098-53.433-13.073 11.879-30.504 20.186-48.062 18.248-17.557-1.938-34.174-16.314-34.74-33.969a38.661 38.661 0 0 0 15.725-4.925c-4.717-1.677-10.034-1.605-14.705.198-1.27-4.758-.343-10.057 2.468-14.1l10.011-1.07a13.537 13.537 0 0 0-7.815-4.339c7.225-12.038 23.992-15.333 37.43-11.265 13.437 4.068 24.32 13.759 34.731 23.178-10.856-23.803-40.294-31.475-65.997-36.353l11.215-6.645c-6.481-1.766-13.632-.936-19.537 2.269a33.456 33.456 0 0 0 14.847 10.485c-9.253 13.172-25.586 21.033-41.653 20.049-15.796-.967-31.884 3.869-44.528 13.387 20.547-8.355 42.995-11.998 65.131-10.57l-3.679 15.941a83.054 83.054 0 0 0-35.269 15.781l34.802-11.753c3.488 17.828 17.589 33.152 35.068 38.106 17.478 4.955 37.523-.691 49.847-14.038 13.08 2.595 16.218 21.479 9.068 32.734-5.661 8.913-14.921 14.464-24.101 19.968-2.414 1.447-4.822 2.89-7.158 4.391-28.084 18.042-48.401 47.764-55.016 80.482-6.615 32.718.56 67.998 19.429 95.534-31.166 11.794-51.886 46.519-47.467 79.547.101.756.213 1.518.326 2.282.667 4.517 1.348 9.128-.186 13.372-1.792 4.962-8.231 8.638-12.462 5.487a99.005 99.005 0 0 0-41.029-17.882c-8.713-1.604-21.501 2-19.644 10.663.618 2.889 2.893 5.093 5.101 7.055 22.907 20.361 50.808 35.063 80.554 42.446 6.731 1.671 14.208 2.887 20.31-.41 8.686-4.695 10.112-15.221 11.545-25.796 1.408-10.394 2.822-20.835 11.145-25.828 7.516-4.509 16.777-1.981 25.457.389l.005.001c1.158.316 2.306.63 3.437.923 20.642 5.35 42.047 3.309 63.462 1.266 8.454-.806 16.908-1.613 25.318-1.965a231.545 231.545 0 0 1 69.372 7.645c7.857 2.101 15.669-1.819 23.109-5.553a256.475 256.475 0 0 1 3.29-1.632c8.41-4.067 19.934-6.211 25.934.95 2.373 2.831 3.249 6.459 4.129 10.106v.001h.001v.004h.001v.004h.001v.004c.435 1.8.871 3.605 1.49 5.321 4.041 11.21 16.156 18.077 28.054 18.743 11.897.667 23.515-3.846 33.911-9.669 19.697-11.03 36.544-27.1 48.492-46.254 1.391-2.23 2.766-4.708 2.487-7.321-.736-6.904-10.665-7.446-17.289-5.367-17.921 5.627-34.396 15.797-47.456 29.297-6.14-5.598-9.129-14.448-7.64-22.622 36.512-25.247 75.386-51.357 119.665-54.495 6.943-.492 13.991-.415 21.031-.34 15.288.166 30.533.33 44.55-5.325 25.825-10.42 40.742-45.661 24.563-68.327-12.447-17.437-36.783-21.552-58.122-19.641-36.067 3.23-70.783 19.837-95.931 45.891-6.988 7.239-13.364 15.251-19.728 23.248-13.771 17.306-27.487 34.542-47.226 43.726-13.403-18.537-34.406-31.4-57.009-34.914 16.765-30.934 21.105-68.383 11.86-102.332-9.246-33.949-31.975-64.025-62.111-82.187-1.642-.99-3.315-1.954-4.992-2.921l-.001-.001c-7.589-4.374-15.253-8.793-20.424-15.758-6.314-8.505-6.941-22.476 1.915-28.288 11.776 16.159 36.489 19.649 53.966 9.934 17.476-9.716 27.429-30.104 27.781-50.096l45.207-1.151c-15.196-5.083-31.797-5.896-47.417-2.321l-5.417-14.749 35.871-4.703c-13.234-3.333-27.417-2.802-40.365 1.512a37.14 37.14 0 0 0-12.863-14.236c5.104.579 10.404-.788 14.591-3.762l-11.769-9.366c4.876.896 10.167-2.3 11.643-7.032l-18.837-7.62 74.358-35.582a87.507 87.507 0 0 0-9.496.349l9.612-6.356c-14.675 1.774-29.15-2.357-43.607-6.483-14.965-4.27-29.91-8.535-45.038-6.24-5.944.902-11.925 2.792-17.872 4.673-12.273 3.879-24.401 7.714-35.755 2.714-23.103-10.172-50.197-10.917-73.824-2.03-2.089.786-4.212 1.645-6.355 2.512-11.796 4.772-24.225 9.8-35.244 4.368-13.261-6.537-29.343-2.714-42.639 3.751-4.668 2.269-9.198 4.851-13.724 7.43-8.368 4.768-16.722 9.529-25.909 12.297 20.731 12.707 44.209 20.906 68.343 23.87 2.964 2.291 1.929 7.383-1.028 9.683-2.958 2.299-6.956 2.591-10.697 2.791.963 6.665 9.551 10.886 15.416 7.577-2.465.458-2.649-3.546-1.625-5.834l6.39-14.28c4.963 1.822 11.139-1.102 12.875-6.095-12.289 1.479-25.04 2.918-36.813-.905-11.772-3.823-22.291-14.489-21.739-26.855 26.217-15.189 61.411-13.132 85.68 5.007-1.874-5.468-6.48-9.924-12.008-11.615 6.383-6.284 14.856-10.408 23.739-11.554-5.277 4.175-7.696 11.64-5.87 18.117l23.695-21.793a50.024 50.024 0 0 0-6.288 22.858c8.787-5.743 15.788-14.179 19.813-23.875l10.54 1.48c-6.453 5.452-10.048 14.116-9.351 22.535 8.032-4.993 14.258-12.825 17.313-21.775a86.06 86.06 0 0 1 28.257 9.849Zm291.161 385.792c-5.3-.175-10.603-.351-15.875-.201-39.24 1.114-75.722 20.226-108.098 42.426l-.335.23-.365.251-.639.439-.025.017c-6.144 4.226-12.348 8.493-19.362 10.985l-8.239-24.014c-.443-1.288-.715-3.059.483-3.707a135.4 135.4 0 0 0 33.941-26.056c6.554-6.937 12.367-14.559 18.174-22.173 8.223-10.782 16.432-21.547 26.712-30.32 16.416-14.009 37.082-22.028 57.818-28.008 15.346-4.426 31.427-7.898 47.212-5.467 15.785 2.431 31.327 11.852 37.115 26.737 4.598 11.823 2.348 25.769-4.735 36.292-7.084 10.524-18.584 17.685-30.908 20.69-10.718 2.612-21.787 2.246-32.874 1.879Zm-451.504 50.871c.83 1.974 1.353 4.608-.303 5.964-2.134 1.747-5.16-.505-6.953-2.599l-15.28-17.856a74.747 74.747 0 0 0-4.897 29.954c.088 2.04.254 4.111.421 6.188v.003h.001v.006c.639 7.951 1.286 16.008-2.397 22.903-1.615 3.024-4.363 5.8-7.785 6.022-1.939.126-3.827-.583-5.617-1.34-4.906-2.075-9.74-4.625-14.572-7.174-12.44-6.561-24.869-13.117-38.49-11.553-1.86.214-4.177 1.131-4.104 3.002.032.838.579 1.558 1.11 2.207 19.639 23.984 50.349 35.614 80.078 44.396 4.862 1.436 9.986 2.834 14.937 1.744 4.951-1.091 9.547-5.555 8.949-10.589-1.582-13.32 2.591-27.225 11.247-37.472 3.455-4.091 7.824-7.731 13.066-8.821 6.44-1.337 12.734 1.316 18.933 3.929h.001c1.592.672 3.178 1.34 4.758 1.938 12.117 4.581 25.736 5.08 38.156 1.4-4.856-.063-7.188-5.885-8.194-10.636a477.552 477.552 0 0 1-10.332-93.658c-.037-3.421-2.437-6.445-5.331-8.269-2.45-1.543-5.244-2.402-8.022-3.256-.503-.155-1.006-.309-1.507-.468a88.954 88.954 0 0 1-27.992-14.795c-1.052-.825-2.087-1.676-3.124-2.528-3.194-2.625-6.391-5.253-10.058-7.134-4.856-2.492-10.866-3.508-15.733-1.037-1.086 2.587.877 5.593 3.389 6.842 1.903.946 4.035 1.203 6.161 1.459.682.082 1.363.164 2.035.268a28.855 28.855 0 0 1 9.167 3.068c2.997 1.605 5.837 5.844 3.165 7.948-1.096.863-2.631.802-4.022.7l-15.69-1.153a165.258 165.258 0 0 0 14.531 29.856c.523.846 1.222 1.787 2.217 1.796 15.371.139 32.536 2.291 42.277 14.182 1.846 2.254 3.361 5.511 1.778 7.957-8.929-10.781-22.896-17.202-36.893-16.961-13.997.242-27.734 7.141-36.285 18.225 7.548 5.052 13.548 12.384 17.007 20.782 1.044 2.536.852 6.684-1.89 6.627l-16.47-20.166c-.736-.901-1.621-1.879-2.784-1.915-.932-.028-1.754.568-2.494 1.137-1.602 1.231-3.265 2.536-4.101 4.375-.836 1.84-.525 4.371 1.217 5.394 7.425 4.361 13.383 11.17 16.719 19.108Zm187.77 31.558c10.576-8.822 14.026-23.35 16.867-36.828l10.407-49.386c.112-.528.239-1.087.619-1.47.501-.506 1.287-.561 1.998-.582 18.972-.574 39.17 1.234 54.45 12.492a42.465 42.465 0 0 0-15.708 13.43c-1.129 1.593-2.072 3.989-.619 5.293.545.489 1.304.662 2.035.714 3.642.259 6.969-2.016 9.631-4.516a91.167 91.167 0 0 0 1.702-1.654c2.052-2.031 4.114-4.07 6.719-5.263 3.32-1.52 7.932-1.094 9.765 2.065-5.922 3.017-10.802 8.035-13.651 14.039-.742 1.563-1.355 3.37-.754 4.992.601 1.623 2.965 2.575 4.127 1.292l11.441-12.63c.553-.611 1.322-1.281 2.096-.999.418.153.691.548.93.923 6.063 9.514 8.473 20.592 10.894 31.718 1.417 6.515 2.838 13.046 4.998 19.29 1.73 5.002 5.072 10.621 10.365 10.625 2.925.002 5.513-1.798 7.828-3.585 2.475-1.911 4.938-3.915 7.413-5.929 11.635-9.468 23.534-19.152 38.188-20.312 2.31-.182 5.273.327 5.815 2.58.315 1.308-.389 2.625-1.091 3.773-10.892 17.828-27.229 31.885-45.277 42.407-9.241 5.388-19.373 10.014-30.069 10.097-10.696.083-22.022-5.386-26.064-15.289-.824-2.02-1.329-4.153-1.832-6.283l-.001-.001c-.582-2.464-1.165-4.926-2.241-7.208-2.773-5.883-8.92-10.023-15.413-10.383-6.183-.342-11.869 2.412-17.543 5.16-1.993.966-3.985 1.93-5.996 2.76-13.352 5.507-29.052 5.009-42.029-1.332Zm-70.602-106.32c-3.982 3.397-9.337 4.753-14.557 5.136-9.404.69-19-1.511-27.163-6.231l3.368 12.749c.145.549.318 1.141.774 1.479.396.295.921.331 1.414.357l48.396 2.544c7.056.37 14.121.741 21.183.537 19.809-.572 39.471-5.744 56.998-14.992 1.012-.533 2.042-1.101 2.77-1.982.868-1.051 1.211-2.427 1.501-3.759a97.142 97.142 0 0 0 1.247-34.368c-.4-2.802-.959-5.676-2.534-8.028-1.576-2.352-4.409-4.071-7.19-3.541-28.479 5.423-57.551 3.748-86.621 2.073h-.007c-10.957-.632-21.914-1.263-32.838-1.514-1.951-.045-4.002-.055-5.716.879-1.713.933-2.892 3.148-2.012 4.889 4.981 9.856 15.274 16.145 25.946 18.982.767.204 1.551.404 2.345.606 6.904 1.756 14.507 3.689 17.013 10.115 1.902 4.876-.336 10.671-4.317 14.069Zm77.648 83.531c-1.952 7.752-6.056 15.793-13.502 18.7-2.605 1.017-5.426 1.32-8.21 1.579a338.622 338.622 0 0 1-77.595-1.721c-1.529-.211-3.141-.468-4.333-1.45-1.452-1.194-1.944-3.172-2.325-5.013a186.394 186.394 0 0 1-2.707-17.07c-.112-1.015.169-2.462 1.187-2.383a669.813 669.813 0 0 0 49.403 2.013c11.371.043 22.833-.213 33.94-2.656 11.106-2.442 21.935-7.216 30.054-15.178-2.308 4.847-3.302 10.142-4.297 15.446v.001h-.001v.003h-.001v.003h-.001v.001c-.485 2.59-.971 5.182-1.612 7.725Zm-55.525-32.191c-1.054 1.026-2.188 2.244-2.113 3.713.074 1.468 2.277 2.565 3.037 1.306 4.149-6.872 11.363-11.813 19.269-13.197 7.907-1.384 16.37.813 22.606 5.867.648.525 1.275 1.08 1.902 1.636 1.478 1.31 2.956 2.619 4.702 3.524.894.464 2.426.477 2.463-.531.012-.33-.177-.631-.363-.905-4.478-6.6-11.174-11.667-18.742-14.182-6.635-2.204-14.323-2.343-20.256 1.354-2.155 1.342-3.993 3.128-5.812 4.899l-6.693 6.516Zm-55.732-3.754c5.72-6.508 14.968-9.39 23.558-8.255 8.589 1.136 16.446 5.975 22.153 12.494 1.006 1.149 1.992 2.8 1.176 4.091-.682 1.081-2.314 1.16-3.436.546-.978-.536-1.676-1.44-2.363-2.33l-.004-.005-.181-.233-.117-.15c-5.052-6.427-13.307-10.2-21.473-9.815-8.165.386-16.028 4.919-20.453 11.793-1.152-1.002-1.478-2.723-1.132-4.211.347-1.487 1.264-2.778 2.272-3.925Zm84.147-17.049c-.133 1.453 1.786 2.356 3.165 1.881 1.241-.428 2.106-1.5 2.939-2.533l.277-.342c7.679-9.391 22.301-12.221 32.929-6.372 1.394-1.177 1.474-3.435.541-5.003-.933-1.569-2.636-2.531-4.374-3.087-3.765-1.203-7.853-.793-11.726-.009-9.169 1.855-18.43 6.201-23.25 14.218-.233.387-.459.797-.501 1.247Zm-47.028 33.079c3.528-1.35 7.216-2.347 10.984-2.609 9.322-.648 18.85 3.539 24.677 10.844-2.482 1.775-5.751-.385-8.303-2.069l-.025-.017c-8.142-5.377-19.266-5.858-27.842-1.204a71.65 71.65 0 0 0-2.025 1.157c-3.208 1.878-6.542 3.831-9.995 2.853 2.854-4.371 7.654-7.089 12.529-8.955Zm26.464-4.965c1.462-.762 2.774-1.767 4.086-2.772 1.253-.96 2.507-1.92 3.892-2.669 3.904-2.112 8.768-2.356 12.864-.645 1.195.499 2.316 1.15 3.438 1.8l.001.001c.966.56 1.932 1.121 2.946 1.585 2.191 1.003 4.802 1.524 6.985.503.242-.114.493-.263.595-.51.166-.402-.129-.835-.415-1.162-4.886-5.577-12.541-8.599-19.919-7.862-7.378.736-14.285 5.212-17.972 11.644.77 1.014 2.371.675 3.499.087Zm-54.613-1.752c-.832.736-1.663 1.471-2.625 2.018-1.531.871-3.593 1.163-4.978.074-.428-2.303 1.895-4.091 3.919-5.272 4.989-2.911 10.35-5.918 16.119-5.62 4.615.238 8.827 2.575 12.813 4.913.98.575 1.985 1.178 2.655 2.095.67.917.921 2.239.295 3.187-.632.958-1.964 1.24-3.083.98-1.077-.25-2.009-.898-2.918-1.53l-.106-.073c-3.225-2.239-6.741-4.303-10.641-4.755-3.499-.407-7.146.578-9.946 2.716-.517.395-1.006.828-1.495 1.26l-.001.001-.001.001h-.001v.001h-.001v.001h-.001l-.001.001-.001.001h-.001v.001h-.001Zm23.354-20.343c1.042 1.348 3.081-.097 4.23-1.353 3.542-3.869 8.647-6.265 13.886-6.517 5.24-.251 10.55 1.644 14.446 5.157.08.071.159.144.239.217.913.831 1.887 1.718 3.103 1.751 1.322.036 2.514-1.81 1.465-2.616-5.617-4.315-12.151-7.841-19.219-8.307-7.067-.466-14.684 2.705-17.956 8.986-.438.842-.774 1.932-.194 2.682Zm64.501-2.773c-.606.624-1.219 1.256-2.014 1.592-.933.394-2.214.205-2.664-.702-.476-.958.188-2.076.881-2.891 6.801-8.002 19.602-10.076 28.582-4.631 1.376.834 2.818 2.452 2.009 3.842-.97 1.668-3.482.602-5.152-.364-6.676-3.862-15.888-2.639-21.326 2.831-.106.106-.211.214-.316.323Zm2.95 2.106c-.386.323-.771.684-.933 1.16-.454 1.33 1.162 2.574 2.562 2.463 1.014-.081 1.918-.575 2.821-1.068.345-.189.69-.377 1.041-.543 3.098-1.461 6.821-1.113 9.966.245.093.04.186.082.279.124.204.091.407.186.611.28.939.438 1.88.876 2.899 1.029 1.34.202 2.903-.243 3.514-1.453-5.329-6.605-16.247-7.678-22.76-2.237Zm-81.867-2.947c-.511.714-1.596.785-2.392.412-.739-.346-1.293-.977-1.833-1.594l-.124-.14a33.224 33.224 0 0 0-13.909-9.349c-1.385-.483-3.145-1.444-2.755-2.858 3.828-1.307 8.158-.281 11.596 1.852 3.438 2.133 6.128 5.264 8.629 8.444.739.939 1.484 2.261.788 3.233Zm44.736 3.961c-6.293-4.014-14.884-4.084-21.243-.174-1.105.679-2.24 1.634-2.326 2.929-.086 1.294 1.672 2.496 2.544 1.535 3.512-3.872 9.931-4.676 14.29-1.789 2.14 1.418 5.213 1.224 7.159-.45.919-.096.355-1.554-.424-2.051Zm22.028 32.557c6.491-6.181 14.812-11.443 23.755-10.839.92.062 2.153.836 1.598 1.571l-22.176 9.598c-1.092.472-2.704.762-3.177-.33Zm-61.355-6.856c.218.123.436.256.654.389.881.537 1.774 1.082 2.787 1.083 1.265.001 2.518-1.521 1.716-2.498-2.525-3.079-6.494-4.92-10.475-4.859-3.982.061-7.892 2.022-10.322 5.177.3 1.146 1.703 1.674 2.875 1.503.845-.123 1.618-.501 2.39-.879.3-.146.599-.292.903-.424 3.007-1.303 6.621-1.109 9.472.508Zm46.127.665c-.885.048-1.883-.625-1.782-1.506.037-.325.214-.616.4-.884 2.051-2.949 5.756-4.455 9.347-4.488 3.591-.033 7.081 1.239 10.251 2.925.885.471 1.88 1.22 1.737 2.212-1.469 1.563-3.902.724-6.023-.007-.236-.081-.467-.161-.693-.236-3.53-1.172-7.541-.804-10.799.991-.112.061-.224.125-.337.189-.666.378-1.344.763-2.101.804Zm-8.457-40.145a31.323 31.323 0 0 1 10.089 5.944c.205.18.409.364.612.547l.001.001h.001v.001c1.005.905 2.016 1.816 3.241 2.37 1.475.666 3.39.683 4.545-.451a21.29 21.29 0 0 1-6.085-7.394c-.771-1.553-2.826-1.838-4.558-1.922l-7.595-.372c-.267.36-.362.842-.251 1.276Zm-30.951 6.517c-.651.828-1.301 1.655-2.069 2.373-1.307 1.22-3.11 2.116-4.856 1.73a28.142 28.142 0 0 1 8.26-11.085c2.583-2.092 6.321-1.633 9.596-1.064.175 1.183-1.345 1.775-2.502 2.084a14.718 14.718 0 0 0-7.019 4.256c-.497.544-.954 1.125-1.41 1.706Zm-31.184.89 7.042 4.588c.994.648 2.262 1.311 3.293.724.957-.544 1.103-1.946.604-2.927-.498-.981-1.449-1.638-2.362-2.253l-5.733-3.86c-1.601-1.078-4.208-1.937-5.078-.215-.751 1.484.84 3.035 2.234 3.943Zm52.721 19.694c-1.142.547-2.4-.417-3.298-1.308l-2.932-2.909c-.344-.342-.716-.758-.656-1.239.038-.304.244-.557.455-.779 2.753-2.88 7.983-2.801 10.647.162l-3.053 4.825c-.308.487-.643.999-1.163 1.248Zm-44.374 21.69c1.909.67 4.162.868 5.845-.253a39.056 39.056 0 0 0-8.782-7.496c-.93-.58-1.978-1.14-3.063-.986-1.085.155-2.045 1.388-1.52 2.35a13.905 13.905 0 0 0 7.52 6.385Zm107.438-26.7-2.706 3.27c-.257.31-.543.639-.937.724-.595.13-1.137-.341-1.565-.774l-3.929-3.98c-.578-.586-.412-1.632.162-2.221.574-.588 1.425-.811 2.241-.909a10.292 10.292 0 0 1 6.224 1.237c.539.304 1.105.748 1.13 1.366.019.487-.309.911-.62 1.287Zm-96.841-20.28c.809.871 1.826 1.763 3.011 1.665 1.227-.102 2.053-1.178 2.865-2.236.868-1.132 1.721-2.243 3.033-2.119.681-1.123-1.178-2.022-2.492-2.043l-10.199-.161a34.199 34.199 0 0 0 3.782 4.894Zm42.214 47.693-21.217.092c.23-1.098 1.466-1.625 2.549-1.919a32.202 32.202 0 0 1 14.891-.449c1.498.31 3.157.878 3.777 2.276Zm22.45-7.35-7.02.317c-.755.035-1.725.254-1.818 1.004-.041.335.127.657.29.953.619 1.124 1.277 2.292 2.347 3 1.069.707 2.68.777 3.512-.199.286-.336.454-.756.621-1.173.205-.513.409-1.022.828-1.365.278-.228.617-.352.957-.477.26-.095.52-.19.755-.332.543-.329.888-1.18.385-1.566-.236-.181-.56-.175-.857-.162Zm-61.528.931c.974.627 1.565 2.008.94 2.983-.749 1.169-1.683 2.456-3.064 2.593-1.781.177-3.057-1.618-3.924-3.184-.295-.533-.601-1.122-.492-1.722.23-1.259 1.913-1.494 3.191-1.431 1.157.057 2.375.133 3.349.761Zm93.375-11.049c1.05.087 1.991-.625 2.728-1.378a14.302 14.302 0 0 0 3.978-8.58c-.743-.475-1.653.262-2.223.936l-5.74 6.788c-.68.804.207 2.147 1.257 2.234Zm-112.422-15.088c-1.504.813-3.562.395-4.629-.941-1.067-1.335-1.021-3.435.103-4.722.156-.179.342-.35.575-.397.337-.07.663.133.947.327l2.792 1.903c.644.439 1.342.959 1.478 1.726.153.862-.496 1.688-1.266 2.104Zm78.009-15.035c1.117.938 2.773-.031 3.882-.979l3.61-3.084c-.681-.651-1.77-.504-2.692-.313l-8.037 1.661 3.237 2.715Zm-162.481-70.689c-.821-.73-1.031-1.923-1.055-3.02-.028-1.24.117-2.482.43-3.682l5.327 6.935c.317.414.578 1.126.109 1.353-.666-.447-1.485-.573-2.299-.699-.92-.143-1.834-.284-2.512-.887Zm204.551 57.547c.674.84 2.094.659 2.867-.091.774-.75 1.059-1.859 1.281-2.913.053-.253.103-.527-.003-.763-.271-.601-1.162-.42-1.758-.142-1.606.749-3.497 2.528-2.387 3.909Zm-60.283-306.616c.652-1.629 2.169-2.728 3.664-3.646a44.594 44.594 0 0 1 14.713-5.747c1.243-.244 2.723-.363 3.586.564.971 1.043.485 2.848-.592 3.78-.96.831-2.223 1.172-3.458 1.505l-.452.123a31.006 31.006 0 0 0-11.39 5.92c-1.28 1.053-2.797 2.293-4.393 1.849-1.69-.47-2.33-2.72-1.678-4.348Zm-93.428.38c-1.205-.653-2.02-2.282-1.269-3.43.436-.667 1.25-.971 2.023-1.168 6.262-1.589 12.745 1.217 18.41 4.325 1.275.699 2.587 1.461 3.391 2.673.804 1.213.921 3.009-.128 4.016-1.755 1.687-4.538-.048-6.52-1.462a23.167 23.167 0 0 0-12.466-4.264v-.001c-1.191-.063-2.402-.127-3.441-.689Zm65.647 89.782-4.119-11.748a20.52 20.52 0 0 0-7.651 10.896c-1.125-.915-1.167-2.463-1.208-3.983a19.857 19.857 0 0 0-.065-1.337c-.243-2.561-1.852-4.953-4.132-6.143-2.281-1.191-5.162-1.145-7.403.119.595 1.301 1.995 1.714 3.436 2.139.958.282 1.933.57 2.702 1.126 1.626 1.175 2.091 3.39 2.116 5.396.007.502-.006 1.008-.019 1.515v.001c-.039 1.515-.077 3.033.396 4.459.153.461.369.92.742 1.23 1.057.879 2.657.149 3.727-.714a18.158 18.158 0 0 0 5.459-7.42c1.006 1.005 1.378 2.417 1.747 3.818.108.411.216.822.34 1.22.545 1.757 1.85 3.636 3.688 3.55 1.225-.056 2.212-.978 3.079-1.845l4.984-4.978c.6-.6 1.252-1.363 1.058-2.19-.185-.793-1.126-1.218-1.933-1.104-.807.114-1.497.622-2.128 1.137a32.611 32.611 0 0 0-4.816 4.856Zm-11.383-47.124c.265-2.153.412-4.661-1.17-6.146a46.242 46.242 0 0 1-7.667-9.374c-.929-1.501-1.802-3.255-1.359-4.964.669-2.581 3.807-3.515 6.454-3.837a63.569 63.569 0 0 1 12.774-.261c1.828.147 3.765.422 5.163 1.607 1.398 1.185 1.903 3.589.553 4.829-6.616 6.082-10.49 15.041-10.39 24.028 2.453 1.592 4.947 3.204 7.742 4.065 2.795.862 5.98.89 8.502-.593 1.061-.624 1.952-1.478 2.844-2.334.616-.591 1.233-1.183 1.908-1.701 1.652-1.267 4.018-2.052 5.788-.956l-6.736 6.201c-2.684 2.472-6.017 5.13-9.57 4.298-1.176-.276-2.209-.912-3.246-1.551-.617-.38-1.235-.761-1.886-1.067-3.479-1.637-7.561-1.025-11.32-.218l-.68.147-.008.001c-3.548.769-7.219 1.565-10.701.609-3.708-1.017-6.96-4.871-5.8-8.536 2.334 3.416 6.399 5.581 10.536 5.613 1.589.012 3.227-.292 4.543-1.182 2.694-1.821 3.327-5.45 3.726-8.678Z" fill="#00160A"/><path d="m228.427 250-30.38-53.13h12.04l30.38 53.13h-12.04Zm-39.445-43.855v-9.275h21.07l-1.89 13.125h-3.465v30.73h6.37V250h-22.085v-9.275h6.37v-34.58h-6.37Zm37.66 0v-9.275h22.085v9.275h-6.37V250h-10.01l-3.535-14.56h4.2v-29.295h-6.37Zm67.487-14.735v35.56h9.31v-35.56h-9.31Zm6.72 13.65v7.63h11.2v-7.63h-11.2Zm-46.55-10.43v30.03h31.15v-30.03h-9.24v7.77h-12.67v-7.77h-9.24Zm9.24 14.91h12.67v7.77h-12.67v-7.77Zm-2.45 20.23v25.76h42.35v-25.76h-9.24v5.67h-23.87v-5.67h-9.24Zm9.24 12.81h23.87v5.6h-23.87v-5.6Zm78.263-47.25v7.49c0 7.28-3.57 15.26-12.6 19.25l4.9 7.21c10.57-4.48 14.98-15.47 14.98-26.46v-7.49h-7.28Zm1.68 0v7.49c0 10.57 4.27 20.37 14.35 24.36l4.97-7.07c-8.54-3.36-12.04-10.36-12.04-17.29v-7.49h-7.28Zm33.04-3.85v39.55h8.82v-39.55h-8.82Zm-7.77 15.68v7.49h10.29v-7.49h-10.29Zm-5.95-14.49V229h8.68v-36.33h-8.68Zm.56 39.27c-13.65 0-22.26 4.55-22.26 12.18 0 7.56 8.61 12.11 22.26 12.11 13.58 0 22.33-4.55 22.33-12.11 0-7.63-8.75-12.18-22.33-12.18Zm0 7c8.33 0 12.95 1.75 12.95 5.18 0 3.43-4.62 5.11-12.95 5.11-8.33 0-13.02-1.68-13.02-5.11 0-3.43 4.69-5.18 13.02-5.18Zm73.284-47.53v38.08h9.31v-38.08h-9.31Zm6.02 15.26v7.63h11.41v-7.63h-11.41Zm-40.32 25.2v6.16h34.44v2.8h-34.37v10.92h9.24v-5.18h34.3v-14.7h-43.61Zm.07 17.78v6.16h45.78v-6.16h-45.78Zm6.79-32.34v9.24h9.31v-9.24h-9.31Zm-14.49 11.62c11.2 0 26.11-.07 39.76-2.45l-.7-5.67c-13.09 1.75-28.56 1.82-40.04 1.82l.98 6.3Zm.7-33.46v6.16h36.75v-6.16h-36.75Zm18.41 7.35c-9.66 0-15.82 3.15-15.82 8.47 0 5.39 6.16 8.54 15.82 8.54 9.59 0 15.75-3.15 15.75-8.54 0-5.32-6.16-8.47-15.75-8.47Zm0 5.74c4.41 0 6.93.84 6.93 2.73 0 1.89-2.52 2.8-6.93 2.8s-7-.91-7-2.8c0-1.89 2.59-2.73 7-2.73Zm-4.62-17.71v8.05h9.31v-8.05h-9.31Zm94.145.49v65.03h9.38v-65.03h-9.38Zm-25.55 4.55c-9.8 0-17.01 8.96-17.01 23.1 0 14.28 7.21 23.24 17.01 23.24s17.01-8.96 17.01-23.24c0-14.14-7.21-23.1-17.01-23.1Zm0 8.47c4.83 0 8.05 5.11 8.05 14.63 0 9.66-3.22 14.84-8.05 14.84s-8.12-5.18-8.12-14.84c0-9.52 3.29-14.63 8.12-14.63Zm107.312-12.95v39.06h9.31v-39.06h-9.31Zm6.72 15.96V215h11.2v-7.63h-11.2Zm-39.55 25.9v22.26h42.14v-22.26h-42.14Zm33.04 7.35v7.56h-23.87v-7.56h23.87Zm-41.93-43.4v7.35h38.15v-7.35h-38.15Zm19.11 9.24c-9.45 0-15.96 4.76-15.96 11.69 0 7 6.51 11.62 15.96 11.62 9.38 0 15.89-4.62 15.89-11.62 0-6.93-6.51-11.69-15.89-11.69Zm0 6.93c4.13 0 7 1.61 7 4.76 0 3.15-2.87 4.83-7 4.83-4.2 0-7-1.68-7-4.83 0-3.15 2.8-4.76 7-4.76Zm-4.69-22.4v10.22h9.31v-10.22h-9.31Zm57.884 7.77v.77c0 16.03-1.33 27.3-8.89 39.2l7.14 3.85c8.05-12.88 9.59-27.37 9.59-43.82h-7.84Zm-6.79 0v7.49h11.76v-7.49h-11.76Zm21.28 0v.84c0 16.17-.7 29.33-8.96 42.21l7.14 3.92c8.68-13.86 9.66-30.03 9.66-46.97h-7.84Zm-4.69 0v7.49h9.94v-7.49h-9.94Zm29.68-7.35v64.82h8.89v-64.82h-8.89Zm-20.3 24.29v7.49h9.17v-7.49h-9.17Zm7.77-22.89v60.55h8.68v-60.55h-8.68Zm71.255-1.4v37.94h9.31v-37.94h-9.31Zm5.6 15.54v7.7h12.32v-7.7h-12.32Zm-38.43 24.92v23.66h42.14v-23.66h-9.24v4.9h-23.73v-4.9h-9.17Zm9.17 11.9h23.73v4.48h-23.73v-4.48Zm-18.06-46.76v7.35h38.15v-7.35h-38.15Zm19.11 9.1c-9.45 0-15.96 4.62-15.96 11.48s6.51 11.48 15.96 11.48c9.38 0 15.89-4.62 15.89-11.48s-6.51-11.48-15.89-11.48Zm0 6.79c4.13 0 7 1.68 7 4.69 0 3.08-2.87 4.69-7 4.69-4.2 0-7-1.61-7-4.69 0-3.01 2.8-4.69 7-4.69Zm-4.69-21.98v10.22h9.31v-10.22h-9.31Zm94.844.49v64.82h9.31v-64.82h-9.31Zm-41.44 6.16v40.25h9.24v-40.25h-9.24Zm0 34.79v7.91h5.74c9.87 0 20.58-.7 31.71-3.01l-1.05-7.7c-10.71 2.1-21.21 2.8-30.66 2.8h-5.74Zm102.405-41.02v65.03h9.38v-65.03h-9.38Zm7.28 24.01v7.63h11.48v-7.63h-11.48Zm-46.2 17.71v7.7h5.46c11.27 0 20.16-.28 29.96-2.03l-.91-7.7c-9.52 1.68-18.13 2.03-29.05 2.03h-5.46Zm0-35.7v39.41h9.24v-31.92h21v-7.49h-30.24Zm64.779-.49h12.425l-1.68 37.555h-9.03l-1.715-37.555Zm-.14 41.37h12.285V250H874.92v-11.76Z" fill="#634718"/></svg>