<svg width="750" height="750" viewBox="0 0 750 750" fill="none" xmlns="http://www.w3.org/2000/svg">
<rect width="750" height="750" fill="white"/>
<path fill-rule="evenodd" clip-rule="evenodd" d="M411.159 65C586.499 65 623.415 307.997 624.132 309.997C624.871 312.057 625.568 314.177 626.241 316.235C627.608 320.415 629.368 324.439 630.736 328.591C631.573 331.124 633.111 333.222 634.141 335.614C636.141 340.184 638.591 344.545 641.455 348.631C642.637 350.249 643.567 352.037 644.211 353.934C644.663 355.386 646.162 355.774 646.809 357.055C647.856 359.129 649.252 361.024 650.461 363.016C650.736 363.716 651.368 364.214 652.114 364.318L651.878 366.295C652.316 367.008 652.465 366.045 652.923 366.214C653.496 366.986 654.313 367.671 654.396 368.846C654.472 369.95 655.761 370.054 656.202 371.017C657.169 373.108 659.858 374.174 659.819 376.917C661.752 378.131 662.703 380.215 664.162 381.85C664.912 382.603 665.368 383.594 665.455 384.647L665.468 384.89C665.457 385.937 667.478 385.702 666.934 387.13C670.028 389.452 670.831 393.245 672.465 396.388C675.085 401.43 678.104 406.302 679.884 411.824C680.775 414.586 682.503 417.199 683.463 419.996C685.624 426.283 688.218 432.433 689.622 438.981C690.201 441.685 691.384 444.262 691.938 446.974L692.577 450.108C693.529 454.812 694.431 459.528 695.03 464.295C695.337 465.37 695.337 466.51 695.029 467.585C694.513 468.809 695.883 469.593 695.994 470.821C696.131 472.277 695.549 473.657 695.968 475.203C696.199 476.055 695.968 477.423 696.234 478.412C697.095 481.626 696.004 484.941 696.941 488.133C697.089 489.367 696.959 490.618 696.561 491.796C695.913 495.726 697.099 499.739 695.916 503.576C695.362 505.469 695.256 507.462 695.605 509.399L695.751 510.146C695.856 510.699 695.925 511.238 695.653 511.61C694.575 513.084 694.853 514.822 694.638 516.434L694.597 516.701C694.287 518.506 694.607 520.398 694.062 522.237C693.317 524.037 692.9 525.955 692.828 527.901C693.103 531.201 691.992 534.163 691.311 537.227C690.972 538.757 691.253 540.577 689.568 541.716C688.711 542.295 690.733 543.419 689.507 544.267L689.363 544.357C688.463 544.865 688.502 545.684 688.756 546.666C688.988 547.563 687.42 548.183 687.869 549.101C688.317 550.019 688.52 551.356 687.996 551.525C686.686 551.955 688.018 553.379 686.918 553.649C686.81 553.708 686.735 553.813 686.716 553.935C686.341 557.382 684.121 560.211 683.572 563.656C683.157 565.713 682.355 567.674 681.211 569.434C680.263 571.133 679.457 572.907 678.802 574.739C677.571 577.82 675.464 580.393 674.278 583.458C673.955 584.288 671.806 584.01 672.899 585.713C671.645 586.156 672.026 587.455 671.522 588.266C670.966 588.879 670.319 589.403 669.604 589.819C669.141 591.643 668.253 593.334 667.014 594.752C664.848 597.92 662.484 600.947 659.935 603.817L657.83 606.174C655.016 609.317 652.111 612.392 648.403 614.559C647.45 615.116 647.884 616.172 647.099 616.745C642.553 620.101 638.365 623.908 633.193 626.452C631.028 627.518 629.172 629.41 626.959 630.519C622.766 632.624 618.872 635.245 614.386 636.884L613.588 637.163C610.731 638.113 607.919 639.554 605.019 640.6C599.062 642.94 592.844 644.556 586.499 645.412L582.586 645.846C579.107 646.23 575.623 646.584 572.109 646.681C570.446 646.726 568.851 646.199 567.328 646.389C565.845 646.576 564.34 646.455 562.906 646.033C561.774 645.716 560.816 646.69 559.596 646.167C558.66 645.581 557.5 645.493 556.491 645.921L556.291 646.013C555.713 646.348 554.575 645.729 553.694 645.53C552.409 645.351 551.146 645.039 549.927 644.599C548.981 644.162 547.776 645.566 547.118 644.073C545.922 645.001 464.688 625.697 390.067 664.897C383.99 668.923 376.879 670.691 370.386 673.818C367.367 675.275 363.974 675.94 360.725 676.935L360.031 677.153C354.295 679.007 348.413 680.272 342.539 681.594C337.143 682.762 331.675 683.575 326.171 684.026C322.214 684.384 318.239 684.55 314.292 684.981C312.691 685.155 311.122 684.027 309.556 684.996C306.036 684.038 302.342 685.201 298.832 684.119C296.498 684.809 294.305 683.953 292.16 683.321C290.522 682.835 288.979 683.843 287.325 683.128C285.819 682.343 284.132 681.968 282.435 682.042C279.617 682.474 277.164 681.44 274.598 680.894C268.634 679.624 262.691 678.251 256.77 676.775C254.831 676.291 252.653 676.477 250.992 674.995C249.534 673.693 247.234 674.509 245.802 672.972C245.28 672.413 244.613 673.497 243.826 673.074C242.29 672.249 240.317 672.793 238.882 671.306C237.819 670.205 235.813 670.95 234.637 669.62L234.482 669.426C233.787 668.461 231.955 670.735 231.413 668.587C229.223 668.419 227.408 667.225 225.458 666.407C223.843 665.732 221.936 666.113 220.478 664.707C219.236 663.508 216.889 664.39 215.813 662.593C213.18 662.571 211.239 660.601 208.73 660.083C206.826 659.583 204.997 658.831 203.293 657.846C200.591 656.456 197.848 655.147 195.084 653.906C194.093 653.445 193.128 652.93 192.193 652.362C191.669 652.056 191.542 651.377 190.793 651.212C186.054 650.162 182.069 647.4 178.021 644.984C175.712 643.791 173.504 642.416 171.416 640.872L170.724 640.351C170.113 639.826 168.844 639.567 168.307 638.836C166.809 636.802 164.569 635.807 162.537 634.585L162.201 634.379C161.056 633.705 160.016 632.868 159.112 631.895C158.941 631.709 158.872 631.307 158.69 631.262C155.318 630.429 153.305 627.644 150.727 625.697C148.509 624.024 146.57 621.984 144.386 620.279L143.554 619.656C138.444 616.001 82.5216 554.466 76.1849 543.847L74.3715 540.808C72.5607 537.763 70.7707 534.696 69.1227 531.568L67.7192 528.906C66.3179 526.237 64.9386 523.55 63.7192 520.816L62.0878 517.166C58.8328 509.863 55.6477 502.523 52.933 494.983C50.5123 488.256 48.5082 481.418 46.485 474.575C45.1891 470.181 44.0941 465.767 43.169 461.29C41.6911 454.136 40.3731 446.952 39.2153 439.74C38.1354 432.949 38.5348 426.058 37.0927 419.344C38.0375 415.221 36.3004 411.036 37.379 406.918C36.5789 404.884 37.2825 402.774 37.3577 400.769C37.4348 398.7 36.9706 396.532 37.797 394.435C38.1756 393.482 37.3004 392.337 37.7746 391.174C38.2951 390.206 38.3552 389.056 37.9384 388.039C39.3435 387.393 37.6687 386.399 38.2522 385.479C38.8813 384.48 39.1592 383.301 39.042 382.127C38.6328 379.5 40.1463 377.074 39.8806 374.7C39.6035 372.273 40.8023 370.215 40.7986 368.039L40.7831 367.63C40.5762 364.774 42.6179 362.623 42.686 359.921C42.6924 359.685 43.2513 359.467 43.5576 359.232C43.4594 358.624 42.7872 358.762 42.3104 358.289C43.0716 357.628 43.7376 356.866 44.2895 356.023C44.7072 354.867 45.0039 353.672 45.1747 352.455L43.2393 349.958C43.9535 348.53 43.7045 347.231 44.6581 346.111C45.0731 345.621 44.8417 344.126 44.8929 343.093C44.9605 341.737 46.7034 340.929 46.2829 339.858C45.9586 338.626 46.0637 337.32 46.5809 336.156C49.0744 325.163 51.6143 314.181 54.2006 303.209C54.4726 302.033 54.2359 300.554 55.6832 299.865C54.1017 298.232 56.5852 297.662 56.6238 296.368C56.8254 295.158 57.2916 294.008 57.9892 292.998C58.977 291.11 59.0678 288.765 59.6304 286.637C59.7786 285.132 60.3486 283.7 61.275 282.503C62.2384 281.506 62.0996 279.768 62.825 278.367C63.8498 276.675 64.644 274.854 65.1867 272.951C65.3502 271.585 65.8951 270.291 66.7592 269.218C67.5266 268.371 66.8964 266.617 68.3878 265.978C68.8061 263.52 70.274 261.545 71.3608 259.391L71.5597 258.985C74.2292 253.442 77.2296 248.064 80.5447 242.879C83.2988 238.516 85.9787 234.107 88.7749 229.771C89.6846 228.371 90.6519 226.977 91.6522 225.648C95.1272 220.761 98.8702 216.07 102.864 211.596C106.517 207.725 109.999 203.68 113.834 199.958C115.873 197.978 117.541 195.547 119.521 193.444C124.186 188.479 128.976 183.649 134.014 179.065C138.269 174.862 142.922 171.08 147.908 167.773C149.264 166.948 150.378 165.74 151.687 164.827C153.275 163.952 154.799 162.966 156.248 161.875C157.933 160.29 160.001 159.282 161.703 157.814C163.024 156.675 165.138 157.325 166.084 155.275C166.773 153.784 169.353 154.331 170.221 152.589C172.603 152.509 173.715 150.203 175.878 149.445L176.166 149.356C178.445 148.734 180.39 146.895 182.48 145.591C184.497 144.163 186.606 142.871 188.796 141.725C192.906 139.874 196.453 137.054 200.471 135.142C204.301 133.322 207.748 130.657 211.926 129.643C212.913 129.404 212.729 128.533 213.408 128.162C214.115 127.773 214.889 128.031 215.527 127.583C218.169 125.859 235.819 65 411.159 65Z" fill="#64FCD9"/>
<path fill-rule="evenodd" clip-rule="evenodd" d="M213.374 195.449C207.509 198.758 198.921 194.537 197.958 187.872C201.699 187.672 205.697 187.38 208.655 185.081C211.612 182.781 212.647 177.689 209.683 175.398C185.549 172.434 162.071 164.235 141.34 151.528C155.496 147.263 167.676 138.266 180.973 131.801C194.269 125.336 210.351 121.513 223.612 128.05C236.633 134.469 251.623 126.281 265.211 121.17C288.838 112.283 315.932 113.028 339.035 123.2C355.891 130.622 384.453 118.576 402.662 115.813C432.405 111.3 461.441 132.146 491.307 128.536C488.103 130.655 484.899 132.773 481.695 134.892C484.851 134.604 488.023 134.487 491.191 134.543C466.405 146.404 441.619 158.264 416.833 170.125C423.112 172.665 429.391 175.205 435.67 177.745C434.194 182.477 428.903 185.673 424.027 184.777C427.95 187.899 431.873 191.021 435.796 194.143C431.609 197.117 426.309 198.484 421.205 197.905C426.64 201.414 431.126 206.379 434.068 212.141C447.016 207.827 461.199 207.296 474.433 210.629C462.476 212.197 450.519 213.765 438.562 215.332C440.368 220.248 442.173 225.165 443.979 230.081C459.599 226.506 476.2 227.319 491.396 232.402C476.327 232.786 461.258 233.169 446.189 233.553C445.837 253.545 435.884 273.933 418.408 283.649C400.931 293.364 366.009 302.003 354.442 273.715C345.586 279.527 346.213 293.498 352.527 302.003C358.841 310.508 368.872 315.215 377.944 320.683C408.08 338.845 430.809 368.921 440.055 402.87C449.3 436.819 444.96 474.268 428.195 505.202C450.798 508.716 471.801 521.579 485.204 540.116C514.065 526.687 530.05 496.045 552.158 473.142C577.306 447.088 612.022 430.481 648.089 427.251C669.428 425.34 693.764 429.455 706.211 446.892C722.39 469.558 707.473 504.799 681.648 515.219C661.177 523.478 638.087 519.324 616.067 520.884C571.788 524.022 532.914 550.132 496.402 575.379C494.913 583.553 497.902 592.403 504.042 598.001C517.102 584.501 533.577 574.331 551.498 568.704C558.122 566.625 568.051 567.167 568.787 574.071C569.066 576.684 567.691 579.162 566.3 581.392C554.352 600.546 537.505 616.616 517.808 627.646C507.412 633.469 495.794 637.982 483.897 637.315C471.999 636.649 459.884 629.782 455.843 618.572C453.97 613.377 453.767 607.364 450.221 603.132C444.222 595.971 432.697 598.115 424.287 602.182C415.877 606.25 406.912 611.78 397.888 609.367C375.328 603.333 351.849 600.746 328.516 601.722C298.802 602.966 268.525 609.883 239.736 602.421C230.119 599.928 219.357 595.997 210.837 601.108C194.047 611.18 205.372 643.423 188.147 652.732C182.045 656.029 174.568 654.813 167.837 653.142C138.091 645.759 110.19 631.057 87.2826 610.696C85.0749 608.734 82.8004 606.53 82.1816 603.641C80.3253 594.978 93.1128 591.374 101.826 592.978C116.627 595.702 130.783 601.872 142.855 610.86C147.086 614.011 153.525 610.335 155.317 605.373C157.11 600.412 155.877 594.948 155.177 589.719C150.758 556.691 171.478 521.966 202.644 510.172C183.775 482.636 176.6 447.356 183.215 414.638C189.83 381.92 210.147 352.198 238.231 334.156C249.45 326.948 262.34 321.053 269.49 309.797C276.64 298.542 273.502 279.658 260.422 277.063C248.098 290.41 228.053 296.056 210.575 291.101C193.096 286.147 178.995 270.823 175.507 252.995C163.906 256.912 152.306 260.83 140.705 264.748C151.002 256.813 163.195 251.357 175.974 248.967C177.2 243.653 178.426 238.34 179.653 233.026C157.517 231.598 135.069 235.241 114.522 243.596C127.166 234.078 143.254 229.242 159.05 230.209C175.117 231.193 191.45 223.332 200.703 210.16C194.914 208.125 189.711 204.451 185.856 199.675C191.761 196.47 198.912 195.64 205.393 197.406M326.93 543.955C325.876 544.981 324.742 546.199 324.817 547.668C324.891 549.136 327.094 550.233 327.854 548.974C332.003 542.102 339.217 537.161 347.123 535.777C355.03 534.393 363.493 536.59 369.729 541.644C371.905 543.407 373.847 545.515 376.333 546.804C377.227 547.268 378.759 547.281 378.796 546.273C378.808 545.943 378.619 545.642 378.433 545.368C373.955 538.768 367.259 533.701 359.691 531.186C353.056 528.982 345.368 528.843 339.435 532.54C337.28 533.882 335.442 535.668 333.623 537.439C331.392 539.611 329.161 541.783 326.93 543.955ZM294.756 531.946C286.166 530.811 276.918 533.693 271.198 540.201C270.19 541.348 269.273 542.639 268.926 544.126C268.58 545.614 268.906 547.335 270.058 548.337C274.483 541.463 282.346 536.93 290.511 536.544C298.677 536.159 306.932 539.932 311.984 546.359C312.774 547.364 313.528 548.463 314.649 549.077C315.771 549.691 317.403 549.612 318.085 548.531C318.901 547.24 317.915 545.589 316.909 544.44C311.202 537.921 303.345 533.082 294.756 531.946ZM355.345 523.152C355.212 524.605 357.131 525.508 358.51 525.033C359.889 524.557 360.803 523.287 361.726 522.158C369.405 512.767 384.027 509.937 394.655 515.786C396.049 514.609 396.129 512.351 395.196 510.783C394.263 509.214 392.56 508.252 390.822 507.696C387.057 506.493 382.969 506.903 379.096 507.687C369.927 509.542 360.666 513.888 355.846 521.905C355.613 522.292 355.387 522.702 355.345 523.152ZM319.301 553.622C315.533 553.884 311.845 554.881 308.317 556.231C303.442 558.097 298.642 560.815 295.788 565.186C299.973 566.371 303.985 563.251 307.808 561.176C316.384 556.522 327.508 557.003 335.651 562.38C338.205 564.067 341.487 566.246 343.978 564.466C338.151 557.161 328.623 552.974 319.301 553.622ZM334.781 551.266C337.639 549.777 339.924 547.358 342.759 545.825C346.663 543.713 351.527 543.469 355.623 545.18C357.847 546.109 359.816 547.562 362.008 548.566C364.199 549.569 366.81 550.09 368.993 549.069C369.235 548.955 369.486 548.806 369.588 548.559C369.754 548.157 369.459 547.724 369.173 547.397C364.287 541.82 356.632 538.798 349.254 539.535C341.876 540.271 334.969 544.747 331.282 551.179C332.052 552.193 333.653 551.854 334.781 551.266ZM277.543 551.532C279.074 550.661 280.272 549.316 281.672 548.247C284.472 546.109 288.119 545.124 291.618 545.531C295.518 545.983 299.034 548.047 302.259 550.286C303.202 550.941 304.165 551.629 305.283 551.889C306.402 552.149 307.734 551.867 308.366 550.909C308.992 549.961 308.741 548.639 308.071 547.722C307.401 546.805 306.396 546.202 305.416 545.627C301.43 543.289 297.218 540.952 292.603 540.714C286.834 540.416 281.473 543.423 276.484 546.334C274.46 547.515 272.137 549.303 272.565 551.606C273.95 552.695 276.012 552.403 277.543 551.532ZM303.522 529.171C304.564 530.519 306.603 529.074 307.752 527.818C311.294 523.949 316.399 521.553 321.638 521.301C326.878 521.05 332.188 522.945 336.084 526.458C337.067 527.344 338.103 528.39 339.426 528.426C340.748 528.462 341.94 526.616 340.891 525.81C335.274 521.495 328.74 517.969 321.672 517.503C314.605 517.037 306.988 520.208 303.716 526.489C303.278 527.331 302.942 528.421 303.522 529.171ZM366.009 527.99C366.942 527.596 367.625 526.793 368.339 526.075C373.777 520.605 382.989 519.382 389.665 523.244C391.335 524.21 393.847 525.276 394.817 523.608C395.626 522.218 394.184 520.6 392.808 519.766C383.828 514.321 371.027 516.395 364.226 524.397C363.533 525.212 362.869 526.33 363.345 527.288C363.795 528.195 365.076 528.384 366.009 527.99ZM370.973 528.504C370.587 528.827 370.202 529.188 370.04 529.664C369.586 530.994 371.202 532.238 372.602 532.127C374.003 532.015 375.193 531.115 376.464 530.516C379.562 529.055 383.285 529.403 386.43 530.761C387.674 531.298 388.879 531.992 390.219 532.194C391.559 532.396 393.122 531.951 393.733 530.741C388.404 524.136 377.486 523.063 370.973 528.504ZM286.714 525.969C287.51 526.343 288.595 526.271 289.106 525.557C289.802 524.585 289.057 523.263 288.318 522.324C285.817 519.144 283.127 516.013 279.689 513.88C276.251 511.747 271.921 510.721 268.093 512.028C267.703 513.442 269.463 514.403 270.848 514.886C276.181 516.745 281.022 519.998 284.757 524.235C285.338 524.894 285.919 525.596 286.714 525.969ZM333.843 529.518C327.549 525.504 318.958 525.434 312.599 529.344C311.494 530.023 310.359 530.978 310.273 532.273C310.187 533.567 311.945 534.769 312.817 533.808C316.329 529.936 322.748 529.132 327.107 532.019C329.247 533.437 332.32 533.243 334.266 531.569C335.185 531.473 334.621 530.015 333.843 529.518ZM379.625 551.236C370.683 550.632 362.361 555.894 355.87 562.075C356.343 563.167 357.955 562.877 359.047 562.405C366.439 559.206 373.831 556.007 381.223 552.807C381.778 552.072 380.545 551.298 379.625 551.236ZM294.515 555.219C295.615 555.842 296.692 556.69 297.956 556.691C299.221 556.692 300.474 555.17 299.672 554.193C297.147 551.114 293.178 549.273 289.197 549.334C285.215 549.395 281.305 551.356 278.875 554.511C279.175 555.657 280.578 556.185 281.75 556.014C282.922 555.843 283.955 555.182 285.043 554.711C288.05 553.408 291.664 553.602 294.515 555.219ZM338.86 554.378C338.759 555.259 339.757 555.932 340.642 555.884C341.527 555.836 342.304 555.318 343.08 554.891C346.338 553.096 350.349 552.728 353.879 553.9C356.141 554.651 358.963 555.879 360.595 554.143C360.739 553.151 359.743 552.402 358.858 551.931C355.688 550.245 352.198 548.972 348.607 549.006C345.016 549.039 341.311 550.545 339.26 553.494C339.074 553.762 338.897 554.053 338.86 554.378ZM332.185 515.739C335.882 517.063 339.325 519.091 342.274 521.683C343.49 522.751 344.654 523.935 346.129 524.602C347.604 525.268 349.519 525.285 350.674 524.151C348.119 522.191 346.021 519.641 344.589 516.757C343.818 515.204 341.763 514.919 340.031 514.835C337.499 514.711 334.968 514.587 332.436 514.463C332.169 514.823 332.074 515.305 332.185 515.739ZM299.165 524.629C300.472 523.408 301.437 521.869 302.644 520.55C304.517 518.504 306.984 517.008 309.663 516.294C310.82 515.985 312.34 515.393 312.165 514.21C308.89 513.641 305.152 513.182 302.569 515.274C298.952 518.205 296.083 522.054 294.309 526.359C296.055 526.745 297.858 525.849 299.165 524.629ZM270.05 523.146C272.397 524.676 274.745 526.205 277.092 527.734C278.086 528.382 279.354 529.045 280.385 528.458C281.342 527.914 281.488 526.512 280.989 525.531C280.491 524.55 279.54 523.893 278.627 523.278C276.716 521.991 274.805 520.705 272.894 519.418C271.293 518.34 268.686 517.481 267.816 519.203C267.065 520.687 268.656 522.238 270.05 523.146ZM319.473 541.532C320.371 542.423 321.629 543.387 322.771 542.84C323.291 542.591 323.626 542.079 323.934 541.592C324.952 539.983 325.97 538.375 326.987 536.767C324.323 533.804 319.093 533.725 316.34 536.605C316.129 536.827 315.923 537.08 315.885 537.384C315.825 537.865 316.197 538.281 316.541 538.623C317.518 539.593 318.496 540.562 319.473 541.532ZM278.397 564.53C280.306 565.2 282.559 565.398 284.242 564.277C281.708 561.362 278.737 558.826 275.46 556.781C274.53 556.201 273.482 555.641 272.397 555.795C271.312 555.95 270.352 557.183 270.877 558.145C272.49 561.096 275.223 563.417 278.397 564.53ZM383.129 541.1C384.031 540.01 384.933 538.92 385.835 537.83C386.146 537.454 386.474 537.03 386.455 536.543C386.43 535.925 385.864 535.481 385.325 535.177C383.45 534.123 381.237 533.683 379.101 533.94C378.285 534.038 377.434 534.261 376.86 534.849C376.286 535.438 376.12 536.484 376.698 537.07C378.007 538.396 379.317 539.723 380.627 541.05C381.055 541.483 381.597 541.954 382.192 541.824C382.586 541.739 382.872 541.41 383.129 541.1ZM288.994 517.55C289.803 518.421 290.82 519.313 292.005 519.215C294.545 519.005 295.365 514.62 297.903 514.86C298.584 513.737 296.725 512.838 295.411 512.817C292.011 512.763 288.611 512.71 285.212 512.656C286.321 514.397 287.589 516.037 288.994 517.55ZM309.991 565.335C317.063 565.304 324.135 565.274 331.208 565.243C330.588 563.845 328.929 563.277 327.431 562.967C322.524 561.95 317.378 562.105 312.54 563.416C311.457 563.71 310.221 564.237 309.991 565.335ZM353.658 557.893C351.318 557.999 348.978 558.105 346.638 558.21C345.883 558.245 344.913 558.464 344.82 559.214C344.779 559.549 344.947 559.871 345.11 560.167C345.729 561.291 346.387 562.459 347.457 563.167C348.527 563.874 350.137 563.944 350.969 562.968C351.607 562.22 351.657 561.053 352.418 560.43C352.908 560.028 353.588 559.949 354.13 559.621C354.673 559.292 355.018 558.441 354.515 558.055C354.279 557.874 353.955 557.88 353.658 557.893ZM293.07 561.807C293.695 560.832 293.104 559.451 292.13 558.824C291.156 558.196 289.938 558.12 288.781 558.063C287.503 558 285.82 558.235 285.59 559.494C285.481 560.094 285.787 560.683 286.082 561.216C286.949 562.782 288.225 564.577 290.006 564.4C291.387 564.263 292.321 562.976 293.07 561.807ZM385.505 547.775C386.555 547.862 387.496 547.15 388.233 546.397C390.48 544.099 391.91 541.017 392.211 537.817C391.468 537.342 390.558 538.079 389.988 538.753C388.075 541.016 386.162 543.278 384.248 545.541C383.568 546.345 384.455 547.688 385.505 547.775ZM268.454 531.746C269.521 533.082 271.579 533.5 273.083 532.687C273.853 532.271 274.502 531.445 274.349 530.583C274.213 529.816 273.515 529.296 272.871 528.857C271.94 528.223 271.01 527.588 270.079 526.954C269.795 526.76 269.468 526.557 269.132 526.627C268.899 526.674 268.713 526.845 268.557 527.024C267.433 528.311 267.387 530.411 268.454 531.746ZM351.092 517.652C352.209 518.59 353.865 517.621 354.974 516.673C356.177 515.645 357.38 514.617 358.584 513.589C357.903 512.938 356.814 513.085 355.892 513.276C353.213 513.829 350.534 514.383 347.855 514.937C348.934 515.842 350.013 516.747 351.092 517.652ZM393.162 504.51C393.836 505.35 395.256 505.169 396.029 504.419C396.803 503.669 397.088 502.56 397.31 501.506C397.363 501.253 397.413 500.979 397.307 500.743C397.036 500.142 396.145 500.323 395.549 500.601C393.943 501.35 392.052 503.129 393.162 504.51Z" fill="white"/>
<path fill-rule="evenodd" clip-rule="evenodd" d="M183.214 414.638C189.829 381.92 212.447 354.531 240.531 336.489C226.332 355.954 182.757 387.874 196.763 423.436C219.15 480.281 306.242 489.222 303.212 489.839C251.701 500.342 178.289 438.998 183.214 414.638Z" fill="#E7EAEE"/>
<path fill-rule="evenodd" clip-rule="evenodd" d="M347.982 130.714C344.398 131.149 341.241 134.019 340.467 137.545C369.475 121.948 404.512 117.939 436.293 126.578C436.32 142.606 425.077 158.022 409.807 162.893L376.703 173.454C385.436 174.423 394.409 173.142 402.522 169.769C405.405 174.311 410.153 177.629 415.41 178.772L405.234 181.004C406.734 185.575 409.797 189.618 413.793 192.298C410.402 191.137 406.63 191.125 403.232 192.265L405.51 200.539C390.506 198.457 374.473 200.5 361.835 208.852C349.197 217.204 340.711 232.557 342.988 247.533C345.653 231.25 356.812 216.601 371.801 209.706C386.79 202.81 405.174 203.87 419.272 212.441L409.709 219.524C413.382 220.985 417.734 220.612 421.104 218.547C428.465 221.804 426.427 235.271 418.432 236.204L429.008 236.94C430.841 254.922 419.732 273.467 403.012 280.336C386.292 287.205 365.354 281.826 354.016 267.748C339.942 274.935 340.929 296.718 350.959 308.93C357.961 317.455 367.604 322.993 377.263 328.54C381.44 330.939 385.621 333.34 389.592 335.986C410.687 350.037 426.412 371.948 432.971 396.432C421.516 404.102 411.326 413.658 402.937 424.597C415.349 424.019 427.504 418.955 436.657 410.552L438.611 429.457C428.563 432.552 419.534 438.868 413.182 447.247C422.138 448.159 431.373 446.067 439.061 441.385C436.307 463.139 431.337 484.611 424.253 505.362L401.157 505.173C406.636 490.03 412.187 473.737 408.15 458.148C404.113 442.558 386.006 429.689 371.754 437.188C388.145 423.976 400.557 405.891 406.99 385.846L365.714 439.124L334.04 439.393C333.044 424.469 332.086 409.174 336.329 394.831C340.571 380.489 351.164 367.062 365.759 363.792C367.342 363.437 369.028 363.148 370.736 362.856C377.869 361.634 385.391 360.345 387.485 353.899C363.826 352.522 340.11 367.668 331.408 389.712C325.207 405.419 326.299 422.928 327.487 439.774C305.615 436.619 283.219 437.126 261.512 441.267C257.744 428.422 253.836 415.289 245.931 404.485C238.027 393.682 225.194 385.488 211.874 386.822C233.325 390.01 243.951 413.847 252.04 433.969C260.129 454.091 274.813 477.075 296.409 475.084C302.559 474.517 304.517 484.619 299.803 488.61C295.089 492.601 288.086 491.841 282.052 490.521C250.972 483.719 221.955 467.76 199.566 445.156C195.207 440.754 190.992 435.938 188.977 430.08C186.492 422.852 187.65 414.87 189.787 407.532C200.704 370.043 234.301 344.356 266.23 321.881C283.408 309.789 282.792 279.823 265.132 268.448C252.059 280.327 234.628 288.634 217.07 286.696C199.513 284.758 182.896 270.382 182.33 252.727C187.844 252.241 193.249 250.548 198.055 247.802C193.338 246.125 188.021 246.197 183.35 248C182.08 243.242 183.007 237.943 185.818 233.9L195.829 232.83C193.816 230.555 191.009 228.996 188.014 228.491C195.239 216.453 212.006 213.158 225.444 217.226C238.881 221.294 249.764 230.985 260.175 240.404C249.319 216.601 219.881 208.929 194.178 204.051L205.393 197.406C198.912 195.64 191.761 196.47 185.856 199.675C189.711 204.451 194.914 208.125 200.703 210.16C191.45 223.332 175.117 231.193 159.05 230.209C143.254 229.242 127.166 234.078 114.522 243.596C135.069 235.241 157.517 231.598 179.653 233.026L175.974 248.967C163.195 251.357 151.002 256.813 140.705 264.748L175.507 252.995C178.995 270.823 193.096 286.147 210.575 291.101C228.053 296.056 248.098 290.41 260.422 277.063C273.502 279.658 276.64 298.542 269.49 309.797C263.829 318.71 254.569 324.261 245.389 329.765C242.975 331.212 240.567 332.655 238.231 334.156C210.147 352.198 189.83 381.92 183.215 414.638C176.6 447.356 183.775 482.636 202.644 510.172C171.478 521.966 150.758 556.691 155.177 589.719C155.278 590.475 155.39 591.237 155.503 592.001C156.17 596.518 156.851 601.129 155.317 605.373C153.525 610.335 147.086 614.011 142.855 610.86C130.783 601.872 116.627 595.702 101.826 592.978C93.1128 591.374 80.3253 594.978 82.1816 603.641C82.8004 606.53 85.0749 608.734 87.2826 610.696C110.19 631.057 138.091 645.759 167.837 653.142C174.568 654.813 182.045 656.029 188.147 652.732C196.833 648.037 198.259 637.511 199.692 626.936C201.1 616.542 202.514 606.101 210.837 601.108C218.353 596.599 227.614 599.127 236.294 601.497L236.299 601.498C237.457 601.814 238.605 602.128 239.736 602.421C260.378 607.771 281.783 605.73 303.198 603.687C311.652 602.881 320.106 602.074 328.516 601.722C351.849 600.746 375.328 603.333 397.888 609.367C405.745 611.468 413.557 607.548 420.997 603.814C422.102 603.259 423.199 602.709 424.287 602.182C432.697 598.115 444.221 595.971 450.221 603.132C452.594 605.963 453.47 609.591 454.35 613.238L454.35 613.239L454.35 613.239L454.351 613.239L454.351 613.24L454.351 613.24L454.351 613.24L454.351 613.241L454.351 613.241L454.351 613.241L454.351 613.242L454.351 613.242L454.351 613.243L454.351 613.243L454.352 613.243L454.352 613.244L454.352 613.244L454.352 613.244L454.352 613.245L454.352 613.245L454.352 613.246L454.352 613.246L454.352 613.246L454.352 613.247L454.352 613.247L454.353 613.247L454.353 613.248L454.353 613.248L454.353 613.248L454.353 613.249L454.353 613.249L454.353 613.25L454.353 613.25L454.353 613.25L454.353 613.251C454.788 615.051 455.224 616.856 455.843 618.572C459.884 629.782 471.999 636.649 483.897 637.315C495.794 637.982 507.412 633.469 517.808 627.646C537.505 616.616 554.352 600.546 566.3 581.392C567.691 579.162 569.066 576.684 568.787 574.071C568.051 567.167 558.122 566.625 551.498 568.704C533.577 574.331 517.102 584.501 504.042 598.001C497.902 592.403 494.913 583.553 496.402 575.379C532.914 550.132 571.788 524.022 616.067 520.884C623.01 520.392 630.058 520.469 637.098 520.544C652.386 520.71 667.631 520.874 681.648 515.219C707.473 504.799 722.39 469.558 706.211 446.892C693.764 429.455 669.428 425.34 648.089 427.251C612.022 430.481 577.306 447.088 552.158 473.142C545.17 480.381 538.794 488.393 532.43 496.39C518.659 513.696 504.943 530.932 485.204 540.116C471.801 521.579 450.798 508.716 428.195 505.202C444.96 474.268 449.3 436.819 440.055 402.87C430.809 368.921 408.08 338.845 377.944 320.683C376.302 319.693 374.629 318.729 372.952 317.762L372.951 317.761C365.362 313.387 357.698 308.968 352.527 302.003C346.213 293.498 345.586 279.527 354.442 273.715C366.218 289.874 390.931 293.364 408.408 283.649C425.884 273.933 435.837 253.545 436.189 233.553L481.396 232.402C466.2 227.319 449.599 226.506 433.979 230.081L428.562 215.332L464.433 210.629C451.199 207.296 437.016 207.827 424.068 212.141C421.126 206.379 416.641 201.414 411.205 197.905C416.309 198.484 421.609 197.117 425.796 194.143L414.027 184.777C418.903 185.673 424.194 182.477 425.67 177.745L406.833 170.125L481.191 134.543C478.023 134.487 474.851 134.604 471.695 134.892L481.307 128.536C466.632 130.31 452.157 126.179 437.7 122.053C422.735 117.783 407.79 113.518 392.662 115.813C386.718 116.715 380.737 118.605 374.79 120.486C362.517 124.365 350.389 128.2 339.035 123.2C315.932 113.028 288.838 112.283 265.211 121.17C263.122 121.956 260.999 122.815 258.856 123.682L258.856 123.682C247.06 128.454 234.631 133.482 223.612 128.05C210.351 121.513 194.269 125.336 180.973 131.801C176.305 134.07 171.775 136.652 167.249 139.231C158.881 143.999 150.527 148.76 141.34 151.528C162.071 164.235 185.549 172.434 209.683 175.398C212.647 177.689 211.612 182.781 208.655 185.081C205.697 187.38 201.699 187.672 197.958 187.872C198.921 194.537 207.509 198.758 213.374 195.449C210.909 195.907 210.725 191.903 211.749 189.615L218.139 175.335C223.102 177.157 229.278 174.233 231.014 169.24C218.725 170.719 205.974 172.158 194.201 168.335C182.429 164.512 171.91 153.846 172.462 141.48C198.679 126.291 233.873 128.348 258.142 146.487C256.268 141.019 251.662 136.563 246.134 134.872C252.517 128.588 260.99 124.464 269.873 123.318C264.596 127.493 262.177 134.958 264.003 141.435L287.698 119.642C283.811 126.61 281.634 134.524 281.41 142.5C290.197 136.757 297.198 128.321 301.223 118.625L311.763 120.105C305.31 125.557 301.715 134.221 302.412 142.64C310.444 137.647 316.67 129.815 319.725 120.865C329.623 122.464 339.235 125.815 347.982 130.714ZM639.143 516.506C633.843 516.331 628.54 516.155 623.268 516.305C584.028 517.419 547.546 536.531 515.17 558.731L514.835 558.961L514.47 559.212L513.831 559.651L513.806 559.668C507.662 563.894 501.458 568.161 494.444 570.653L486.205 546.639C485.762 545.351 485.49 543.58 486.688 542.932C499.287 536.119 510.792 527.287 520.629 516.876C527.183 509.939 532.996 502.317 538.803 494.703C547.026 483.921 555.235 473.156 565.515 464.383C581.931 450.374 602.597 442.355 623.333 436.375C638.679 431.949 654.76 428.477 670.545 430.908C686.33 433.339 701.872 442.76 707.66 457.645C712.258 469.468 710.008 483.414 702.925 493.937C695.841 504.461 684.341 511.622 672.017 514.627C661.299 517.239 650.23 516.873 639.143 516.506ZM187.639 567.377C188.469 569.351 188.992 571.985 187.336 573.341C185.202 575.088 182.176 572.836 180.383 570.742L165.103 552.886C161.445 562.395 159.767 572.661 160.206 582.84C160.294 584.88 160.46 586.951 160.627 589.028L160.627 589.029L160.627 589.029L160.627 589.029L160.627 589.029L160.627 589.03L160.627 589.03L160.627 589.03L160.627 589.031L160.627 589.031L160.628 589.031L160.628 589.031L160.628 589.032L160.628 589.032L160.628 589.032L160.628 589.032L160.628 589.033L160.628 589.033L160.628 589.033L160.628 589.034L160.628 589.034L160.628 589.034L160.628 589.034L160.628 589.035L160.628 589.035L160.628 589.035L160.628 589.035L160.628 589.036L160.628 589.036L160.628 589.036L160.628 589.037L160.628 589.037L160.628 589.037L160.628 589.037C161.267 596.988 161.914 605.045 158.231 611.94C156.616 614.964 153.868 617.74 150.446 617.962C148.507 618.088 146.619 617.379 144.829 616.622C139.923 614.547 135.089 611.997 130.257 609.448C117.817 602.887 105.388 596.331 91.7668 597.895C89.9066 598.109 87.5903 599.026 87.6629 600.897C87.6954 601.735 88.242 602.455 88.7735 603.104C108.412 627.088 139.122 638.718 168.851 647.5C173.713 648.936 178.837 650.334 183.788 649.244C188.739 648.153 193.335 643.689 192.737 638.655C191.155 625.335 195.328 611.43 203.984 601.183C207.439 597.092 211.808 593.452 217.05 592.362C223.49 591.025 229.784 593.678 235.983 596.291L235.984 596.291C237.576 596.963 239.162 597.631 240.742 598.229C252.859 602.81 266.478 603.309 278.898 599.629C274.042 599.566 271.71 593.744 270.704 588.993C264.184 558.216 260.717 526.793 260.372 495.335C260.335 491.914 257.935 488.89 255.041 487.066C252.591 485.523 249.797 484.664 247.019 483.81C246.516 483.655 246.013 483.501 245.512 483.342C235.397 480.137 225.866 475.1 217.52 468.547C216.468 467.722 215.433 466.871 214.396 466.019C211.202 463.394 208.005 460.766 204.338 458.885C199.482 456.393 193.472 455.377 188.605 457.848C187.519 460.435 189.482 463.441 191.994 464.69C193.897 465.636 196.029 465.893 198.155 466.149C198.837 466.231 199.518 466.313 200.19 466.417C203.389 466.915 206.503 467.956 209.357 469.485C212.354 471.09 215.194 475.329 212.522 477.433C211.426 478.296 209.891 478.235 208.5 478.133L192.81 476.98C196.635 487.386 201.511 497.405 207.341 506.836C207.864 507.682 208.563 508.623 209.558 508.632C224.929 508.771 242.094 510.923 251.835 522.814C253.681 525.068 255.196 528.325 253.613 530.771C244.684 519.99 230.717 513.569 216.72 513.81C202.723 514.052 188.986 520.951 180.435 532.035C187.983 537.087 193.983 544.419 197.442 552.817C198.486 555.353 198.294 559.501 195.552 559.444L179.082 539.278C178.346 538.377 177.461 537.399 176.298 537.363C175.366 537.335 174.544 537.931 173.804 538.5C172.202 539.731 170.539 541.036 169.703 542.875C168.867 544.715 169.178 547.246 170.92 548.269C178.345 552.63 184.303 559.439 187.639 567.377ZM375.409 598.935C385.985 590.113 389.435 575.585 392.276 562.107L402.683 512.721C402.795 512.193 402.922 511.634 403.302 511.251C403.803 510.745 404.589 510.69 405.3 510.669C424.272 510.095 444.47 511.903 459.75 523.161C453.515 526.253 448.065 530.912 444.042 536.591C442.913 538.184 441.97 540.58 443.423 541.884C443.968 542.373 444.727 542.546 445.458 542.598C449.1 542.857 452.427 540.582 455.089 538.082C455.663 537.543 456.227 536.986 456.791 536.428C458.843 534.397 460.905 532.358 463.51 531.165C466.83 529.645 471.442 530.071 473.275 533.23C467.353 536.247 462.473 541.265 459.624 547.269C458.882 548.832 458.269 550.639 458.87 552.261C459.471 553.884 461.835 554.836 462.997 553.553L474.438 540.923C474.991 540.312 475.76 539.642 476.534 539.924C476.952 540.077 477.225 540.472 477.464 540.847C483.527 550.361 485.937 561.439 488.358 572.565C489.775 579.08 491.196 585.611 493.356 591.855C495.086 596.857 498.428 602.476 503.721 602.48C506.646 602.482 509.234 600.682 511.549 598.895C514.024 596.984 516.487 594.98 518.962 592.966C530.597 583.498 542.496 573.814 557.15 572.654C559.46 572.472 562.423 572.981 562.965 575.234C563.28 576.542 562.576 577.859 561.874 579.007C550.982 596.835 534.645 610.892 516.597 621.414C507.356 626.802 497.224 631.428 486.528 631.511C475.832 631.594 464.506 626.125 460.464 616.222C459.64 614.202 459.135 612.069 458.632 609.939L458.631 609.938C458.049 607.474 457.466 605.012 456.39 602.73C453.617 596.847 447.47 592.707 440.977 592.347C434.794 592.005 429.108 594.759 423.434 597.507C421.441 598.473 419.449 599.437 417.438 600.267C404.086 605.774 388.386 605.276 375.409 598.935ZM304.807 492.615C300.825 496.012 295.47 497.368 290.25 497.751C280.846 498.441 271.25 496.24 263.087 491.52L266.455 504.269C266.6 504.818 266.773 505.41 267.229 505.748C267.625 506.043 268.15 506.079 268.643 506.105L317.039 508.649C324.095 509.019 331.16 509.39 338.222 509.186C358.031 508.614 377.693 503.442 395.22 494.194C396.232 493.661 397.262 493.093 397.99 492.212C398.858 491.161 399.201 489.785 399.491 488.453C401.946 477.193 402.371 465.493 400.738 454.085C400.338 451.283 399.779 448.409 398.204 446.057C396.628 443.705 393.795 441.986 391.014 442.516C362.535 447.939 333.463 446.264 304.393 444.589H304.392H304.392H304.392H304.392H304.392H304.391H304.391H304.391H304.391H304.39H304.39H304.39H304.39H304.39H304.389H304.389H304.389H304.389H304.388H304.388H304.388H304.388H304.387H304.387H304.387H304.387H304.387H304.386H304.386H304.386H304.386C293.429 443.957 282.472 443.326 271.548 443.075C269.597 443.03 267.546 443.02 265.832 443.954C264.119 444.887 262.94 447.102 263.82 448.843C268.801 458.699 279.094 464.988 289.766 467.825C290.533 468.029 291.317 468.229 292.111 468.431C299.015 470.187 306.618 472.12 309.124 478.546C311.026 483.422 308.788 489.217 304.807 492.615ZM382.455 576.146C380.503 583.898 376.399 591.939 368.953 594.846C366.348 595.863 363.527 596.166 360.743 596.425C334.926 598.828 308.833 598.249 283.148 594.704C281.619 594.493 280.007 594.236 278.815 593.254C277.363 592.06 276.871 590.082 276.49 588.241C275.324 582.597 274.421 576.898 273.783 571.171C273.671 570.156 273.952 568.709 274.97 568.788C291.405 570.067 307.888 570.738 324.373 570.801C335.744 570.844 347.206 570.588 358.313 568.145C369.419 565.703 380.248 560.929 388.367 552.967C386.059 557.814 385.065 563.109 384.07 568.413L384.07 568.413L384.07 568.413L384.07 568.414L384.07 568.414L384.069 568.414L384.069 568.414L384.069 568.415L384.069 568.415L384.069 568.415L384.069 568.415L384.069 568.416L384.069 568.416L384.069 568.416L384.069 568.417L384.069 568.417L384.068 568.417L384.068 568.417L384.068 568.418L384.068 568.418L384.068 568.418L384.068 568.418L384.068 568.419L384.068 568.419L384.068 568.419L384.068 568.42L384.068 568.42L384.067 568.42L384.067 568.42L384.067 568.421L384.067 568.421C383.582 571.011 383.096 573.603 382.455 576.146ZM326.93 543.955C325.876 544.981 324.742 546.199 324.817 547.668C324.891 549.136 327.094 550.233 327.854 548.974C332.003 542.102 339.217 537.161 347.123 535.777C355.03 534.393 363.493 536.59 369.729 541.644C370.377 542.169 371.004 542.724 371.631 543.28C373.109 544.59 374.587 545.899 376.333 546.804C377.227 547.268 378.759 547.281 378.796 546.273C378.808 545.943 378.619 545.642 378.433 545.368C373.955 538.768 367.259 533.701 359.691 531.186C353.056 528.982 345.368 528.843 339.435 532.54C337.28 533.882 335.442 535.668 333.623 537.439L326.93 543.955ZM271.198 540.201C276.918 533.693 286.166 530.811 294.756 531.946C303.345 533.082 311.202 537.921 316.909 544.44C317.915 545.589 318.901 547.24 318.085 548.531C317.403 549.612 315.771 549.691 314.649 549.077C313.671 548.541 312.973 547.637 312.286 546.747L312.282 546.742C312.222 546.664 312.161 546.586 312.101 546.509C312.062 546.459 312.023 546.409 311.984 546.359C306.932 539.932 298.677 536.159 290.511 536.544C282.346 536.93 274.483 541.463 270.058 548.337C268.906 547.335 268.58 545.614 268.926 544.126C269.273 542.639 270.19 541.348 271.198 540.201ZM355.345 523.152C355.212 524.605 357.131 525.508 358.51 525.033C359.751 524.605 360.616 523.533 361.449 522.5C361.542 522.385 361.634 522.271 361.726 522.158C369.405 512.767 384.027 509.937 394.655 515.786C396.049 514.609 396.129 512.351 395.196 510.783C394.263 509.214 392.56 508.252 390.822 507.696C387.057 506.493 382.969 506.903 379.096 507.687C369.927 509.542 360.666 513.888 355.846 521.905C355.613 522.292 355.387 522.702 355.345 523.152ZM308.317 556.231C311.845 554.881 315.533 553.884 319.301 553.622C328.623 552.974 338.151 557.161 343.978 564.466C341.496 566.241 338.227 564.081 335.675 562.397L335.65 562.38C327.508 557.003 316.384 556.522 307.808 561.176C307.139 561.539 306.464 561.934 305.783 562.333C302.575 564.211 299.241 566.164 295.788 565.186C298.642 560.815 303.442 558.097 308.317 556.231ZM334.781 551.266C336.243 550.504 337.555 549.499 338.867 548.494C340.12 547.534 341.374 546.574 342.759 545.825C346.663 543.713 351.527 543.469 355.623 545.18C356.818 545.679 357.939 546.33 359.061 546.98L359.062 546.981C360.028 547.541 360.994 548.102 362.008 548.566C364.199 549.569 366.81 550.09 368.993 549.069C369.235 548.955 369.486 548.806 369.588 548.559C369.754 548.157 369.459 547.724 369.173 547.397C364.287 541.82 356.632 538.798 349.254 539.535C341.876 540.271 334.969 544.747 331.282 551.179C332.052 552.193 333.653 551.854 334.781 551.266ZM280.168 549.514C279.336 550.25 278.505 550.985 277.543 551.532C276.012 552.403 273.95 552.695 272.565 551.606C272.137 549.303 274.46 547.515 276.484 546.334C281.473 543.423 286.834 540.416 292.603 540.714C297.218 540.952 301.43 543.289 305.416 545.627C306.396 546.202 307.401 546.805 308.071 547.722C308.741 548.639 308.992 549.961 308.366 550.909C307.734 551.867 306.402 552.149 305.283 551.889C304.206 551.639 303.274 550.991 302.365 550.359L302.259 550.286C299.034 548.047 295.518 545.983 291.618 545.531C288.119 545.124 284.472 546.109 281.672 548.247C281.155 548.642 280.666 549.075 280.177 549.507L280.176 549.508L280.176 549.508L280.175 549.509L280.175 549.509L280.174 549.509L280.174 549.51L280.173 549.51L280.173 549.51L280.173 549.511L280.172 549.511L280.172 549.511L280.171 549.512L280.171 549.512L280.17 549.513L280.17 549.513L280.169 549.513L280.169 549.514L280.168 549.514L280.168 549.514ZM303.522 529.171C304.564 530.519 306.603 529.074 307.752 527.818C311.294 523.949 316.399 521.553 321.638 521.301C326.878 521.05 332.188 522.945 336.084 526.458C336.164 526.529 336.243 526.602 336.323 526.675C337.236 527.506 338.21 528.393 339.426 528.426C340.748 528.462 341.94 526.616 340.891 525.81C335.274 521.495 328.74 517.969 321.672 517.503C314.605 517.037 306.988 520.208 303.716 526.489C303.278 527.331 302.942 528.421 303.522 529.171ZM368.023 526.398C367.417 527.022 366.804 527.654 366.009 527.99C365.076 528.384 363.795 528.195 363.345 527.288C362.869 526.33 363.533 525.212 364.226 524.397C371.027 516.395 383.828 514.321 392.808 519.766C394.184 520.6 395.626 522.218 394.817 523.608C393.847 525.276 391.335 524.21 389.665 523.244C382.989 519.382 373.777 520.605 368.339 526.075C368.233 526.181 368.128 526.289 368.023 526.398ZM370.973 528.504C370.587 528.827 370.202 529.188 370.04 529.664C369.586 530.994 371.202 532.238 372.602 532.127C373.616 532.046 374.52 531.552 375.423 531.059C375.768 530.87 376.113 530.682 376.464 530.516C379.562 529.055 383.285 529.403 386.43 530.761C386.523 530.801 386.616 530.843 386.709 530.885C386.913 530.976 387.116 531.071 387.32 531.165C388.259 531.603 389.2 532.041 390.219 532.194C391.559 532.396 393.122 531.951 393.733 530.741C388.404 524.136 377.486 523.063 370.973 528.504ZM289.106 525.557C288.595 526.271 287.51 526.342 286.714 525.969C285.975 525.623 285.421 524.992 284.881 524.375L284.757 524.235C281.022 519.999 276.181 516.745 270.848 514.886C269.463 514.403 267.703 513.442 268.093 512.028C271.921 510.721 276.251 511.747 279.689 513.88C283.127 516.013 285.817 519.144 288.318 522.324C289.057 523.263 289.802 524.585 289.106 525.557ZM333.842 529.518C327.549 525.504 318.958 525.434 312.599 529.344C311.494 530.023 310.359 530.978 310.273 532.273C310.187 533.567 311.945 534.769 312.817 533.808C316.329 529.936 322.748 529.132 327.107 532.019C329.247 533.437 332.32 533.243 334.266 531.569C335.185 531.473 334.621 530.015 333.842 529.518ZM355.87 562.075C362.361 555.894 370.682 550.632 379.625 551.236C380.545 551.298 381.778 552.072 381.223 552.807L359.047 562.405C357.955 562.877 356.343 563.167 355.87 562.075ZM294.515 555.219C294.733 555.342 294.951 555.475 295.169 555.608C296.05 556.145 296.943 556.69 297.956 556.691C299.221 556.692 300.474 555.17 299.672 554.193C297.147 551.114 293.178 549.273 289.197 549.334C285.215 549.395 281.305 551.356 278.875 554.511C279.175 555.657 280.578 556.185 281.75 556.014C282.595 555.891 283.368 555.513 284.14 555.135C284.44 554.989 284.739 554.843 285.043 554.711C288.05 553.408 291.664 553.602 294.515 555.219ZM340.642 555.884C339.757 555.932 338.759 555.259 338.86 554.378C338.897 554.053 339.074 553.762 339.26 553.494C341.311 550.545 345.016 549.039 348.607 549.006C352.198 548.973 355.688 550.245 358.858 551.931C359.743 552.402 360.738 553.151 360.595 554.143C359.126 555.706 356.693 554.867 354.572 554.136C354.336 554.055 354.105 553.975 353.879 553.9C350.349 552.728 346.338 553.096 343.08 554.891C342.968 554.952 342.856 555.016 342.743 555.08C342.077 555.458 341.399 555.843 340.642 555.884ZM332.185 515.739C335.882 517.063 339.325 519.091 342.274 521.683C342.479 521.863 342.683 522.047 342.886 522.23L342.887 522.231L342.887 522.231L342.888 522.231L342.888 522.232C343.893 523.137 344.904 524.048 346.129 524.602C347.604 525.268 349.519 525.285 350.674 524.151C348.119 522.191 346.021 519.641 344.589 516.757C343.818 515.204 341.763 514.919 340.031 514.835L332.436 514.463C332.169 514.823 332.074 515.305 332.185 515.739ZM301.234 522.256C300.583 523.084 299.933 523.911 299.165 524.629C297.858 525.849 296.055 526.745 294.309 526.359C296.083 522.054 298.952 518.205 302.569 515.274C305.152 513.182 308.89 513.641 312.165 514.21C312.34 515.393 310.82 515.985 309.663 516.294C306.984 517.008 304.517 518.504 302.644 520.55C302.147 521.094 301.69 521.675 301.234 522.256L301.234 522.256ZM270.05 523.146L277.092 527.734C278.086 528.382 279.354 529.045 280.385 528.458C281.342 527.914 281.488 526.512 280.989 525.531C280.491 524.55 279.54 523.893 278.627 523.278L272.894 519.418C271.293 518.34 268.686 517.481 267.816 519.203C267.065 520.687 268.656 522.238 270.05 523.146ZM322.771 542.84C321.629 543.387 320.371 542.423 319.473 541.532L316.541 538.623C316.197 538.281 315.825 537.865 315.885 537.384C315.923 537.08 316.129 536.827 316.34 536.605C319.093 533.725 324.323 533.804 326.987 536.767L323.934 541.592C323.626 542.079 323.291 542.591 322.771 542.84ZM278.397 564.53C280.306 565.2 282.559 565.398 284.242 564.277C281.708 561.362 278.737 558.826 275.46 556.781C274.53 556.201 273.482 555.641 272.397 555.795C271.312 555.95 270.352 557.183 270.877 558.145C272.49 561.096 275.223 563.417 278.397 564.53ZM385.835 537.83L383.129 541.1C382.872 541.41 382.586 541.739 382.192 541.824C381.597 541.954 381.055 541.483 380.627 541.05L376.698 537.07C376.12 536.484 376.286 535.438 376.86 534.849C377.434 534.261 378.285 534.038 379.101 533.94C381.237 533.683 383.45 534.123 385.325 535.177C385.864 535.481 386.43 535.925 386.455 536.543C386.474 537.03 386.146 537.454 385.835 537.83ZM288.994 517.55C289.803 518.421 290.82 519.313 292.005 519.215C293.232 519.113 294.058 518.037 294.87 516.979C295.738 515.847 296.591 514.736 297.903 514.86C298.584 513.737 296.725 512.838 295.411 512.817L285.212 512.656C286.321 514.397 287.589 516.037 288.994 517.55ZM331.208 565.243L309.991 565.335C310.221 564.237 311.457 563.71 312.54 563.416C317.378 562.105 322.524 561.95 327.431 562.967C328.929 563.277 330.588 563.845 331.208 565.243ZM353.658 557.893L346.638 558.21C345.883 558.245 344.913 558.464 344.82 559.214C344.779 559.549 344.947 559.871 345.11 560.167C345.729 561.291 346.387 562.459 347.457 563.167C348.526 563.874 350.137 563.944 350.969 562.968C351.255 562.632 351.423 562.212 351.59 561.795C351.795 561.282 351.999 560.773 352.418 560.43C352.696 560.202 353.035 560.078 353.375 559.953C353.635 559.858 353.895 559.763 354.13 559.621C354.673 559.292 355.018 558.441 354.515 558.055C354.279 557.874 353.955 557.88 353.658 557.893ZM292.13 558.824C293.104 559.451 293.695 560.832 293.07 561.807C292.321 562.976 291.387 564.263 290.006 564.4C288.225 564.577 286.949 562.782 286.082 561.216C285.787 560.683 285.481 560.094 285.59 559.494C285.82 558.235 287.503 558 288.781 558.063C289.938 558.12 291.156 558.196 292.13 558.824ZM385.505 547.775C386.555 547.862 387.496 547.15 388.233 546.397C390.48 544.099 391.91 541.017 392.211 537.817C391.468 537.342 390.558 538.079 389.988 538.753L384.248 545.541C383.568 546.345 384.455 547.688 385.505 547.775ZM273.083 532.687C271.579 533.5 269.521 533.082 268.454 531.746C267.387 530.411 267.433 528.311 268.557 527.024C268.713 526.845 268.899 526.674 269.132 526.627C269.469 526.557 269.795 526.76 270.079 526.954L272.871 528.857C273.515 529.296 274.213 529.816 274.349 530.583C274.502 531.445 273.853 532.271 273.083 532.687ZM351.092 517.652C352.209 518.59 353.865 517.621 354.974 516.673L358.584 513.589C357.903 512.938 356.814 513.085 355.892 513.276L347.855 514.937L351.092 517.652ZM188.611 446.963C187.79 446.233 187.58 445.04 187.556 443.943C187.528 442.703 187.673 441.461 187.986 440.261L193.313 447.196C193.63 447.61 193.891 448.322 193.422 448.549C192.756 448.102 191.937 447.976 191.123 447.85C190.203 447.707 189.289 447.566 188.611 446.963ZM393.162 504.51C393.836 505.35 395.256 505.169 396.029 504.419C396.803 503.669 397.088 502.56 397.31 501.506C397.363 501.253 397.413 500.979 397.307 500.743C397.036 500.142 396.145 500.323 395.549 500.601C393.943 501.35 392.052 503.129 393.162 504.51ZM332.879 197.894C333.531 196.265 335.048 195.166 336.543 194.248C341.053 191.477 346.062 189.521 351.256 188.501C352.499 188.257 353.979 188.138 354.842 189.065C355.813 190.108 355.327 191.913 354.25 192.845C353.29 193.676 352.027 194.017 350.792 194.35C350.64 194.391 350.489 194.432 350.34 194.473C346.186 195.623 342.278 197.654 338.95 200.393C337.67 201.446 336.153 202.686 334.557 202.242C332.867 201.772 332.227 199.522 332.879 197.894ZM239.451 198.274C238.246 197.621 237.431 195.992 238.182 194.844C238.618 194.177 239.432 193.873 240.205 193.676C246.467 192.087 252.95 194.893 258.615 198.001C259.89 198.7 261.202 199.462 262.006 200.674C262.81 201.887 262.927 203.683 261.878 204.69C260.123 206.377 257.34 204.642 255.358 203.228C251.888 200.753 247.718 199.269 243.464 198.996C243.275 198.984 243.084 198.974 242.892 198.964L242.892 198.963L242.892 198.963C241.701 198.9 240.49 198.836 239.451 198.274ZM305.098 288.056L300.979 276.308C297.313 278.954 294.572 282.857 293.328 287.204C292.203 286.289 292.161 284.741 292.12 283.221C292.108 282.767 292.096 282.315 292.055 281.884C291.812 279.323 290.203 276.931 287.923 275.741C285.642 274.55 282.761 274.596 280.52 275.86C281.115 277.161 282.515 277.574 283.956 277.999C284.914 278.281 285.889 278.569 286.658 279.125C288.284 280.3 288.749 282.515 288.774 284.521C288.781 285.023 288.768 285.529 288.755 286.036V286.037V286.037C288.716 287.552 288.678 289.07 289.151 290.496C289.304 290.957 289.52 291.416 289.893 291.726C290.95 292.605 292.55 291.875 293.62 291.012C296.037 289.063 297.938 286.479 299.079 283.592C300.085 284.597 300.457 286.009 300.826 287.41L300.826 287.41C300.934 287.821 301.042 288.232 301.166 288.63C301.711 290.387 303.016 292.266 304.854 292.18C306.079 292.124 307.066 291.202 307.933 290.335L312.917 285.357C313.517 284.757 314.169 283.994 313.975 283.167C313.79 282.374 312.849 281.949 312.042 282.063C311.235 282.177 310.545 282.685 309.914 283.2C308.144 284.644 306.527 286.275 305.098 288.056ZM293.715 240.932C293.98 238.779 294.127 236.271 292.545 234.786C289.593 232.015 287.008 228.855 284.878 225.412C283.949 223.911 283.076 222.157 283.519 220.448C284.188 217.867 287.326 216.933 289.973 216.611C294.208 216.095 298.495 216.008 302.747 216.35C304.575 216.497 306.512 216.772 307.91 217.957C309.308 219.142 309.813 221.546 308.463 222.786C301.847 228.868 297.973 237.827 298.073 246.814C300.526 248.406 303.02 250.018 305.815 250.879C308.61 251.741 311.795 251.769 314.317 250.286C315.378 249.662 316.269 248.808 317.161 247.952C317.777 247.361 318.394 246.769 319.069 246.251C320.721 244.984 323.087 244.199 324.857 245.295L318.121 251.496C315.437 253.968 312.104 256.626 308.551 255.794C307.375 255.518 306.342 254.882 305.305 254.243C304.688 253.863 304.07 253.482 303.419 253.176C299.94 251.539 295.858 252.151 292.099 252.958C291.873 253.006 291.647 253.055 291.419 253.105L291.411 253.106C287.863 253.875 284.192 254.671 280.71 253.715C277.002 252.698 273.75 248.844 274.91 245.179C277.244 248.595 281.309 250.76 285.446 250.792C287.035 250.804 288.673 250.5 289.989 249.61C292.683 247.789 293.316 244.16 293.715 240.932Z" fill="#00160A"/>
</svg>
