<svg width="1392" height="1392" viewBox="0 0 1392 1392" fill="none" xmlns="http://www.w3.org/2000/svg">
<circle cx="696" cy="696" r="696" fill="#E0DDFF"/>
<mask id="mask0_176_19848" style="mask-type:alpha" maskUnits="userSpaceOnUse" x="0" y="0" width="1392" height="1392">
<circle cx="696" cy="696" r="696" fill="#FFEDEF"/>
</mask>
<g mask="url(#mask0_176_19848)">
<g clip-path="url(#clip0_176_19848)">
<path d="M893.812 1327.9C841.062 1254.63 799.791 1112.99 794.906 1042.17L543.98 934.106L439.58 1327.9H893.812Z" fill="#F9C9B6" stroke="black" stroke-width="14.6526"/>
<mask id="mask1_176_19848" style="mask-type:alpha" maskUnits="userSpaceOnUse" x="439" y="934" width="455" height="431">
<path d="M893.812 1364.53C841.062 1291.27 799.791 1112.99 794.906 1042.17L543.98 934.106L439.58 1364.53H893.812Z" fill="#F9C9B6"/>
</mask>
<g mask="url(#mask1_176_19848)">
<g style="mix-blend-mode:multiply">
<ellipse cx="783.917" cy="926.779" rx="216.126" ry="197.811" fill="black"/>
</g>
</g>
<mask id="path-6-inside-1_176_19848" fill="white">
<path fill-rule="evenodd" clip-rule="evenodd" d="M1003.41 710.838C1003.28 710.251 1003.14 709.665 1003 709.079C1002.86 708.493 1002.71 707.908 1002.57 707.323L941.997 454.507L941.989 454.509C904.559 302.69 751.524 209.34 599.231 245.828C446.937 282.316 352.822 434.882 388.256 587.179L388.252 587.18L388.418 587.874C388.51 588.261 388.602 588.649 388.694 589.037C388.787 589.424 388.881 589.811 388.975 590.198L450.494 846.963L450.548 846.951C489.386 996.793 641.288 1088.51 792.46 1052.29C943.632 1016.07 1037.48 865.475 1004.2 714.301L1004.24 714.291L1003.41 710.838Z"/>
</mask>
<path fill-rule="evenodd" clip-rule="evenodd" d="M1003.41 710.838C1003.28 710.251 1003.14 709.665 1003 709.079C1002.86 708.493 1002.71 707.908 1002.57 707.323L941.997 454.507L941.989 454.509C904.559 302.69 751.524 209.34 599.231 245.828C446.937 282.316 352.822 434.882 388.256 587.179L388.252 587.18L388.418 587.874C388.51 588.261 388.602 588.649 388.694 589.037C388.787 589.424 388.881 589.811 388.975 590.198L450.494 846.963L450.548 846.951C489.386 996.793 641.288 1088.51 792.46 1052.29C943.632 1016.07 1037.48 865.475 1004.2 714.301L1004.24 714.291L1003.41 710.838Z" fill="#F9C9B6"/>
<path d="M1003.41 710.838L989.141 714.163L989.152 714.207L989.162 714.252L1003.41 710.838ZM1003 709.079L1017.25 705.665L1017.25 705.665L1003 709.079ZM1002.57 707.323L988.32 710.737L988.331 710.781L988.342 710.826L1002.57 707.323ZM941.997 454.507L956.247 451.093L952.834 436.849L938.588 440.257L941.997 454.507ZM941.989 454.509L927.762 458.017L931.245 472.145L945.398 468.76L941.989 454.509ZM599.231 245.828L595.817 231.578L595.817 231.578L599.231 245.828ZM388.256 587.179L391.661 601.431L405.828 598.046L402.527 583.859L388.256 587.179ZM388.252 587.18L384.847 572.928L370.587 576.336L374.003 590.594L388.252 587.18ZM388.418 587.874L402.682 584.518L402.675 584.489L402.668 584.46L388.418 587.874ZM388.694 589.037L402.944 585.623L402.944 585.623L388.694 589.037ZM388.975 590.198L403.225 586.784L403.218 586.755L403.211 586.725L388.975 590.198ZM450.494 846.963L436.245 850.377L439.659 864.627L453.908 861.213L450.494 846.963ZM450.548 846.951L464.731 843.274L461.122 829.35L447.134 832.701L450.548 846.951ZM792.46 1052.29L795.874 1066.54L795.874 1066.54L792.46 1052.29ZM1004.2 714.301L1000.79 700.051L986.793 703.399L989.887 717.452L1004.2 714.301ZM1004.24 714.291L1007.65 728.541L1021.9 725.131L1018.49 710.877L1004.24 714.291ZM1017.68 707.512C1017.54 706.897 1017.39 706.281 1017.25 705.665L988.747 712.493C988.88 713.049 989.012 713.606 989.141 714.163L1017.68 707.512ZM1017.25 705.665C1017.1 705.049 1016.95 704.435 1016.8 703.821L988.342 710.826C988.478 711.381 988.613 711.936 988.747 712.493L1017.25 705.665ZM927.748 457.921L988.32 710.737L1016.82 703.909L956.247 451.093L927.748 457.921ZM945.398 468.76L945.406 468.758L938.588 440.257L938.58 440.259L945.398 468.76ZM956.215 451.002C916.858 291.367 755.948 193.212 595.817 231.578L602.645 260.077C747.1 225.467 892.259 314.013 927.762 458.017L956.215 451.002ZM595.817 231.578C435.685 269.945 336.727 430.362 373.984 590.499L402.527 583.859C368.918 439.401 458.19 294.687 602.645 260.077L595.817 231.578ZM391.657 601.431L391.661 601.431L384.851 572.928L384.847 572.928L391.657 601.431ZM402.668 584.46L402.502 583.766L374.003 590.594L374.169 591.288L402.668 584.46ZM374.155 591.229C374.251 591.636 374.348 592.044 374.445 592.451L402.944 585.623C402.856 585.255 402.768 584.886 402.682 584.518L374.155 591.229ZM374.445 592.451C374.543 592.858 374.641 593.264 374.74 593.671L403.211 586.725C403.121 586.358 403.032 585.991 402.944 585.623L374.445 592.451ZM464.743 843.549L403.225 586.784L374.726 593.612L436.245 850.377L464.743 843.549ZM447.134 832.701L447.08 832.714L453.908 861.213L453.962 861.2L447.134 832.701ZM436.364 850.627C477.202 1008.19 636.92 1104.62 795.874 1066.54L789.046 1038.04C645.656 1072.39 501.569 985.399 464.731 843.274L436.364 850.627ZM795.874 1066.54C954.827 1028.45 1053.5 870.11 1018.51 711.151L989.887 717.452C1021.46 860.839 932.436 1003.68 789.046 1038.04L795.874 1066.54ZM1000.83 700.04L1000.79 700.051L1007.61 728.551L1007.65 728.541L1000.83 700.04ZM989.162 714.252L989.99 717.705L1018.49 710.877L1017.66 707.423L989.162 714.252Z" fill="black" mask="url(#path-6-inside-1_176_19848)"/>
</g>
<path d="M791.202 944.477C830.9 937.293 854.157 893.425 846.069 848.731C837.98 804.036 800.824 771.102 761.126 778.286C721.428 785.471 698.171 829.339 706.259 874.033C714.348 918.727 751.505 951.662 791.202 944.477Z" fill="black" stroke="black" stroke-width="13.1549"/>
<mask id="mask2_176_19848" style="mask-type:alpha" maskUnits="userSpaceOnUse" x="711" y="783" width="131" height="156">
<ellipse cx="776.164" cy="861.382" rx="64.4627" ry="77.8679" transform="rotate(-10.2582 776.164 861.382)" fill="#171921"/>
</mask>
<g mask="url(#mask2_176_19848)">
<ellipse cx="788.1" cy="927.36" rx="74.0127" ry="67.0529" transform="rotate(-10.2582 788.1 927.36)" fill="#FC909F"/>
</g>
<circle cx="612.795" cy="583.405" r="43.9579" transform="rotate(-6.27568 612.795 583.405)" fill="#D2EFF3"/>
<ellipse cx="617.521" cy="616.97" rx="32.9684" ry="49.4526" transform="rotate(-6.77646 617.521 616.97)" fill="black"/>
<circle cx="846.421" cy="551.796" r="43.9579" transform="rotate(-6.27568 846.421 551.796)" fill="#D2EFF3"/>
<ellipse cx="851.967" cy="580.338" rx="32.9684" ry="49.4526" transform="rotate(-6.27568 851.967 580.338)" fill="black"/>
<path d="M802.231 484.325C822.989 474.557 871.831 465.643 901.137 508.136" stroke="black" stroke-width="14.6526" stroke-linecap="round"/>
<path d="M525.953 577.027C533.538 555.376 561.42 514.295 612.267 523.184" stroke="black" stroke-width="14.6526" stroke-linecap="round"/>
<path d="M535.093 554.817L512.57 534.938" stroke="black" stroke-width="14.6526" stroke-linecap="round"/>
<path d="M890.004 487.778L912.527 467.899" stroke="black" stroke-width="14.6526" stroke-linecap="round"/>
<path d="M558.717 534.143L543.893 508.016" stroke="black" stroke-width="14.6526" stroke-linecap="round"/>
<path d="M862.717 474.432L877.541 448.304" stroke="black" stroke-width="14.6526" stroke-linecap="round"/>
<path d="M588.301 520.906L580.239 491.968" stroke="black" stroke-width="14.6526" stroke-linecap="round"/>
<path d="M829.47 472.183L837.533 443.245" stroke="black" stroke-width="14.6526" stroke-linecap="round"/>
<path d="M604.24 438.602C611.155 439.693 611.154 439.698 611.153 439.704L611.151 439.716L611.147 439.743L611.135 439.81C611.127 439.861 611.116 439.923 611.103 439.996C611.076 440.141 611.039 440.332 610.99 440.567C610.893 441.037 610.747 441.683 610.534 442.502C610.11 444.139 609.422 446.463 608.333 449.439C606.155 455.392 602.378 463.939 595.904 474.799C584.293 494.277 564.03 521.167 528.811 553.883C638.598 556.62 730.299 521.252 795.568 484.162C829.857 464.677 856.785 444.752 875.119 429.719C884.283 422.204 891.292 415.919 895.992 411.531C898.341 409.337 900.113 407.618 901.287 406.458C901.875 405.878 902.312 405.438 902.598 405.148C902.741 405.003 902.846 404.895 902.913 404.827L902.985 404.753L902.998 404.739L903 404.737L911.358 396.042L914.761 407.615L908.045 409.59C914.761 407.615 914.761 407.616 914.762 407.618L914.764 407.626L914.773 407.657L914.809 407.78L914.952 408.267C915.078 408.697 915.266 409.336 915.51 410.172C915.999 411.845 916.718 414.308 917.639 417.473C919.479 423.804 922.125 432.945 925.347 444.188C931.791 466.674 940.541 497.578 949.767 531.246C968.183 598.452 988.611 677.09 996.265 721.619C1009.06 796.048 989.276 852.557 977.574 885.984C975.299 892.482 973.33 898.107 971.964 902.823C972.16 902.987 972.417 903.188 972.751 903.425C974.938 904.976 978.817 906.763 984.422 908.545C995.469 912.056 1011.23 914.935 1028.09 916.558C1044.92 918.178 1062.44 918.508 1076.95 917.092C1084.21 916.383 1090.53 915.256 1095.54 913.723C1100.36 912.25 1103.38 910.583 1105.01 909.078C1105.06 908.764 1105.12 908.011 1104.94 906.559C1104.58 903.717 1103.46 899.715 1101.51 894.421C1098.6 886.52 1094.3 876.847 1089.26 865.535C1087.55 861.7 1085.76 857.677 1083.91 853.471C1069.52 820.725 1052.2 778.141 1048.43 734.754C1044.24 686.546 1053.77 645.315 1062.33 608.255L1062.74 606.489C1071.48 568.613 1078.76 535.721 1071.29 502.387C1059.95 451.797 1044.48 409.68 1020.72 379.415C997.216 349.473 965.335 330.785 920 327.348L915.318 326.994L913.87 322.527C893.01 258.164 864.848 216.108 828.936 190.028C793.037 163.958 748.51 153.211 693.623 153.211C592.199 153.211 482.98 191.744 401.019 258.41C319.142 325.007 264.956 419.207 272.046 530.705C279.871 653.756 270.953 747.058 250.843 815.379C232.505 877.677 204.712 919.652 171.398 944.137C175.769 946.369 181.596 949.204 188.875 952.448C207.289 960.656 234.997 971.492 271.932 981.855C342.758 1001.73 447.564 1019.88 585.906 1014.41C555.411 988.215 524.644 956.429 500.283 922.83C472.323 884.268 452.167 842.45 451.577 803.501C450.876 757.247 454.009 636.215 454.978 611.161C457.23 552.93 494.618 508.044 530.211 478.188C548.112 463.173 565.845 451.713 579.093 444.007C585.724 440.149 591.25 437.222 595.136 435.251C597.079 434.265 598.614 433.517 599.674 433.011C600.204 432.758 600.615 432.566 600.899 432.434C600.974 432.399 601.041 432.368 601.098 432.342C601.149 432.319 601.192 432.299 601.228 432.282L601.32 432.24L601.347 432.228L601.356 432.224C601.359 432.223 601.362 432.222 604.24 438.602ZM604.24 438.602L611.155 439.693L613.174 426.893L601.362 432.222L604.24 438.602ZM971.401 902.244C971.41 902.244 971.454 902.293 971.506 902.39C971.419 902.292 971.393 902.244 971.401 902.244Z" fill="#D2EFF3" stroke="black" stroke-width="14"/>
<path d="M915.79 326.021C917.622 342.505 914.691 375.473 910.295 397.452" stroke="black" stroke-width="14.6526"/>
<path d="M746.486 633.619C747.231 647.694 752.706 677.874 768.643 685.992C788.565 696.139 772.947 729.777 735.653 727.62" stroke="black" stroke-width="14.6526"/>
<path d="M479.875 667.608V663.508L476.38 661.364C462.703 652.971 446.07 648.379 428.884 648.379C408.222 648.379 388.879 654.78 375.1 667.775C361.167 680.916 353.65 700.13 355.646 724.082C357.591 747.422 365.427 764.601 378.423 776.015C377.355 779.675 377.04 783.621 377.535 787.774C378.961 799.746 385.013 808.373 394.367 813.689C403.282 818.756 414.693 820.547 426.848 820.547C446.918 820.547 464.518 809.751 477.919 795.312L479.875 793.204V790.328V667.608Z" stroke="black" stroke-width="14.6526"/>
<path fill-rule="evenodd" clip-rule="evenodd" d="M501.751 725.243C502.012 722.856 502.146 720.433 502.146 717.979C502.146 680.551 467.322 655.705 428.883 655.705C390.444 655.705 359.283 679.516 362.946 723.474C364.985 747.935 373.738 764.033 387.31 773.722C385.154 777.473 384.21 781.88 384.809 786.911C387.114 806.259 403.63 813.224 426.847 813.224C467.53 813.224 499.718 761.762 501.751 725.243Z" fill="#F9C9B6"/>
<path d="M445.075 686.844C430.422 680.128 398.186 676.587 386.464 716.149" stroke="black" stroke-width="14.6526"/>
<path d="M406.612 688.674C414.549 695.39 429.69 716.148 426.759 745.453" stroke="black" stroke-width="14.6526"/>
<circle cx="354.685" cy="785.916" r="4" fill="white"/>
<circle cx="355.685" cy="784.916" r="1" fill="#FFEDEF"/>
<path d="M695.154 1317.19C695.155 1317.19 695.155 1317.19 699.656 1311.41L695.155 1317.19L701.462 1322.11L705.805 1315.4L705.806 1315.4L705.813 1315.39L705.848 1315.33C705.88 1315.28 705.93 1315.21 705.998 1315.1C706.057 1315.01 706.131 1314.9 706.218 1314.77C706.328 1314.6 706.461 1314.4 706.616 1314.17C707.167 1313.35 707.991 1312.13 709.069 1310.57C711.226 1307.45 714.393 1303 718.405 1297.66C726.44 1286.99 737.812 1272.89 751.203 1259.1C764.628 1245.27 779.871 1231.99 795.622 1222.74C811.434 1213.46 827.049 1208.66 841.541 1210.61C997 1231.57 1111.4 1300.43 1185.66 1403H184.523C244.231 1295.51 329.157 1227.1 466.843 1195.7C472.711 1194.37 480.688 1194.77 490.663 1197.09C500.535 1199.39 511.79 1203.42 523.928 1208.76C548.203 1219.43 575.301 1234.99 600.766 1251.11C626.193 1267.2 649.802 1283.73 667.068 1296.25C675.696 1302.5 682.73 1307.75 687.602 1311.43C690.037 1313.27 691.932 1314.71 693.214 1315.7C693.47 1315.89 693.701 1316.07 693.908 1316.23C694.219 1316.47 694.474 1316.67 694.67 1316.82C694.834 1316.95 694.956 1317.04 695.037 1317.1L695.128 1317.17L695.149 1317.19L695.154 1317.19Z" fill="#9287FF" stroke="black" stroke-width="14.6526"/>
<path d="M423.508 1205.49L442.434 1135.04C443.201 1132.19 446.892 1131.38 448.885 1133.57C503.331 1193.14 572.038 1190.81 594.843 1188.07C597.939 1187.7 600.363 1191.09 598.908 1193.85L550.712 1285.26C549.974 1286.66 548.462 1287.43 546.911 1287.1C532.447 1284.09 460.377 1266.47 423.933 1208.36C423.399 1207.51 423.247 1206.46 423.508 1205.49Z" fill="#E0DDFF" stroke="black" stroke-width="14.6526"/>
<path d="M901.853 1205.11L859.432 1133.75C857.991 1131.32 854.443 1131.36 852.908 1133.73C831.893 1166.1 795.647 1181.01 782.972 1185.41C780.692 1186.2 779.649 1188.91 780.878 1190.99L830.341 1274.56C831.079 1275.81 832.473 1276.49 833.867 1276.09C841.687 1273.86 868.52 1262.64 901.805 1208.92C902.521 1207.77 902.547 1206.28 901.853 1205.11Z" fill="#E0DDFF" stroke="black" stroke-width="14.6526"/>
<path d="M631.895 1269.29L598.927 1190.53L573.285 1245.48L631.895 1269.29Z" fill="black" stroke="black" stroke-width="14.6526" stroke-linejoin="round"/>
<path d="M747.284 1265.62L780.253 1186.87L805.895 1241.81L747.284 1265.62Z" fill="black" stroke="black" stroke-width="14.6526" stroke-linejoin="round"/>
<path d="M489.032 1120.93L445.074 1131.92L481.706 1155.73L489.032 1120.93Z" fill="black" stroke="black" stroke-width="14.6526" stroke-linejoin="round"/>
<path d="M816.884 1120.93L857.179 1131.92L831.537 1155.73L816.884 1120.93Z" fill="black" stroke="black" stroke-width="14.6526" stroke-linejoin="round"/>
</g>
<defs>
<clipPath id="clip0_176_19848">
<rect width="732.632" height="1172.21" fill="white" transform="translate(329.686 157.517)"/>
</clipPath>
</defs>
</svg>
