<svg width="1392" height="1392" viewBox="0 0 1392 1392" fill="none" xmlns="http://www.w3.org/2000/svg">
<circle cx="696" cy="696" r="696" fill="#F9C9B6"/>
<mask id="mask0_176_19973" style="mask-type:alpha" maskUnits="userSpaceOnUse" x="0" y="0" width="1392" height="1392">
<circle cx="696" cy="696" r="696" fill="#FFEDEF"/>
</mask>
<g mask="url(#mask0_176_19973)">
<path d="M893.697 1364.4C840.948 1291.14 799.676 1112.87 794.792 1042.04L543.866 933.979L439.466 1364.4H893.697Z" fill="#FC909F" stroke="black" stroke-width="14.6526"/>
<mask id="mask1_176_19973" style="mask-type:alpha" maskUnits="userSpaceOnUse" x="439" y="933" width="455" height="432">
<path d="M893.697 1364.4C840.948 1291.14 799.676 1112.87 794.792 1042.04L543.866 933.979L439.466 1364.4H893.697Z" fill="#FFEDEF"/>
</mask>
<g mask="url(#mask1_176_19973)">
<ellipse cx="783.917" cy="926.782" rx="216.126" ry="197.811" fill="black"/>
</g>
<g clip-path="url(#clip0_176_19973)">
<path d="M893.804 1364.53C841.054 1291.27 799.783 1112.99 794.899 1042.17L543.972 934.106L439.572 1364.53H893.804Z" fill="#77311D" stroke="black" stroke-width="14.6526"/>
<mask id="mask2_176_19973" style="mask-type:alpha" maskUnits="userSpaceOnUse" x="439" y="934" width="455" height="431">
<path d="M893.8 1364.53C841.05 1291.26 799.779 1112.99 794.895 1042.17L543.968 934.105L439.568 1364.53H893.8Z" fill="#AC6651"/>
</mask>
<g mask="url(#mask2_176_19973)">
<ellipse cx="783.905" cy="926.779" rx="216.126" ry="197.811" fill="black"/>
</g>
<mask id="path-9-inside-1_176_19973" fill="white">
<path fill-rule="evenodd" clip-rule="evenodd" d="M456.08 865.664C502.247 1004.33 647.688 1086.97 792.46 1052.29C937.232 1017.6 1029.43 878.021 1007.75 733.489L1008.79 733.238L942.012 454.507L941.99 454.513C904.561 302.692 751.526 209.339 599.231 245.828C446.319 282.464 352.058 436.124 388.695 589.037C388.935 590.038 389.18 591.037 389.43 592.033L448.747 839.611C448.912 840.324 449.081 841.038 449.252 841.752C449.423 842.465 449.596 843.177 449.772 843.888L455.048 865.911L456.08 865.664Z"/>
</mask>
<path fill-rule="evenodd" clip-rule="evenodd" d="M456.08 865.664C502.247 1004.33 647.688 1086.97 792.46 1052.29C937.232 1017.6 1029.43 878.021 1007.75 733.489L1008.79 733.238L942.012 454.507L941.99 454.513C904.561 302.692 751.526 209.339 599.231 245.828C446.319 282.464 352.058 436.124 388.695 589.037C388.935 590.038 389.18 591.037 389.43 592.033L448.747 839.611C448.912 840.324 449.081 841.038 449.252 841.752C449.423 842.465 449.596 843.177 449.772 843.888L455.048 865.911L456.08 865.664Z" fill="#77311D"/>
<path d="M456.08 865.664L469.982 861.035L465.737 848.283L452.666 851.414L456.08 865.664ZM792.46 1052.29L795.874 1066.54L795.874 1066.54L792.46 1052.29ZM1007.75 733.489L1004.33 719.24L991.261 722.372L993.255 735.663L1007.75 733.489ZM1008.79 733.238L1012.21 747.488L1026.46 744.073L1023.04 729.824L1008.79 733.238ZM942.012 454.507L956.261 451.093L952.847 436.844L938.598 440.258L942.012 454.507ZM941.99 454.513L927.763 458.02L931.248 472.154L945.404 468.762L941.99 454.513ZM599.231 245.828L595.817 231.578L595.817 231.578L599.231 245.828ZM388.695 589.037L374.446 592.451L374.446 592.451L388.695 589.037ZM389.43 592.033L403.679 588.619L403.661 588.543L403.642 588.468L389.43 592.033ZM448.747 839.611L463.022 836.305L463.009 836.251L462.997 836.197L448.747 839.611ZM449.772 843.888L464.021 840.474L464.009 840.421L463.995 840.367L449.772 843.888ZM455.048 865.911L440.799 869.325L444.213 883.574L458.462 880.16L455.048 865.911ZM442.178 870.292C490.725 1016.11 643.644 1103.01 795.874 1066.54L789.046 1038.04C651.733 1070.94 513.768 992.549 469.982 861.035L442.178 870.292ZM795.874 1066.54C948.105 1030.06 1045.04 883.3 1022.24 731.315L993.255 735.663C1013.82 872.741 926.36 1005.14 789.046 1038.04L795.874 1066.54ZM1005.38 718.989L1004.33 719.24L1011.16 747.739L1012.21 747.488L1005.38 718.989ZM927.763 457.921L994.544 736.652L1023.04 729.824L956.261 451.093L927.763 457.921ZM945.404 468.762L945.426 468.757L938.598 440.258L938.576 440.263L945.404 468.762ZM956.217 451.005C916.861 291.369 755.95 193.212 595.817 231.578L602.645 260.077C747.101 225.467 892.261 314.015 927.763 458.02L956.217 451.005ZM595.817 231.578C435.035 270.1 335.924 431.668 374.446 592.451L402.944 585.623C368.193 440.58 457.603 294.828 602.645 260.077L595.817 231.578ZM374.446 592.451C374.698 593.502 374.955 594.551 375.217 595.598L403.642 588.468C403.405 587.522 403.172 586.573 402.944 585.623L374.446 592.451ZM462.997 836.197L403.679 588.619L375.18 595.447L434.498 843.025L462.997 836.197ZM434.472 842.917C434.646 843.666 434.823 844.416 435.002 845.165L463.501 838.338C463.339 837.66 463.179 836.982 463.022 836.305L434.472 842.917ZM435.002 845.165C435.182 845.915 435.364 846.663 435.549 847.41L463.995 840.367C463.828 839.691 463.663 839.015 463.501 838.338L435.002 845.165ZM469.298 862.497L464.021 840.474L435.523 847.303L440.799 869.325L469.298 862.497ZM452.666 851.414L451.635 851.661L458.462 880.16L459.494 879.913L452.666 851.414Z" fill="black" mask="url(#path-9-inside-1_176_19973)"/>
</g>
<path d="M696.003 832.142C714.101 855.757 741.525 881.92 783.831 875.954C826.137 869.988 844.96 840.805 839.41 817.171" stroke="black" stroke-width="14.6526"/>
<path d="M802.236 484.324C822.994 474.556 871.836 465.642 901.141 508.135" stroke="black" stroke-width="14.6526" stroke-linecap="round"/>
<path d="M525.957 577.027C533.542 555.376 561.424 514.295 612.271 523.184" stroke="black" stroke-width="14.6526" stroke-linecap="round"/>
<path d="M1032.01 482.772C1032.01 240.676 898.454 76.926 735.778 76.9258C527.369 76.9258 315.031 155.103 315.031 524.763C315.031 616.225 354.077 684.375 408.678 734.609C403.205 727.761 398.795 721.628 395.865 716.582C385.276 617.747 502.704 541.887 617.613 467.655C678.614 428.248 738.904 389.3 778.956 347.617C814.102 367.533 917.401 450.968 937.083 484.708C947.639 502.803 964.59 564.817 976.172 637.204C1014.04 591.718 1032.01 546.202 1032.01 482.772Z" fill="white" stroke="black" stroke-width="14.6526"/>
<path d="M781.225 345.236C829.484 301.482 901.678 201.619 897.045 136.76" stroke="black" stroke-width="14.6526"/>
<ellipse cx="616.012" cy="615.229" rx="32.9684" ry="36.6316" transform="rotate(-6.77646 616.012 615.229)" fill="black"/>
<ellipse cx="850.57" cy="578.584" rx="32.9684" ry="36.6316" transform="rotate(-6.27568 850.57 578.584)" fill="black"/>
<circle cx="859.006" cy="582.44" r="95.2421" stroke="#F4D150" stroke-width="14.6526"/>
<circle cx="613.575" cy="615.409" r="95.2421" stroke="#F4D150" stroke-width="14.6526"/>
<path d="M767.427 608.083C767.427 600.31 764.34 592.856 758.844 587.361C753.348 581.865 745.894 578.777 738.122 578.777C730.35 578.777 722.896 581.865 717.4 587.361C711.904 592.856 708.817 600.31 708.817 608.083" stroke="#F4D150" stroke-width="14.6526"/>
<path d="M520.164 622.735L410.27 642.883" stroke="#F4D150" stroke-width="14.6526"/>
<path d="M746.472 633.619C747.217 647.694 752.692 677.874 768.629 685.992C788.551 696.139 772.933 729.777 735.638 727.62" stroke="black" stroke-width="14.6526"/>
<path d="M456.064 660.011C447.529 657.201 438.315 655.705 428.883 655.705C390.444 655.705 359.283 679.516 362.946 723.474C366.762 769.263 394.107 785.747 432.546 785.747C436.823 785.747 441.01 785.372 445.074 784.652C449.509 783.867 453.797 782.674 457.895 781.112" stroke="black" stroke-width="29.3053"/>
<path d="M459.727 780.385C451.376 783.837 442.19 785.747 432.546 785.747C394.107 785.747 366.762 769.263 362.946 723.474C359.283 679.516 390.444 655.705 428.883 655.705C440.376 655.705 451.546 657.926 461.559 662.041L459.727 780.385Z" fill="#77311D"/>
<path d="M445.074 686.844C430.422 680.128 398.186 676.587 386.464 716.149" stroke="black" stroke-width="14.6526"/>
<path d="M406.611 688.674C414.548 695.39 429.689 716.148 426.759 745.453" stroke="black" stroke-width="14.6526"/>
<path d="M1185.73 1402.99H184.519C244.227 1295.51 329.152 1227.09 466.839 1195.7C525.498 1182.33 593.834 1175.66 674.01 1175.66C708.647 1175.66 735.601 1180.94 761.179 1187.91C770.654 1190.49 780.178 1193.39 789.922 1196.35C806.048 1201.25 822.775 1206.33 840.876 1210.49L841.388 1210.61L841.913 1210.65C1010.88 1224.59 1112.2 1299.64 1185.73 1402.99Z" fill="#9287FF" stroke="black" stroke-width="14.6526"/>
<path d="M424.668 1203.65L458.198 1131.86C458.999 1130.15 460.989 1129.33 462.773 1129.96C601.703 1179.14 728.092 1175.68 845.219 1143.07C846.694 1142.66 848.268 1143.2 849.172 1144.44L900.208 1214.23C901.611 1216.15 900.896 1218.86 898.684 1219.72C775.575 1268.06 544.572 1259.85 426.444 1208.49C424.57 1207.68 423.804 1205.5 424.668 1203.65Z" fill="#E0DDFF" stroke="black" stroke-width="14.6526"/>
</g>
<defs>
<clipPath id="clip0_176_19973">
<rect width="732.632" height="1208.84" fill="white" transform="translate(329.682 157.517)"/>
</clipPath>
</defs>
</svg>
