<svg width="1392" height="1392" viewBox="0 0 1392 1392" fill="none" xmlns="http://www.w3.org/2000/svg">
<circle cx="696" cy="696" r="696" fill="#D2EFF3"/>
<mask id="mask0_176_20090" style="mask-type:alpha" maskUnits="userSpaceOnUse" x="0" y="0" width="1392" height="1392">
<circle cx="696" cy="696" r="696" fill="#FFEDEF"/>
</mask>
<g mask="url(#mask0_176_20090)">
<g clip-path="url(#clip0_176_20090)">
<path d="M893.804 1327.9C841.054 1254.63 799.783 1112.99 794.899 1042.17L543.972 934.106L439.572 1327.9H893.804Z" fill="#F9C9B6" stroke="black" stroke-width="14.6526"/>
<mask id="mask1_176_20090" style="mask-type:alpha" maskUnits="userSpaceOnUse" x="439" y="934" width="455" height="431">
<path d="M893.804 1364.53C841.054 1291.27 799.783 1112.99 794.899 1042.17L543.972 934.106L439.572 1364.53H893.804Z" fill="#AC6651"/>
</mask>
<g mask="url(#mask1_176_20090)">
<g style="mix-blend-mode:multiply">
<ellipse cx="783.91" cy="926.779" rx="216.126" ry="197.811" fill="black"/>
</g>
</g>
<mask id="path-6-inside-1_176_20090" fill="white">
<path fill-rule="evenodd" clip-rule="evenodd" d="M450.549 846.954C489.388 996.794 641.29 1088.51 792.46 1052.29C943.631 1016.07 1037.48 865.477 1004.2 714.304L1004.25 714.291L942.012 454.507L941.99 454.513C904.561 302.692 751.526 209.339 599.231 245.828C446.319 282.464 352.058 436.124 388.695 589.037C388.935 590.038 389.18 591.037 389.43 592.033L448.748 839.612C448.913 840.325 449.081 841.038 449.252 841.752C449.422 842.465 449.596 843.176 449.772 843.887L450.509 846.963L450.549 846.954Z"/>
</mask>
<path fill-rule="evenodd" clip-rule="evenodd" d="M450.549 846.954C489.388 996.794 641.29 1088.51 792.46 1052.29C943.631 1016.07 1037.48 865.477 1004.2 714.304L1004.25 714.291L942.012 454.507L941.99 454.513C904.561 302.692 751.526 209.339 599.231 245.828C446.319 282.464 352.058 436.124 388.695 589.037C388.935 590.038 389.18 591.037 389.43 592.033L448.748 839.612C448.913 840.325 449.081 841.038 449.252 841.752C449.422 842.465 449.596 843.176 449.772 843.887L450.509 846.963L450.549 846.954Z" fill="#F9C9B6"/>
<path d="M450.549 846.954L464.733 843.277L461.124 829.356L447.138 832.704L450.549 846.954ZM792.46 1052.29L795.874 1066.54L795.874 1066.54L792.46 1052.29ZM1004.2 714.304L1000.78 700.055L986.795 703.408L989.888 717.455L1004.2 714.304ZM1004.25 714.291L1007.67 728.54L1021.92 725.125L1018.5 710.877L1004.25 714.291ZM942.012 454.507L956.261 451.093L952.847 436.844L938.598 440.258L942.012 454.507ZM941.99 454.513L927.763 458.02L931.248 472.154L945.404 468.762L941.99 454.513ZM599.231 245.828L595.817 231.578L595.817 231.578L599.231 245.828ZM388.695 589.037L374.446 592.451L374.446 592.451L388.695 589.037ZM389.43 592.033L403.679 588.619L403.661 588.543L403.642 588.468L389.43 592.033ZM448.748 839.612L463.022 836.306L463.01 836.252L462.997 836.198L448.748 839.612ZM449.772 843.887L464.021 840.473L464.008 840.419L463.995 840.365L449.772 843.887ZM450.509 846.963L436.259 850.377L439.673 864.624L453.92 861.213L450.509 846.963ZM436.365 850.63C477.205 1008.19 636.922 1104.62 795.874 1066.54L789.046 1038.04C645.657 1072.39 501.572 985.401 464.733 843.277L436.365 850.63ZM795.874 1066.54C954.827 1028.45 1053.5 870.112 1018.51 711.154L989.888 717.455C1021.45 860.841 932.436 1003.68 789.046 1038.04L795.874 1066.54ZM1000.84 700.042L1000.78 700.055L1007.61 728.553L1007.67 728.54L1000.84 700.042ZM927.763 457.921L990.004 717.705L1018.5 710.877L956.261 451.093L927.763 457.921ZM945.404 468.762L945.426 468.757L938.598 440.258L938.576 440.263L945.404 468.762ZM956.217 451.005C916.861 291.369 755.95 193.212 595.817 231.578L602.645 260.077C747.101 225.467 892.261 314.015 927.763 458.02L956.217 451.005ZM595.817 231.578C435.035 270.1 335.924 431.668 374.446 592.451L402.944 585.623C368.193 440.58 457.603 294.828 602.645 260.077L595.817 231.578ZM374.446 592.451C374.698 593.502 374.955 594.551 375.217 595.598L403.642 588.468C403.405 587.522 403.172 586.573 402.944 585.623L374.446 592.451ZM462.997 836.198L403.679 588.619L375.18 595.447L434.498 843.026L462.997 836.198ZM434.473 842.919C434.646 843.667 434.823 844.416 435.002 845.166L463.501 838.338C463.339 837.66 463.179 836.983 463.022 836.306L434.473 842.919ZM435.002 845.166C435.182 845.915 435.364 846.662 435.549 847.408L463.995 840.365C463.828 839.69 463.663 839.015 463.501 838.338L435.002 845.166ZM464.758 843.549L464.021 840.473L435.522 847.301L436.259 850.377L464.758 843.549ZM447.138 832.704L447.098 832.713L453.92 861.213L453.96 861.204L447.138 832.704Z" fill="black" mask="url(#path-6-inside-1_176_20090)"/>
<path d="M485.229 641.261C485.229 641.813 484.782 642.261 484.229 642.261C483.677 642.261 483.229 641.813 483.229 641.261C483.229 640.708 483.677 640.261 484.229 640.261C484.782 640.261 485.229 640.708 485.229 641.261Z" fill="black"/>
<path d="M537.229 648.261C537.229 648.813 536.782 649.261 536.229 649.261C535.677 649.261 535.229 648.813 535.229 648.261C535.229 647.708 535.677 647.261 536.229 647.261C536.782 647.261 537.229 647.708 537.229 648.261Z" fill="black"/>
<path d="M533.229 655.261C533.229 655.813 532.782 656.261 532.229 656.261C531.677 656.261 531.229 655.813 531.229 655.261C531.229 654.708 531.677 654.261 532.229 654.261C532.782 654.261 533.229 654.708 533.229 655.261Z" fill="black"/>
<path d="M553.229 653.261C553.229 653.813 552.782 654.261 552.229 654.261C551.677 654.261 551.229 653.813 551.229 653.261C551.229 652.708 551.677 652.261 552.229 652.261C552.782 652.261 553.229 652.708 553.229 653.261Z" fill="black"/>
<path d="M554.229 643.261C554.229 643.813 553.782 644.261 553.229 644.261C552.677 644.261 552.229 643.813 552.229 643.261C552.229 642.708 552.677 642.261 553.229 642.261C553.782 642.261 554.229 642.708 554.229 643.261Z" fill="black"/>
<path d="M574.229 648.261C574.229 648.813 573.782 649.261 573.229 649.261C572.677 649.261 572.229 648.813 572.229 648.261C572.229 647.708 572.677 647.261 573.229 647.261C573.782 647.261 574.229 647.708 574.229 648.261Z" fill="black"/>
<path d="M584.229 634.261C584.229 634.813 583.782 635.261 583.229 635.261C582.677 635.261 582.229 634.813 582.229 634.261C582.229 633.708 582.677 633.261 583.229 633.261C583.782 633.261 584.229 633.708 584.229 634.261Z" fill="black"/>
<path d="M475.229 620.261C475.229 620.813 474.782 621.261 474.229 621.261C473.677 621.261 473.229 620.813 473.229 620.261C473.229 619.708 473.677 619.261 474.229 619.261C474.782 619.261 475.229 619.708 475.229 620.261Z" fill="black"/>
<path d="M508.229 636.261C508.229 636.813 507.782 637.261 507.229 637.261C506.677 637.261 506.229 636.813 506.229 636.261C506.229 635.708 506.677 635.261 507.229 635.261C507.782 635.261 508.229 635.708 508.229 636.261Z" fill="black"/>
<path d="M505.229 656.261C505.229 656.813 504.782 657.261 504.229 657.261C503.677 657.261 503.229 656.813 503.229 656.261C503.229 655.708 503.677 655.261 504.229 655.261C504.782 655.261 505.229 655.708 505.229 656.261Z" fill="black"/>
<path d="M523.229 660.261C523.229 660.813 522.782 661.261 522.229 661.261C521.677 661.261 521.229 660.813 521.229 660.261C521.229 659.708 521.677 659.261 522.229 659.261C522.782 659.261 523.229 659.708 523.229 660.261Z" fill="black"/>
<path d="M557.229 634.261C557.229 634.813 556.782 635.261 556.229 635.261C555.677 635.261 555.229 634.813 555.229 634.261C555.229 633.708 555.677 633.261 556.229 633.261C556.782 633.261 557.229 633.708 557.229 634.261Z" fill="black"/>
<path d="M571.229 638.261C571.229 638.813 570.782 639.261 570.229 639.261C569.677 639.261 569.229 638.813 569.229 638.261C569.229 637.708 569.677 637.261 570.229 637.261C570.782 637.261 571.229 637.708 571.229 638.261Z" fill="black"/>
<path d="M563.229 655.261C563.229 655.813 562.782 656.261 562.229 656.261C561.677 656.261 561.229 655.813 561.229 655.261C561.229 654.708 561.677 654.261 562.229 654.261C562.782 654.261 563.229 654.708 563.229 655.261Z" fill="black"/>
<path d="M577.229 624.261C577.229 624.813 576.782 625.261 576.229 625.261C575.677 625.261 575.229 624.813 575.229 624.261C575.229 623.708 575.677 623.261 576.229 623.261C576.782 623.261 577.229 623.708 577.229 624.261Z" fill="black"/>
<path d="M484.229 626.261C484.229 626.813 483.782 627.261 483.229 627.261C482.677 627.261 482.229 626.813 482.229 626.261C482.229 625.708 482.677 625.261 483.229 625.261C483.782 625.261 484.229 625.708 484.229 626.261Z" fill="black"/>
<path d="M508.229 626.261C508.229 626.813 507.782 627.261 507.229 627.261C506.677 627.261 506.229 626.813 506.229 626.261C506.229 625.708 506.677 625.261 507.229 625.261C507.782 625.261 508.229 625.708 508.229 626.261Z" fill="black"/>
<path d="M508.229 608.261C508.229 608.813 507.782 609.261 507.229 609.261C506.677 609.261 506.229 608.813 506.229 608.261C506.229 607.708 506.677 607.261 507.229 607.261C507.782 607.261 508.229 607.708 508.229 608.261Z" fill="black"/>
<path d="M512.229 662.261C512.229 662.813 511.782 663.261 511.229 663.261C510.677 663.261 510.229 662.813 510.229 662.261C510.229 661.708 510.677 661.261 511.229 661.261C511.782 661.261 512.229 661.708 512.229 662.261Z" fill="black"/>
<path d="M539.229 662.261C539.229 662.813 538.782 663.261 538.229 663.261C537.677 663.261 537.229 662.813 537.229 662.261C537.229 661.708 537.677 661.261 538.229 661.261C538.782 661.261 539.229 661.708 539.229 662.261Z" fill="black"/>
<path d="M550.229 662.261C550.229 662.813 549.782 663.261 549.229 663.261C548.677 663.261 548.229 662.813 548.229 662.261C548.229 661.708 548.677 661.261 549.229 661.261C549.782 661.261 550.229 661.708 550.229 662.261Z" fill="black"/>
<path d="M567.229 626.261C567.229 626.813 566.782 627.261 566.229 627.261C565.677 627.261 565.229 626.813 565.229 626.261C565.229 625.708 565.677 625.261 566.229 625.261C566.782 625.261 567.229 625.708 567.229 626.261Z" fill="black"/>
<path d="M567.229 608.261C567.229 608.813 566.782 609.261 566.229 609.261C565.677 609.261 565.229 608.813 565.229 608.261C565.229 607.708 565.677 607.261 566.229 607.261C566.782 607.261 567.229 607.708 567.229 608.261Z" fill="black"/>
<path d="M587.229 621.261C587.229 621.813 586.782 622.261 586.229 622.261C585.677 622.261 585.229 621.813 585.229 621.261C585.229 620.708 585.677 620.261 586.229 620.261C586.782 620.261 587.229 620.708 587.229 621.261Z" fill="black"/>
<path d="M487.229 613.261C487.229 613.813 486.782 614.261 486.229 614.261C485.677 614.261 485.229 613.813 485.229 613.261C485.229 612.708 485.677 612.261 486.229 612.261C486.782 612.261 487.229 612.708 487.229 613.261Z" fill="black"/>
<path d="M497.229 648.261C497.229 648.813 496.782 649.261 496.229 649.261C495.677 649.261 495.229 648.813 495.229 648.261C495.229 647.708 495.677 647.261 496.229 647.261C496.782 647.261 497.229 647.708 497.229 648.261Z" fill="black"/>
<path d="M493.229 655.261C493.229 655.813 492.782 656.261 492.229 656.261C491.677 656.261 491.229 655.813 491.229 655.261C491.229 654.708 491.677 654.261 492.229 654.261C492.782 654.261 493.229 654.708 493.229 655.261Z" fill="black"/>
<path d="M533.229 635.261C533.229 635.813 532.782 636.261 532.229 636.261C531.677 636.261 531.229 635.813 531.229 635.261C531.229 634.708 531.677 634.261 532.229 634.261C532.782 634.261 533.229 634.708 533.229 635.261Z" fill="black"/>
<path d="M545.229 637.261C545.229 637.813 544.782 638.261 544.229 638.261C543.677 638.261 543.229 637.813 543.229 637.261C543.229 636.708 543.677 636.261 544.229 636.261C544.782 636.261 545.229 636.708 545.229 637.261Z" fill="black"/>
<path d="M531.229 667.261C531.229 667.813 530.782 668.261 530.229 668.261C529.677 668.261 529.229 667.813 529.229 667.261C529.229 666.708 529.677 666.261 530.229 666.261C530.782 666.261 531.229 666.708 531.229 667.261Z" fill="black"/>
<path d="M554.229 616.261C554.229 616.813 553.782 617.261 553.229 617.261C552.677 617.261 552.229 616.813 552.229 616.261C552.229 615.708 552.677 615.261 553.229 615.261C553.782 615.261 554.229 615.708 554.229 616.261Z" fill="black"/>
<path d="M554.229 598.261C554.229 598.813 553.782 599.261 553.229 599.261C552.677 599.261 552.229 598.813 552.229 598.261C552.229 597.708 552.677 597.261 553.229 597.261C553.782 597.261 554.229 597.708 554.229 598.261Z" fill="black"/>
<path d="M578.229 613.261C578.229 613.813 577.782 614.261 577.229 614.261C576.677 614.261 576.229 613.813 576.229 613.261C576.229 612.708 576.677 612.261 577.229 612.261C577.782 612.261 578.229 612.708 578.229 613.261Z" fill="black"/>
<path d="M585.229 603.261C585.229 603.813 584.782 604.261 584.229 604.261C583.677 604.261 583.229 603.813 583.229 603.261C583.229 602.708 583.677 602.261 584.229 602.261C584.782 602.261 585.229 602.708 585.229 603.261Z" fill="black"/>
<path d="M496.229 622.261C496.229 622.813 495.782 623.261 495.229 623.261C494.677 623.261 494.229 622.813 494.229 622.261C494.229 621.708 494.677 621.261 495.229 621.261C495.782 621.261 496.229 621.708 496.229 622.261Z" fill="black"/>
<path d="M496.229 633.261C496.229 633.813 495.782 634.261 495.229 634.261C494.677 634.261 494.229 633.813 494.229 633.261C494.229 632.708 494.677 632.261 495.229 632.261C495.782 632.261 496.229 632.708 496.229 633.261Z" fill="black"/>
<path d="M517.229 618.261C517.229 618.813 516.782 619.261 516.229 619.261C515.677 619.261 515.229 618.813 515.229 618.261C515.229 617.708 515.677 617.261 516.229 617.261C516.782 617.261 517.229 617.708 517.229 618.261Z" fill="black"/>
<path d="M517.229 600.261C517.229 600.813 516.782 601.261 516.229 601.261C515.677 601.261 515.229 600.813 515.229 600.261C515.229 599.708 515.677 599.261 516.229 599.261C516.782 599.261 517.229 599.708 517.229 600.261Z" fill="black"/>
<path d="M529.229 614.261C529.229 614.813 528.782 615.261 528.229 615.261C527.677 615.261 527.229 614.813 527.229 614.261C527.229 613.708 527.677 613.261 528.229 613.261C528.782 613.261 529.229 613.708 529.229 614.261Z" fill="black"/>
<path d="M541.229 608.261C541.229 608.813 540.782 609.261 540.229 609.261C539.677 609.261 539.229 608.813 539.229 608.261C539.229 607.708 539.677 607.261 540.229 607.261C540.782 607.261 541.229 607.708 541.229 608.261Z" fill="black"/>
<path d="M554.229 608.261C554.229 608.813 553.782 609.261 553.229 609.261C552.677 609.261 552.229 608.813 552.229 608.261C552.229 607.708 552.677 607.261 553.229 607.261C553.782 607.261 554.229 607.708 554.229 608.261Z" fill="black"/>
<path d="M567.229 608.261C567.229 608.813 566.782 609.261 566.229 609.261C565.677 609.261 565.229 608.813 565.229 608.261C565.229 607.708 565.677 607.261 566.229 607.261C566.782 607.261 567.229 607.708 567.229 608.261Z" fill="black"/>
<path d="M593.229 608.261C593.229 608.813 592.782 609.261 592.229 609.261C591.677 609.261 591.229 608.813 591.229 608.261C591.229 607.708 591.677 607.261 592.229 607.261C592.782 607.261 593.229 607.708 593.229 608.261Z" fill="black"/>
<path d="M515.229 648.261C515.229 648.813 514.782 649.261 514.229 649.261C513.677 649.261 513.229 648.813 513.229 648.261C513.229 647.708 513.677 647.261 514.229 647.261C514.782 647.261 515.229 647.708 515.229 648.261Z" fill="black"/>
<path d="M526.229 642.261C526.229 642.813 525.782 643.261 525.229 643.261C524.677 643.261 524.229 642.813 524.229 642.261C524.229 641.708 524.677 641.261 525.229 641.261C525.782 641.261 526.229 641.708 526.229 642.261Z" fill="black"/>
<path d="M522.229 634.261C522.229 634.813 521.782 635.261 521.229 635.261C520.677 635.261 520.229 634.813 520.229 634.261C520.229 633.708 520.677 633.261 521.229 633.261C521.782 633.261 522.229 633.708 522.229 634.261Z" fill="black"/>
<path d="M546.229 625.261C546.229 625.813 545.782 626.261 545.229 626.261C544.677 626.261 544.229 625.813 544.229 625.261C544.229 624.708 544.677 624.261 545.229 624.261C545.782 624.261 546.229 624.708 546.229 625.261Z" fill="black"/>
<path d="M497.229 607.261C497.229 607.813 496.782 608.261 496.229 608.261C495.677 608.261 495.229 607.813 495.229 607.261C495.229 606.708 495.677 606.261 496.229 606.261C496.782 606.261 497.229 606.708 497.229 607.261Z" fill="black"/>
<path d="M534.229 623.261C534.229 623.813 533.782 624.261 533.229 624.261C532.677 624.261 532.229 623.813 532.229 623.261C532.229 622.708 532.677 622.261 533.229 622.261C533.782 622.261 534.229 622.708 534.229 623.261Z" fill="black"/>
<path d="M534.229 605.261C534.229 605.813 533.782 606.261 533.229 606.261C532.677 606.261 532.229 605.813 532.229 605.261C532.229 604.708 532.677 604.261 533.229 604.261C533.782 604.261 534.229 604.708 534.229 605.261Z" fill="black"/>
<path d="M569.229 619.261C569.229 619.813 568.782 620.261 568.229 620.261C567.677 620.261 567.229 619.813 567.229 619.261C567.229 618.708 567.677 618.261 568.229 618.261C568.782 618.261 569.229 618.708 569.229 619.261Z" fill="black"/>
<path d="M569.229 601.261C569.229 601.813 568.782 602.261 568.229 602.261C567.677 602.261 567.229 601.813 567.229 601.261C567.229 600.708 567.677 600.261 568.229 600.261C568.782 600.261 569.229 600.708 569.229 601.261Z" fill="black"/>
<path d="M576.229 603.261C576.229 603.813 575.782 604.261 575.229 604.261C574.677 604.261 574.229 603.813 574.229 603.261C574.229 602.708 574.677 602.261 575.229 602.261C575.782 602.261 576.229 602.708 576.229 603.261Z" fill="black"/>
<path d="M591.229 594.261C591.229 594.813 590.782 595.261 590.229 595.261C589.677 595.261 589.229 594.813 589.229 594.261C589.229 593.708 589.677 593.261 590.229 593.261C590.782 593.261 591.229 593.708 591.229 594.261Z" fill="black"/>
<path d="M485.229 641.261C485.229 641.813 484.782 642.261 484.229 642.261C483.677 642.261 483.229 641.813 483.229 641.261C483.229 640.708 483.677 640.261 484.229 640.261C484.782 640.261 485.229 640.708 485.229 641.261Z" stroke="black" stroke-width="3.66316"/>
<path d="M537.229 648.261C537.229 648.813 536.782 649.261 536.229 649.261C535.677 649.261 535.229 648.813 535.229 648.261C535.229 647.708 535.677 647.261 536.229 647.261C536.782 647.261 537.229 647.708 537.229 648.261Z" stroke="black" stroke-width="3.66316"/>
<path d="M533.229 655.261C533.229 655.813 532.782 656.261 532.229 656.261C531.677 656.261 531.229 655.813 531.229 655.261C531.229 654.708 531.677 654.261 532.229 654.261C532.782 654.261 533.229 654.708 533.229 655.261Z" stroke="black" stroke-width="3.66316"/>
<path d="M553.229 653.261C553.229 653.813 552.782 654.261 552.229 654.261C551.677 654.261 551.229 653.813 551.229 653.261C551.229 652.708 551.677 652.261 552.229 652.261C552.782 652.261 553.229 652.708 553.229 653.261Z" stroke="black" stroke-width="3.66316"/>
<path d="M554.229 643.261C554.229 643.813 553.782 644.261 553.229 644.261C552.677 644.261 552.229 643.813 552.229 643.261C552.229 642.708 552.677 642.261 553.229 642.261C553.782 642.261 554.229 642.708 554.229 643.261Z" stroke="black" stroke-width="3.66316"/>
<path d="M574.229 648.261C574.229 648.813 573.782 649.261 573.229 649.261C572.677 649.261 572.229 648.813 572.229 648.261C572.229 647.708 572.677 647.261 573.229 647.261C573.782 647.261 574.229 647.708 574.229 648.261Z" stroke="black" stroke-width="3.66316"/>
<path d="M584.229 634.261C584.229 634.813 583.782 635.261 583.229 635.261C582.677 635.261 582.229 634.813 582.229 634.261C582.229 633.708 582.677 633.261 583.229 633.261C583.782 633.261 584.229 633.708 584.229 634.261Z" stroke="black" stroke-width="3.66316"/>
<path d="M475.229 620.261C475.229 620.813 474.782 621.261 474.229 621.261C473.677 621.261 473.229 620.813 473.229 620.261C473.229 619.708 473.677 619.261 474.229 619.261C474.782 619.261 475.229 619.708 475.229 620.261Z" stroke="black" stroke-width="3.66316"/>
<path d="M508.229 636.261C508.229 636.813 507.782 637.261 507.229 637.261C506.677 637.261 506.229 636.813 506.229 636.261C506.229 635.708 506.677 635.261 507.229 635.261C507.782 635.261 508.229 635.708 508.229 636.261Z" stroke="black" stroke-width="3.66316"/>
<path d="M505.229 656.261C505.229 656.813 504.782 657.261 504.229 657.261C503.677 657.261 503.229 656.813 503.229 656.261C503.229 655.708 503.677 655.261 504.229 655.261C504.782 655.261 505.229 655.708 505.229 656.261Z" stroke="black" stroke-width="3.66316"/>
<path d="M523.229 660.261C523.229 660.813 522.782 661.261 522.229 661.261C521.677 661.261 521.229 660.813 521.229 660.261C521.229 659.708 521.677 659.261 522.229 659.261C522.782 659.261 523.229 659.708 523.229 660.261Z" stroke="black" stroke-width="3.66316"/>
<path d="M557.229 634.261C557.229 634.813 556.782 635.261 556.229 635.261C555.677 635.261 555.229 634.813 555.229 634.261C555.229 633.708 555.677 633.261 556.229 633.261C556.782 633.261 557.229 633.708 557.229 634.261Z" stroke="black" stroke-width="3.66316"/>
<path d="M571.229 638.261C571.229 638.813 570.782 639.261 570.229 639.261C569.677 639.261 569.229 638.813 569.229 638.261C569.229 637.708 569.677 637.261 570.229 637.261C570.782 637.261 571.229 637.708 571.229 638.261Z" stroke="black" stroke-width="3.66316"/>
<path d="M563.229 655.261C563.229 655.813 562.782 656.261 562.229 656.261C561.677 656.261 561.229 655.813 561.229 655.261C561.229 654.708 561.677 654.261 562.229 654.261C562.782 654.261 563.229 654.708 563.229 655.261Z" stroke="black" stroke-width="3.66316"/>
<path d="M577.229 624.261C577.229 624.813 576.782 625.261 576.229 625.261C575.677 625.261 575.229 624.813 575.229 624.261C575.229 623.708 575.677 623.261 576.229 623.261C576.782 623.261 577.229 623.708 577.229 624.261Z" stroke="black" stroke-width="3.66316"/>
<path d="M484.229 626.261C484.229 626.813 483.782 627.261 483.229 627.261C482.677 627.261 482.229 626.813 482.229 626.261C482.229 625.708 482.677 625.261 483.229 625.261C483.782 625.261 484.229 625.708 484.229 626.261Z" stroke="black" stroke-width="3.66316"/>
<path d="M508.229 626.261C508.229 626.813 507.782 627.261 507.229 627.261C506.677 627.261 506.229 626.813 506.229 626.261C506.229 625.708 506.677 625.261 507.229 625.261C507.782 625.261 508.229 625.708 508.229 626.261Z" stroke="black" stroke-width="3.66316"/>
<path d="M508.229 608.261C508.229 608.813 507.782 609.261 507.229 609.261C506.677 609.261 506.229 608.813 506.229 608.261C506.229 607.708 506.677 607.261 507.229 607.261C507.782 607.261 508.229 607.708 508.229 608.261Z" stroke="black" stroke-width="3.66316"/>
<path d="M512.229 662.261C512.229 662.813 511.782 663.261 511.229 663.261C510.677 663.261 510.229 662.813 510.229 662.261C510.229 661.708 510.677 661.261 511.229 661.261C511.782 661.261 512.229 661.708 512.229 662.261Z" stroke="black" stroke-width="3.66316"/>
<path d="M539.229 662.261C539.229 662.813 538.782 663.261 538.229 663.261C537.677 663.261 537.229 662.813 537.229 662.261C537.229 661.708 537.677 661.261 538.229 661.261C538.782 661.261 539.229 661.708 539.229 662.261Z" stroke="black" stroke-width="3.66316"/>
<path d="M550.229 662.261C550.229 662.813 549.782 663.261 549.229 663.261C548.677 663.261 548.229 662.813 548.229 662.261C548.229 661.708 548.677 661.261 549.229 661.261C549.782 661.261 550.229 661.708 550.229 662.261Z" stroke="black" stroke-width="3.66316"/>
<path d="M567.229 626.261C567.229 626.813 566.782 627.261 566.229 627.261C565.677 627.261 565.229 626.813 565.229 626.261C565.229 625.708 565.677 625.261 566.229 625.261C566.782 625.261 567.229 625.708 567.229 626.261Z" stroke="black" stroke-width="3.66316"/>
<path d="M567.229 608.261C567.229 608.813 566.782 609.261 566.229 609.261C565.677 609.261 565.229 608.813 565.229 608.261C565.229 607.708 565.677 607.261 566.229 607.261C566.782 607.261 567.229 607.708 567.229 608.261Z" stroke="black" stroke-width="3.66316"/>
<path d="M587.229 621.261C587.229 621.813 586.782 622.261 586.229 622.261C585.677 622.261 585.229 621.813 585.229 621.261C585.229 620.708 585.677 620.261 586.229 620.261C586.782 620.261 587.229 620.708 587.229 621.261Z" stroke="black" stroke-width="3.66316"/>
<path d="M487.229 613.261C487.229 613.813 486.782 614.261 486.229 614.261C485.677 614.261 485.229 613.813 485.229 613.261C485.229 612.708 485.677 612.261 486.229 612.261C486.782 612.261 487.229 612.708 487.229 613.261Z" stroke="black" stroke-width="3.66316"/>
<path d="M497.229 648.261C497.229 648.813 496.782 649.261 496.229 649.261C495.677 649.261 495.229 648.813 495.229 648.261C495.229 647.708 495.677 647.261 496.229 647.261C496.782 647.261 497.229 647.708 497.229 648.261Z" stroke="black" stroke-width="3.66316"/>
<path d="M493.229 655.261C493.229 655.813 492.782 656.261 492.229 656.261C491.677 656.261 491.229 655.813 491.229 655.261C491.229 654.708 491.677 654.261 492.229 654.261C492.782 654.261 493.229 654.708 493.229 655.261Z" stroke="black" stroke-width="3.66316"/>
<path d="M533.229 635.261C533.229 635.813 532.782 636.261 532.229 636.261C531.677 636.261 531.229 635.813 531.229 635.261C531.229 634.708 531.677 634.261 532.229 634.261C532.782 634.261 533.229 634.708 533.229 635.261Z" stroke="black" stroke-width="3.66316"/>
<path d="M545.229 637.261C545.229 637.813 544.782 638.261 544.229 638.261C543.677 638.261 543.229 637.813 543.229 637.261C543.229 636.708 543.677 636.261 544.229 636.261C544.782 636.261 545.229 636.708 545.229 637.261Z" stroke="black" stroke-width="3.66316"/>
<path d="M531.229 667.261C531.229 667.813 530.782 668.261 530.229 668.261C529.677 668.261 529.229 667.813 529.229 667.261C529.229 666.708 529.677 666.261 530.229 666.261C530.782 666.261 531.229 666.708 531.229 667.261Z" stroke="black" stroke-width="3.66316"/>
<path d="M554.229 616.261C554.229 616.813 553.782 617.261 553.229 617.261C552.677 617.261 552.229 616.813 552.229 616.261C552.229 615.708 552.677 615.261 553.229 615.261C553.782 615.261 554.229 615.708 554.229 616.261Z" stroke="black" stroke-width="3.66316"/>
<path d="M554.229 598.261C554.229 598.813 553.782 599.261 553.229 599.261C552.677 599.261 552.229 598.813 552.229 598.261C552.229 597.708 552.677 597.261 553.229 597.261C553.782 597.261 554.229 597.708 554.229 598.261Z" stroke="black" stroke-width="3.66316"/>
<path d="M578.229 613.261C578.229 613.813 577.782 614.261 577.229 614.261C576.677 614.261 576.229 613.813 576.229 613.261C576.229 612.708 576.677 612.261 577.229 612.261C577.782 612.261 578.229 612.708 578.229 613.261Z" stroke="black" stroke-width="3.66316"/>
<path d="M585.229 603.261C585.229 603.813 584.782 604.261 584.229 604.261C583.677 604.261 583.229 603.813 583.229 603.261C583.229 602.708 583.677 602.261 584.229 602.261C584.782 602.261 585.229 602.708 585.229 603.261Z" stroke="black" stroke-width="3.66316"/>
<path d="M496.229 622.261C496.229 622.813 495.782 623.261 495.229 623.261C494.677 623.261 494.229 622.813 494.229 622.261C494.229 621.708 494.677 621.261 495.229 621.261C495.782 621.261 496.229 621.708 496.229 622.261Z" stroke="black" stroke-width="3.66316"/>
<path d="M496.229 633.261C496.229 633.813 495.782 634.261 495.229 634.261C494.677 634.261 494.229 633.813 494.229 633.261C494.229 632.708 494.677 632.261 495.229 632.261C495.782 632.261 496.229 632.708 496.229 633.261Z" stroke="black" stroke-width="3.66316"/>
<path d="M517.229 618.261C517.229 618.813 516.782 619.261 516.229 619.261C515.677 619.261 515.229 618.813 515.229 618.261C515.229 617.708 515.677 617.261 516.229 617.261C516.782 617.261 517.229 617.708 517.229 618.261Z" stroke="black" stroke-width="3.66316"/>
<path d="M517.229 600.261C517.229 600.813 516.782 601.261 516.229 601.261C515.677 601.261 515.229 600.813 515.229 600.261C515.229 599.708 515.677 599.261 516.229 599.261C516.782 599.261 517.229 599.708 517.229 600.261Z" stroke="black" stroke-width="3.66316"/>
<path d="M529.229 614.261C529.229 614.813 528.782 615.261 528.229 615.261C527.677 615.261 527.229 614.813 527.229 614.261C527.229 613.708 527.677 613.261 528.229 613.261C528.782 613.261 529.229 613.708 529.229 614.261Z" stroke="black" stroke-width="3.66316"/>
<path d="M541.229 608.261C541.229 608.813 540.782 609.261 540.229 609.261C539.677 609.261 539.229 608.813 539.229 608.261C539.229 607.708 539.677 607.261 540.229 607.261C540.782 607.261 541.229 607.708 541.229 608.261Z" stroke="black" stroke-width="3.66316"/>
<path d="M554.229 608.261C554.229 608.813 553.782 609.261 553.229 609.261C552.677 609.261 552.229 608.813 552.229 608.261C552.229 607.708 552.677 607.261 553.229 607.261C553.782 607.261 554.229 607.708 554.229 608.261Z" stroke="black" stroke-width="3.66316"/>
<path d="M567.229 608.261C567.229 608.813 566.782 609.261 566.229 609.261C565.677 609.261 565.229 608.813 565.229 608.261C565.229 607.708 565.677 607.261 566.229 607.261C566.782 607.261 567.229 607.708 567.229 608.261Z" stroke="black" stroke-width="3.66316"/>
<path d="M593.229 608.261C593.229 608.813 592.782 609.261 592.229 609.261C591.677 609.261 591.229 608.813 591.229 608.261C591.229 607.708 591.677 607.261 592.229 607.261C592.782 607.261 593.229 607.708 593.229 608.261Z" stroke="black" stroke-width="3.66316"/>
<path d="M515.229 648.261C515.229 648.813 514.782 649.261 514.229 649.261C513.677 649.261 513.229 648.813 513.229 648.261C513.229 647.708 513.677 647.261 514.229 647.261C514.782 647.261 515.229 647.708 515.229 648.261Z" stroke="black" stroke-width="3.66316"/>
<path d="M526.229 642.261C526.229 642.813 525.782 643.261 525.229 643.261C524.677 643.261 524.229 642.813 524.229 642.261C524.229 641.708 524.677 641.261 525.229 641.261C525.782 641.261 526.229 641.708 526.229 642.261Z" stroke="black" stroke-width="3.66316"/>
<path d="M522.229 634.261C522.229 634.813 521.782 635.261 521.229 635.261C520.677 635.261 520.229 634.813 520.229 634.261C520.229 633.708 520.677 633.261 521.229 633.261C521.782 633.261 522.229 633.708 522.229 634.261Z" stroke="black" stroke-width="3.66316"/>
<path d="M546.229 625.261C546.229 625.813 545.782 626.261 545.229 626.261C544.677 626.261 544.229 625.813 544.229 625.261C544.229 624.708 544.677 624.261 545.229 624.261C545.782 624.261 546.229 624.708 546.229 625.261Z" stroke="black" stroke-width="3.66316"/>
<path d="M497.229 607.261C497.229 607.813 496.782 608.261 496.229 608.261C495.677 608.261 495.229 607.813 495.229 607.261C495.229 606.708 495.677 606.261 496.229 606.261C496.782 606.261 497.229 606.708 497.229 607.261Z" stroke="black" stroke-width="3.66316"/>
<path d="M534.229 623.261C534.229 623.813 533.782 624.261 533.229 624.261C532.677 624.261 532.229 623.813 532.229 623.261C532.229 622.708 532.677 622.261 533.229 622.261C533.782 622.261 534.229 622.708 534.229 623.261Z" stroke="black" stroke-width="3.66316"/>
<path d="M534.229 605.261C534.229 605.813 533.782 606.261 533.229 606.261C532.677 606.261 532.229 605.813 532.229 605.261C532.229 604.708 532.677 604.261 533.229 604.261C533.782 604.261 534.229 604.708 534.229 605.261Z" stroke="black" stroke-width="3.66316"/>
<path d="M569.229 619.261C569.229 619.813 568.782 620.261 568.229 620.261C567.677 620.261 567.229 619.813 567.229 619.261C567.229 618.708 567.677 618.261 568.229 618.261C568.782 618.261 569.229 618.708 569.229 619.261Z" stroke="black" stroke-width="3.66316"/>
<path d="M569.229 601.261C569.229 601.813 568.782 602.261 568.229 602.261C567.677 602.261 567.229 601.813 567.229 601.261C567.229 600.708 567.677 600.261 568.229 600.261C568.782 600.261 569.229 600.708 569.229 601.261Z" stroke="black" stroke-width="3.66316"/>
<path d="M576.229 603.261C576.229 603.813 575.782 604.261 575.229 604.261C574.677 604.261 574.229 603.813 574.229 603.261C574.229 602.708 574.677 602.261 575.229 602.261C575.782 602.261 576.229 602.708 576.229 603.261Z" stroke="black" stroke-width="3.66316"/>
<path d="M591.229 594.261C591.229 594.813 590.782 595.261 590.229 595.261C589.677 595.261 589.229 594.813 589.229 594.261C589.229 593.708 589.677 593.261 590.229 593.261C590.782 593.261 591.229 593.708 591.229 594.261Z" stroke="black" stroke-width="3.66316"/>
</g>
<rect x="634.644" y="807.62" width="256.421" height="87.9158" rx="14.6526" transform="rotate(-4 634.644 807.62)" fill="black"/>
<path fill-rule="evenodd" clip-rule="evenodd" d="M867.504 791.337L657.54 806.02L664.282 831.684C666.941 841.806 676.361 848.636 686.782 848.044C676.39 848.918 668.023 856.988 666.799 867.374L663.696 893.72L873.657 879.038L866.917 853.38C864.258 843.258 854.838 836.429 844.416 837.021C854.809 836.147 863.176 828.077 864.4 817.691L867.504 791.337Z" fill="white"/>
<path d="M902.681 859.758L898.949 806.387C898.005 792.885 885.26 783.476 872.13 786.294C846.693 791.755 798.056 801.439 762.907 803.897C727.758 806.355 678.246 803.534 652.297 801.667C638.903 800.703 627.591 811.795 628.535 825.296L632.267 878.668C633.212 892.169 645.957 901.579 659.086 898.76C684.523 893.3 733.16 883.616 768.309 881.158C803.459 878.7 852.97 881.521 878.92 883.388C892.313 884.352 903.625 873.26 902.681 859.758Z" stroke="black" stroke-width="14.6526"/>
<path d="M538.485 543.981C561.075 553.138 615.778 554.97 653.875 489.033" stroke="black" stroke-width="14.6526" stroke-linecap="round"/>
<path d="M783.917 461.56C802.843 481.096 850.22 508.448 888.317 461.56" stroke="black" stroke-width="14.6526" stroke-linecap="round"/>
<path d="M728.969 318.694C782.695 316.252 876.96 286.458 824.211 186.82" stroke="black" stroke-width="14.6526"/>
<path d="M633.727 311.368C687.453 308.926 781.718 279.132 728.969 179.494" stroke="black" stroke-width="14.6526"/>
<path d="M501.854 351.663C555.58 349.221 649.845 319.427 597.096 219.789" stroke="black" stroke-width="14.6526"/>
<ellipse cx="617.354" cy="616.884" rx="32.9684" ry="49.4526" transform="rotate(-6.77646 617.354 616.884)" fill="black"/>
<ellipse cx="851.8" cy="580.252" rx="32.9684" ry="49.4526" transform="rotate(-6.27568 851.8 580.252)" fill="black"/>
<path d="M527.563 618.024L406.609 639.56" stroke="black" stroke-width="14.6526" stroke-linecap="round"/>
<path d="M532.782 540.71L665.542 523.411C677.579 521.842 688.811 530.3 690.631 542.301L709.171 664.617C710.99 676.618 702.707 687.619 690.67 689.187L572.044 704.645C560.973 706.088 550.406 699.025 547.476 688.223L514.801 567.75C511.355 555.042 519.757 542.408 532.782 540.71Z" stroke="black" stroke-width="14.6526"/>
<path d="M916.618 491.365L783.858 508.664C771.821 510.233 763.538 521.234 765.357 533.235L783.897 655.55C785.717 667.552 796.949 676.009 808.986 674.441L927.612 658.983C938.683 657.54 946.741 648.05 946.346 636.918L941.94 512.761C941.476 499.665 929.643 489.667 916.618 491.365Z" stroke="black" stroke-width="14.6526"/>
<path d="M699.352 600.553L776.481 589.176" stroke="black" stroke-width="14.6526"/>
<path d="M744.44 619.102C751.578 669.887 782.578 706.221 782.578 706.221C782.578 706.221 772.941 729.771 735.646 727.614" stroke="black" stroke-width="14.6526"/>
<path d="M456.064 660.011C447.529 657.201 438.315 655.705 428.883 655.705C390.444 655.705 359.283 679.516 362.946 723.474C366.762 769.263 394.107 785.747 432.546 785.747C436.823 785.747 441.01 785.372 445.074 784.652C449.509 783.867 453.797 782.674 457.895 781.112" stroke="black" stroke-width="29.3053"/>
<path d="M459.727 780.385C451.376 783.837 442.19 785.747 432.546 785.747C394.107 785.747 366.762 769.263 362.946 723.474C359.283 679.516 390.444 655.705 428.883 655.705C440.376 655.705 451.546 657.926 461.559 662.041L459.727 780.385Z" fill="#F9C9B6"/>
<path d="M445.074 686.844C430.422 680.128 398.186 676.587 386.464 716.149" stroke="black" stroke-width="14.6526"/>
<path d="M406.611 688.674C414.548 695.39 429.689 716.148 426.759 745.453" stroke="black" stroke-width="14.6526"/>
<path d="M1185.73 1402.99H184.519C244.227 1295.51 329.152 1227.09 466.839 1195.7C525.498 1182.33 593.834 1175.66 674.01 1175.66C708.647 1175.66 735.601 1180.94 761.179 1187.91C770.654 1190.49 780.178 1193.39 789.922 1196.35C806.048 1201.25 822.775 1206.33 840.876 1210.49L841.388 1210.61L841.913 1210.65C1010.88 1224.59 1112.2 1299.64 1185.73 1402.99Z" fill="#F4D150" stroke="black" stroke-width="14.6526"/>
<path d="M424.668 1203.65L458.198 1131.86C458.999 1130.15 460.989 1129.33 462.773 1129.96C601.703 1179.14 728.092 1175.68 845.219 1143.07C846.694 1142.66 848.268 1143.2 849.172 1144.44L900.208 1214.23C901.611 1216.15 900.896 1218.86 898.684 1219.72C775.575 1268.06 544.572 1259.85 426.444 1208.49C424.57 1207.68 423.804 1205.5 424.668 1203.65Z" fill="white" stroke="black" stroke-width="14.6526"/>
</g>
<defs>
<clipPath id="clip0_176_20090">
<rect width="732.632" height="1172.21" fill="white" transform="translate(329.682 157.517)"/>
</clipPath>
</defs>
</svg>
