<svg width="48" height="48" viewBox="0 0 48 48" fill="none" xmlns="http://www.w3.org/2000/svg">
<path d="M40.6795 18.6398L12.6795 4.63977C11.5745 4.08979 10.3268 3.89399 9.10639 4.07907C7.88602 4.26415 6.75244 4.82111 5.86018 5.674C4.96793 6.52689 4.36042 7.63421 4.1205 8.84499C3.88058 10.0558 4.01992 11.3111 4.51952 12.4398L9.31952 23.1798C9.42843 23.4394 9.48452 23.7182 9.48452 23.9998C9.48452 24.2813 9.42843 24.5601 9.31952 24.8198L4.51952 35.5598C4.11292 36.4732 3.94103 37.4737 4.01947 38.4705C4.09792 39.4673 4.4242 40.4286 4.96868 41.2672C5.51316 42.1058 6.25857 42.795 7.13716 43.2722C8.01576 43.7494 8.99968 43.9995 9.99952 43.9998C10.936 43.9904 11.8585 43.7718 12.6995 43.3598L40.6995 29.3598C41.6927 28.8601 42.5276 28.0944 43.1109 27.1479C43.6942 26.2015 44.0032 25.1116 44.0032 23.9998C44.0032 22.888 43.6942 21.7981 43.1109 20.8516C42.5276 19.9052 41.6927 19.1394 40.6995 18.6398H40.6795ZM38.8995 25.7798L10.8995 39.7798C10.5318 39.9563 10.119 40.0162 9.71629 39.9515C9.3136 39.8867 8.94034 39.7004 8.64654 39.4175C8.35275 39.1346 8.15248 38.7686 8.07258 38.3686C7.99268 37.9687 8.03697 37.5538 8.19952 37.1798L12.9795 26.4398C13.0414 26.2964 13.0948 26.1494 13.1395 25.9998H26.9195C27.45 25.9998 27.9587 25.7891 28.3337 25.414C28.7088 25.0389 28.9195 24.5302 28.9195 23.9998C28.9195 23.4693 28.7088 22.9606 28.3337 22.5856C27.9587 22.2105 27.45 21.9998 26.9195 21.9998H13.1395C13.0948 21.8501 13.0414 21.7032 12.9795 21.5598L8.19952 10.8198C8.03697 10.4457 7.99268 10.0309 8.07258 9.63091C8.15248 9.23095 8.35275 8.86497 8.64654 8.58206C8.94034 8.29915 9.3136 8.11283 9.71629 8.04807C10.119 7.98332 10.5318 8.04323 10.8995 8.21977L38.8995 22.2198C39.2271 22.3876 39.5021 22.6426 39.694 22.9567C39.886 23.2707 39.9876 23.6317 39.9876 23.9998C39.9876 24.3679 39.886 24.7288 39.694 25.0429C39.5021 25.3569 39.2271 25.6119 38.8995 25.7798V25.7798Z" fill="#F7F7F7"/>
</svg>
